<svg xmlns="http://www.w3.org/2000/svg" id="artboard-svg" width="27" height="26" viewBox="0 0 27 26"><defs><style>.cls-1 { clip-path: url(#clip-Web_1920_1); } .cls-2 { fill: #f2f2f2; } .cls-3, .cls-4 { fill: #1a1a1a; } .cls-4 { font-size: 73px; } .cls-4, .cls-6 { font-family: Montserrat-Bold, Montserrat; font-weight: 700; } .cls-5, .cls-6 { fill: #fff; } .cls-6 { font-size: 23px; }</style><clipPath id="clip-Web_1920_1"><path d="M0 0h1920v1080H0z"/></clipPath></defs><g transform="translate(-883 -673)"><g id="Web_1920_1" class="cls-1" data-name="Web 1920 – 1"><g id="Group_3" data-name="Group 3" transform="translate(0 -25)"><g id="Group_2" data-name="Group 2" transform="translate(26 19)"><g id="Group_1" data-name="Group 1" transform="translate(857.13 675.992)"><path id="Icon_awesome-arrow-left" d="M13.536 24.068l-1.167 1.167a1.257 1.257 0 0 1-1.782 0L.367 15.02a1.257 1.257 0 0 1 0-1.782l10.22-10.22a1.257 1.257 0 0 1 1.782 0l1.167 1.167a1.263 1.263 0 0 1-.021 1.8L7.18 12.024h15.11a1.259 1.259 0 0 1 1.262 1.262v1.682a1.259 1.259 0 0 1-1.262 1.262H7.18l6.335 6.035a1.254 1.254 0 0 1 .021 1.803z" class="cls-5" data-name="Icon awesome-arrow-left" transform="translate(.004 .384)"/></g></g></g></g></g></svg>