<svg xmlns="http://www.w3.org/2000/svg" id="artboard-svg" width="308" height="181" viewBox="0 0 308 181"><defs><style>.cls-1 { clip-path: url(#clip-Web_1920_1); } .cls-2 { fill: #f2f2f2; } .cls-3, .cls-4 { fill: #1a1a1a; } .cls-4 { font-size: 73px; } .cls-4, .cls-6 { font-family: Montserrat-Bold, Montserrat; font-weight: 700; } .cls-5, .cls-6 { fill: #fff; } .cls-6 { font-size: 23px; }</style><clipPath id="clip-Web_1920_1"><path d="M0 0h1920v1080H0z"/></clipPath></defs><g transform="translate(-808 -301)"><g id="Web_1920_1" class="cls-1" data-name="Web 1920 – 1"><g id="layer1" transform="translate(771.456 184.448)"><path id="path3802" d="M79.87 118.1c-22.53.235-26.256 31.688-15.811 45.22-12.039 19.229-.949 43.064-5.505 64.157-3.6 16.595 8.4 35.337 26.618 32.918 16.7 1.182 29.106-15.257 24.245-31.167-.312-22.043 5.268-47.806-4.848-67.594 14.306-16.489 1.629-48.966-22.4-43.439a16.765 16.765 0 0 0-2.3-.1z" class="cls-2" transform="translate(44.231 .269)"/><path id="path3800" d="M90.544 117.569c-23.328-2.3-34.246 27.15-22.147 44.188-10.722 25.145-.4 52.231-4.806 78.212-7.146 7.141-24.69 5.662-25.267 19.854-7.787 20.557 15.6 41.387 35.59 32.637 32.421-6.717 47.746-44.026 40.462-73.743 1.094-19.355 2.684-39.889-4.023-58.222 11.321-16.2 2.136-43.266-19.81-42.926z" class="cls-2"/><path id="path4511" d="M87.683 146.936a29.229 29.229 0 0 1-7.447.752 24.582 24.582 0 0 1-7.447-.9 6.787 6.787 0 0 1-3.952-3.009 16.417 16.417 0 0 1-1.367-3.912q-.152-1.805-.152-5.266t.152-5.116a14.311 14.311 0 0 1 1.367-3.761 6.831 6.831 0 0 1 4.1-3.009 26.158 26.158 0 0 1 7.6-.9 23.948 23.948 0 0 1 7.3.9 6.209 6.209 0 0 1 3.952 3.009 8.427 8.427 0 0 1 1.367 3.611 29.761 29.761 0 0 1 .3 4.965v.9a29.761 29.761 0 0 1-.3 4.965 9.5 9.5 0 0 1-1.367 3.761 6.831 6.831 0 0 1-4.1 3.009zM72.94 159.123a26.159 26.159 0 0 1 7.6-.9 24.584 24.584 0 0 1 7.447.9 6.041 6.041 0 0 1 3.8 3.16 9.528 9.528 0 0 1 1.367 3.912 31.016 31.016 0 0 1 .3 5.116V233.3q0 17.6-12.311 28.136t-27.05 10.531a32.02 32.02 0 0 1-5.168-.3 9.713 9.713 0 0 1-3.8-1.354 6.167 6.167 0 0 1-3.04-3.912 25.407 25.407 0 0 1-.912-7.523q0-8.275 3.344-10.532 3.192-2.257 9.879-2.257a14.871 14.871 0 0 0 8.663-3.009q4.256-3.009 4.256-10.833v-61.99a27.345 27.345 0 0 1 .3-4.664 12.387 12.387 0 0 1 1.367-3.611 7.014 7.014 0 0 1 3.952-2.859z" class="cls-3" transform="translate(9.035 8.999)"/><path id="path4515" d="M145.572 117.808c-19.48-.516-24.531 23.779-21.7 38.119-35.061-5.294-62.286 36.782-50.827 68.443 7.837 25.166 37.137 42.141 62.46 32.255 16.225 9.378 43.5-.97 39.61-22.456-2.035-35.29 4.9-71.888-3.225-106.444-5.214-9.215-16.81-10.361-26.313-9.917zM122.516 206.4c3.491.92-3.364 3.711 0 0z" class="cls-2" transform="translate(70.632 .589)"/><path id="path4517" d="M151.632 129.523c-40.21-.345-66.909 52.179-42.447 84.379 21.258 33.106 78.362 29.883 93.854-7.143 17.6-35.025-11.728-80.731-51.407-77.236zm2.517 51.2c7.184.612-4.008 10.282-2.732 1.823a2.337 2.337 0 0 1 2.731-1.819z" class="cls-2" transform="translate(132.551 23.724)"/><path id="path3804" d="M141.464 121.76a25.911 25.911 0 0 1 7.6.912 6.1 6.1 0 0 1 3.952 3.192 10.816 10.816 0 0 1 1.367 4.1 31.645 31.645 0 0 1 .3 5.168v90.736a34.726 34.726 0 0 1-.3 5.32 10.822 10.822 0 0 1-1.367 3.952 6.838 6.838 0 0 1-4.1 3.04 26.566 26.566 0 0 1-7.751.912q-11.551 0-12.767-7.447-6.383 7.3-17.782 7.3-13.679 0-24.926-11.855a40 40 0 0 1-11.247-28.27q0-15.5 11.247-27.51 11.4-12.007 24.926-12.007 11.247 0 17.479 7.6v-31.92q0-3.5.152-5.168a14.188 14.188 0 0 1 1.367-3.952 6.669 6.669 0 0 1 4.1-3.192 26.567 26.567 0 0 1 7.751-.912zm-36.477 86.632a12.8 12.8 0 0 0 9.575 4.1 11.859 11.859 0 0 0 9.271-4.1 13.119 13.119 0 0 0 3.8-9.119 13.783 13.783 0 0 0-3.648-9.119 11.725 11.725 0 0 0-9.575-4.256 12.168 12.168 0 0 0-9.727 4.256 13.4 13.4 0 0 0-3.648 9.119 12.866 12.866 0 0 0 3.952 9.119z" class="cls-3" transform="translate(78.974 8.897)"/><path id="path3806" d="M145.513 133.381q16.719 0 29.333 11.855 12.615 11.7 12.615 29.941a39.843 39.843 0 0 1-6.535 22.494 41.615 41.615 0 0 1-15.959 14.439 42.906 42.906 0 0 1-19.15 4.56 42.217 42.217 0 0 1-19.606-4.864 44.639 44.639 0 0 1-15.959-14.591 39.012 39.012 0 0 1-6.383-21.886q0-18.238 12.767-30.093t28.877-11.855zm-9.879 52.892a16.351 16.351 0 0 0 9.879 3.648 16.574 16.574 0 0 0 10.031-3.8q5.016-3.8 5.016-11.247t-4.712-11.1a16.717 16.717 0 0 0-10.487-3.648 15.535 15.535 0 0 0-9.879 3.8q-4.712 3.8-4.712 11.1 0 7.447 4.864 11.247z" class="cls-3" transform="translate(140.903 32.061)"/><path id="path4513" d="M62.228 172.524q0-3.5.152-5.168a14.187 14.187 0 0 1 1.367-3.952 6.669 6.669 0 0 1 4.1-3.192 26.565 26.565 0 0 1 7.753-.912 22.94 22.94 0 0 1 6.383.76 10.28 10.28 0 0 1 3.952 1.824 5.961 5.961 0 0 1 1.976 3.192 9.922 9.922 0 0 1 .76 3.5q.152 1.368.152 4.256v53.2a34.723 34.723 0 0 1-.3 5.32 10.821 10.821 0 0 1-1.367 3.952 6.22 6.22 0 0 1-3.952 3.04 26.565 26.565 0 0 1-7.751.912 25.909 25.909 0 0 1-7.6-.912 6.667 6.667 0 0 1-4.1-3.192 16.7 16.7 0 0 1-1.367-3.952q-.152-1.672-.152-5.32zm13.223-24.166a25.91 25.91 0 0 1-7.6-.912 6.667 6.667 0 0 1-4.1-3.192 16.7 16.7 0 0 1-1.367-3.952q-.152-1.824-.152-5.32t.152-5.168a14.187 14.187 0 0 1 1.367-3.952 6.669 6.669 0 0 1 4.1-3.192 26.567 26.567 0 0 1 7.751-.912 25.912 25.912 0 0 1 7.6.912 6.1 6.1 0 0 1 3.952 3.192 10.816 10.816 0 0 1 1.367 4.1 31.641 31.641 0 0 1 .3 5.168 34.722 34.722 0 0 1-.3 5.32 10.821 10.821 0 0 1-1.367 3.952 6.22 6.22 0 0 1-3.952 3.04 26.565 26.565 0 0 1-7.751.912z" class="cls-3" transform="translate(53.177 8.898)"/></g></g></g></svg>