<svg xmlns="http://www.w3.org/2000/svg" id="artboard-svg" width="54" height="54" viewBox="0 0 54 54"><defs><style>.cls-1 { clip-path: url(#clip-Mobile_Page_1); } .cls-2 { fill: #ffeb3b; } .cls-3 { fill: none; stroke: #eee; stroke-linecap: round; stroke-linejoin: round; stroke-width: 3px; } .cls-12, .cls-4, .cls-5 { fill: #fff; } .cls-4, .cls-5 { font-size: 20px; } .cls-4 { font-family: SegoeUI, Segoe UI; } .cls-5 { font-family: Montserrat-Bold, Montserrat; font-weight: 700; } .cls-6 { fill: #bceafb; } .cls-7 { fill: #e1f5fb; } .cls-8 { fill: #f03ca7; } .cls-9 { fill: #ef75c1; } .cls-10 { fill: #ef54b2; } .cls-11 { fill: #74d2ea; } .cls-13 { fill: #3d409f; } .cls-14 { fill: #7b76c3; } .cls-15 { fill: #4d52ad; } .cls-16 { fill: #a59ed6; } .cls-17 { fill: #f7ec35; } .cls-18 { fill: #fbc8b6; } .cls-19 { fill: #eaf3fb; } .cls-20 { fill: #dcd8f0; } .cls-21 { fill: #1c395a; } .cls-22 { fill: #5156b0; } .cls-23 { fill: #2f3693; } .cls-24 { fill: #c9edf9; } .cls-25 { fill: #fab8a9; } .cls-26 { fill: #59c9ea; } .cls-27 { fill: #152e45; } .cls-28 { fill: #e2eaf4; } .cls-29 { fill: #c4bde4; } .cls-30 { fill: #aecdd4; } .cls-31 { fill: #bbd3e7; } .cls-32 { fill: #deecf9; } .cls-33 { fill: #d5d0ec; } .cls-34 { fill: #534daa; } .cls-35 { fill: #eee; font-size: 10px; font-family: Montserrat-Regular, Montserrat; } .cls-36 { fill: url(#linear-gradient); } .cls-37 { filter: url(#Icon_ionic-ios-arrow-dropdown-circle); }</style><linearGradient id="linear-gradient" x1=".5" x2=".5" y2="1" gradientUnits="objectBoundingBox"><stop offset="0" stop-color="#8293ff"/><stop offset="1" stop-color="#566cff"/></linearGradient><filter id="Icon_ionic-ios-arrow-dropdown-circle" width="68.414" height="68.414" x="153.119" y="644.545" filterUnits="userSpaceOnUse"><feOffset dy="3"/><feGaussianBlur result="blur" stdDeviation="3"/><feFlood flood-opacity=".161"/><feComposite in2="blur" operator="in"/><feComposite in="SourceGraphic"/></filter><clipPath id="clip-Mobile_Page_1"><path d="M0 0h375v812H0z"/></clipPath></defs><g transform="translate(-162 -650)"><g id="Mobile_Page_1" class="cls-1" data-name="Mobile Page – 1"><g class="cls-37"><path id="Icon_ionic-ios-arrow-dropdown-circle-2" d="M3.375 28.582A25.207 25.207 0 1 0 28.582 3.375 25.2 25.2 0 0 0 3.375 28.582zm35.036-5.26a2.348 2.348 0 0 1 3.308 0 2.31 2.31 0 0 1 .679 1.648 2.351 2.351 0 0 1-.691 1.66L30.279 38.023a2.336 2.336 0 0 1-3.224-.073l-11.6-11.561a2.339 2.339 0 1 1 3.308-3.308l9.828 9.925z" class="cls-2" data-name="Icon ionic-ios-arrow-dropdown-circle" transform="translate(158.74 647.17)"/></g></g></g></svg>