<svg xmlns="http://www.w3.org/2000/svg" id="artboard-svg" width="20" height="20" viewBox="0 0 20 20" style="width:562.5px"><defs><style>.cls-1 { clip-path: url(#clip-Success_Message_-_1); } .cls-2 { fill: url(#linear-gradient); } .cls-3, .cls-6 { fill: #eee; } .cls-4, .cls-5 { fill: #fff; } .cls-5 { font-size: 20px; } .cls-5, .cls-9 { font-family: Montserrat-Bold, Montserrat; font-weight: 700; } .cls-6 { font-size: 10px; font-family: Montserrat-Regular, Montserrat; } .cls-7 { fill: #ffeb3b; } .cls-8, .cls-9 { fill: #212121; } .cls-9 { font-size: 13px; } .cls-10 { filter: url(#Rectangle_11); } .cls-11 { filter: url(#Icon_awesome-check-circle); }</style><linearGradient id="linear-gradient" x1=".5" x2=".5" y2="1" gradientUnits="objectBoundingBox"><stop offset="0" stop-color="#8293ff"/><stop offset=".502" stop-color="#5e74ff"/><stop offset="1" stop-color="#414a80"/></linearGradient><filter id="Icon_awesome-check-circle" width="106.284" height="106.284" x="134.295" y="196.295" filterUnits="userSpaceOnUse"><feOffset dy="3"/><feGaussianBlur result="blur" stdDeviation="3"/><feFlood flood-opacity=".161"/><feComposite in2="blur" operator="in"/><feComposite in="SourceGraphic"/></filter><filter id="Rectangle_11" width="174" height="59" x="101" y="525" filterUnits="userSpaceOnUse"><feOffset dy="3"/><feGaussianBlur result="blur-2" stdDeviation="3"/><feFlood flood-opacity=".161"/><feComposite in2="blur-2" operator="in"/><feComposite in="SourceGraphic"/></filter><clipPath id="clip-Success_Message_-_1"><path d="M0 0h375v812H0z"/></clipPath></defs><g transform="translate(-145 -543)"><g id="Success_Message_-_1" class="cls-1" data-name="Success Message - 1"><g id="Group_15" data-name="Group 15" transform="translate(-1 76)"><path id="Icon_awesome-arrow-left" d="M9.682 17.969l-.835.835a.9.9 0 0 1-1.275 0L.262 11.5a.9.9 0 0 1 0-1.275l7.31-7.31a.9.9 0 0 1 1.275 0l.835.835a.9.9 0 0 1-.015 1.29L5.135 9.354h10.808a.9.9 0 0 1 .9.9v1.2a.9.9 0 0 1-.9.9H5.135l4.532 4.326a.9.9 0 0 1 .015 1.289z" class="cls-8" data-name="Icon awesome-arrow-left" transform="translate(146.081 464.642)"/></g></g></g></svg>