<svg xmlns="http://www.w3.org/2000/svg" id="artboard-svg" width="303" height="252" viewBox="0 0 303 252" style="width:562.5px"><defs><style>.cls-1 { clip-path: url(#clip-Mobile_Page_-_3); } .cls-2 { fill: #cfe6f4; } .cls-3 { fill: #3a65b9; } .cls-4 { fill: #3751ab; } .cls-5 { fill: #3f77c4; } .cls-6 { fill: #f7941d; } .cls-7 { fill: #f36d21; } .cls-8 { fill: #f0b93a; } .cls-9 { fill: #f49477; } .cls-10, .cls-19 { fill: #fff; } .cls-11 { fill: #343054; } .cls-12 { fill: #1e1d33; } .cls-13 { fill: #4c4685; } .cls-14 { fill: #252334; } .cls-15 { fill: #4e4e8a; } .cls-16 { fill: #f36156; } .cls-17 { fill: #f04147; } .cls-18 { fill: #1c1a2c; } .cls-19 { font-size: 30px; font-family: Montserrat-Bold, Montserrat; font-weight: 700; } .cls-20, .cls-21 { fill: #eee; } .cls-21 { font-size: 10px; } .cls-21, .cls-23, .cls-26 { font-family: Montserrat-Regular, Montserrat; } .cls-22 { fill: #566cff; } .cls-23, .cls-25, .cls-26 { fill: #9e9e9e; } .cls-23 { font-size: 12px; } .cls-24 { fill: none; stroke: #bdbdbd; } .cls-26 { font-size: 9px; } .cls-27 { filter: url(#Ellipse_1); } .cls-28 { filter: url(#Rectangle_10); }</style><filter id="Rectangle_10" width="318" height="370" x="29" y="400" filterUnits="userSpaceOnUse"><feOffset dy="3"/><feGaussianBlur result="blur" stdDeviation="3"/><feFlood flood-opacity=".161"/><feComposite in2="blur" operator="in"/><feComposite in="SourceGraphic"/></filter><filter id="Ellipse_1" width="63" height="63" x="156" y="694" filterUnits="userSpaceOnUse"><feOffset dy="3"/><feGaussianBlur result="blur-2" stdDeviation="3"/><feFlood flood-opacity=".161"/><feComposite in2="blur-2" operator="in"/><feComposite in="SourceGraphic"/></filter><clipPath id="clip-Mobile_Page_-_3"><path d="M0 0h375v812H0z"/></clipPath></defs><g transform="translate(-37 -81)"><g id="Mobile_Page_-_3" class="cls-1" data-name="Mobile Page - 3"><g id="g10" transform="translate(7.962 656.364)"><path id="path16" d="M298.748-300.239c-14.939-11.3-40.491-39.332-6.843-83.341 41.61-54.42-8.222-76.748-55.988-74.42-38.428 1.875-81.676-46.21-124.817-37.616-57.262 11.407-20.081 60.487-58.907 86.93-33.111 22.551-18.9 91.263 24.2 108.445h222.355" class="cls-2" transform="translate(-2.35 -38.216)"/><path id="path18" d="M605.925-308.5c-.23-8.07-7.747-11.2-12.765-5.358a25.186 25.186 0 0 0-6.137 14.588c-1.149 14.388 11.44 10.22 16.143 2.516a22 22 0 0 0 2.758-11.746" class="cls-2" transform="translate(-282.648 -130.535)"/><path id="path20" d="M333.23-500.573c-7.932-1.5-12.6 5.174-7.963 11.325a25.188 25.188 0 0 0 12.94 9.113c13.81 4.2 12.428-8.99 5.908-15.232a22.01 22.01 0 0 0-10.885-5.206" class="cls-2" transform="translate(-149.074 -37.972)"/><path id="path22" d="M52.371-361.218c3.174-7.424-2.339-13.417-9.344-10.215a25.186 25.186 0 0 0-11.686 10.673c-7.074 12.582 6.1 14.072 13.6 9.05a22 22 0 0 0 7.428-9.508" class="cls-2" transform="translate(0 -102.552)"/><path id="path24" d="M330.022-101.3c0 4.944-61.161 8.951-136.607 8.951S56.808-96.355 56.808-101.3s61.161-8.95 136.607-8.95 136.607 4.008 136.607 8.95" class="cls-2" transform="translate(-13.996 -234.957)"/><path id="path26" d="M561.884-259.8c-8.324 8.322.961 9.027-5.147 15.313-5.567 5.728-13.783.152-13.236 14.143.119 3.061-2.108 5.332-5.233 6.495A11.906 11.906 0 0 1 525-227.224q-.379-.425-.716-.889a12.13 12.13 0 0 1-1.467-11.868c1.414-3.5 3.917-6.937 8.354-8.309 10.408-3.217 4.631-17 13.428-17.607 10.609-.73 10.99-4.622 18.519-9.868 7.982-5.561 10.05 4.686-1.233 15.963" class="cls-3" transform="translate(-249.523 -150.331)"/><path id="path28" d="M560.63-251.866c-.232.24-19.535 20.141-33.154 37.123q-.379-.425-.716-.889c13.656-16.992 32.838-36.771 33.071-37.011a.558.558 0 0 1 .788-.01.556.556 0 0 1 .01.787" class="cls-4" transform="translate(-252.001 -162.815)"/><path id="path30" d="M547.4-206.1c-13.042 7.678-1.711 11.546-11.337 17.4-8.775 5.338-17.207-4.248-21.032 13.343-.836 3.848-4.341 5.957-8.6 6.4a15.311 15.311 0 0 1-15.433-8.473 14.149 14.149 0 0 1-.6-1.336 15.6 15.6 0 0 1 2-15.245c2.886-3.9 7.11-7.374 13.074-7.652 13.992-.652 11.24-19.673 22.386-17.593 13.442 2.508 15.168-2.213 26.23-6.318 11.726-4.353 11 9.069-6.675 19.473" class="cls-5" transform="translate(-232.902 -175.809)"/><path id="path32" d="M545.4-200.38c-.367.223-30.8 18.78-53.225 35.533a14.149 14.149 0 0 1-.6-1.336c22.471-16.754 52.716-35.2 53.085-35.42a.717.717 0 0 1 .984.24.718.718 0 0 1-.24.984" class="cls-3" transform="translate(-234.085 -188.388)"/><path id="path34" d="M86.824-454.376c4.475 10.887-4.365 7.96-1.151 16.113 2.93 7.431 12.66 5.452 6.764 18.152-1.29 2.778-.109 5.732 2.326 8.009a11.908 11.908 0 0 0 13.545 2q.513-.246 1-.544a12.129 12.129 0 0 0 5.927-10.385c.043-3.772-.941-7.911-4.506-10.887-8.365-6.98 2.279-17.473-5.606-21.422-9.509-4.763-8.36-8.5-13.287-16.242-5.222-8.207-11.079.452-5.014 15.206" class="cls-3" transform="translate(-27.967 -51.73)"/><path id="path36" d="M100.046-441.719c.122.311 10.265 26.114 16.288 47.032q.513-.246 1-.544c-6.054-20.942-16.132-46.585-16.255-46.9a.557.557 0 0 0-.723-.313.556.556 0 0 0-.313.722" class="cls-4" transform="translate(-35.992 -67.047)"/><path id="path38" d="M55.18-401.394c9.438 11.831-2.527 11.4 4.371 20.3 6.288 8.12 17.589 2.18 14.875 19.977-.594 3.894 1.925 7.116 5.75 9.052a15.313 15.313 0 0 0 17.441-2.4q.544-.49 1.042-1.033a15.591 15.591 0 0 0 3.583-14.951c-1.3-4.672-4.006-9.428-9.476-11.819-12.835-5.609-3.468-22.39-14.621-24.43-13.45-2.461-13.376-7.487-22.241-15.275-9.4-8.255-13.515 4.54-.724 20.574" class="cls-5" transform="translate(-9.066 -75.987)"/><path id="path40" d="M74.431-389.311c.263.34 22.059 28.547 37.014 52.206q.544-.49 1.042-1.033c-15-23.676-36.66-51.71-36.924-52.05a.716.716 0 0 0-1-.128.717.717 0 0 0-.127 1.005" class="cls-3" transform="translate(-22.893 -93.266)"/><path id="path42" d="M187.221-443.942c3.8-2.6 13.324 3.819 18.3 11.616l-4.414-12.374a27.107 27.107 0 0 0-8.771-4.883c-6.8-2.41-13.619-6.187-9.81-8.795 3.569-2.445 12.18 3.067 17.341 10.2l-5.673-15.891a17.85 17.85 0 0 0-4.957-2.611c-4.286-1.52-8.583-3.9-6.182-5.544 2.083-1.426 6.891 1.446 10.174 5.451l-1.839-5.15a25.965 25.965 0 0 0-3.921-5.585c-4.367-4.518-7.669-9.6-4.3-10.337s8.889 8.117 9.756 16.116l.946 2.65c-.735-5.818 1.357-12.863 4.274-13.112 2.9-.248 1.081 4.314-1.275 8.2a16.231 16.231 0 0 0-2.421 6.527l4.468 12.518c-1.137-9.217 2.176-20.333 6.792-20.727 4.6-.393 1.715 6.846-2.023 13.019a25.84 25.84 0 0 0-3.838 10.317l5.359 15.011c-.95-9.108 2.308-20.163 6.852-20.2 3.5-.027 2.431 4.919-1.754 11.9a29.677 29.677 0 0 0-4.044 11.251l2.524 7.07a2.321 2.321 0 0 1-1.3.463l-1-2.813a25.949 25.949 0 0 0-9.451-5.5c-6.8-2.411-13.619-6.187-9.81-8.8" class="cls-5" transform="translate(-77.09 -44.109)"/><path id="path44" d="M83.914-207.479c-3.9 2.454-1.793 13.744 3.383 21.413l-9.6-8.972a27.1 27.1 0 0 1-.993-9.989c.492-7.2-.263-14.956-4.171-12.5-3.662 2.3-2.028 12.4 2.468 19.968l-12.324-11.522a17.866 17.866 0 0 1-.426-5.586c.31-4.538-.166-9.426-2.628-7.877-2.137 1.345-1.412 6.9.957 11.5l-3.995-3.735a25.938 25.938 0 0 1-3.566-5.819c-2.41-5.8-5.761-10.853-7.776-8.055s3.915 11.383 10.91 15.36l2.056 1.921c-5.047-2.987-12.342-3.868-13.731-1.291-1.38 2.561 3.53 2.707 8.036 2.092a16.229 16.229 0 0 1 6.952.373l9.71 9.076c-8.006-4.707-19.522-6.086-21.719-2.007-2.19 4.064 5.6 4.294 12.751 3.319a25.838 25.838 0 0 1 10.992.58l11.644 10.884c-7.98-4.493-19.418-5.9-21.258-1.741-1.418 3.2 3.547 4.185 11.618 3.122a29.7 29.7 0 0 1 11.932.762l5.485 5.127a2.325 2.325 0 0 0 .942-1.008l-2.183-2.041a25.946 25.946 0 0 1-1.293-10.86c.491-7.2-.263-14.956-4.171-12.5" class="cls-5" transform="translate(-7.598 -174.266)"/><path id="path46" d="M310.162-390.808v143.8H101.989v-143.8h208.173" class="cls-6" transform="translate(-37.001 -92.104)"/><path id="path48" d="M310.155-390.8v9.218L206.076-289.33 101.99-381.579v-9.221l104.079 92.566L310.155-390.8" class="cls-7" transform="translate(-37.002 -92.807)"/><path id="path50" d="M186.021-244.418l-78 69.38h-6.029v-3.662l79.548-70.753 4.484 5.039" class="cls-7" transform="translate(-37.001 -164.076)"/><path id="path52" d="M438.376-178.217v3.179H431.8l-78-69.38 4.484-5.039 80.093 71.24" class="cls-7" transform="translate(-164.261 -164.076)"/><path id="path54" d="M101.977-390.81l104.086 92.572L310.15-390.81z" class="cls-8" transform="translate(-36.995 -92.869)"/><path id="path56" d="M403.785-417.195l2.656 5.684-5.615.087-2.167-5.172 5.126-.6" class="cls-9" transform="translate(-187.258 -79.932)"/><path id="path58" d="M405.159-407.88s1.152-1.55 2.069-1.483 7.982 5.684 10.4 6.148 2.2 2.93 1.183 2.93c-2.918 0-19.019.027-19.019.027s-.486-5.76.13-7.478 3.34.262 5.234-.145" class="cls-5" transform="translate(-187.707 -83.881)"/><path id="path60" d="M418.416-401.059a.338.338 0 0 1-.265-.03.339.339 0 0 1-.126-.463 5.214 5.214 0 0 1 1.765-1.84 2.339 2.339 0 0 1 2.4.112.339.339 0 0 1 .069.474.338.338 0 0 1-.474.069 1.671 1.671 0 0 0-1.69-.05 4.618 4.618 0 0 0-1.482 1.571.34.34 0 0 1-.2.156" class="cls-10" transform="translate(-197.063 -86.776)"/><path id="path62" d="M416.357-403.005a.338.338 0 0 1-.265-.03.339.339 0 0 1-.127-.463 5.236 5.236 0 0 1 1.766-1.84 2.336 2.336 0 0 1 2.4.112.338.338 0 0 1 .07.474.339.339 0 0 1-.474.07 1.667 1.667 0 0 0-1.69-.05 4.59 4.59 0 0 0-1.481 1.57.341.341 0 0 1-.2.157" class="cls-10" transform="translate(-196.019 -85.793)"/><path id="path64" d="M421.208-399.481a.338.338 0 0 1-.265-.03.34.34 0 0 1-.128-.462 5.224 5.224 0 0 1 1.766-1.84 2.335 2.335 0 0 1 2.4.112.338.338 0 0 1 .069.474.338.338 0 0 1-.474.07 1.67 1.67 0 0 0-1.69-.05 4.586 4.586 0 0 0-1.482 1.57.339.339 0 0 1-.2.157" class="cls-10" transform="translate(-198.479 -87.574)"/><path id="path66" d="M364.96-440.98l-2.487.811-1.383.082-2.376.139c-3.141-2.484-11.613-9.959-13.263-14.366 0 0-10.9 25.348-25.971 25.348-.978 0 1.606-12.613 4.063-15.236 0 0 13.891-25.889 22.9-23.142 4.033 1.232 8.112 7.1 18.521 26.363" class="cls-11" transform="translate(-146.911 -54.421)"/><path id="path68" d="M367.778-430.137l-1.383.082c-9.245-7-13.527-12.928-15.5-16.725a.29.29 0 0 0-.253-.173.151.151 0 0 0-.141.113c-4.427 10.421-9.739 16.674-13.417 20.088a26.517 26.517 0 0 1-7.06 5l-.17-.414-.169-.412a26.229 26.229 0 0 0 6.836-4.864c3.6-3.351 8.807-9.5 13.159-19.744a1.036 1.036 0 0 1 .928-.654 1.177 1.177 0 0 1 1.08.653c1.988 3.829 6.391 9.879 16.089 17.055" class="cls-12" transform="translate(-152.212 -64.397)"/><path id="path70" d="M394.555-416.806a8.021 8.021 0 0 0 1.725 2.29s5.323-.246 7.912-1.546l-1.162-2.706a39.871 39.871 0 0 1-8.475 1.963" class="cls-13" transform="translate(-185.172 -79.141)"/><path id="path72" d="M366.9-504.091a73.9 73.9 0 0 1-18.769 5.271h-.01c-.066 0-1.278.1-1.744.082a13.533 13.533 0 0 1-5.167-1.251 24.514 24.514 0 0 1-5.316-4.218c-2.508-2.419-5.152-5.323-6.981-7.4-1.423-1.611-2.353-2.722-2.353-2.722 1.262-1.878 4.058-3.586 6.491-4.5 0 0 5.077 8.455 12.769 12.606.418.228.846.439 1.279.635 1.753-.284 6.494-.5 8.55-.647a82.548 82.548 0 0 0 10.122-1.363l1.128 3.5" class="cls-3" transform="translate(-150.623 -28.786)"/><path id="path74" d="M406.062-502.949s1.054-2.663 2.488-3.423 5.515-3.435 6.386-2.635.691 4.645-2.968 7.858a7.312 7.312 0 0 1-4.679 1.96l-1.228-3.761" class="cls-9" transform="translate(-191.007 -33.712)"/><path id="path76" d="M413.219-504.967l-6.024 5.628a.876.876 0 0 1-.915.139l-3.692-1.785a.418.418 0 0 1-.222-.226l-.008-.029-.181-.617.979-.372 9.478-3.6.514-.194.192.652.015.044v.016a.377.377 0 0 1-.138.344" class="cls-12" transform="translate(-189.032 -35.306)"/><path id="path78" d="M413.649-507.309l-9.478 3.6 5.361-5.008a.878.878 0 0 1 .913-.139l3.2 1.548" class="cls-14" transform="translate(-190.048 -33.827)"/><path id="path80" d="M406.081-501.954l-3.694-1.786a.357.357 0 0 1-.095-.626l6.024-5.629a.88.88 0 0 1 .914-.137l3.694 1.786a.358.358 0 0 1 .1.626l-6.025 5.628a.88.88 0 0 1-.913.138" class="cls-11" transform="translate(-189.017 -33.178)"/><path id="path82" d="M408.192-502.223a.778.778 0 0 1-.334-.071L405-503.677a.357.357 0 0 1-.1-.626l4.685-4.377a.867.867 0 0 1 .579-.209.773.773 0 0 1 .335.071l2.861 1.383a.357.357 0 0 1 .095.626l-4.685 4.378a.864.864 0 0 1-.578.209" class="cls-15" transform="translate(-190.346 -33.847)"/><path id="path84" d="M424.956-504.589v-.016z" class="cls-14" transform="translate(-200.61 -36.029)"/><path id="path86" d="M409.442-506.249s.858.133.946.872-.711.444-1.224.282a1.252 1.252 0 0 0-1.046.084c-.224.264-.186-1.456 1.325-1.238" class="cls-9" transform="translate(-192.017 -35.181)"/><path id="path88" d="M418.736-501.9a33.709 33.709 0 0 1 2.379-3.422c.687-.8 1.038.363.568 1.178s-1.4 2.473-2.947 2.244" class="cls-9" transform="translate(-197.45 -35.526)"/><path id="path90" d="M287.639-470.945l-2.984-19.238-.177-1.141.02-.859.666-27.255 7.561-2.556.405-.137 1.7-.575 1.346-.454 7.983 1.1 1.3.179.457.063 5.712.786c.053 18.068-1.681 21.971 1.657 36.669 1.681 5.544-4.485 25.177-25.645 13.42" class="cls-5" transform="translate(-129.324 -26.58)"/><path id="path92" d="M299.188-443.326c5.978-1.669 10.34-5.8 12.946-8.963a34.036 34.036 0 0 0 4.266-6.537.3.3 0 0 0-.147-.4.3.3 0 0 0-.4.146 33.383 33.383 0 0 1-4.194 6.42c-2.55 3.1-6.813 7.129-12.636 8.755a.3.3 0 0 0-.207.368.3.3 0 0 0 .366.208" class="cls-3" transform="translate(-136.613 -58.659)"/><path id="path94" d="M311.7-432.913c5.194-1.426 9.562-5.807 9.76-6.008a.3.3 0 0 0 0-.423.3.3 0 0 0-.423 0c-.051.052-5.19 5.205-10.748 6.129a.3.3 0 0 0-.245.344.3.3 0 0 0 .344.246 13.107 13.107 0 0 0 1.315-.291" class="cls-3" transform="translate(-142.318 -68.693)"/><path id="path96" d="M304.21-511.235c5.191-1.439 9.547-5.832 9.745-6.033a.3.3 0 0 0 0-.422.3.3 0 0 0-.423 0c-.051.052-5.177 5.219-10.732 6.156a.3.3 0 0 0-.245.344.3.3 0 0 0 .344.245 13.111 13.111 0 0 0 1.315-.295" class="cls-3" transform="translate(-138.52 -29.322)"/><path id="path98" d="M393.874-315.335l2.09 4.653-4.287 1.844-2.493-4.806 4.69-1.691" class="cls-9" transform="translate(-182.457 -131.405)"/><path id="path100" d="M396.169-308.352s.439-1.881 1.306-2.186 9.587 2.024 11.993 1.482 2.685 1.28 2.643 2.293-17.842 7.4-17.842 7.4-2.717-4.942-2.839-6.763 3.167-1.094 4.74-2.222" class="cls-5" transform="translate(-183.554 -133.795)"/><path id="path102" d="M411-305.625a.34.34 0 0 1-.255.079.34.34 0 0 1-.3-.374 5.217 5.217 0 0 1 .884-2.391 2.338 2.338 0 0 1 2.244-.856.339.339 0 0 1 .254.406.338.338 0 0 1-.407.254 1.669 1.669 0 0 0-1.57.629 4.617 4.617 0 0 0-.731 2.031.335.335 0 0 1-.118.221" class="cls-10" transform="translate(-193.243 -134.515)"/><path id="path104" d="M408.332-306.586a.341.341 0 0 1-.255.078.339.339 0 0 1-.3-.373 5.224 5.224 0 0 1 .884-2.393 2.333 2.333 0 0 1 2.244-.855.338.338 0 0 1 .253.407.337.337 0 0 1-.406.253 1.671 1.671 0 0 0-1.57.629 4.6 4.6 0 0 0-.731 2.031.338.338 0 0 1-.118.223" class="cls-10" transform="translate(-191.891 -134.029)"/><path id="path106" d="M414.186-305.293a.336.336 0 0 1-.255.079.34.34 0 0 1-.3-.374 5.221 5.221 0 0 1 .884-2.392 2.336 2.336 0 0 1 2.245-.856.339.339 0 0 1 .254.406.339.339 0 0 1-.407.254 1.669 1.669 0 0 0-1.57.629 4.587 4.587 0 0 0-.73 2.031.339.339 0 0 1-.119.222" class="cls-10" transform="translate(-194.86 -134.683)"/><path id="path108" d="M343.6-366.661a12.228 12.228 0 0 1-3.311 1.94 25.27 25.27 0 0 1-2.245.892s-10.169-18.743-14.071-32.334c0 0-34.42-4.25-35.612-16.3a6.469 6.469 0 0 1-.005-1.239 8.83 8.83 0 0 1 1.243-3.647c.785-1.353 12.565-.034 18.93 1.752 0 0 17.254 6.722 23.634 13.646 3.229 3.5 11.437 35.294 11.437 35.294" class="cls-11" transform="translate(-131.21 -79.42)"/><path id="path110" d="M340.289-360.361c-.272.122-.549.241-.824.355-5.143-8.511-12.284-28.4-13.875-33.169a.944.944 0 0 0-.723-.628c-16.723-3.144-26.358-7.53-31.5-10.656a33.447 33.447 0 0 1-5.008-3.649 6.47 6.47 0 0 1-.005-1.239 30.513 30.513 0 0 0 5.579 4.186c5.073 3.067 14.585 7.376 31.1 10.481a1.839 1.839 0 0 1 1.4 1.223c1.592 4.777 8.761 24.751 13.852 33.1" class="cls-12" transform="translate(-131.219 -83.758)"/><path id="path112" d="M385.876-315.035l1.624 2.6a14.057 14.057 0 0 0 6.78-3.465l-1.011-2.32a73.085 73.085 0 0 1-7.393 3.188" class="cls-13" transform="translate(-180.775 -129.949)"/><path id="path114" d="M260.951-402.878s2.343 3.176 2.149 4.819-2.314 4.741-4.01 4.89 1.948-3.98 1.088-3.846c-1.041.161-8.066 5.925-9.548 5.925s1.744-2.679 3-3.356a23.439 23.439 0 0 0-4.1 2.26c-.773.774-1.335-.885 2.533-3.238 0 0-3.548 2.013-3.789 2.046-.789.1 1.462-2.534 3.4-3.489 0 0-2.844 1.385-3.133 1.391-.4.009.458-.922 2.568-2.092 1.9-1.052 5.01-5.885 5.01-5.885l4.828.575" class="cls-9" transform="translate(-110.919 -86.859)"/><path id="path116" d="M274.955-515.575s-7.884 15.143-9.679 30.982l-.846 24.051s.811 1.714 4.828.575l3.886-24.048 2.978-11s1.353-13.541-1.166-20.557" class="cls-3" transform="translate(-119.195 -30.443)"/><path id="path118" d="M317.27-559.545a8.71 8.71 0 0 1-10.095 7.062 8.712 8.712 0 0 1-7.062-10.095 8.712 8.712 0 0 1 10.1-7.062 8.711 8.711 0 0 1 7.061 10.095" class="cls-11" transform="translate(-137.206 -2.846)"/><path id="path120" d="M317.558-563.954a2.884 2.884 0 0 0 2.645-2.656c.082-2.055-2.505-1.171-2.02-2.7s1.2-2.876-.762-3.627c-1.715-.657-1.959.554-3.978-1.622-2.385-2.571-5.353 1.882-7.836 1.593-3.662-.427-4.482 1.542-5.128 3.118a3.111 3.111 0 0 0 .546 2.973l16.534 2.923" class="cls-11" transform="translate(-137.357)"/><path id="path122" d="M330.034-545.254s1.679-1.571 2.425.105-1.465 5.849-3.748 4.332l1.323-4.437" class="cls-16" transform="translate(-151.802 -14.99)"/><path id="path124" d="M330.122-540.336a.211.211 0 0 0 .228-.117 3.284 3.284 0 0 1 2.153-1.605.212.212 0 0 0 .169-.248.212.212 0 0 0-.247-.17 3.659 3.659 0 0 0-2.457 1.838.212.212 0 0 0 .1.283l.055.018" class="cls-17" transform="translate(-152.431 -16.744)"/><path id="path126" d="M332.662-540.141l.118-.012a.213.213 0 0 0 .114-.278 1.944 1.944 0 0 0-.673-.772.213.213 0 0 0-.3.057.212.212 0 0 0 .057.294 1.526 1.526 0 0 1 .519.584.213.213 0 0 0 .16.126" class="cls-17" transform="translate(-153.421 -17.375)"/><path id="path128" d="M307.538-531.236l-.777 4.4s1.467 2.259 3.214 2.725 3.2-1.447 3.2-1.447l.748-4.232-6.381-1.447" class="cls-9" transform="translate(-140.666 -22.468)"/><path id="path130" d="M307.987-531.236l-.345 1.952c.957 1.532 3.014 2.236 6.225 2.327l.5-2.832-6.381-1.447" class="cls-16" transform="translate(-141.114 -22.468)"/><path id="path132" d="M302.534-560.374a43.46 43.46 0 0 0-.412 5.66c.007.44.028.859.066 1.236.353 3.406 1.686 9.376 8.58 8.206 3.045-.516 4.936-3.471 6.1-6.611a31.931 31.931 0 0 0 1.5-5.944 4.665 4.665 0 0 0-1.64-4.321c-3.444-2.846-7.626-2.751-10.466-2.2a4.65 4.65 0 0 0-3.727 3.974" class="cls-9" transform="translate(-138.294 -5.452)"/><path id="path134" d="M324.538-545.354c-.083.47.092.893.39.946s.608-.285.691-.755-.092-.893-.39-.946-.609.285-.691.755" class="cls-11" transform="translate(-149.682 -14.893)"/><path id="path136" d="M311.636-547.634c-.083.469.092.893.391.946s.608-.285.69-.755-.092-.893-.39-.946-.608.285-.691.755" class="cls-11" transform="translate(-143.14 -13.732)"/><path id="path138" d="M326.077-550.031a6.15 6.15 0 0 0-3.959-.845v.83a7.423 7.423 0 0 1 3.668.923c.18-.351.368-.5.289-.908" class="cls-11" transform="translate(-148.459 -12.421)"/><path id="path140" d="M309.074-552.887a6.152 6.152 0 0 1 4.009.563l-.287.779a7.42 7.42 0 0 0-3.762-.39c-.049-.391-.173-.6.04-.952" class="cls-11" transform="translate(-141.784 -11.386)"/><path id="path142" d="M316.392-542.993a2.265 2.265 0 0 1-.728-.293.212.212 0 0 1-.066-.293.212.212 0 0 1 .293-.067c.175.11.607.31.825.228a.232.232 0 0 0 .137-.177 32.359 32.359 0 0 0 .44-3.224.211.211 0 0 1 .23-.192.211.211 0 0 1 .192.231 31.6 31.6 0 0 1-.453 3.3.648.648 0 0 1-.395.457.9.9 0 0 1-.474.028" class="cls-16" transform="translate(-145.14 -14.436)"/><path id="path144" d="M316.658-536.243a2.733 2.733 0 0 1-3.083 1.972 2.633 2.633 0 0 1-2.209-2.908l5.292.936" class="cls-10" transform="translate(-143.005 -19.443)"/><path id="path146" d="M314.446-529.891a2.215 2.215 0 0 1-.969-.466.213.213 0 0 1-.02-.3.213.213 0 0 1 .3-.02 1.8 1.8 0 0 0 .763.367 1.73 1.73 0 0 0 .8-.089.212.212 0 0 1 .276.118.212.212 0 0 1-.119.276 2.119 2.119 0 0 1-1.031.113" class="cls-16" transform="translate(-144.045 -22.727)"/><path id="path148" d="M316.484-553.361a8.866 8.866 0 0 0 .65-2.51c-.025-1.045-.756-1.787-.3-2.71a2.083 2.083 0 0 0-1.12-2.463c-.726-.31-2.562-.245-4.158-1.38-1.524-1.085-4.514-1.031-5.174-.047-.8 1.192-.044 1.451-1.847 2.573-.718.448-.239 2.024-.3 2.984a6.447 6.447 0 0 1-.159 1.116l-.048.235-1.862-.329c.053-1.5.22-3.125.394-4.482a4.65 4.65 0 0 1 3.728-3.973c2.84-.552 7.021-.648 10.466 2.2a4.664 4.664 0 0 1 1.639 4.321 33.928 33.928 0 0 1-1.049 4.618l-.853-.151" class="cls-11" transform="translate(-138.314 -5.452)"/><path id="path150" d="M300.555-548.426a7.952 7.952 0 0 0 .143-1.474 1.777 1.777 0 0 0-.709-1.7 1.163 1.163 0 0 0-1.595.115c-1.275 1.319-.974 6.18 1.691 5.537l.469-2.481" class="cls-9" transform="translate(-136.063 -11.968)"/><path id="path152" d="M300.856-545.942a.213.213 0 0 1-.134-.219 3.281 3.281 0 0 0-1-2.491.213.213 0 0 1-.015-.3.212.212 0 0 1 .3-.016 3.657 3.657 0 0 1 1.143 2.848.212.212 0 0 1-.232.19l-.056-.013" class="cls-16" transform="translate(-137.071 -13.412)"/><path id="path154" d="M299.734-545.854l-.095-.073a.213.213 0 0 1 .048-.3 1.946 1.946 0 0 1 .976-.309.213.213 0 0 1 .223.2.213.213 0 0 1-.2.222 1.536 1.536 0 0 0-.747.229.211.211 0 0 1-.2.026" class="cls-16" transform="translate(-137.046 -14.68)"/><path id="path156" d="M473.089-355.05a75.517 75.517 0 0 1-6.243 9.748 25.55 25.55 0 0 1-3.061 3.348c-1.66 1.469-3.279 2.236-4.6 1.585C454.3-342.784 443.4-362 443.4-362l2.684-3.12s4.852 5.489 8.4 8.774a634.183 634.183 0 0 0 5.789 5.294c.453-.676.936-1.416 1.437-2.2.534-.832 1.088-1.711 1.651-2.617 4.086-6.572 9.006-13.76 9.006-13.76l.725 14.582" class="cls-9" transform="translate(-209.867 -103.883)"/><path id="path158" d="M437.533-367.334a5.178 5.178 0 0 0 .679-3.444c-.427-1.627-.844-5.3-2.621-5.2-.649.036.3 1.573-.136 3a23.928 23.928 0 0 1-3.178-1.859c-1.12-.828-3.441-2.173-4.52-2.787a.334.334 0 0 0-.467.444 7.544 7.544 0 0 0 2.519 2.149s-3.888-2.177-4.539-1.7 4.26 3.113 4.26 3.113-3.967-1.6-4.291-1.016c-.2.357 3.692 2.642 3.692 2.642s-3.864-1.192-3.147-.288c.209.264 7.548 3.585 9.078 7.442 0 0 2.139-1.171 2.671-2.488" class="cls-9" transform="translate(-200.703 -99.879)"/><path id="path160" d="M485.839-331.028a25.55 25.55 0 0 1-3.061 3.348l-2.078-11.3c.534-.832 1.088-1.711 1.651-2.617l3.488 10.57" class="cls-16" transform="translate(-228.862 -118.105)"/><path id="path162" d="M491.993-370.664l-10.334 14.9 3.289 13.28 8.108-12.936s1.518-8.655-1.063-15.249" class="cls-5" transform="translate(-229.325 -103.367)"/><path id="path164" d="M513.519-111.2v4.705l4.393-.069.287-4.986-4.679.35" class="cls-9" transform="translate(-245.504 -234.295)"/><path id="path166" d="M520.188-251.091c-.031.559-.183 3.244-.413 6.988-.619 10.286-1.777 28.563-2.456 32.67-.7 4.213-.382 18.028-.158 25.259a4.329 4.329 0 0 1-1.243 3.167 4.631 4.631 0 0 1-1.019.779 4.542 4.542 0 0 1-2.207.571h-3.348a4.423 4.423 0 0 1-4.47-4.516c.188-6.114.418-17.267-.018-25.884-.419-8.2.188-22.71.655-31.755h.006c.188-3.612.352-6.346.418-7.463l14.254.184" class="cls-11" transform="translate(-241.001 -163.15)"/><path id="path168" d="M506.766-251.275l14.254.184c-.031.559-.183 3.244-.413 6.988a61.35 61.35 0 0 1-14.259.291c.188-3.612.352-6.346.418-7.463" class="cls-12" transform="translate(-241.832 -163.771)"/><path id="path170" d="M526.257-199.114c.125 4.625.255 9.406.169 13.261a67.363 67.363 0 0 1-.113 2.8 4.346 4.346 0 0 1-1.023.78c.082-.92.145-2.1.179-3.6.083-3.833-.046-8.6-.171-13.216-.153-5.638-.3-10.964.016-13.231.684-4.961 2.213-31.857 2.614-39.038l.959.043c-.4 7.176-1.935 34.126-2.624 39.12-.3 2.192-.158 7.483-.006 13.082" class="cls-12" transform="translate(-251.17 -163.108)"/><path id="path172" d="M503.607-102.87s-.909-1.253-1.655-1.217-6.587 4.385-8.563 4.712-1.625 1.754-1.281 2.487 15.7.064 15.7.064.522-4.461.051-5.84-2.719.15-4.25-.207" class="cls-5" transform="translate(-234.472 -238.094)"/><path id="path174" d="M505.944-97.59a.278.278 0 0 0 .215-.019.267.267 0 0 0 .112-.366 4.19 4.19 0 0 0-1.4-1.5 1.934 1.934 0 0 0-1.952.047.267.267 0 0 0-.065.376.279.279 0 0 0 .384.064 1.381 1.381 0 0 1 1.374-.01 3.7 3.7 0 0 1 1.176 1.276.275.275 0 0 0 .158.128" class="cls-10" transform="translate(-240.074 -240.322)"/><path id="path176" d="M507.652-99.1a.277.277 0 0 0 .216-.019.268.268 0 0 0 .112-.366 4.194 4.194 0 0 0-1.4-1.5 1.933 1.933 0 0 0-1.952.047.267.267 0 0 0-.065.377.28.28 0 0 0 .384.064 1.379 1.379 0 0 1 1.374-.01 3.668 3.668 0 0 1 1.176 1.276.277.277 0 0 0 .158.128" class="cls-10" transform="translate(-240.94 -239.552)"/><path id="path178" d="M503.648-96.382a.279.279 0 0 0 .216-.019.268.268 0 0 0 .111-.367 4.194 4.194 0 0 0-1.4-1.5 1.929 1.929 0 0 0-1.952.047.266.266 0 0 0-.066.376.279.279 0 0 0 .385.063 1.38 1.38 0 0 1 1.374-.01 3.662 3.662 0 0 1 1.175 1.275.272.272 0 0 0 .158.128" class="cls-10" transform="translate(-238.909 -240.937)"/><path id="path180" d="M557.1-111.2l.473 4.7 3.919-.061.287-4.986-4.679.35" class="cls-9" transform="translate(-267.451 -234.295)"/><path id="path182" d="M557.638-211.83c-.437 8.616-.206 19.769-.018 25.884a4.427 4.427 0 0 1-4.47 4.516h-3.35a4.57 4.57 0 0 1-2.056-.487 4.287 4.287 0 0 1-1.013-.713 4.3 4.3 0 0 1-1.4-3.315c.224-7.232.54-21.047-.158-25.259-.691-4.178-1.88-23.014-2.492-33.193-.2-3.4-.34-5.828-.377-6.429l14.278.184c.042.725.109 1.842.188 3.256.461 8.14 1.352 26.068.867 35.557" class="cls-11" transform="translate(-259.916 -163.378)"/><path id="path184" d="M556.771-247.387a141.059 141.059 0 0 1-14.089 2.988c-.2-3.4-.34-5.828-.377-6.429l14.278.184c.042.725.109 1.842.188 3.256" class="cls-12" transform="translate(-259.916 -164.005)"/><path id="path186" d="M549.473-185.879c.033 1.548.1 2.75.183 3.683a4.387 4.387 0 0 1-1.016-.708c-.058-.827-.1-1.8-.126-2.954-.083-3.855.046-8.636.171-13.261.151-5.6.294-10.889-.008-13.082-.688-5-2.223-31.961-2.622-39.126l.957-.043c.4 7.171 1.93 34.081 2.616 39.044.313 2.268.168 7.593.016 13.231-.124 4.614-.253 9.383-.17 13.216" class="cls-12" transform="translate(-261.825 -163.102)"/><path id="path188" d="M558.828-103.268a18.539 18.539 0 0 1 2.551-.512c.553.011 4.255 4.067 5.5 4.306 2.26.433 2.264 3.891.888 4.063-3.979.5-10.786-1.15-10.786-1.15s-.627-4.438-.355-5.83 1.088-.467 2.2-.877" class="cls-5" transform="translate(-267.174 -238.25)"/><path id="path190" d="M567.547-97.023a.281.281 0 0 1-.213-.039.268.268 0 0 1-.076-.375 4.224 4.224 0 0 1 1.542-1.358 1.932 1.932 0 0 1 1.938.23.266.266 0 0 1 .028.381.279.279 0 0 1-.389.028 1.38 1.38 0 0 0-1.367-.139 3.723 3.723 0 0 0-1.294 1.16.27.27 0 0 1-.169.112" class="cls-10" transform="translate(-272.597 -240.708)"/><path id="path192" d="M565.994-98.689a.276.276 0 0 1-.213-.039.266.266 0 0 1-.076-.374 4.2 4.2 0 0 1 1.541-1.358 1.927 1.927 0 0 1 1.938.23.265.265 0 0 1 .028.38.279.279 0 0 1-.389.028 1.378 1.378 0 0 0-1.366-.139 3.7 3.7 0 0 0-1.294 1.16.274.274 0 0 1-.17.113" class="cls-10" transform="translate(-271.807 -239.86)"/><path id="path194" d="M569.715-95.606a.279.279 0 0 1-.213-.04.267.267 0 0 1-.075-.374 4.21 4.21 0 0 1 1.541-1.358 1.928 1.928 0 0 1 1.938.229.266.266 0 0 1 .028.381.279.279 0 0 1-.389.028 1.378 1.378 0 0 0-1.367-.139 3.679 3.679 0 0 0-1.294 1.16.281.281 0 0 1-.169.113" class="cls-10" transform="translate(-273.702 -241.429)"/><path id="path196" d="M537.856-319.681a79.35 79.35 0 0 1-38.641 0c-.067-4.709-.135-23.541.236-39l.023-.908c0-.15.007-.3.011-.446v-.024c.005-.193.009-.383.016-.573.275-10.194.755-18.518 1.577-19.63 1.92-2.584 11.568-6.712 14.239-8.555.222.351 1.535 2.3 3.257 2.444 1.889.164 3.569-2.014 3.569-2.014v-.412c2.681 1.842 11.423 5.662 13.341 8.239 2.1 2.825 2.461 52.854 2.372 60.878" class="cls-5" transform="translate(-237.948 -94.006)"/><path id="path198" d="M503.68-342.683a47.129 47.129 0 0 0-3.45 6.325c-.1.21-.181.387-.243.522l-.132.285-.106.124.023-.908c0-.15.007-.3.011-.446v-.024c.149-.313.325-.681.521-1.084a38.05 38.05 0 0 1 2.9-5.143.3.3 0 0 1 .418-.062.289.289 0 0 1 .062.408" class="cls-3" transform="translate(-238.524 -117.345)"/><path id="path200" d="M541.86-373.872h-.01a20.973 20.973 0 0 1-11.491-3.972 20.1 20.1 0 0 1-4.06-3.749.289.289 0 0 1 .061-.409.3.3 0 0 1 .418.06 21.206 21.206 0 0 0 15.091 7.486.3.3 0 0 1 .289.3.3.3 0 0 1-.3.283" class="cls-3" transform="translate(-251.736 -97.68)"/><path id="path202" d="M522.585-284.88a.3.3 0 0 1-.3-.274.3.3 0 0 1 .279-.311 21.78 21.78 0 0 0 16.148-8.12 22.449 22.449 0 0 0 3.957-7.367.3.3 0 0 1 .364-.209.292.292 0 0 1 .215.357 22.608 22.608 0 0 1-4.05 7.561 22.365 22.365 0 0 1-16.595 8.362h-.02" class="cls-3" transform="translate(-249.723 -138.519)"/><path id="path204" d="M531.781-287.744a.3.3 0 0 1-.288-.217.291.291 0 0 1 .21-.358c7.305-1.935 8.716-7.912 8.729-7.972a.3.3 0 0 1 .355-.224.293.293 0 0 1 .229.347 10.337 10.337 0 0 1-1.676 3.45 13.069 13.069 0 0 1-7.481 4.964l-.078.01" class="cls-3" transform="translate(-254.405 -140.902)"/><path id="path206" d="M586.7-296.313c-.183 2.561-1.753 4.465-1.76 6.15s-2 .584-1.076-2.747-.444-6.554-1.173-6.524.232 3.754-.534 4.991-1.344-1.36-2.015-2.967c-.7-1.668-.307-5.126.325-7.562s-2.468-17.883-2.062-22.236l-1.118-5.647-.654-3.294-.122-3.438 5.973-2.319c.224 1.1.455 2.249.684 3.4l.3 1.523c.8 4.118 1.516 8.171 1.808 10.771.808 7.193-.518 21.863-.518 21.863s2.118 5.635 1.945 8.036" class="cls-9" transform="translate(-277.334 -117.766)"/><path id="path208" d="M583.469-336.983a13.258 13.258 0 0 1-6.179 4.128l-.654-3.294-.122-3.438 5.973-2.319c.224 1.1.455 2.249.684 3.4l.3 1.524" class="cls-16" transform="translate(-277.334 -117.968)"/><path id="path210" d="M583.679-354.963a12.637 12.637 0 0 1-1.956 1.736 11.373 11.373 0 0 1-6.527 2.359c-.331-9.53-.817-17.583-1.525-19.947 1.26 1.524 7.313 9.03 10.008 15.852" class="cls-5" transform="translate(-275.886 -103.322)"/><path id="path212" d="M568.365-344.633a47.092 47.092 0 0 1 3.449 6.324c.1.211.181.388.244.522.082.175.128.277.131.285a.3.3 0 0 0 .274.174h.006c0-.149-.008-.3-.012-.446h.262c-.041-.086-.137-.3-.276-.594a116.57 116.57 0 0 0-.7-1.467 37.891 37.891 0 0 0-2.895-5.143.3.3 0 0 0-.418-.062.289.289 0 0 0-.063.408" class="cls-3" transform="translate(-273.155 -116.36)"/><path id="path214" d="M539.319-429.689c0 5.162-3.243 8.719-8.512 8.719a8.645 8.645 0 0 1-8.942-8.987c0-5.162 3.12-9.073 8.389-9.073 6.319 0 9.064 4.179 9.064 9.341" class="cls-11" transform="translate(-249.509 -68.87)"/><path id="path216" d="M554.429-416.464s1.464-1.912 2.552-.331-.45 6.252-3.116 5.112l.563-4.781" class="cls-16" transform="translate(-265.802 -79.818)"/><path id="path218" d="M554.818-411.391a.225.225 0 0 0 .217-.161 3.452 3.452 0 0 1 1.953-2.032.22.22 0 0 0 .131-.285.227.227 0 0 0-.291-.128 3.85 3.85 0 0 0-2.227 2.326.22.22 0 0 0 .156.272l.062.008" class="cls-17" transform="translate(-266.172 -81.549)"/><path id="path220" d="M557.178-411.217l.121-.035a.219.219 0 0 0 .068-.3 2.052 2.052 0 0 0-.846-.668.226.226 0 0 0-.3.111.218.218 0 0 0 .113.291 1.621 1.621 0 0 1 .651.5.226.226 0 0 0 .19.1" class="cls-17" transform="translate(-266.993 -82.446)"/><path id="path222" d="M521.264-416.464s-1.464-1.912-2.552-.331.45 6.252 3.115 5.112l-.563-4.781" class="cls-16" transform="translate(-247.723 -79.818)"/><path id="path224" d="M521.837-411.391a.224.224 0 0 1-.217-.161 3.451 3.451 0 0 0-1.953-2.032.22.22 0 0 1-.13-.285.226.226 0 0 1 .29-.128 3.848 3.848 0 0 1 2.228 2.326.22.22 0 0 1-.156.272l-.061.008" class="cls-17" transform="translate(-248.316 -81.549)"/><path id="path226" d="M520.87-411.217l-.121-.035a.218.218 0 0 1-.068-.3 2.052 2.052 0 0 1 .845-.668.226.226 0 0 1 .3.111.218.218 0 0 1-.113.291 1.615 1.615 0 0 0-.651.5.227.227 0 0 1-.19.1" class="cls-17" transform="translate(-248.887 -82.446)"/><path id="path228" d="M532.3-397.66v4.645s1.414 2.365 3.326 2.526 3.607-2.037 3.607-2.037v-4.808l-6.932-.326" class="cls-9" transform="translate(-254.824 -89.8)"/><path id="path230" d="M532.3-397.66v2.061c1.283 1.395 3.561 1.743 6.932 1.255v-2.99l-6.932-.326" class="cls-16" transform="translate(-254.824 -89.811)"/><path id="path232" d="M539.043-424.975a27.223 27.223 0 0 1-.385 3.058c-.635 3.423-2.067 6.79-5.152 7.871-6.985 2.444-9.481-3.426-10.479-6.847-.109-.38-.207-.8-.3-1.254a31.757 31.757 0 0 1-.378-2.641 59.202 59.202 0 0 1-.237-3.224 4.831 4.831 0 0 1 3.158-4.743c2.864-1.079 7.215-1.931 11.339.36a4.831 4.831 0 0 1 2.512 4.125c.018.932 0 2.069-.083 3.3" class="cls-9" transform="translate(-249.634 -71.482)"/><path id="path234" d="M534.673-408.35a4.432 4.432 0 0 1-.938.7c-1.77.938-1.962.8-2.66.826a5.353 5.353 0 0 1-2.688-.717 7.666 7.666 0 0 1-1.277-.953s-.718-2.4 3.841-1.8c4.57-.772 3.798 1.474 3.722 1.944zm3.756-7.235c-.236.421-1.544 4.378-1.908 4.932-.826-1.78-4.811-.486-4.811-.486a2.578 2.578 0 0 1-.772.12 2.564 2.564 0 0 1-.749-.115l-.02-.006s-4.031-1.239-4.826.626c-.369-.552-1.506-4.434-1.718-5.072h-1.02c.1.916.219 1.826.378 2.641.088.452.186.874.3 1.254 1 3.421 3.495 9.291 10.479 6.847 3.086-1.08 4.517-4.448 5.152-7.871a27.223 27.223 0 0 0 .385-3.058l-.865.187" class="cls-11" transform="translate(-249.885 -80.636)"/><path id="path236" d="M545.749-415.168c0 .5.26.9.582.9s.583-.4.583-.9-.261-.9-.583-.9-.582.4-.582.9" class="cls-11" transform="translate(-261.67 -80.513)"/><path id="path238" d="M531.759-415.205c0 .5.261.9.583.9s.582-.4.582-.9-.261-.9-.582-.9-.583.4-.583.9" class="cls-11" transform="translate(-254.546 -80.494)"/><path id="path240" d="M547.544-419.846a6.122 6.122 0 0 0-3.95-.137l.172.936a11.231 11.231 0 0 1 3.793.3 1.593 1.593 0 0 0-.015-1.1" class="cls-11" transform="translate(-260.572 -78.387)"/><path id="path242" d="M528.92-419.846a6.124 6.124 0 0 1 3.951-.137l-.172.936a11.23 11.23 0 0 0-3.793.3 1.6 1.6 0 0 1 .014-1.1" class="cls-11" transform="translate(-253.048 -78.387)"/><path id="path244" d="M538.495-411.635a2.436 2.436 0 0 1-.815-.168.218.218 0 0 1-.123-.287.226.226 0 0 1 .293-.121 1.374 1.374 0 0 0 .9.083.238.238 0 0 0 .111-.205 32.843 32.843 0 0 0-.136-3.379.221.221 0 0 1 .205-.238.222.222 0 0 1 .243.2 31.942 31.942 0 0 1 .135 3.461.676.676 0 0 1-.328.539.97.97 0 0 1-.49.114" class="cls-16" transform="translate(-257.49 -80.564)"/><path id="path246" d="M539.835-403.863a2.873 2.873 0 0 1-2.857 2.577 2.766 2.766 0 0 1-2.844-2.577h5.7" class="cls-10" transform="translate(-255.755 -86.678)"/><path id="path248" d="M522.353-424.788h1.021c-.113-1-.274-2.773.567-3.025 2.659-.8-.787-2.642.414-3.559s4.188-.526 6.266-.592a45.534 45.534 0 0 1 6.266.148c.817.183.37 1.513.07 2.544s1 2.167 1.221 3.233a4.614 4.614 0 0 1 0 1.253h.851c.1-1.3.115-2.505.1-3.484a4.833 4.833 0 0 0-2.511-4.126c-4.124-2.29-8.474-1.436-11.339-.357a4.831 4.831 0 0 0-3.16 4.741c.048.99.122 2.114.238 3.226" class="cls-11" transform="translate(-249.633 -71.51)"/><path id="path250" d="M163.962-194.408h-51.809c.856-5.2 4.979-8.974 9.784-8.958l16.12.047 16.121-.047c4.8-.016 8.928 3.761 9.784 8.958" class="cls-10" transform="translate(-42.177 -187.974)"/><path id="path252" d="M123.278-138.328h-2.823v-48.3h2.823v48.3" class="cls-10" transform="translate(-46.404 -196.065)"/><path id="path254" d="M206.475-138.328h-2.823v-48.3h2.823v48.3" class="cls-10" transform="translate(-88.395 -196.065)"/><path id="path256" d="M164.22-156.334h-38.013v-2.722h38.013v2.722" class="cls-2" transform="translate(-49.098 -210.106)"/><path id="path258" d="M128.871-317.594s-8.653 11.54-9.8 21.6c-.813 7.108 9.8 17.729 9.8 17.729l3.657-1.82-3.646-8.22c-1.3-4-2.894-5.586-1.715-9.625l2.641-5.694-.937-13.972" class="cls-3" transform="translate(-45.675 -130.107)"/><path id="path260" d="M190.886-317.949s8.54 12.3 9.247 22.409c.61 8.712-9.845 17.1-9.845 17.1l-3.02-1.5 4.182-8.3c1.3-4 1.914-6.417.145-10.773l-2.244-4.777 1.535-14.146" class="cls-3" transform="translate(-80.075 -129.927)"/><path id="path262" d="M136.729-294.559l-5.735 18.245s24.831 3.167 32.425 1.118l-3.857-19.871 2.671-25.945a36.963 36.963 0 0 0-11.679-2.857c-5.872-.425-9.582.544-15.587 3.031l1.762 26.28" class="cls-5" transform="translate(-51.529 -126.834)"/><path id="path264" d="M153.576-311.706c5.478-.642 10.574-4.4 10.806-4.578a.305.305 0 0 0 .062-.427.306.306 0 0 0-.428-.063c-.06.044-6.057 4.469-11.826 4.548a.3.3 0 0 0-.3.31.306.306 0 0 0 .31.3 13.676 13.676 0 0 0 1.378-.092" class="cls-3" transform="translate(-62.139 -130.653)"/><path id="path266" d="M164.318-107.233l.448 4.028 4.285.1.359-3.343-5.092-.783" class="cls-9" transform="translate(-68.448 -236.492)"/><path id="path268" d="M144.986-237.412s-11.1-.61-14.853 2.465-3 11.9.826 14.307 10.354 7.143 10.354 7.143l4.151 41.269 5.485.186s5.051-41.458 2.492-49.484-8.455-15.886-8.455-15.886" class="cls-12" transform="translate(-49.85 -170.184)"/><path id="path270" d="M169.228-108.435a4.582 4.582 0 0 1-.141 2.827l-6.311-.14a7.26 7.26 0 0 1-.122-2.769l6.575.082" class="cls-11" transform="translate(-67.562 -235.839)"/><path id="path272" d="M161.909-257.024h-29.117l-2.69-15.735a2.231 2.231 0 0 1 2.2-2.607h30.1a2.231 2.231 0 0 1 2.2 2.607l-2.69 15.735" class="cls-10" transform="translate(-51.059 -151.544)"/><path id="path274" d="M162.392-234.575h-24.4a2.37 2.37 0 0 1-2.37-2.37V-238h29.145v1.052a2.37 2.37 0 0 1-2.37 2.37" class="cls-2" transform="translate(-53.875 -170.505)"/><path id="path276" d="M165.316-257.984a2.529 2.529 0 0 1-2.529 2.529 2.529 2.529 0 0 1-2.529-2.529 2.529 2.529 0 0 1 2.529-2.529 2.529 2.529 0 0 1 2.529 2.529" class="cls-2" transform="translate(-66.39 -159.117)"/><path id="path278" d="M126.256-130.317l-.949 3.987 3.845.76 1.567-3.56-4.462-1.186" class="cls-9" transform="translate(-48.874 -224.739)"/><path id="path280" d="M150.121-239.385s-7.43-2.563-11.786 2.818-11.65 50.8-11.65 50.8l5 2.064 16.074-40.34s13.09 7.47 14.676-3.15c1.255-8.4-12.314-12.2-12.314-12.2" class="cls-11" transform="translate(-49.342 -168.894)"/><path id="path282" d="M131.714-131.827a4.732 4.732 0 0 1-1.05 2.727l-6.146-2.173a7.487 7.487 0 0 1 .772-2.754l6.424 2.2" class="cls-13" transform="translate(-48.472 -222.849)"/><path id="path284" d="M116.786-124.9a23.344 23.344 0 0 0-3.017-1.317c-.686-.136-6.351 3.883-7.956 3.845-2.911-.071-3.843 4.2-2.188 4.784 4.785 1.683 13.641 1.474 13.641 1.474s1.967-5.317 2-7.111-1.219-.87-2.483-1.674" class="cls-5" transform="translate(-37.42 -226.824)"/><path id="path286" d="M117.065-118.893a.356.356 0 0 0 .274.008.338.338 0 0 0 .194-.443 5.314 5.314 0 0 0-1.54-2.092 2.439 2.439 0 0 0-2.458-.236.336.336 0 0 0-.137.463.354.354 0 0 0 .473.139 1.741 1.741 0 0 1 1.727.194 4.7 4.7 0 0 1 1.289 1.781.349.349 0 0 0 .179.185" class="cls-10" transform="translate(-42.788 -229.033)"/><path id="path288" d="M119.432-120.536a.361.361 0 0 0 .274.009.338.338 0 0 0 .194-.443 5.323 5.323 0 0 0-1.54-2.092 2.439 2.439 0 0 0-2.458-.237.337.337 0 0 0-.137.463.353.353 0 0 0 .473.138 1.744 1.744 0 0 1 1.727.2 4.677 4.677 0 0 1 1.289 1.782.349.349 0 0 0 .179.185" class="cls-10" transform="translate(-43.993 -228.197)"/><path id="path290" d="M114-117.724a.352.352 0 0 0 .274.009.338.338 0 0 0 .194-.444 5.323 5.323 0 0 0-1.54-2.092 2.437 2.437 0 0 0-2.457-.236.336.336 0 0 0-.137.463.353.353 0 0 0 .473.138 1.744 1.744 0 0 1 1.727.2 4.684 4.684 0 0 1 1.288 1.781.345.345 0 0 0 .179.185" class="cls-10" transform="translate(-41.23 -229.629)"/><path id="path292" d="M165.842-100.134a22.321 22.321 0 0 1 3.052-.737c.666-.013 5.321 4.7 6.834 4.932 2.746.417 2.912 4.586 1.261 4.857-4.773.786-13.057-.88-13.057-.88s-.965-5.32-.7-7.012 1.29-.615 2.611-1.16" class="cls-5" transform="translate(-67.864 -239.732)"/><path id="path294" d="M176.621-92.9a.343.343 0 0 1-.259-.037.322.322 0 0 1-.108-.448 5.088 5.088 0 0 1 1.794-1.709 2.327 2.327 0 0 1 2.347.187.321.321 0 0 1 .052.458.337.337 0 0 1-.467.052 1.66 1.66 0 0 0-1.654-.1 4.478 4.478 0 0 0-1.506 1.459.334.334 0 0 1-.2.144" class="cls-10" transform="translate(-74.475 -242.557)"/><path id="path296" d="M174.67-94.833a.337.337 0 0 1-.258-.037.322.322 0 0 1-.109-.448 5.073 5.073 0 0 1 1.794-1.709 2.33 2.33 0 0 1 2.348.185.321.321 0 0 1 .052.458.337.337 0 0 1-.467.052 1.66 1.66 0 0 0-1.654-.1 4.462 4.462 0 0 0-1.506 1.459.332.332 0 0 1-.2.145" class="cls-10" transform="translate(-73.486 -241.571)"/><path id="path298" d="M179.3-91.291a.335.335 0 0 1-.259-.038.322.322 0 0 1-.109-.448 5.093 5.093 0 0 1 1.794-1.71 2.329 2.329 0 0 1 2.348.186.322.322 0 0 1 .052.458.337.337 0 0 1-.467.051 1.664 1.664 0 0 0-1.654-.1 4.465 4.465 0 0 0-1.506 1.459.333.333 0 0 1-.2.145" class="cls-10" transform="translate(-75.834 -243.374)"/><path id="path300" d="M162.311-370.612s3.531 5.468 3.144 11.166.521 12.273-4.577 11.984-14.189 2.044-17.08-2.393 18.513-20.757 18.513-20.757" class="cls-11" transform="translate(-57.892 -103.411)"/><path id="path302" d="M174.34-350.222s.916 8.258-3 10.531a5.784 5.784 0 0 1-6.754-.264s8.26-11.51 9.756-10.267" class="cls-18" transform="translate(-68.578 -113.709)"/><path id="path304" d="M148.4-351.177s-1.407-1.876-2.453-.325.433 6.133 2.994 5.015l-.541-4.69" class="cls-16" transform="translate(-58.964 -112.821)"/><path id="path306" d="M148.955-346.2a.217.217 0 0 1-.209-.158 3.35 3.35 0 0 0-1.877-1.993.216.216 0 0 1-.126-.279.216.216 0 0 1 .279-.126 3.726 3.726 0 0 1 2.141 2.281.217.217 0 0 1-.15.267l-.058.008" class="cls-17" transform="translate(-59.532 -114.523)"/><path id="path308" d="M148.025-346.029l-.117-.035a.217.217 0 0 1-.065-.3 1.984 1.984 0 0 1 .813-.654.217.217 0 0 1 .286.109.217.217 0 0 1-.109.286 1.574 1.574 0 0 0-.626.494.214.214 0 0 1-.182.1" class="cls-17" transform="translate(-60.331 -115.404)"/><path id="path310" d="M180.279-351.177s1.407-1.876 2.453-.325-.433 6.133-2.995 5.015l.541-4.69" class="cls-16" transform="translate(-76.268 -112.821)"/><path id="path312" d="M180.653-346.2a.216.216 0 0 0 .208-.158 3.348 3.348 0 0 1 1.878-1.993.216.216 0 0 0 .125-.279.216.216 0 0 0-.279-.126 3.728 3.728 0 0 0-2.141 2.281.217.217 0 0 0 .15.267l.059.008" class="cls-17" transform="translate(-76.623 -114.523)"/><path id="path314" d="M182.921-346.029l.117-.035a.216.216 0 0 0 .065-.3 1.974 1.974 0 0 0-.812-.654.216.216 0 0 0-.286.109.216.216 0 0 0 .109.286 1.569 1.569 0 0 1 .625.494.215.215 0 0 0 .182.1" class="cls-17" transform="translate(-77.411 -115.404)"/><path id="path316" d="M166.214-332.73v4.556s-1.359 2.321-3.2 2.478-3.467-2-3.467-2v-4.717l6.663-.32" class="cls-9" transform="translate(-66.03 -122.613)"/><path id="path318" d="M166.214-332.73v2.022c-1.233 1.368-3.422 1.853-6.662 1.375v-3.077l6.663-.32" class="cls-16" transform="translate(-66.03 -122.626)"/><path id="path320" d="M165.947-362.507a44.34 44.34 0 0 1-.591 5.756c-.084.442-.18.857-.286 1.23-.959 3.357-3.357 9.115-10.071 6.716-2.966-1.058-4.34-4.362-4.953-7.721a32.448 32.448 0 0 1-.448-6.234 4.756 4.756 0 0 1 2.414-4.048c3.963-2.247 8.145-1.409 10.9-.351a4.742 4.742 0 0 1 3.037 4.652" class="cls-9" transform="translate(-60.971 -104.628)"/><path id="path322" d="M158.885-349.683c0 .487-.251.881-.56.881s-.56-.394-.56-.881.251-.88.56-.88.56.394.56.88" class="cls-11" transform="translate(-65.129 -113.619)"/><path id="path324" d="M172.971-349.683c0 .487-.251.881-.56.881s-.56-.394-.56-.881.251-.88.56-.88.56.394.56.88" class="cls-11" transform="translate(-72.272 -113.619)"/><path id="path326" d="M155.711-355.112a9.358 9.358 0 0 1 2.4-.359.417.417 0 0 1 .414.488v.006a.415.415 0 0 1-.428.34 10.5 10.5 0 0 0-3.28.4.629.629 0 0 1 .19-.446 1.442 1.442 0 0 1 .709-.432" class="cls-11" transform="translate(-63.628 -111.141)"/><path id="path328" d="M172.156-355.075a9.334 9.334 0 0 0-2.4-.359.416.416 0 0 0-.414.488v.007a.415.415 0 0 0 .428.34 10.521 10.521 0 0 1 3.28.4.631.631 0 0 0-.191-.446 1.445 1.445 0 0 0-.709-.432" class="cls-11" transform="translate(-70.995 -111.159)"/><path id="path330" d="M165.389-345.864a.912.912 0 0 1-.471-.113.661.661 0 0 1-.315-.528 31.891 31.891 0 0 1 .13-3.4.216.216 0 0 1 .233-.2.216.216 0 0 1 .2.234 32.712 32.712 0 0 0-.131 3.315.234.234 0 0 0 .107.2 1.3 1.3 0 0 0 .868-.082.216.216 0 0 1 .282.118.217.217 0 0 1-.118.283 2.3 2.3 0 0 1-.783.165" class="cls-16" transform="translate(-68.586 -113.845)"/><path id="path332" d="M160.624-338.687a2.578 2.578 0 0 0 2.54 2.338 2.483 2.483 0 0 0 2.529-2.338h-5.069" class="cls-10" transform="translate(-66.575 -119.62)"/><path id="path334" d="M164.585-332.073a2.159 2.159 0 0 1-1.016-.3.217.217 0 0 1-.07-.3.216.216 0 0 1 .3-.071 1.737 1.737 0 0 0 .789.233 1.845 1.845 0 0 0 .831-.234.216.216 0 0 1 .3.074.217.217 0 0 1-.073.3 2.255 2.255 0 0 1-1.055.3" class="cls-16" transform="translate(-68.019 -122.616)"/><path id="path336" d="M166.26-367.119a.717.717 0 0 1-.522.4 13.858 13.858 0 0 1-.078 1.6c-.268 3.129-1.056 3.678-1.235 2.9a36.114 36.114 0 0 1-.054-4.421 10.33 10.33 0 0 1-1.146-.144l-.726-3.037-.254 3c-1.088.378-3.628-.228-3.628-.228l-.851-2.993-.527 2.881a6.067 6.067 0 0 1-3.673.265L153.1-370l-1.083 3.107s-3.482 1.25-3.52 0a23.351 23.351 0 0 1 .959-4.361 6.558 6.558 0 0 1 3.164-4.016 11.53 11.53 0 0 1 10.456-.149c3.323 1.984 3.187 8.3 3.187 8.3" class="cls-11" transform="translate(-60.413 -100.421)"/><path id="path338" d="M147.391-370.142a20.629 20.629 0 0 0-3.811 9.5c-.943 6.091-2.249 10.591 1.421 12.6 3.972 2.176 3.629-2.288 3.571-3.5s-3.436-4.529-1.181-13.87a8.12 8.12 0 0 0 0-4.732" class="cls-11" transform="translate(-57.416 -103.652)"/><path id="path340" d="M151.037-344.5v.007c0 .045 0 .287.022.666.009.235.023.521.044.846.135 2.052.534 5.6 1.707 6.824a3.916 3.916 0 0 0 2.406.829v-1.613a6.383 6.383 0 0 1-2.64-2.451 15.085 15.085 0 0 1-1.46-4.5l-.08-.608" class="cls-18" transform="translate(-61.715 -116.657)"/><path id="path342" d="M181.967-340.965a.507.507 0 0 1-.507.508.507.507 0 0 1-.507-.508.507.507 0 0 1 .507-.507.507.507 0 0 1 .507.507" class="cls-10" transform="translate(-76.887 -118.217)"/><path id="path344" d="M479.633-445.907h-12.44a1.729 1.729 0 0 1-1.728-1.73v-12.439a1.729 1.729 0 0 1 1.728-1.729h12.44a1.729 1.729 0 0 1 1.73 1.729v12.439a1.73 1.73 0 0 1-1.73 1.73" class="cls-6" transform="translate(-221.102 -57.369)"/><path id="path346" d="M481.458-451.225a5.389 5.389 0 0 1-1.24 3.446 5.4 5.4 0 0 1-4.174 1.967 5.4 5.4 0 0 1-4.173-1.966 5.394 5.394 0 0 1-1.239-3.447 5.412 5.412 0 0 1 5.412-5.413 5.413 5.413 0 0 1 5.414 5.413" class="cls-8" transform="translate(-223.739 -59.99)"/><path id="path348" d="M481.5-446.076a5.4 5.4 0 0 1-4.174 1.967 5.4 5.4 0 0 1-4.173-1.966l.073-.144a1.9 1.9 0 0 1 .474-.6 1.885 1.885 0 0 1 .671-.365 3.349 3.349 0 0 0 2.157-1.329 2.34 2.34 0 0 1-1.086-1.158c-.613.131-1.052-1-.725-1.3a.482.482 0 0 1 .362-.139 2.369 2.369 0 0 1 2.247-2.183 2.37 2.37 0 0 1 2.249 2.183.478.478 0 0 1 .361.139c.328.3-.112 1.434-.724 1.3a2.057 2.057 0 0 1-1.007 1.087 3.266 3.266 0 0 0 2.079 1.4 1.882 1.882 0 0 1 .67.365 1.9 1.9 0 0 1 .474.6l.073.143" class="cls-10" transform="translate(-225.026 -61.683)"/><path id="path350" d="M58.8-273.681H46.362a1.729 1.729 0 0 1-1.729-1.728v-12.44a1.729 1.729 0 0 1 1.729-1.729H58.8a1.729 1.729 0 0 1 1.729 1.729v12.44a1.728 1.728 0 0 1-1.729 1.728" class="cls-6" transform="translate(-7.797 -144.377)"/><path id="path352" d="M57.217-279.606a1.469 1.469 0 0 1-1.469-1.469 1.469 1.469 0 0 1 1.469-1.469 1.468 1.468 0 0 1 1.469 1.469 1.468 1.468 0 0 1-1.469 1.469zm.239-4.524a3.481 3.481 0 0 0-3.719 3.471 3.459 3.459 0 0 0 .487 1.775c.46.776.935 1.543 1.373 2.332l1.649 2.971 2.514-4.536c.148-.266.307-.523.461-.785a3.442 3.442 0 0 0 .476-1.843 3.5 3.5 0 0 0-3.241-3.386" class="cls-10" transform="translate(-12.433 -147.152)"/><path id="path354" d="M602-412.764a2.438 2.438 0 0 0 2.435-2.436 2.438 2.438 0 0 0-2.435-2.435 2.438 2.438 0 0 0-2.436 2.435 2.438 2.438 0 0 0 2.436 2.436zm0-5.984a3.553 3.553 0 0 1 3.549 3.548 3.553 3.553 0 0 1-3.549 3.549 3.552 3.552 0 0 1-3.549-3.549 3.552 3.552 0 0 1 3.549-3.548" class="cls-5" transform="translate(-288.506 -79.144)"/><path id="path356" d="M575.976-438.129a2.438 2.438 0 0 0 2.435-2.436 2.438 2.438 0 0 0-2.435-2.435 2.438 2.438 0 0 0-2.436 2.435 2.438 2.438 0 0 0 2.436 2.436zm0-5.984a3.553 3.553 0 0 1 3.548 3.548 3.553 3.553 0 0 1-3.548 3.549 3.553 3.553 0 0 1-3.549-3.549 3.553 3.553 0 0 1 3.549-3.548" class="cls-6" transform="translate(-275.253 -66.326)"/><path id="path358" d="M570.146-467.608a.557.557 0 0 1 .557.557v2.455a.557.557 0 0 1-.557.557.557.557 0 0 1-.557-.557v-2.455a.557.557 0 0 1 .557-.557" class="cls-5" transform="translate(-273.808 -54.459)"/><path id="path360" d="M570.146-476.36a.557.557 0 0 1 .557.557v2.455a.557.557 0 0 1-.557.556.557.557 0 0 1-.557-.556v-2.452a.557.557 0 0 1 .557-.557" class="cls-5" transform="translate(-273.808 -50.036)"/><path id="path362" d="M563.127-469.483h2.2a.556.556 0 0 1 .557.556.557.557 0 0 1-.557.557h-2.2a.557.557 0 0 1-.556-.557.556.556 0 0 1 .556-.556" class="cls-5" transform="translate(-270.235 -53.516)"/><path id="path364" d="M572.673-469.483h2.206a.556.556 0 0 1 .556.556.557.557 0 0 1-.556.557h-2.206a.557.557 0 0 1-.556-.557.556.556 0 0 1 .556-.556" class="cls-5" transform="translate(-275.095 -53.516)"/><path id="path366" d="M610.069-439.583a.557.557 0 0 1 .557.557v2.455a.557.557 0 0 1-.557.556.557.557 0 0 1-.556-.556v-2.455a.557.557 0 0 1 .556-.557" class="cls-6" transform="translate(-294.136 -68.623)"/><path id="path368" d="M610.069-448.335a.556.556 0 0 1 .557.556v2.455a.557.557 0 0 1-.557.557.557.557 0 0 1-.556-.557v-2.455a.556.556 0 0 1 .556-.556" class="cls-6" transform="translate(-294.136 -64.2)"/><path id="path370" d="M603.049-441.459h2.205a.556.556 0 0 1 .556.557.556.556 0 0 1-.556.556h-2.205a.556.556 0 0 1-.557-.556.557.557 0 0 1 .557-.557" class="cls-6" transform="translate(-290.561 -67.68)"/><path id="path372" d="M612.6-441.459h2.2a.557.557 0 0 1 .557.557.556.556 0 0 1-.557.556h-2.2a.556.556 0 0 1-.557-.556.557.557 0 0 1 .557-.557" class="cls-6" transform="translate(-295.423 -67.68)"/><path id="path374" d="M154.258-509.958a2.438 2.438 0 0 0-2.436 2.436 2.438 2.438 0 0 0 2.436 2.435 2.438 2.438 0 0 0 2.435-2.435 2.439 2.439 0 0 0-2.435-2.436zm0-1.113a3.553 3.553 0 0 1 3.548 3.549 3.553 3.553 0 0 1-3.548 3.549 3.553 3.553 0 0 1-3.549-3.549 3.553 3.553 0 0 1 3.549-3.549" class="cls-5" transform="translate(-61.546 -32.736)"/><path id="path376" d="M127.926-533.839a2.438 2.438 0 0 0-2.435 2.435 2.438 2.438 0 0 0 2.435 2.436 2.439 2.439 0 0 0 2.435-2.436 2.438 2.438 0 0 0-2.435-2.435zm0-1.113a3.553 3.553 0 0 1 3.549 3.548 3.553 3.553 0 0 1-3.549 3.549 3.553 3.553 0 0 1-3.549-3.549 3.552 3.552 0 0 1 3.549-3.548" class="cls-6" transform="translate(-48.401 -20.576)"/><path id="path378" d="M122.069-494.2a.556.556 0 0 0 .557.556h2.455a.557.557 0 0 0 .557-.556.557.557 0 0 0-.557-.557h-2.455a.556.556 0 0 0-.557.557" class="cls-5" transform="translate(-47.226 -41.042)"/><path id="path380" d="M113.317-494.2a.557.557 0 0 0 .557.556h2.455a.557.557 0 0 0 .556-.556.557.557 0 0 0-.556-.557h-2.455a.557.557 0 0 0-.557.557" class="cls-5" transform="translate(-42.769 -41.042)"/><path id="path382" d="M120.193-501.222v2.205a.557.557 0 0 0 .557.556.557.557 0 0 0 .557-.556v-2.205a.557.557 0 0 0-.557-.556.557.557 0 0 0-.557.556" class="cls-5" transform="translate(-46.27 -37.467)"/><path id="path384" d="M120.193-491.675v2.205a.557.557 0 0 0 .557.556.557.557 0 0 0 .557-.556v-2.205a.557.557 0 0 0-.557-.556.557.557 0 0 0-.557.556" class="cls-5" transform="translate(-46.27 -42.329)"/><path id="path386" d="M175.03-533.262a.556.556 0 0 0 .557.556h2.455a.556.556 0 0 0 .557-.556.557.557 0 0 0-.557-.557h-2.455a.557.557 0 0 0-.557.557" class="cls-6" transform="translate(-73.881 -21.153)"/><path id="path388" d="M166.278-533.262a.556.556 0 0 0 .557.556h2.455a.556.556 0 0 0 .556-.556.557.557 0 0 0-.556-.557h-2.455a.557.557 0 0 0-.557.557" class="cls-6" transform="translate(-69.443 -21.153)"/><path id="path390" d="M173.156-540.282v2.2a.557.557 0 0 0 .556.557.557.557 0 0 0 .557-.557v-2.2a.557.557 0 0 0-.557-.557.557.557 0 0 0-.556.557" class="cls-6" transform="translate(-72.933 -17.579)"/><path id="path392" d="M173.156-530.734v2.205a.557.557 0 0 0 .556.557.557.557 0 0 0 .557-.557v-2.205a.557.557 0 0 0-.557-.556.557.557 0 0 0-.556.556" class="cls-6" transform="translate(-72.933 -22.441)"/><path id="path394" d="M476.141-498.991a.5.5 0 0 0 .234 0c.843-.207 1.331-.291 1.336-.293a.442.442 0 0 0 .378-.512.468.468 0 0 0-.545-.355c-.021 0-.524.09-1.406.306a.44.44 0 0 0-.336.539.457.457 0 0 0 .34.315" class="cls-2" transform="translate(-226.38 -38.292)"/><path id="path396" d="M418.712-457.3a41.88 41.88 0 0 0-1.252 2.308.48.48 0 0 1-.54.239l-.086-.029a.43.43 0 0 1-.224-.587c.4-.8.832-1.59 1.278-2.355a.485.485 0 0 1 .637-.175.427.427 0 0 1 .186.6" class="cls-2" transform="translate(-196.353 -59.339)"/><path id="path398" d="M414.2-447.712a45.11 45.11 0 0 0-.956 2.431.476.476 0 0 1-.56.286l-.036-.01a.435.435 0 0 1-.294-.559c.3-.838.63-1.671.975-2.477a.481.481 0 0 1 .611-.244.432.432 0 0 1 .26.573" class="cls-2" transform="translate(-194.204 -64.209)"/><path id="path400" d="M407.661-424.366a.443.443 0 0 1-.35-.484c.12-.877.262-1.755.421-2.608a.468.468 0 0 1 .544-.358.443.443 0 0 1 .382.51c-.156.84-.3 1.7-.414 2.569a.464.464 0 0 1-.525.381l-.056-.01" class="cls-2" transform="translate(-191.66 -74.567)"/><path id="path402" d="M410.546-438.208a.438.438 0 0 1 .326.544 47.327 47.327 0 0 0-.674 2.516.471.471 0 0 1-.561.334h-.013a.441.441 0 0 1-.342-.524 50.385 50.385 0 0 1 .686-2.56.472.472 0 0 1 .567-.308h.011" class="cls-2" transform="translate(-192.655 -69.31)"/><path id="path404" d="M422.893-464.117a.485.485 0 0 1-.512.192l-.136-.055a.426.426 0 0 1-.146-.609c.5-.743 1.032-1.48 1.58-2.189a.489.489 0 0 1 .656-.1.423.423 0 0 1 .1.615 40.728 40.728 0 0 0-1.546 2.144" class="cls-2" transform="translate(-199.121 -54.788)"/><path id="path406" d="M468.264-497.142c-.857.274-1.726.582-2.584.915a.5.5 0 0 1-.295.02.463.463 0 0 1-.319-.259.432.432 0 0 1 .255-.576c.876-.34 1.764-.654 2.639-.935a.478.478 0 0 1 .6.274.435.435 0 0 1-.293.56" class="cls-2" transform="translate(-220.923 -39.391)"/><path id="path408" d="M455.5-491.9a.5.5 0 0 1-.344.043.47.47 0 0 1-.3-.213.428.428 0 0 1 .182-.6 51.096 51.096 0 0 1 2.5-1.221.484.484 0 0 1 .627.2.429.429 0 0 1-.219.589c-.825.374-1.649.777-2.45 1.2" class="cls-2" transform="translate(-215.735 -41.461)"/><path id="path410" d="M437.26-479.971a.493.493 0 0 1-.437.106.473.473 0 0 1-.227-.126.421.421 0 0 1 .022-.623c.681-.6 1.393-1.186 2.116-1.747a.491.491 0 0 1 .661.059.424.424 0 0 1-.063.621 43.936 43.936 0 0 0-2.072 1.71" class="cls-2" transform="translate(-206.442 -47.303)"/><path id="path412" d="M445.972-486.462a.494.494 0 0 1-.392.071.47.47 0 0 1-.264-.168.423.423 0 0 1 .1-.616 46.553 46.553 0 0 1 2.328-1.49.489.489 0 0 1 .649.134.424.424 0 0 1-.143.609 45.85 45.85 0 0 0-2.281 1.46" class="cls-2" transform="translate(-210.881 -44.109)"/><path id="path414" d="M429.521-472.489a.488.488 0 0 1-.477.146.484.484 0 0 1-.185-.087.424.424 0 0 1-.062-.621c.6-.677 1.223-1.344 1.863-1.984a.492.492 0 0 1 .664-.019.422.422 0 0 1 .02.623 41.782 41.782 0 0 0-1.825 1.942" class="cls-2" transform="translate(-202.498 -50.637)"/><path id="path416" d="M476.476-511.481l-.95-7.347 24.892 3.57z" class="cls-5" transform="translate(-226.17 -28.786)"/><path id="path418" d="M501.125-511.556l-22.994 5.648-.061.016-1.155 1.324.268-3.21 23.942-3.778" class="cls-3" transform="translate(-226.876 -32.489)"/><path id="path420" d="M476.915-498.692l2.067-.026-.912-1.3z" class="cls-4" transform="translate(-226.953 -38.365)"/><path id="path422" d="M482.161-506.6l-2.894.711 4.707 6.7 18.348-12.366-20.161 4.955" class="cls-5" transform="translate(-228.072 -32.49)"/></g></g></g></svg>