<svg xmlns="http://www.w3.org/2000/svg" id="artboard-svg" width="24" height="28" viewBox="0 0 24 28" style="width:562.5px"><defs><style>.cls-1 { clip-path: url(#clip-Mobile_Page_-_2); } .cls-2 { fill: #eee; } .cls-3, .cls-4, .cls-5 { fill: #bdbdbd; } .cls-4 { fill-rule: evenodd; } .cls-5, .cls-6 { font-size: 10px; } .cls-31, .cls-32, .cls-5, .cls-6, .cls-8 { font-family: ArialMT, Arial; } .cls-6, .cls-8, .cls-9 { fill: #534daa; } .cls-7 { fill: #fff; } .cls-8 { font-size: 20px; } .cls-10 { fill: #e3e8e6; } .cls-11 { fill: #b3bad3; } .cls-12 { fill: #213760; } .cls-13 { fill: none; stroke: #eee; } .cls-14 { fill: #f7f8fd; } .cls-15 { fill: #bfb2df; } .cls-16 { fill: #99deef; } .cls-17 { fill: #d4d3ee; } .cls-18 { fill: #a79cd6; } .cls-19 { fill: #5762b7; } .cls-20 { fill: #234465; } .cls-21 { fill: #305c78; } .cls-22 { fill: #e8eaf7; } .cls-23 { fill: #6dccd6; } .cls-24 { fill: #f5af45; } .cls-25 { fill: #e4519c; } .cls-26 { fill: #83d6e5; } .cls-27 { fill: #3e52ac; } .cls-28 { fill: #f46bac; } .cls-29 { fill: #295072; } .cls-30 { fill: #3545a2; } .cls-31 { fill: #424242; } .cls-31, .cls-32 { font-size: 9px; } .cls-32 { fill: #566cff; } .cls-33 { fill: #f682b9; } .cls-34 { fill: #ee9f3d; } .cls-35 { fill: #e49035; } .cls-36 { filter: url(#Rectangle_6); } .cls-37 { filter: url(#Rectangle_5); } .cls-38 { filter: url(#Rectangle_3); } .cls-39 { filter: url(#Rectangle_8); } .cls-40 { filter: url(#Rectangle_7); } .cls-41 { filter: url(#Rectangle_4); }</style><filter id="Rectangle_4" width="295" height="172" x="52" y="183" filterUnits="userSpaceOnUse"><feOffset dy="3"/><feGaussianBlur result="blur" stdDeviation="3"/><feFlood flood-opacity=".161"/><feComposite in2="blur" operator="in"/><feComposite in="SourceGraphic"/></filter><filter id="Rectangle_7" width="295" height="156" x="52" y="400" filterUnits="userSpaceOnUse"><feOffset dy="3"/><feGaussianBlur result="blur-2" stdDeviation="3"/><feFlood flood-opacity=".161"/><feComposite in2="blur-2" operator="in"/><feComposite in="SourceGraphic"/></filter><filter id="Rectangle_8" width="295" height="182" x="52" y="603" filterUnits="userSpaceOnUse"><feOffset dy="3"/><feGaussianBlur result="blur-3" stdDeviation="3"/><feFlood flood-opacity=".161"/><feComposite in2="blur-3" operator="in"/><feComposite in="SourceGraphic"/></filter><filter id="Rectangle_3" width="68" height="68" x="27" y="158" filterUnits="userSpaceOnUse"><feOffset dy="3"/><feGaussianBlur result="blur-4" stdDeviation="3"/><feFlood flood-opacity=".161"/><feComposite in2="blur-4" operator="in"/><feComposite in="SourceGraphic"/></filter><filter id="Rectangle_5" width="68" height="68" x="27" y="375" filterUnits="userSpaceOnUse"><feOffset dy="3"/><feGaussianBlur result="blur-5" stdDeviation="3"/><feFlood flood-opacity=".161"/><feComposite in2="blur-5" operator="in"/><feComposite in="SourceGraphic"/></filter><filter id="Rectangle_6" width="68" height="68" x="27" y="573" filterUnits="userSpaceOnUse"><feOffset dy="3"/><feGaussianBlur result="blur-6" stdDeviation="3"/><feFlood flood-opacity=".161"/><feComposite in2="blur-6" operator="in"/><feComposite in="SourceGraphic"/></filter><clipPath id="clip-Mobile_Page_-_2"><path d="M0 0h375v812H0z"/></clipPath></defs><g transform="translate(-156 -72)"><g id="Mobile_Page_-_2" class="cls-1" data-name="Mobile Page - 2"><g id="Group_3" data-name="Group 3" transform="translate(58 13)"><g id="g3794" transform="translate(98.233 59.564)"><path id="path4-2" d="M51.015 2.484l1.1.34a2.12 2.12 0 0 1-.357.8 1.552 1.552 0 0 1-.605.486 2.237 2.237 0 0 1-.92.164 2.687 2.687 0 0 1-1.107-.2 1.751 1.751 0 0 1-.741-.689 2.325 2.325 0 0 1-.312-1.262 2.144 2.144 0 0 1 .542-1.572A2.471 2.471 0 0 1 51.39.322a1.891 1.891 0 0 1 .665.988l-1.155.25a.957.957 0 0 0-.123-.274.729.729 0 0 0-.26-.225.8.8 0 0 0-1 .263 1.438 1.438 0 0 0-.173.8 1.449 1.449 0 0 0 .216.922.757.757 0 0 0 .605.249.747.747 0 0 0 .573-.207 1.268 1.268 0 0 0 .281-.6" class="cls-3" data-name="path4" transform="translate(-43.937)"/><path id="path6-4" d="M99.129 2.85l1.271-.075a.944.944 0 0 0 .151.445.62.62 0 0 0 .529.248.557.557 0 0 0 .395-.129.4.4 0 0 0 .139-.3.407.407 0 0 0-.123-.29 1.437 1.437 0 0 0-.635-.242A2.778 2.778 0 0 1 99.662 2a1.006 1.006 0 0 1-.36-.8 1.078 1.078 0 0 1 .185-.6 1.228 1.228 0 0 1 .556-.444A2.615 2.615 0 0 1 101.062 0a2.059 2.059 0 0 1 1.21.3 1.3 1.3 0 0 1 .5.953l-1.271.077a.778.778 0 0 0-.174-.44.482.482 0 0 0-.365-.138.4.4 0 0 0-.288.1.312.312 0 0 0-.1.231.36.36 0 0 0 .045.18q.043.082.381.153a5.312 5.312 0 0 1 1.2.367 1.259 1.259 0 0 1 .525.46 1.176 1.176 0 0 1 .164.615 1.318 1.318 0 0 1-.22.736 1.378 1.378 0 0 1-.615.511 2.478 2.478 0 0 1-1 .174 2.065 2.065 0 0 1-1.462-.4 1.582 1.582 0 0 1-.46-1.024" class="cls-3" data-name="path6" transform="translate(-90.607 -.003)"/><path id="path8-2" d="M147.5 2.85l1.271-.075a.942.942 0 0 0 .151.445.62.62 0 0 0 .529.248.558.558 0 0 0 .4-.129.4.4 0 0 0 .139-.3.408.408 0 0 0-.123-.29 1.438 1.438 0 0 0-.634-.242 2.779 2.779 0 0 1-1.193-.5 1.006 1.006 0 0 1-.36-.8 1.077 1.077 0 0 1 .185-.6 1.226 1.226 0 0 1 .556-.444A2.613 2.613 0 0 1 149.436 0a2.059 2.059 0 0 1 1.21.3 1.3 1.3 0 0 1 .5.953l-1.271.077a.778.778 0 0 0-.174-.44.482.482 0 0 0-.365-.138.4.4 0 0 0-.288.1.313.313 0 0 0-.1.231.361.361 0 0 0 .045.18q.043.082.381.153a5.314 5.314 0 0 1 1.195.367 1.261 1.261 0 0 1 .525.46 1.177 1.177 0 0 1 .164.615 1.319 1.319 0 0 1-.22.736 1.379 1.379 0 0 1-.616.511 2.478 2.478 0 0 1-1 .174 2.065 2.065 0 0 1-1.462-.4 1.581 1.581 0 0 1-.46-1.024" class="cls-3" data-name="path8" transform="translate(-134.822 -.003)"/><path id="polyline12-2" d="M139.092 174l-.687 3.434h13.978l-.436 2.218H137.96l-.678 3.434h13.978l-.78 3.917-5.634 1.866-4.881-1.869.334-1.7h-3.434l-.817 4.121 8.075 3.091 9.309-3.091 1.234-6.2.251-1.244L156.5 174h-17.408" class="cls-3" data-name="polyline12" transform="translate(-136.048 -168.201)"/></g></g></g></g></svg>