<svg xmlns="http://www.w3.org/2000/svg" id="artboard-svg" width="31" height="31" viewBox="0 0 31 31" style="width:562.5px"><defs><style>.cls-1 { clip-path: url(#clip-Mobile_Page_-_2); } .cls-2 { fill: #eee; } .cls-3, .cls-4, .cls-5 { fill: #bdbdbd; } .cls-4 { fill-rule: evenodd; } .cls-5, .cls-6 { font-size: 10px; } .cls-31, .cls-32, .cls-5, .cls-6, .cls-8 { font-family: ArialMT, Arial; } .cls-6, .cls-8, .cls-9 { fill: #534daa; } .cls-7 { fill: #fff; } .cls-8 { font-size: 20px; } .cls-10 { fill: #e3e8e6; } .cls-11 { fill: #b3bad3; } .cls-12 { fill: #213760; } .cls-13 { fill: none; stroke: #eee; } .cls-14 { fill: #f7f8fd; } .cls-15 { fill: #bfb2df; } .cls-16 { fill: #99deef; } .cls-17 { fill: #d4d3ee; } .cls-18 { fill: #a79cd6; } .cls-19 { fill: #5762b7; } .cls-20 { fill: #234465; } .cls-21 { fill: #305c78; } .cls-22 { fill: #e8eaf7; } .cls-23 { fill: #6dccd6; } .cls-24 { fill: #f5af45; } .cls-25 { fill: #e4519c; } .cls-26 { fill: #83d6e5; } .cls-27 { fill: #3e52ac; } .cls-28 { fill: #f46bac; } .cls-29 { fill: #295072; } .cls-30 { fill: #3545a2; } .cls-31 { fill: #424242; } .cls-31, .cls-32 { font-size: 9px; } .cls-32 { fill: #566cff; } .cls-33 { fill: #f682b9; } .cls-34 { fill: #ee9f3d; } .cls-35 { fill: #e49035; } .cls-36 { filter: url(#Rectangle_6); } .cls-37 { filter: url(#Rectangle_5); } .cls-38 { filter: url(#Rectangle_3); } .cls-39 { filter: url(#Rectangle_8); } .cls-40 { filter: url(#Rectangle_7); } .cls-41 { filter: url(#Rectangle_4); }</style><filter id="Rectangle_4" width="295" height="172" x="52" y="183" filterUnits="userSpaceOnUse"><feOffset dy="3"/><feGaussianBlur result="blur" stdDeviation="3"/><feFlood flood-opacity=".161"/><feComposite in2="blur" operator="in"/><feComposite in="SourceGraphic"/></filter><filter id="Rectangle_7" width="295" height="156" x="52" y="400" filterUnits="userSpaceOnUse"><feOffset dy="3"/><feGaussianBlur result="blur-2" stdDeviation="3"/><feFlood flood-opacity=".161"/><feComposite in2="blur-2" operator="in"/><feComposite in="SourceGraphic"/></filter><filter id="Rectangle_8" width="295" height="182" x="52" y="603" filterUnits="userSpaceOnUse"><feOffset dy="3"/><feGaussianBlur result="blur-3" stdDeviation="3"/><feFlood flood-opacity=".161"/><feComposite in2="blur-3" operator="in"/><feComposite in="SourceGraphic"/></filter><filter id="Rectangle_3" width="68" height="68" x="27" y="158" filterUnits="userSpaceOnUse"><feOffset dy="3"/><feGaussianBlur result="blur-4" stdDeviation="3"/><feFlood flood-opacity=".161"/><feComposite in2="blur-4" operator="in"/><feComposite in="SourceGraphic"/></filter><filter id="Rectangle_5" width="68" height="68" x="27" y="375" filterUnits="userSpaceOnUse"><feOffset dy="3"/><feGaussianBlur result="blur-5" stdDeviation="3"/><feFlood flood-opacity=".161"/><feComposite in2="blur-5" operator="in"/><feComposite in="SourceGraphic"/></filter><filter id="Rectangle_6" width="68" height="68" x="27" y="573" filterUnits="userSpaceOnUse"><feOffset dy="3"/><feGaussianBlur result="blur-6" stdDeviation="3"/><feFlood flood-opacity=".161"/><feComposite in2="blur-6" operator="in"/><feComposite in="SourceGraphic"/></filter><clipPath id="clip-Mobile_Page_-_2"><path d="M0 0h375v812H0z"/></clipPath></defs><g transform="translate(-47 -590)"><g id="Mobile_Page_-_2" class="cls-1" data-name="Mobile Page - 2"><g id="layer1-4" data-name="layer1" transform="translate(-23.272 477.019)"><g id="g8726" transform="translate(64.678 198.785)"><path id="path734" d="M15.73-75.7a4.939 4.939 0 0 1-4.939 4.939A4.939 4.939 0 0 1 5.852-75.7a4.939 4.939 0 0 1 4.939-4.939A4.939 4.939 0 0 1 15.73-75.7" class="cls-10"/><path id="path736" d="M23.428-62.206a4.233 4.233 0 0 1-4.233 4.233 4.233 4.233 0 0 1-4.233-4.233 4.233 4.233 0 0 1 4.233-4.233 4.233 4.233 0 0 1 4.233 4.233" class="cls-10"/><path id="path738" d="M33.722-78.748a7.056 7.056 0 0 1-7.056 7.056 7.056 7.056 0 0 1-7.056-7.056 7.056 7.056 0 0 1 7.056-7.052 7.056 7.056 0 0 1 7.056 7.056" class="cls-10"/><path id="path740" d="M10.086-60.356h12.7a1.411 1.411 0 0 0 1.414-1.412v-19.755a1.411 1.411 0 0 0-1.411-1.411h-12.7a1.411 1.411 0 0 0-1.411 1.411v19.756a1.411 1.411 0 0 0 1.411 1.411" class="cls-7"/><path id="path742" d="M10.791-60.356h11.995a1.411 1.411 0 0 0 1.414-1.412v-19.579H11.5a.705.705 0 0 0-.706.706v20.285" class="cls-11"/><path id="path744" d="M10.086-82.67a1.148 1.148 0 0 0-1.147 1.147v19.756a1.148 1.148 0 0 0 1.147 1.147h12.7a1.148 1.148 0 0 0 1.147-1.147v-19.756a1.148 1.148 0 0 0-1.147-1.147zm12.7 22.578h-12.7a1.678 1.678 0 0 1-1.676-1.676v-19.755a1.678 1.678 0 0 1 1.676-1.677h12.7a1.678 1.678 0 0 1 1.676 1.676v19.756a1.678 1.678 0 0 1-1.676 1.676" class="cls-12"/><path id="path746" d="M9.38-63.531h14.111a.706.706 0 0 0 .706-.706v-14.817a.706.706 0 0 0-.706-.706H9.38a.705.705 0 0 0-.706.706v14.817a.706.706 0 0 0 .706.706" class="cls-7"/><path id="path748" d="M12.2-63.531h11.292a.706.706 0 0 0 .706-.706v-13.406h-3.176a8.82 8.82 0 0 0-8.819 8.82v5.292" class="cls-11"/><path id="path750" d="M9.38-79.495a.441.441 0 0 0-.441.441v14.817a.441.441 0 0 0 .441.441h14.111a.441.441 0 0 0 .441-.441v-14.817a.441.441 0 0 0-.441-.441zm14.111 16.228H9.38a.971.971 0 0 1-.97-.97v-14.817a.971.971 0 0 1 .97-.97h14.111a.971.971 0 0 1 .97.97v14.817a.971.971 0 0 1-.97.97" class="cls-12"/><path id="path752" d="M11.673-70.234h1.058a.882.882 0 0 0 .882-.882v-1.058a.882.882 0 0 0-.882-.882h-1.058a.882.882 0 0 0-.882.882v1.058a.882.882 0 0 0 .882.882" class="cls-7"/><path id="path754" d="M11.849-70.234h.882a.882.882 0 0 0 .882-.882V-72h-1.058a.706.706 0 0 0-.706.706v1.058" class="cls-11"/><path id="path756" d="M11.673-72.792a.618.618 0 0 0-.617.617v1.058a.618.618 0 0 0 .617.617h1.058a.618.618 0 0 0 .617-.617v-1.058a.618.618 0 0 0-.617-.617zm1.058 2.822h-1.058a1.148 1.148 0 0 1-1.147-1.147v-1.058a1.148 1.148 0 0 1 1.147-1.147h1.058a1.148 1.148 0 0 1 1.147 1.147v1.058a1.148 1.148 0 0 1-1.147 1.147" class="cls-12"/><path id="path758" d="M11.673-65.648h1.058a.882.882 0 0 0 .882-.882v-1.058a.882.882 0 0 0-.882-.882h-1.058a.882.882 0 0 0-.882.882v1.058a.882.882 0 0 0 .882.882" class="cls-7"/><path id="path760" d="M11.849-65.648h.882a.882.882 0 0 0 .882-.882v-.882h-1.058a.706.706 0 0 0-.706.706v1.058" class="cls-11"/><path id="path762" d="M11.673-68.205a.618.618 0 0 0-.617.617v1.058a.618.618 0 0 0 .617.617h1.058a.618.618 0 0 0 .617-.617v-1.058a.618.618 0 0 0-.617-.617zm1.058 2.822h-1.058a1.148 1.148 0 0 1-1.147-1.147v-1.058a1.148 1.148 0 0 1 1.147-1.147h1.058a1.148 1.148 0 0 1 1.147 1.147v1.058a1.148 1.148 0 0 1-1.147 1.147" class="cls-12"/><path id="path764" d="M11.673-74.82h1.058a.882.882 0 0 0 .882-.882v-1.058a.882.882 0 0 0-.882-.882h-1.058a.882.882 0 0 0-.882.882v1.06a.882.882 0 0 0 .882.882" class="cls-7"/><path id="path766" d="M11.849-74.82h.882a.882.882 0 0 0 .882-.882v-.882h-1.058a.706.706 0 0 0-.706.706v1.058" class="cls-11"/><path id="path768" d="M11.673-77.378a.618.618 0 0 0-.617.617v1.061a.618.618 0 0 0 .617.617h1.058a.618.618 0 0 0 .617-.617v-1.058a.618.618 0 0 0-.617-.617zm1.058 2.822h-1.058a1.148 1.148 0 0 1-1.147-1.144v-1.058a1.148 1.148 0 0 1 1.147-1.147h1.058a1.148 1.148 0 0 1 1.147 1.147v1.058a1.148 1.148 0 0 1-1.147 1.147" class="cls-12"/><path id="path770" d="M18.4-81.082h-3.527a.265.265 0 0 1-.265-.265.265.265 0 0 1 .265-.265H18.4a.265.265 0 0 1 .265.265.265.265 0 0 1-.265.265" class="cls-12"/><path id="path772" d="M17.342-61.679h-1.411a.265.265 0 0 1-.265-.265.265.265 0 0 1 .265-.265h1.411a.265.265 0 0 1 .265.265.265.265 0 0 1-.265.265" class="cls-12"/><path id="path774" d="M20.871-61.679h-1.412a.265.265 0 0 1-.265-.265.265.265 0 0 1 .265-.265h1.411a.265.265 0 0 1 .265.265.265.265 0 0 1-.265.265" class="cls-12"/><path id="path776" d="M13.814-61.679H12.4a.265.265 0 0 1-.265-.265.265.265 0 0 1 .265-.265h1.411a.265.265 0 0 1 .265.265.265.265 0 0 1-.265.265" class="cls-12"/><path id="path778" d="M20.165-81.347a.353.353 0 0 1-.353.353.353.353 0 0 1-.353-.353.353.353 0 0 1 .353-.353.353.353 0 0 1 .353.353" class="cls-12"/><path id="path780" d="M21.374-74.821l7.762-2.47v9.878l-7.762-2.47v-4.938" class="cls-7"/><path id="path782" d="M29.136-77.291v9.878l-4.94-1.71z" class="cls-11"/><path id="path784" d="M29.136-77.291l2.117-1.764v13.406l-2.117-1.764v-9.878" class="cls-7"/><path id="path786" d="M31.253-79.055v13.406l-1.4-1.165z" class="cls-11"/><path id="path788" d="M21.639-70.077l7.233 2.3v-9.154l-7.233 2.3zm7.5 2.928a.274.274 0 0 1-.08-.012l-7.762-2.47a.265.265 0 0 1-.184-.252v-4.939a.265.265 0 0 1 .184-.252l7.762-2.469a.267.267 0 0 1 .237.038.265.265 0 0 1 .108.214v9.878a.264.264 0 0 1-.108.213.265.265 0 0 1-.156.051" class="cls-12"/><path id="path790" d="M29.4-67.537l1.588 1.323V-78.49L29.4-77.167zm1.852 2.153a.265.265 0 0 1-.169-.061l-2.116-1.765a.265.265 0 0 1-.1-.2v-9.878a.264.264 0 0 1 .1-.2l2.117-1.764a.265.265 0 0 1 .282-.037.265.265 0 0 1 .152.24v13.406a.264.264 0 0 1-.152.239.263.263 0 0 1-.112.025" class="cls-12"/><path id="path792" d="M16.788-74.821h4.586v4.939h-4.586a1.059 1.059 0 0 1-1.058-1.058v-2.822a1.058 1.058 0 0 1 1.058-1.058" class="cls-7"/><path id="path794" d="M19.964-72.7h1.411v2.822H18.2l1.764-2.822" class="cls-11"/><path id="path796" d="M19.258-69.882h2.117v4.233h-.706a1.411 1.411 0 0 1-1.411-1.411v-2.822" class="cls-7"/><path id="path798" d="M20.669-68.471h.706v2.822h-1.059v-2.469a.353.353 0 0 1 .353-.353" class="cls-11"/><path id="path800" d="M16.788-74.557a.794.794 0 0 0-.794.794v2.822a.8.8 0 0 0 .794.794h4.322v-4.41zm4.586 4.939h-4.586a1.325 1.325 0 0 1-1.323-1.323v-2.822a1.324 1.324 0 0 1 1.323-1.323h4.586a.265.265 0 0 1 .265.265v4.939a.265.265 0 0 1-.265.265" class="cls-12"/><path id="path802" d="M19.523-69.618v2.558a1.148 1.148 0 0 0 1.147 1.147h.441v-3.7zm1.852 4.233h-.706a1.678 1.678 0 0 1-1.676-1.676v-2.822a.265.265 0 0 1 .265-.265h2.117a.265.265 0 0 1 .265.265v4.233a.265.265 0 0 1-.265.265" class="cls-12"/><path id="path804" d="M18.552-71.029a.265.265 0 0 1-.265-.265v-2.116a.265.265 0 0 1 .265-.265.265.265 0 0 1 .265.265v2.117a.265.265 0 0 1-.265.265" class="cls-12"/><path id="path806" d="M19.964-71.029a.265.265 0 0 1-.265-.265v-2.116a.265.265 0 0 1 .265-.265.265.265 0 0 1 .265.265v2.117a.265.265 0 0 1-.265.265" class="cls-12"/><path id="path808" d="M17.141-71.029a.265.265 0 0 1-.265-.265v-2.116a.265.265 0 0 1 .265-.265.265.265 0 0 1 .265.265v2.117a.265.265 0 0 1-.265.265" class="cls-12"/><path id="path810" d="M26.1-78.789h-.488a.265.265 0 0 1-.265-.265.265.265 0 0 1 .265-.265h.488a.265.265 0 0 1 .265.265.265.265 0 0 1-.265.265" class="cls-12"/><path id="path812" d="M27.725-78.789h-.488a.265.265 0 0 1-.265-.265.265.265 0 0 1 .265-.265h.488a.265.265 0 0 1 .265.265.265.265 0 0 1-.265.265" class="cls-12"/><path id="path814" d="M26.666-77.73A.265.265 0 0 1 26.4-78v-.489a.265.265 0 0 1 .265-.265.265.265 0 0 1 .265.265V-78a.265.265 0 0 1-.265.265" class="cls-12"/><path id="path816" d="M26.666-79.359a.265.265 0 0 1-.265-.265v-.488a.265.265 0 0 1 .265-.265.265.265 0 0 1 .265.265v.488a.265.265 0 0 1-.265.265" class="cls-12"/><path id="path818" d="M28.919-81.611h-.489a.265.265 0 0 1-.265-.265.265.265 0 0 1 .265-.265h.489a.265.265 0 0 1 .265.265.265.265 0 0 1-.265.265" class="cls-12"/><path id="path820" d="M30.547-81.611h-.488a.265.265 0 0 1-.265-.265.265.265 0 0 1 .265-.265h.488a.265.265 0 0 1 .265.265.265.265 0 0 1-.265.265" class="cls-12"/><path id="path822" d="M29.489-80.553a.265.265 0 0 1-.265-.265v-.489a.265.265 0 0 1 .265-.265.265.265 0 0 1 .265.265v.489a.265.265 0 0 1-.265.265" class="cls-12"/><path id="path824" d="M29.489-82.182a.264.264 0 0 1-.265-.265v-.488a.265.265 0 0 1 .265-.265.265.265 0 0 1 .265.265v.488a.264.264 0 0 1-.265.265" class="cls-12"/><path id="path826" d="M26.8-65.029h-.488a.265.265 0 0 1-.265-.265.264.264 0 0 1 .265-.265h.488a.264.264 0 0 1 .265.265.265.265 0 0 1-.265.265" class="cls-12"/><path id="path828" d="M28.43-65.029h-.488a.265.265 0 0 1-.265-.265.264.264 0 0 1 .265-.265h.488a.264.264 0 0 1 .265.265.265.265 0 0 1-.265.265" class="cls-12"/><path id="path830" d="M27.372-63.971a.265.265 0 0 1-.265-.265v-.489a.265.265 0 0 1 .265-.265.265.265 0 0 1 .265.265v.489a.265.265 0 0 1-.265.265" class="cls-12"/><path id="path832" d="M27.372-65.6a.265.265 0 0 1-.265-.265v-.488a.264.264 0 0 1 .265-.265.264.264 0 0 1 .265.265v.488a.265.265 0 0 1-.265.265" class="cls-12"/><path id="path834" d="M28.213-61.148h-.488a.265.265 0 0 1-.265-.265.264.264 0 0 1 .265-.265h.488a.264.264 0 0 1 .265.265.265.265 0 0 1-.265.265" class="cls-12"/><path id="path836" d="M29.842-61.148h-.488a.265.265 0 0 1-.265-.265.264.264 0 0 1 .265-.265h.488a.264.264 0 0 1 .265.265.265.265 0 0 1-.265.265" class="cls-12"/><path id="path838" d="M28.783-60.09a.265.265 0 0 1-.265-.265v-.489a.265.265 0 0 1 .265-.265.265.265 0 0 1 .265.265v.489a.265.265 0 0 1-.265.265" class="cls-12"/><path id="path840" d="M28.783-61.719a.265.265 0 0 1-.265-.265v-.488a.264.264 0 0 1 .265-.265.264.264 0 0 1 .265.265v.488a.265.265 0 0 1-.265.265" class="cls-12"/></g></g></g></g></svg>