<svg xmlns="http://www.w3.org/2000/svg" id="artboard-svg" width="306" height="178" viewBox="0 0 306 178"><defs><style>.cls-1 { clip-path: url(#clip-iPhone_X_XS_1); } .cls-2, .cls-3, .cls-5 { fill: #566cff; } .cls-2 { font-size: 15px; } .cls-2, .cls-5, .cls-7 { font-family: Montserrat-Regular, Montserrat; } .cls-4, .cls-8 { fill: #fff; } .cls-5 { font-size: 20px; } .cls-6 { font-family: Montserrat-Bold, Montserrat; font-weight: 700; } .cls-7 { fill: #707070; } .cls-7, .cls-8 { font-size: 13px; } .cls-8 { font-family: SegoeUI, Segoe UI; } .cls-9 { fill: #f7f8fd; } .cls-10 { fill: #bfb2df; } .cls-11 { fill: #99deef; } .cls-12 { fill: #ee9f3d; } .cls-13 { fill: #d4d3ee; } .cls-14 { fill: #a79cd6; } .cls-15 { fill: #5762b7; } .cls-16 { fill: #234465; } .cls-17 { fill: #305c78; } .cls-18 { fill: #e8eaf7; } .cls-19 { fill: #6dccd6; } .cls-20 { fill: #f5af45; } .cls-21 { fill: #e4519c; } .cls-22 { fill: #83d6e5; } .cls-23 { fill: #3e52ac; } .cls-24 { fill: #f46bac; } .cls-25 { fill: #295072; } .cls-26 { fill: #3545a2; } .cls-27 { fill: #f682b9; } .cls-28 { fill: #e49035; } .cls-29 { filter: url(#Rectangle_1-3); } .cls-30 { filter: url(#Rectangle_1-2); } .cls-31 { filter: url(#Rectangle_1); }</style><filter id="Rectangle_1" width="320" height="203" x="27" y="255" filterUnits="userSpaceOnUse"><feOffset dy="3"/><feGaussianBlur result="blur" stdDeviation="3"/><feFlood flood-opacity=".161"/><feComposite in2="blur" operator="in"/><feComposite in="SourceGraphic"/></filter><filter id="Rectangle_1-2" width="320" height="203" x="27" y="708" filterUnits="userSpaceOnUse"><feOffset dy="3"/><feGaussianBlur result="blur-2" stdDeviation="3"/><feFlood flood-opacity=".161"/><feComposite in2="blur-2" operator="in"/><feComposite in="SourceGraphic"/></filter><filter id="Rectangle_1-3" width="320" height="203" x="27" y="1180" filterUnits="userSpaceOnUse"><feOffset dy="3"/><feGaussianBlur result="blur-3" stdDeviation="3"/><feFlood flood-opacity=".161"/><feComposite in2="blur-3" operator="in"/><feComposite in="SourceGraphic"/></filter><clipPath id="clip-iPhone_X_XS_1"><path d="M0 0h375v1494H0z"/></clipPath></defs><g transform="translate(-35 -1004)"><g id="iPhone_X_XS_1" class="cls-1" data-name="iPhone X/XS – 1"><g id="layer1-3" data-name="layer1" transform="translate(29.451 955.362)"><g id="g13950" transform="translate(6.268 48.812)"><g id="g1902" transform="translate(13.627 22.17)"><path id="path1904" d="M838.465-447.995a139.683 139.683 0 0 0 .715-14.127 137.516 137.516 0 0 0-137.514-137.514 137.517 137.517 0 0 0-137.521 137.514 139.676 139.676 0 0 0 .722 14.127h273.6" class="cls-9" transform="translate(-564.145 599.636)"/></g><g id="g1906" transform="translate(0 172.927)"><path id="path1908" d="M856.748-500.339H555.872a.7.7 0 0 0-.7.7.7.7 0 0 0 .7.7h300.876a.7.7 0 0 0 .7-.7.7.7 0 0 0-.7-.7" class="cls-10" transform="translate(-555.17 500.339)"/></g><g id="g1910" transform="translate(238.478 108.048)"><path id="path1912" d="M764.793-520.825c0-1.536-1.892-2.095-4.19-1.969a13.888 13.888 0 0 0-6.927 2.137c1.306-2.06 2.549-4.162 3.673-6.327a9.243 9.243 0 0 0 7.251 1.084c2.5-.566 4.546-2.13 4.365-3.876-.175-1.62-2.151-1.83-4.448-1.334a16.043 16.043 0 0 0-6.641 3.08 64.884 64.884 0 0 0 1.606-3.492 9.467 9.467 0 0 0 4.071-6.634 7.011 7.011 0 0 0-.349-3.631c-.461-.943-1.061-1.39-1.746-1.271-1.4.342-1.885 1.976-2.43 4.127a16.1 16.1 0 0 0-.224 7.186 52.25 52.25 0 0 1-1.564 3.394 9.19 9.19 0 0 0-2.43-6.459c-1.487-1.641-3.24-2.444-4.246-1.851-1.034.608-.44 2.409.8 4.427 1.264 2 3.219 4.183 5.349 4.916-1.11 2.144-2.346 4.232-3.645 6.278a10.157 10.157 0 0 0-1.557-6.809c-1.222-1.892-2.814-3.01-3.932-2.465-1.208.58-.9 2.577.084 4.756 1.013 2.179 2.724 4.539 4.777 5.482a99.89 99.89 0 0 1-4.2 5.929c1.25-4.483-2.214-10.768-4.609-9.776-1.271.489-1.173 2.549-.391 4.812.81 2.27 2.339 4.77 4.295 5.88-1.508 1.892-3.038 3.778-4.686 5.552 1.606-4.358-1.313-10.922-3.785-10.119-1.3.391-1.39 2.437-.782 4.763s1.941 4.951 3.8 6.215c-1.669 1.753-3.359 3.492-5.168 5.1 2.018-4.2-.363-10.957-2.884-10.391-1.313.286-1.564 2.256-1.152 4.63.405 2.318 1.466 5.084 3.177 6.536a58.546 58.546 0 0 1-5.712 4.448c2.584-3.9.782-10.824-1.7-10.573-1.306.119-1.69 1.976-1.536 4.337.161 2.325.81 5.2 2.291 6.885a34.876 34.876 0 0 1-6.4 3.282 8.354 8.354 0 0 0 2.228-6.4c-.133-2.228-1.006-3.96-2.13-4.12-1.194-.189-1.655 1.466-1.858 3.708-.154 2.242-.265 5.112.67 7.172a12.6 12.6 0 0 1-9.134-.161.389.389 0 0 0-.489.182.335.335 0 0 0 .2.461 13.306 13.306 0 0 0 9.637.2 7.962 7.962 0 0 0 4.678 5.724c2.465 1.173 5.265 1.124 6.222-.335.887-1.39-.524-2.793-2.6-3.827a19.036 19.036 0 0 0-7.186-1.934 35.538 35.538 0 0 0 6.55-3.352 8.962 8.962 0 0 0 5.81 4.483c2.493.684 5.028.321 5.614-1.2 1.089-2.849-6.068-4.812-10.461-3.939a59.125 59.125 0 0 0 5.782-4.5 9.414 9.414 0 0 0 6.348 3.673c2.493.391 4.9-.175 5.286-1.718.719-2.884-6.529-4.218-10.768-2.737 1.823-1.627 3.526-3.38 5.2-5.147a9.566 9.566 0 0 0 6.655 3.045c2.528.182 4.812-.573 5.07-2.13.454-2.912-6.85-3.673-10.943-1.781 1.655-1.788 3.205-3.68 4.72-5.587a9.623 9.623 0 0 0 6.885 2.486c2.535-.014 4.728-.978 4.874-2.535.216-2.961-7.137-3.094-11.054-.873a98.533 98.533 0 0 0 4.239-5.971 9.509 9.509 0 0 0 7.074 1.885c2.535-.23 4.658-1.425 4.679-3.031" class="cls-12" transform="translate(-712.244 543.072)"/></g><g id="g1914" transform="translate(9.891 39.668)"><path id="path1916" d="M582.6-572.053c-.936-.821-2.765-.165-4.439 1.338a10.184 10.184 0 0 0-3.3 6.158c-.71-2.313-1.355-4.648-1.861-7.017 2.253-.143 4.709-1.735 6.46-3.327 1.729-1.619 2.77-3.211 1.939-4.065-.815-.832-2.721-.523-4.588.666a9.191 9.191 0 0 0-4.043 5.6q-.372-1.859-.622-3.745a16.234 16.234 0 0 0 1.685-6.956c.055-2.2.022-3.883-1.228-4.582-.633-.308-1.333-.039-2.038.76a6.982 6.982 0 0 0-1.311 3.426 9.422 9.422 0 0 0 2.2 7.5c.165 1.25.369 2.495.622 3.734a16.136 16.136 0 0 0-5.6-4.714c-2.082-1.085-4.054-1.41-4.637.116-.639 1.63.925 3.679 3.189 4.885a9.232 9.232 0 0 0 7.287.854c.512 2.39 1.162 4.748 1.873 7.077a13.91 13.91 0 0 0-6.119-3.888c-2.176-.722-4.153-.683-4.56.8-.4 1.548 1.333 3.266 3.712 4.158a9.538 9.538 0 0 0 7.325.044c.749 2.319 1.6 4.61 2.511 6.868-3.189-3.167-10.321-4.973-10.894-2.065-.259 1.542 1.6 3.051 4.043 3.729a9.64 9.64 0 0 0 7.3-.584c.958 2.242 1.955 4.467 3.073 6.637-3.437-2.9-10.7-4.1-11.021-1.168-.154 1.57 1.845 2.9 4.329 3.393a9.575 9.575 0 0 0 7.215-1.184c1.157 2.148 2.341 4.285 3.679 6.334-3.707-2.55-11.054-3.172-11.115-.2-.028 1.592 2.137 2.776 4.654 3.051a9.4 9.4 0 0 0 7.083-1.873 59.821 59.821 0 0 0 4.39 5.871c-4-2-11.423-2-11.125 1.041.165 1.625 2.517 2.644 5.1 2.638a8.953 8.953 0 0 0 6.786-2.792 35.194 35.194 0 0 0 5.436 4.957 19.106 19.106 0 0 0-7.441-.028c-2.28.452-4.01 1.432-3.519 3.007.54 1.663 3.233 2.445 5.915 1.966a7.99 7.99 0 0 0 6.025-4.29 13.28 13.28 0 0 0 9.352 2.341.328.328 0 0 0 .308-.391.4.4 0 0 0-.43-.3 12.584 12.584 0 0 1-8.851-2.247c1.443-1.74 2.093-4.538 2.539-6.741.391-2.22.385-3.938-.815-4.07-1.129-.143-2.423 1.3-3.145 3.415a8.339 8.339 0 0 0 .468 6.764 34.616 34.616 0 0 1-5.315-4.852c1.873-1.239 3.25-3.844 4.021-6.042.771-2.236.887-4.131-.336-4.583-2.341-.9-5.893 5.3-4.434 9.749a58.644 58.644 0 0 1-4.34-5.8c2.038-.947 3.784-3.332 4.792-5.469 1.019-2.181 1.294-4.147.1-4.77-2.275-1.2-6.356 4.687-5.519 9.264-1.316-2.027-2.489-4.147-3.635-6.279 2.12-.733 4.1-2.93 5.3-5s1.647-4.076.5-4.8c-2.175-1.421-6.714 4.136-6.317 8.763-1.113-2.148-2.1-4.362-3.051-6.587 2.176-.556 4.307-2.566 5.684-4.544 1.349-1.977 1.994-3.938.892-4.742-2.049-1.586-7.039 3.563-7.017 8.218a95.576 95.576 0 0 1-2.495-6.824c2.225-.369 4.5-2.2 6.053-4.031 1.52-1.851 2.341-3.7 1.333-4.566" class="cls-12" transform="translate(-561.685 588.111)"/></g><g id="g1918" transform="translate(65.214 30.197)"><path id="path1920" d="M763.746-594.349h-159.4a6.224 6.224 0 0 0-6.228 6.221v95.672h171.856v-95.672a6.223 6.223 0 0 0-6.228-6.221" class="cls-25" transform="translate(-598.123 594.349)"/></g><g id="g1922" transform="translate(69.919 34.829)"><path id="path1924" d="M601.222-498.741V-591.3h162.519v92.557H601.222" class="cls-4" transform="translate(-601.222 591.298)"/></g><g id="g1926" transform="translate(51.711 132.076)"><path id="path1928" d="M589.229-527.246a11.542 11.542 0 0 0 11.539 11.539h175.809a11.538 11.538 0 0 0 11.539-11.539H589.229" class="cls-16" transform="translate(-589.229 527.246)"/></g><g id="g1930" transform="translate(135.686 132.053)"><path id="path1932" d="M675.552-523.31H644.54v-3.952h31.012v3.952" class="cls-17" transform="translate(-644.54 527.261)"/></g><g id="g1934" transform="translate(203.387 85.161)"><path id="path1936" d="M702.293-521.651h-13.161v-36.5h13.162v36.5" class="cls-21" transform="translate(-689.132 558.146)"/></g><g id="g1938" transform="translate(186.019 98.271)"><path id="path1940" d="M690.849-526.126h-13.157v-23.386h13.157v23.386" class="cls-20" transform="translate(-677.692 549.511)"/></g><g id="g1942" transform="translate(168.731 93.313)"><path id="path1944" d="M679.464-524.492H666.3v-28.285h13.159v28.285" class="cls-22" transform="translate(-666.305 552.777)"/></g><g id="g1946" transform="translate(151.358 105.1)"><path id="path1948" d="M668.02-545.014v16.5h-13.158v-16.5h13.158" class="cls-23" transform="translate(-654.862 545.014)"/></g><g id="g1950" transform="translate(151.358 41.492)"><path id="path1952" d="M668.02-586.909v9.172h-13.158v-9.172h13.158" class="cls-10" transform="translate(-654.862 586.909)"/></g><g id="g1954" transform="translate(168.731 41.483)"><path id="path1956" d="M679.464-586.915v9.173H666.3v-9.173h13.159" class="cls-10" transform="translate(-666.305 586.915)"/></g><g id="g1958" transform="translate(186.019 41.559)"><path id="path1960" d="M690.849-586.865v9.168h-13.157v-9.168h13.157" class="cls-10" transform="translate(-677.692 586.865)"/></g><g id="g1962" transform="translate(203.387 41.549)"><path id="path1964" d="M702.293-586.872v9.171h-13.161v-9.171h13.162" class="cls-10" transform="translate(-689.132 586.872)"/></g><g id="g1966" transform="translate(151.293 60.456)"><path id="path1968" d="M654.82-542.4l2.567 3.64 18.374-12.973 18.394 6.409 15.515-15.515 4.6 4.576 5.8-18.153-18.153 5.8 4.6 4.6-13.552 13.552-17.9-6.227L654.82-542.4" class="cls-15" transform="translate(-654.82 574.418)"/></g><g id="g1970" transform="translate(78.656 79.718)"><path id="path1972" d="M618.366-561.731h-11.39v3.989h11.39v-3.989" class="cls-22" transform="translate(-606.977 561.731)"/></g><g id="g1974" transform="translate(94.912 79.767)"><path id="path1976" d="M638.834-561.7h-21.15v3.989h21.15v-3.989" class="cls-15" transform="translate(-617.684 561.699)"/></g><g id="g1978" transform="translate(120.973 79.774)"><path id="path1980" d="M648.1-561.7h-13.251v3.992H648.1v-3.992" class="cls-22" transform="translate(-634.849 561.695)"/></g><g id="g1982" transform="translate(78.593 89.049)"><path id="path1984" d="M614.372-555.586h-7.437v3.989h7.437v-3.989" class="cls-15" transform="translate(-606.935 555.586)"/></g><g id="g1986" transform="translate(90.982 89.015)"><path id="path1988" d="M636.247-555.608H615.1v3.99h21.151v-3.99" class="cls-10" transform="translate(-615.096 555.608)"/></g><g id="g1990" transform="translate(117.038 89.024)"><path id="path1992" d="M645.512-555.6h-13.254v3.988h13.254v-3.988" class="cls-10" transform="translate(-632.258 555.603)"/></g><g id="g1994" transform="translate(78.601 98.31)"><path id="path1996" d="M619.171-549.486h-12.23v3.987h12.23v-3.987" class="cls-10" transform="translate(-606.941 549.486)"/></g><g id="g1998" transform="translate(95.775 98.284)"><path id="path2000" d="M618.252-545.513h16.358v-3.99h-16.358v3.99" class="cls-27" transform="translate(-618.252 549.503)"/></g><g id="g2002" transform="translate(117.086 98.251)"><path id="path2004" d="M632.289-545.534h21.151v-3.991h-21.151v3.991" class="cls-22" transform="translate(-632.289 549.525)"/></g><g id="g2006" transform="translate(78.611 107.563)"><path id="path2008" d="M610.437-543.391h-3.49v4h3.49v-4" class="cls-10" transform="translate(-606.947 543.391)"/></g><g id="g2010" transform="translate(87.053 107.527)"><path id="path2012" d="M612.508-539.424h21.151v-3.991h-21.151v3.991" class="cls-22" transform="translate(-612.508 543.415)"/></g><g id="g2014" transform="translate(113.073 107.576)"><path id="path2016" d="M629.646-539.4h21.149v-3.986h-21.149v3.986" class="cls-15" transform="translate(-629.646 543.383)"/></g><g id="g2018" transform="translate(78.656 116.789)"><path id="path2020" d="M606.977-533.325h11.39v-3.989h-11.39v3.989" class="cls-27" transform="translate(-606.977 537.314)"/></g><g id="g2022" transform="translate(94.954 116.799)"><path id="path2024" d="M617.711-533.317h13.251v-3.991h-13.251v3.991" class="cls-10" transform="translate(-617.711 537.308)"/></g><g id="g2026" transform="translate(113.116 116.803)"><path id="path2028" d="M629.674-533.316h13.248v-3.99h-13.248v3.99" class="cls-22" transform="translate(-629.674 537.306)"/></g><g id="g2030" transform="translate(78.666 41.49)"><path id="path2032" d="M666.555-586.911h-59.572v30.385h59.571v-30.385" class="cls-13" transform="translate(-606.983 586.911)"/></g><g id="g2034" transform="translate(85.465 44.796)"><path id="path2036" d="M611.462-560.971h7.9v-23.762h-7.9v23.762" class="cls-15" transform="translate(-611.462 584.733)"/></g><g id="g2038" transform="translate(98.128 50.391)"><path id="path2040" d="M619.8-562.85h7.9v-18.2h-7.9v18.2" class="cls-15" transform="translate(-619.802 581.048)"/></g><g id="g2042" transform="translate(110.788 55.983)"><path id="path2044" d="M628.141-564.729h7.893v-12.636h-7.893v12.636" class="cls-15" transform="translate(-628.141 577.365)"/></g><g id="g2046" transform="translate(123.525 61.5)"><path id="path2048" d="M644.432-573.731h-7.9v7.077h7.9v-7.077" class="cls-15" transform="translate(-636.53 573.731)"/></g><g id="g2050" transform="translate(183.96 1.863)"><path id="path2052" d="M676.336-602.126L705-606.491l-1.709-6.521-26.951 10.885" class="cls-13" transform="translate(-676.336 613.012)"/></g><g id="g2054" transform="translate(183.96 8.383)"><path id="path2056" d="M705-608.717l-28.66 4.365 26.724 7.667L705-608.716" class="cls-14" transform="translate(-676.336 608.717)"/></g><g id="g2058" transform="translate(183.929 11.931)"><path id="path2060" d="M705.459-606.38l-29.144.844 30.961 6.132-1.817-6.976" class="cls-13" transform="translate(-676.316 606.38)"/></g><g id="g2062" transform="translate(214.443 8.95)"><path id="path2064" d="M703.537-607.127a30.544 30.544 0 0 0-1.581-.034c-.243 0-.487 0-.73.007l-.041-1.176c.3-.014.622-.014.933-.014.487 0 .987.014 1.473.034zm-6.941.412l-.182-1.169a42.935 42.935 0 0 1 2.379-.3l.115 1.176a39.21 39.21 0 0 0-2.308.294zm11.5.25a21.475 21.475 0 0 0-2.257-.446l.161-1.169a23.922 23.922 0 0 1 2.379.466zm4.183 1.73a13.2 13.2 0 0 0-2.027-1.014l.453-1.095a14.75 14.75 0 0 1 2.19 1.1zm3.177 3.041a8.254 8.254 0 0 0-1.392-1.7l.8-.858a9.471 9.471 0 0 1 1.6 1.94zm1.737 4.258c-.277-.764-.547-1.5-.811-2.2l1.1-.426c.277.71.541 1.46.818 2.23zm1.656 4.454c-.311-.764-.588-1.507-.858-2.224l1.108-.406c.257.7.541 1.433.845 2.176zm2.021 4.332a43.31 43.31 0 0 1-1.075-2.142l1.075-.5c.318.683.656 1.379 1.041 2.082zm2.528 4.075c-.453-.642-.9-1.3-1.331-1.994l1-.628a35.66 35.66 0 0 0 1.291 1.933zm2.96 3.737a66.406 66.406 0 0 1-1.514-1.831l.919-.743c.493.622 1 1.223 1.493 1.811zm3.068 3.582c-.494-.595-1.007-1.2-1.521-1.791l.892-.771c.52.6 1.034 1.2 1.534 1.8zm2.751 3.731a31.567 31.567 0 0 0-1.3-1.906l.939-.7c.48.635.939 1.3 1.365 1.98zm2.034 4.116a20.2 20.2 0 0 0-.906-2.109l1.054-.527a21.107 21.107 0 0 1 .96 2.23zm1.1 4.433c-.047-.345-.108-.7-.169-1.041-.088-.419-.169-.818-.27-1.2l1.156-.277c.095.406.189.825.27 1.25.068.372.135.75.176 1.135zm1.264 4.67l-1.183-.041c.027-.689.047-1.379.047-2.061v-.277h1.183v.277c-.003.697-.022 1.4-.051 2.103zm-1.2 4.744a26.05 26.05 0 0 1-.061-1.8l.007-.608 1.176.02-.007.588c0 .581.02 1.149.054 1.717zm1.291 4.765a9.634 9.634 0 0 1-.919-2.332l1.149-.291a8.085 8.085 0 0 0 .8 2.048zm3.284 3.663a17.445 17.445 0 0 1-1.8-1.642l.858-.811a17.218 17.218 0 0 0 1.683 1.534l-.737.919" class="cls-13" transform="translate(-696.414 608.343)"/></g><g id="g2066" transform="translate(251.634 69.719)"><path id="path2068" d="M728.73-568.205l18.627 10.125a.916.916 0 0 0 1.045-.1l2.792-2.388a.937.937 0 0 1 1.058-.112l8.544 4.645a.928.928 0 0 1 .341 1.316l-10.682 17.046a.943.943 0 0 1-1.24.327L721.4-552.475a.94.94 0 0 1-.4-1.212l6.434-14.087a.946.946 0 0 1 1.3-.432" class="cls-28" transform="translate(-720.909 568.318)"/></g><g id="g2070" transform="translate(254.967 69.624)"><path id="path2072" d="M732.2-568.269l22.844 12.421a.93.93 0 0 1 .375 1.262l-7.7 14.307a.936.936 0 0 1-1.269.381l-22.851-12.421a.936.936 0 0 1-.375-1.262l7.712-14.307a.936.936 0 0 1 1.269-.381" class="cls-13" transform="translate(-723.105 568.38)"/></g><g id="g2074" transform="translate(247.27 71.486)"><path id="path2076" d="M718.123-547.409l8.775-19.2a.925.925 0 0 1 1.292-.431l31.564 17.154a.934.934 0 0 1 .347 1.32l-11.201 17.88a.933.933 0 0 1-1.237.32L718.526-546.2a.925.925 0 0 1-.4-1.209" class="cls-20" transform="translate(-718.036 567.154)"/></g><g id="g2078" transform="translate(94.115 146.789)"><path id="path2080" d="M676.3-491.447h-59.141v-26.107H676.3v26.107" class="cls-11" transform="translate(-617.159 517.555)"/></g><g id="g2082" transform="translate(94.115 146.789)"><path id="path2084" d="M676.3-512v-5.555h-59.141V-512H676.3" class="cls-19" transform="translate(-617.159 517.555)"/></g><g id="g2086" transform="translate(98.283 167.313)"><path id="path2088" d="M666.581-504.037v3.467H619.9v-3.467h46.677" class="cls-19" transform="translate(-619.904 504.037)"/></g><g id="g2090" transform="translate(136.457 147.894)"><path id="path2092" d="M647.614-510.532v-6.3h-2.566v6.3h2.566" class="cls-4" transform="translate(-645.048 516.827)"/></g><g id="g2094" transform="translate(136.457 156.683)"><path id="path2096" d="M647.614-504.737v-6.3h-2.566v6.3h2.566" class="cls-4" transform="translate(-645.048 511.038)"/></g><g id="g2098" transform="translate(136.457 165.472)"><path id="path2100" d="M647.614-498.948v-6.3h-2.566v6.3h2.566" class="cls-4" transform="translate(-645.048 505.249)"/></g><g id="g2102" transform="translate(143.456 156.271)"><path id="path2104" d="M654.217-505.881a2.03 2.03 0 0 1-1.641 1.891v.888h-1.264v-.888a2.036 2.036 0 0 1-1.654-1.891h1.265c0 .377.468.7 1.021.7s1.009-.322 1.009-.7-.462-.693-1.009-.693a2.147 2.147 0 0 1-2.286-1.964 2.034 2.034 0 0 1 1.654-1.878v-.894h1.264v.894a2.028 2.028 0 0 1 1.641 1.878h-1.264c0-.371-.462-.693-1.009-.693s-1.021.322-1.021.693.468.705 1.021.705a2.13 2.13 0 0 1 2.274 1.951" class="cls-4" transform="translate(-649.658 511.31)"/></g><g id="g2106" transform="translate(112.838 153.686)"><path id="path2108" d="M640.223-506.662c0 3.51-2.407 6.35-5.366 6.35s-5.366-2.84-5.366-6.35 2.4-6.35 5.366-6.35 5.366 2.84 5.366 6.35" class="cls-19" transform="translate(-629.491 513.012)"/></g><g id="g2110" transform="translate(116.08 155.965)"><path id="path2112" d="M636.148-506.138a2.011 2.011 0 0 1-1.631 1.868v.887h-1.247v-.887a2.016 2.016 0 0 1-1.643-1.868h1.253c0 .378.461.692 1.011.692s1-.313 1-.692-.461-.686-1-.686a2.123 2.123 0 0 1-2.264-1.939 2.015 2.015 0 0 1 1.643-1.862v-.887h1.247v.887a2.01 2.01 0 0 1 1.631 1.862H634.9c0-.372-.461-.686-1-.686s-1.011.313-1.011.686.461.686 1.011.686a2.121 2.121 0 0 1 2.258 1.939" class="cls-4" transform="translate(-631.626 511.511)"/></g><g id="g2114" transform="translate(97.865 153.45)"><path id="path2116" d="M622.066-513.168v.724H620.6v.619a1.407 1.407 0 0 1 .37-.046 1.4 1.4 0 0 1 .932.33 1.067 1.067 0 0 1 .388.874 1.189 1.189 0 0 1-.4.914 1.461 1.461 0 0 1-1 .359 1.617 1.617 0 0 1-1.262-.567l.434-.6c.035.029.075.069.127.116a1.323 1.323 0 0 0 .3.185.838.838 0 0 0 .428.116.592.592 0 0 0 .376-.127.459.459 0 0 0 .168-.382.452.452 0 0 0-.179-.382.735.735 0 0 0-.463-.139 1.425 1.425 0 0 0-.654.2l-.353-.37v-1.823h2.257" class="cls-4" transform="translate(-619.629 513.168)"/></g><g id="g2118" transform="translate(101.109 153.339)"><path id="path2120" d="M622.754-512.213a2.031 2.031 0 0 0-.174.906 2 2 0 0 0 .174.9.59.59 0 0 0 .552.343.577.577 0 0 0 .546-.343 1.925 1.925 0 0 0 .18-.9 1.951 1.951 0 0 0-.18-.906.58.58 0 0 0-.546-.337.594.594 0 0 0-.552.337zm.552 2.83a1.338 1.338 0 0 1-1.156-.523 2.332 2.332 0 0 1-.384-1.406 2.337 2.337 0 0 1 .384-1.4 1.342 1.342 0 0 1 1.156-.529 1.342 1.342 0 0 1 1.156.529 2.337 2.337 0 0 1 .383 1.4 2.332 2.332 0 0 1-.383 1.406 1.338 1.338 0 0 1-1.156.523" class="cls-4" transform="translate(-621.766 513.241)"/></g><g id="g2122" transform="translate(177.055 158.454)"><path id="path2124" d="M689.019-509.859l-.013 2.125c0 1.3-.859 2.577-2.558 3.544a13.458 13.458 0 0 1-12.128-.019l-.044-.032c-1.661-.98-2.488-2.259-2.488-3.525l.013-2.106c0 1.266.84 2.539 2.482 3.5l.038.026a13.485 13.485 0 0 0 12.141.032c1.7-.974 2.545-2.253 2.558-3.544" class="cls-28" transform="translate(-671.788 509.872)"/></g><g id="g2126" transform="translate(177.072 153.461)"><path id="path2128" d="M686.5-511.7l.038.026c3.35 1.974 3.293 5.127-.083 7.063a13.442 13.442 0 0 1-12.125-.032l-.045-.026c-3.337-1.968-3.305-5.139.051-7.056a13.483 13.483 0 0 1 12.164.025" class="cls-12" transform="translate(-671.799 513.16)"/></g><g id="g2130" transform="translate(181.638 156.082)"><path id="path2132" d="M679.228-510.567c-.513.3-.234.684.127 1l1.565-.957a1.562 1.562 0 0 0-1.692-.044m-2.389 2.94a1.956 1.956 0 0 0 1.946 0c.583-.355.241-.748-.133-1.1l-1.812 1.1m3.01.45a3.814 3.814 0 0 1-3.714-.019l-.6.368-.361-.2.6-.368c-1.16-.672-1.35-1.527-.171-2.212l.944.513c-.7.418-.8.836-.07 1.267l1.895-1.147c-.672-.634-1.293-1.388-.146-2.079a3.56 3.56 0 0 1 3.39.1l.621-.368.349.2-.615.374.07.038c.938.545 1.223 1.274.216 1.882l-.944-.513c.494-.33.551-.64.006-.951l-.044-.032-1.654.995c.754.71 1.356 1.458.228 2.148" class="cls-4" transform="translate(-674.806 511.434)"/></g><g id="g2134" transform="translate(162.737 159.251)"><path id="path2136" d="M679.589-509.328l-.013 2.127c0 1.293-.86 2.573-2.56 3.539a13.419 13.419 0 0 1-12.124-.031l-.057-.019c-1.65-.979-2.479-2.259-2.479-3.527l.013-2.108c0 1.268.835 2.535 2.485 3.5l.038.031a13.484 13.484 0 0 0 12.136.025c1.7-.973 2.548-2.253 2.56-3.539" class="cls-28" transform="translate(-662.357 509.347)"/></g><g id="g2138" transform="translate(162.757 154.259)"><path id="path2140" d="M677.063-511.174l.044.031c3.347 1.972 3.291 5.125-.088 7.059a13.443 13.443 0 0 1-12.121-.031l-.044-.031c-3.335-1.966-3.3-5.138.05-7.053a13.483 13.483 0 0 1 12.159.025" class="cls-20" transform="translate(-662.371 512.635)"/></g><g id="g2142" transform="translate(162.737 155.824)"><path id="path2144" d="M679.589-511.591l-.013 2.127c0 1.3-.86 2.579-2.56 3.539a13.419 13.419 0 0 1-12.124-.025l-.057-.025a4.307 4.307 0 0 1-2.479-3.527l.013-2.1c0 1.268.835 2.535 2.485 3.5l.038.025a13.484 13.484 0 0 0 12.136.031c1.7-.973 2.548-2.253 2.56-3.545" class="cls-28" transform="translate(-662.357 511.604)"/></g><g id="g2146" transform="translate(162.757 150.831)"><path id="path2148" d="M677.063-513.426l.044.025c3.347 1.972 3.291 5.125-.088 7.059a13.443 13.443 0 0 1-12.121-.031l-.044-.031c-3.335-1.96-3.3-5.131.05-7.053a13.463 13.463 0 0 1 12.159.031" class="cls-20" transform="translate(-662.371 514.893)"/></g><g id="g2150" transform="translate(167.328 153.45)"><path id="path2152" d="M669.794-512.3c-.506.306-.225.687.131.994l1.562-.944a1.559 1.559 0 0 0-1.694-.05m-2.387 2.944a1.988 1.988 0 0 0 1.95 0c.575-.356.244-.75-.131-1.1l-1.818 1.1m3.012.444a3.821 3.821 0 0 1-3.718-.013l-.606.369-.356-.2.606-.369c-1.156-.669-1.344-1.525-.169-2.212l.944.519c-.694.412-.8.831-.069 1.269l1.894-1.15c-.675-.638-1.294-1.387-.15-2.081a3.575 3.575 0 0 1 3.393.106l.619-.369.356.194-.619.375.069.038c.938.537 1.219 1.275.219 1.881l-.944-.512c.494-.337.55-.637 0-.95l-.044-.031-1.65 1c.75.7 1.356 1.456.225 2.137" class="cls-4" transform="translate(-665.381 513.167)"/></g><g id="g2154" transform="translate(172.429 165.809)"><path id="path2156" d="M685.971-505.014l-.013 2.128c0 1.3-.861 2.578-2.559 3.541a13.445 13.445 0 0 1-12.124-.025l-.057-.032c-1.653-.976-2.477-2.255-2.477-3.522l.013-2.1c0 1.267.836 2.534 2.483 3.5l.038.025a13.471 13.471 0 0 0 12.137.025c1.7-.969 2.547-2.249 2.559-3.541" class="cls-28" transform="translate(-668.741 505.027)"/></g><g id="g2158" transform="translate(172.447 160.816)"><path id="path2160" d="M683.446-506.849l.044.025c3.348 1.972 3.291 5.123-.089 7.05a13.41 13.41 0 0 1-12.122-.025l-.044-.025c-3.335-1.965-3.3-5.135.051-7.063a13.49 13.49 0 0 1 12.16.038" class="cls-20" transform="translate(-668.752 508.316)"/></g><g id="g2162" transform="translate(177.011 163.437)"><path id="path2164" d="M676.172-505.723c-.5.3-.227.681.133 1l1.565-.953a1.577 1.577 0 0 0-1.7-.044m-2.385 2.946a1.991 1.991 0 0 0 1.943 0c.58-.36.252-.757-.126-1.1l-1.817 1.1m3.009.435a3.833 3.833 0 0 1-3.716-.006l-.6.366-.36-.2.6-.372c-1.154-.669-1.344-1.527-.164-2.208l.94.511c-.694.416-.8.839-.069 1.268l1.893-1.142c-.669-.637-1.293-1.388-.145-2.088a3.582 3.582 0 0 1 3.394.107l.618-.366.353.189-.618.378.069.038c.94.536 1.224 1.274.214 1.886l-.94-.524c.492-.328.549-.631 0-.946l-.044-.025-1.647 1c.751.7 1.357 1.457.221 2.132" class="cls-4" transform="translate(-671.759 506.59)"/></g><g id="g2166" transform="translate(137.249)"><path id="path2168" d="M669.694-614.238h-20.37a3.761 3.761 0 0 0-3.754 3.76v18.552a3.761 3.761 0 0 0 3.754 3.76h20.37a3.761 3.761 0 0 0 3.754-3.76v-18.552a3.761 3.761 0 0 0-3.754-3.76" class="cls-15" transform="translate(-645.569 614.238)"/></g><g id="g2170" transform="translate(138.688 1.379)"><path id="path2172" d="M668.626-613.33h-19.175a2.937 2.937 0 0 0-2.933 2.939v17.4a2.937 2.937 0 0 0 2.933 2.94h19.175a2.933 2.933 0 0 0 2.933-2.94v-17.4a2.933 2.933 0 0 0-2.933-2.939" class="cls-4" transform="translate(-646.517 613.33)"/></g><g id="g2174" transform="translate(143.52 5.379)"><path id="path2176" d="M665.021-603.032a7.658 7.658 0 0 1-7.657 7.657 7.664 7.664 0 0 1-7.664-7.657 7.665 7.665 0 0 1 7.664-7.664 7.66 7.66 0 0 1 7.657 7.664" class="cls-21" transform="translate(-649.7 610.695)"/></g><g id="g2178" transform="translate(148.754 9.204)"><path id="path2180" d="M653.147-608.176v7.656l6.682-3.828-6.682-3.828" class="cls-4" transform="translate(-653.147 608.176)"/></g><g id="g2182" transform="translate(52.059 167.907)"><path id="path2184" d="M597.193-500.073c-1.276-.394-4.055-1.459-4.349-2.956s-2.79.205-2.79.205a16.692 16.692 0 0 0-.593 3.544.558.558 0 0 0 .527.627h8.642c.006-1.032-.383-1.082-1.437-1.42" class="cls-16" transform="translate(-589.459 503.646)"/></g><g id="g2186" transform="translate(52.328 137.03)"><path id="path2188" d="M589.636-523.983h9.082l-5.418 32.638c-2.879.949-3.639 0-3.639 0 .4-12.893.061-24.155-.028-32.638" class="cls-20" transform="translate(-589.636 523.983)"/></g><g id="g2190" transform="translate(61.839 167.93)"><path id="path2192" d="M603.634-500.053c-1.267-.4-4.048-1.458-4.351-2.96s-2.781.2-2.781.2a16.2 16.2 0 0 0-.6 3.549.561.561 0 0 0 .521.628h8.651c0-1.037-.387-1.082-1.441-1.419" class="cls-16" transform="translate(-595.9 503.63)"/></g><g id="g2194" transform="translate(58.612 137.003)"><path id="path2196" d="M593.775-524h9.083l-1.9 32.636c-2.782.95-3.637 0-3.637 0-.994-12.888-2.542-24.156-3.542-32.636" class="cls-20" transform="translate(-593.775 524.001)"/></g><g id="g2198" transform="translate(80.908 119.153)"><path id="path2200" d="M613.45-533.4c-.65-.074-2.423-1.214-2.167-1.408 0 0 .251-.228.969.08s1.294-.16.262-.656a5.837 5.837 0 0 0-2.463-.228 2.39 2.39 0 0 1-.867-.148l-.724 1.671a2.692 2.692 0 0 1 1.174.553c.975.815 3.108 2.286 4.225.5 0 0 .245-.308-.411-.365" class="cls-20" transform="translate(-608.46 535.757)"/></g><g id="g2202" transform="translate(63.186 96.294)"><path id="path2204" d="M605.319-533.371a2.074 2.074 0 0 1-1.174-1.742l-1.22-12.39a3.447 3.447 0 0 0-3.222-3.285l-.023-.017c-2.417-.2-3.205 3.035-2.786 5.406l2.525 11.908c.459 1.764 1.106 3.166 2.7 3.733l12.407 3.6a1.744 1.744 0 0 0 .828-1.923l-10.036-5.293" class="cls-10" transform="translate(-596.787 550.814)"/></g><g id="g2206" transform="translate(54.411 81.408)"><path id="path2208" d="M601.63-544.609a7.237 7.237 0 0 1 .128-.915c-.413.017-.859.017-1.344.033 1.478-.725 1.645-2.637 1.779-6.379.284-1.043.095-2.063.162-4.188l-4.779-4.561-5.983 4.21-.586 3.045 1.082 6.156s.463 3.067 1.662 4.411a7.317 7.317 0 0 1 1.026 1.751 3.572 3.572 0 0 1 .714.68c.1.128.2.262.3.4 1.428 1.02 1.974 1.974 3.441 2.353.156.039 1.182.167 2.063.279.234-.106.468-.212.7-.323a7.2 7.2 0 0 0 .457-1.221 7.627 7.627 0 0 0 .178-1.89l-.056-.061a4.028 4.028 0 0 1-.942-3.775" class="cls-20" transform="translate(-591.007 560.619)"/></g><g id="g2210" transform="translate(46.694 96.265)"><path id="path2212" d="M591.654-529.714c2.121-7.916-1.727-17.536-1.727-17.536l6.481-1.412c4.124 5.187 7.719 5.845 7.719 5.845 1.446-3.713-1.418-7.674-1.418-7.674a5.2 5.2 0 0 1 2.571-.276 22.667 22.667 0 0 1 3.691 4.7c2.273 3.539 1.08 5.834.456 6.931a3.787 3.787 0 0 0-.236.478c-.968 2.205-.968 12.135-.208 14.408a108.365 108.365 0 0 1 4.276 22.549 3.153 3.153 0 0 1-1.918 3.212c-7.741 3.19-15.528 2.644-23.325-.118a3.16 3.16 0 0 1-2.082-3.19c1.086-15.635 4.3-22.645 5.722-27.922" class="cls-13" transform="translate(-585.925 550.833)"/></g><g id="g2214" transform="translate(67.108 131.643)"><path id="path2216" d="M601.093-509.453c-.571.162-1.152.3-1.723.425l.185-18.5 1.538 18.078" class="cls-10" transform="translate(-599.371 527.531)"/></g><g id="g2218" transform="translate(58.747 128.564)"><path id="path2220" d="M595.654-507.339a27.645 27.645 0 0 1-1.79-.083l1.4-22.137.394 22.22" class="cls-10" transform="translate(-593.863 529.559)"/></g><g id="g2222" transform="translate(51.039 133.405)"><path id="path2224" d="M590.776-526.37l-.429 16.28a41.184 41.184 0 0 1-1.561-.429l1.99-15.852" class="cls-10" transform="translate(-588.787 526.37)"/></g><g id="g2226" transform="translate(50.949 79.544)"><path id="path2228" d="M588.733-551.923a10.94 10.94 0 0 1 2.132-7.006 5.482 5.482 0 0 1 3.282-2.255.679.679 0 0 1 .212 0 4.193 4.193 0 0 1 1.987-.631c3.829-.285 7.285 1.278 8.245 7.005.184 1.289-.8 3.947-1.356 5.4l.028-1.4c.419-4.711-.837-5.588-3.405-6.548a.708.708 0 0 0-.943.709c.1 3.226-4.767 5.325-4.907 5.448a2.392 2.392 0 0 0-.3 2.612 13.354 13.354 0 0 0 1.7 5.861c2.875 4.253-2.261 12.258-2.261 12.258.128-3.489.234-6.749-2.283-10.377-2.222-3.21-2.121-10.718-2.132-11.08" class="cls-16" transform="translate(-588.728 561.846)"/></g><g id="g2230" transform="translate(232.231 80.504)"><path id="path2232" d="M708.308-559.545s-1.171 9.81 2.481 10.3l.732 4.935 4.356.678s-.745-3.678-.033-4.915a19.285 19.285 0 0 0 1.31-3.6l-.412-4.829-1.117-2.142-2.488-2.1-4.829 1.669" class="cls-20" transform="translate(-708.13 561.214)"/></g><g id="g2234" transform="translate(227.729 167.519)"><path id="path2236" d="M716.575-503.355s-2.982-1.229-3.726 0-3.195 1.979-5.167 2.358-2.431.372-2.517 1.78c-.067 1.162 7.784.584 10.42.359a1.221 1.221 0 0 0 1.089-.963 6.848 6.848 0 0 0-.1-3.533" class="cls-16" transform="translate(-705.165 503.901)"/></g><g id="g2238" transform="translate(240.542 162.16)"><path id="path2240" d="M719.516-507.431s-3.076 1.179-2.727 2.54-.9 3.552-2.077 5.16-1.508 1.916-.556 2.942c.8.865 6.125-4.885 7.887-6.842a1.15 1.15 0 0 0 .1-1.414 6.972 6.972 0 0 0-2.627-2.385" class="cls-16" transform="translate(-713.604 507.431)"/></g><g id="g2242" transform="translate(227.777 117.82)"><path id="path2244" d="M707.517-536.636s-2.948 22.874-2.2 26.417c1.424 6.765 16.631 21.337 16.631 21.337 1.19-.281 1.644-1.517 2.139-2.995l-10.956-17.8s.876-12.714.969-12.981.709-10.388.709-10.174-7.293-3.8-7.293-3.8" class="cls-26" transform="translate(-705.196 536.636)"/></g><g id="g2246" transform="translate(235.248 121.658)"><path id="path2248" d="M719.966-533.54h-5.754s-3.291-2.243-3.858 2.189.06 44.3.06 44.3c1.161.941 3.484 0 3.484 0 3.09-8.016 6.067-46.49 6.067-46.49" class="cls-23" transform="translate(-710.117 534.108)"/></g><g id="g2250" transform="translate(202.812 92.666)"><path id="path2252" d="M692.7-551.483c.807.911.562 1.382.562 1.382-1.046.723-2.667-1.6-3.067-2.532s-.743-.439-.743-.439c-2.1 2.493 1.066 4.96 2.725 6.012a4.067 4.067 0 0 1 1.376 1.472 5.86 5.86 0 0 1 2.131-1.86 3.2 3.2 0 0 1-.614-1.221 9.03 9.03 0 0 0-1.517-3.507c-1.214-1.3-1.653-.22-.853.691" class="cls-20" transform="translate(-688.753 553.204)"/></g><g id="g2254" transform="translate(206.744 94.91)"><path id="path2256" d="M715.378-551.726l-10.723 11.876-10.308-8.971a3.631 3.631 0 0 0-3 1.634l12.41 13.608a1.631 1.631 0 0 0 2.114.257l7.061-4.756 2.45-13.648" class="cls-22" transform="translate(-691.343 551.726)"/></g><g id="g2258" transform="translate(228.408 92.647)"><path id="path2260" d="M705.613-546.325a5.381 5.381 0 0 1 2.968-5.093 29.3 29.3 0 0 1 3.562-1.531c.321 2.479 1.537 2.82 1.537 2.82 2.58-.267 3.723-3.088 3.723-3.088a22.683 22.683 0 0 0 4.358 3.281 3.566 3.566 0 0 1 1.925 3.215c-.1 8.722-1.3 25.39-1.3 25.39-3.636 2.092-16.915.628-16.762-.1.1-.936.14-15.819-.014-24.9" class="cls-11" transform="translate(-705.612 553.216)"/></g><g id="g2262" transform="translate(229.576 77.73)"><path id="path2264" d="M706.386-560a4.383 4.383 0 0 0 .433 2.01 2.62 2.62 0 0 0 1.411 1.132 6.54 6.54 0 0 0 1.731.333 5.67 5.67 0 0 0 3.994-.619 1.156 1.156 0 0 0 .559-.786 9.231 9.231 0 0 1 .826 4.134.565.565 0 0 0 .047.273.254.254 0 0 0 .167.1c.286.107.579.206.845.313.08-.539.166-1.078.246-1.591a.959.959 0 0 1 .186-.539c.206-.206.559-.067.726.206a2.11 2.11 0 0 1 .14.952 3.253 3.253 0 0 1-.433 2c-.286.373.433 2.15.433 2.5 1.325-.579.706-2.709 1.012-4.3a12.125 12.125 0 0 0 .166-2.3 12.784 12.784 0 0 0-.186-2.669 3.365 3.365 0 0 0-.639-1.571 3.391 3.391 0 0 0-1.052-.845 2.4 2.4 0 0 0-.912-.333.947.947 0 0 0-.845.413 5.23 5.23 0 0 0-2.2-1.611 2.639 2.639 0 0 0-2.23 0 10.969 10.969 0 0 0-1.4 1.1 1.371 1.371 0 0 1-1.571.226c-.273-.166-.353-.805-.619-.892-.293-.08-.6.6-.686.872a4.192 4.192 0 0 0-.147 1.484" class="cls-26" transform="translate(-706.381 563.041)"/></g><g id="g2266" transform="translate(235.974 121.947)"><path id="path2268" d="M713.571-533.917s-3.052 1.489-2.892 1.861c.073.439 1.449 0 1.542-.04a10.616 10.616 0 0 0-1.516 1.662.628.628 0 0 0-.08.552 2.457 2.457 0 0 0 1.762 1.709.592.592 0 0 0 .459-.067 6.2 6.2 0 0 0 2.367-4.168l-1.642-1.509" class="cls-20" transform="translate(-710.595 533.917)"/></g><g id="g2270" transform="translate(238.547 96.157)"><path id="path2272" d="M722.5-533.9c-1.274 3.246-8.047 11.219-8.047 11.219a2.821 2.821 0 0 1-2.159-2.542s4.9-7.946 5.532-10.407c.4-1.542-1.871-8.047-3.085-11.326a2.91 2.91 0 0 1 .858-3.239 2.923 2.923 0 0 1 4.54.945c2.166 4.667 3.769 11.836 2.36 15.349" class="cls-22" transform="translate(-712.289 550.904)"/></g><g id="g2274" transform="translate(63.738 124.225)"><path id="path2276" d="M602.036-529.608c-.644-.146-2.278-1.466-2-1.634 0 0 .28-.2.957.185s1.3-.017.33-.621a5.789 5.789 0 0 0-2.423-.5 2.313 2.313 0 0 1-.845-.241l-.9 1.584c1.192.358 3.537 3.805 5.249 1.634 0 0 .28-.28-.364-.408" class="cls-20" transform="translate(-597.151 532.417)"/></g><g id="g2278" transform="translate(48.241 99.822)"><path id="path2280" d="M594.026-530.509a2.062 2.062 0 0 1-.974-1.854l.128-12.445a3.452 3.452 0 0 0-2.845-3.619l-.022-.017c-2.389-.462-3.519 2.667-3.352 5.073 1.381 10.78.484 14.661 3.491 16.109l11.944 4.928a1.732 1.732 0 0 0 1.036-1.815l-9.4-6.359" class="cls-10" transform="translate(-586.944 548.49)"/></g><g id="g2282" transform="translate(29.163 17.969)"><path id="path2284" d="M601.07-585.4l-13.343 14.864-13.349-14.864h4.887v-17h16.917v17h4.887" class="cls-15" transform="translate(-574.378 602.403)"/></g><g id="g2286" transform="translate(39.009 23.644)"><path id="path2288" d="M587.75-598.665l-5.732 10.071h-1.154l5.727-10.071h1.16" class="cls-4" transform="translate(-580.863 598.665)"/></g><g id="g2290" transform="translate(43.219 28.446)"><path id="path2292" d="M586.016-594.743a1.619 1.619 0 0 0-1.614 1.614 1.616 1.616 0 0 0 1.614 1.614 1.616 1.616 0 0 0 1.614-1.614 1.619 1.619 0 0 0-1.614-1.614zm0 3.994a2.379 2.379 0 0 1-2.38-2.38 2.378 2.378 0 0 1 2.38-2.374 2.377 2.377 0 0 1 2.374 2.374 2.378 2.378 0 0 1-2.374 2.38" class="cls-4" transform="translate(-583.636 595.503)"/></g><g id="g2294" transform="translate(37.008 24.08)"><path id="path2296" d="M581.92-597.614A1.616 1.616 0 0 0 580.3-596a1.618 1.618 0 0 0 1.616 1.616 1.621 1.621 0 0 0 1.62-1.616 1.62 1.62 0 0 0-1.616-1.614zm0 3.991a2.381 2.381 0 0 1-2.374-2.38 2.376 2.376 0 0 1 2.374-2.374 2.376 2.376 0 0 1 2.374 2.377 2.381 2.381 0 0 1-2.374 2.38" class="cls-4" transform="translate(-579.545 598.378)"/></g><g id="g2298" transform="translate(10.892 98.254)"><path id="path2300" d="M593.4-528.34a15.977 15.977 0 0 1-20.3 9.868 15.975 15.975 0 0 1-9.874-20.3 15.972 15.972 0 0 1 20.3-9.868 15.975 15.975 0 0 1 9.874 20.3" class="cls-18" transform="translate(-562.344 549.523)"/></g><g id="g2302" transform="translate(22.719 114.142)"><path id="path2304" d="M586.562-534.837l-12.208-4.221-4.221 12.208a12.916 12.916 0 0 0 16.428-7.987" class="cls-26" transform="translate(-570.134 539.058)"/></g><g id="g2306" transform="translate(13.967 101.278)"><path id="path2308" d="M589.492-530.393a12.919 12.919 0 0 0-7.986-16.427 12.919 12.919 0 0 0-16.427 7.986 12.823 12.823 0 0 0-.694 4.839l12.9-.619 12.207 4.221" class="cls-18" transform="translate(-564.369 547.531)"/></g><path id="path2310" d="M573.065-526.824l4.221-12.207-12.9.616a12.91 12.91 0 0 0 8.677 11.591" class="cls-20" transform="translate(-550.392 653.214)"/><g id="g2312" transform="translate(13.991 101.256)"><path id="path2314" d="M581.518-546.831a12.908 12.908 0 0 0-16.424 7.983 12.793 12.793 0 0 0-.694 4.836l12.9-.613 7.09-10.781a12.557 12.557 0 0 0-2.873-1.426" class="cls-10" transform="translate(-564.385 547.545)"/></g><g id="g2316" transform="translate(26.892 103.407)"><path id="path2318" d="M579.97-546.129l-7.088 10.781 12.207 4.219a12.917 12.917 0 0 0-5.119-15" class="cls-24" transform="translate(-572.882 546.129)"/></g><path id="path2320" d="M571.425-523.432l1.741-5.029-4.457-1.539-1.735 5.024 4.451 1.542" class="cls-15" transform="translate(-549.052 657.895)"/><path id="path2322" d="M574.958-525.751L569.9-527.5a1.534 1.534 0 0 0-1.955.948l-6.17 17.836a4.383 4.383 0 0 0 2.319 5.511 4.217 4.217 0 0 0 5.576-2.528l6.245-18.061a1.542 1.542 0 0 0-.953-1.96" class="cls-24" transform="translate(-551.878 659.147)"/><g id="g2324" transform="translate(9.725 97.007)"><path id="path2326" d="M583.658-547.374a15.047 15.047 0 0 0-19.113 9.289 15.041 15.041 0 0 0 9.295 19.113 15.034 15.034 0 0 0 19.107-9.289 15.042 15.042 0 0 0-9.289-19.113zm-10.522 30.431a17.185 17.185 0 0 1-10.615-21.84 17.175 17.175 0 0 1 21.835-10.617 17.186 17.186 0 0 1 10.62 21.835 17.19 17.19 0 0 1-21.84 10.62" class="cls-15" transform="translate(-561.575 550.344)"/></g></g></g></g></g></svg>