<svg xmlns="http://www.w3.org/2000/svg" id="artboard-svg" width="11" height="10" viewBox="0 0 11 10" style="width:562.5px"><defs><style>.cls-1 { clip-path: url(#clip-Mobile_Page_-_3); } .cls-2 { fill: #cfe6f4; } .cls-3 { fill: #3a65b9; } .cls-4 { fill: #3751ab; } .cls-5 { fill: #3f77c4; } .cls-6 { fill: #f7941d; } .cls-7 { fill: #f36d21; } .cls-8 { fill: #f0b93a; } .cls-9 { fill: #f49477; } .cls-10, .cls-19 { fill: #fff; } .cls-11 { fill: #343054; } .cls-12 { fill: #1e1d33; } .cls-13 { fill: #4c4685; } .cls-14 { fill: #252334; } .cls-15 { fill: #4e4e8a; } .cls-16 { fill: #f36156; } .cls-17 { fill: #f04147; } .cls-18 { fill: #1c1a2c; } .cls-19 { font-size: 30px; font-family: Montserrat-Bold, Montserrat; font-weight: 700; } .cls-20, .cls-21 { fill: #eee; } .cls-21 { font-size: 10px; } .cls-21, .cls-23, .cls-26 { font-family: Montserrat-Regular, Montserrat; } .cls-22 { fill: #566cff; } .cls-23, .cls-25, .cls-26 { fill: #9e9e9e; } .cls-23 { font-size: 12px; } .cls-24 { fill: none; stroke: #bdbdbd; } .cls-26 { font-size: 9px; } .cls-27 { filter: url(#Ellipse_1); } .cls-28 { filter: url(#Rectangle_10); }</style><filter id="Rectangle_10" width="318" height="370" x="29" y="400" filterUnits="userSpaceOnUse"><feOffset dy="3"/><feGaussianBlur result="blur" stdDeviation="3"/><feFlood flood-opacity=".161"/><feComposite in2="blur" operator="in"/><feComposite in="SourceGraphic"/></filter><filter id="Ellipse_1" width="63" height="63" x="156" y="694" filterUnits="userSpaceOnUse"><feOffset dy="3"/><feGaussianBlur result="blur-2" stdDeviation="3"/><feFlood flood-opacity=".161"/><feComposite in2="blur-2" operator="in"/><feComposite in="SourceGraphic"/></filter><clipPath id="clip-Mobile_Page_-_3"><path d="M0 0h375v812H0z"/></clipPath></defs><g transform="translate(-38 -358)"><g id="Mobile_Page_-_3" class="cls-1" data-name="Mobile Page - 3"><g id="Group_14" data-name="Group 14" transform="translate(-11)"><path id="Icon_material-email" d="M9.977 6h-6.2A.774.774 0 0 0 3 6.775v4.651a.777.777 0 0 0 .775.775h6.2a.777.777 0 0 0 .775-.775V6.775A.777.777 0 0 0 9.977 6zm0 1.55l-3.1 1.938L3.775 7.55v-.775l3.1 1.938 3.1-1.938z" class="cls-20" data-name="Icon material-email" transform="translate(46.037 352.69)"/></g></g></g></svg>