<svg xmlns="http://www.w3.org/2000/svg" id="artboard-svg" width="30" height="24" viewBox="0 0 30 24" style="width:562.5px"><defs><style>.cls-1 { clip-path: url(#clip-Mobile_Page_-_2); } .cls-2 { fill: #eee; } .cls-3, .cls-4, .cls-5 { fill: #bdbdbd; } .cls-4 { fill-rule: evenodd; } .cls-5, .cls-6 { font-size: 10px; } .cls-31, .cls-32, .cls-5, .cls-6, .cls-8 { font-family: ArialMT, Arial; } .cls-6, .cls-8, .cls-9 { fill: #534daa; } .cls-7 { fill: #fff; } .cls-8 { font-size: 20px; } .cls-10 { fill: #e3e8e6; } .cls-11 { fill: #b3bad3; } .cls-12 { fill: #213760; } .cls-13 { fill: none; stroke: #eee; } .cls-14 { fill: #f7f8fd; } .cls-15 { fill: #bfb2df; } .cls-16 { fill: #99deef; } .cls-17 { fill: #d4d3ee; } .cls-18 { fill: #a79cd6; } .cls-19 { fill: #5762b7; } .cls-20 { fill: #234465; } .cls-21 { fill: #305c78; } .cls-22 { fill: #e8eaf7; } .cls-23 { fill: #6dccd6; } .cls-24 { fill: #f5af45; } .cls-25 { fill: #e4519c; } .cls-26 { fill: #83d6e5; } .cls-27 { fill: #3e52ac; } .cls-28 { fill: #f46bac; } .cls-29 { fill: #295072; } .cls-30 { fill: #3545a2; } .cls-31 { fill: #424242; } .cls-31, .cls-32 { font-size: 9px; } .cls-32 { fill: #566cff; } .cls-33 { fill: #f682b9; } .cls-34 { fill: #ee9f3d; } .cls-35 { fill: #e49035; } .cls-36 { filter: url(#Rectangle_6); } .cls-37 { filter: url(#Rectangle_5); } .cls-38 { filter: url(#Rectangle_3); } .cls-39 { filter: url(#Rectangle_8); } .cls-40 { filter: url(#Rectangle_7); } .cls-41 { filter: url(#Rectangle_4); }</style><filter id="Rectangle_4" width="295" height="172" x="52" y="183" filterUnits="userSpaceOnUse"><feOffset dy="3"/><feGaussianBlur result="blur" stdDeviation="3"/><feFlood flood-opacity=".161"/><feComposite in2="blur" operator="in"/><feComposite in="SourceGraphic"/></filter><filter id="Rectangle_7" width="295" height="156" x="52" y="400" filterUnits="userSpaceOnUse"><feOffset dy="3"/><feGaussianBlur result="blur-2" stdDeviation="3"/><feFlood flood-opacity=".161"/><feComposite in2="blur-2" operator="in"/><feComposite in="SourceGraphic"/></filter><filter id="Rectangle_8" width="295" height="182" x="52" y="603" filterUnits="userSpaceOnUse"><feOffset dy="3"/><feGaussianBlur result="blur-3" stdDeviation="3"/><feFlood flood-opacity=".161"/><feComposite in2="blur-3" operator="in"/><feComposite in="SourceGraphic"/></filter><filter id="Rectangle_3" width="68" height="68" x="27" y="158" filterUnits="userSpaceOnUse"><feOffset dy="3"/><feGaussianBlur result="blur-4" stdDeviation="3"/><feFlood flood-opacity=".161"/><feComposite in2="blur-4" operator="in"/><feComposite in="SourceGraphic"/></filter><filter id="Rectangle_5" width="68" height="68" x="27" y="375" filterUnits="userSpaceOnUse"><feOffset dy="3"/><feGaussianBlur result="blur-5" stdDeviation="3"/><feFlood flood-opacity=".161"/><feComposite in2="blur-5" operator="in"/><feComposite in="SourceGraphic"/></filter><filter id="Rectangle_6" width="68" height="68" x="27" y="573" filterUnits="userSpaceOnUse"><feOffset dy="3"/><feGaussianBlur result="blur-6" stdDeviation="3"/><feFlood flood-opacity=".161"/><feComposite in2="blur-6" operator="in"/><feComposite in="SourceGraphic"/></filter><clipPath id="clip-Mobile_Page_-_2"><path d="M0 0h375v812H0z"/></clipPath></defs><g transform="translate(-194 -74)"><g id="Mobile_Page_-_2" class="cls-1" data-name="Mobile Page - 2"><g id="Group_3" data-name="Group 3" transform="translate(58 13)"><g id="github-icon-edit" transform="translate(136.698 61.662)"><path id="path6-6" d="M188.2 101.2l-.02.1-.235 1.1.247-1.159.008-.038" class="cls-3" data-name="path6" transform="translate(-171.135 -92.146)"/><path id="polyline8-4" d="M215.7 234.431l-.13.46.13-.46" class="cls-3" data-name="polyline8" transform="translate(-205.68 -224.644)"/><path id="path10-4" d="M19.6 0a4.666 4.666 0 0 1 .238 3.073c1.38 1.178 1.854 4.042 1.188 6.382 1.966.15 4.309-.072 5.821.531a26.518 26.518 0 0 0-5.167-.414c-.345.023-.857-.013-.832.473a28.23 28.23 0 0 1 5.94.887 43.809 43.809 0 0 0-5.94-.768c-.882 1.741-2.658 2.6-5.108 2.776.263.573.768.791.892 1.714.184 1.378-.288 3.4.177 4.313.223.44.587.452.832.828-.6.71-2.088-.08-2.258-.828-.29-1.281.442-3.268-.356-4.136.057 1.4-.33 3.36.06 4.609.154.491.6.68.475 1.123-2.79.283-1.624-3.611-2.08-5.909-.421.03-.236.63-.237.886-.012 2.245.459 5.323-1.96 5.023-.071-.471.325-.632.475-1.063.442-1.263-.083-3.145.12-4.669-.923.7.1 3.127-.475 4.372a1.779 1.779 0 0 1-2.2.709c.1-.534.657-.448.89-.945.327-.694 0-1.693.119-2.718-1.71.341-3.035-.049-3.684-1.123a11.429 11.429 0 0 0-.713-1.477c-.349-.427-.907-.485-1.069-1.063 2.117-.509 2.2 2.178 4.1 2.245a4.637 4.637 0 0 0 1.425-.295A2.515 2.515 0 0 1 11.227 13C8.861 12.675 6.908 11.939 6 10.164a32.468 32.468 0 0 0-5.941.827A19.581 19.581 0 0 1 5.94 10.1c-.129-.774-1.258-.561-1.96-.531A32.482 32.482 0 0 0 0 9.987a18.657 18.657 0 0 1 5.644-.473c-.622-1.951-.407-5.05.95-6.2A4.24 4.24 0 0 1 6.831 0a6.176 6.176 0 0 1 3.386 1.36 11.789 11.789 0 0 1 4.039-.414c.68.038 1.388.343 1.9.3S17.213.63 17.7.414A4.76 4.76 0 0 1 19.6 0" class="cls-3" data-name="path10"/></g></g></g></g></svg>