<?xml version="1.0" encoding="UTF-8" standalone="no"?>
<!-- Created with Inkscape (http://www.inkscape.org/) -->

<svg
   xmlns:dc="http://purl.org/dc/elements/1.1/"
   xmlns:cc="http://creativecommons.org/ns#"
   xmlns:rdf="http://www.w3.org/1999/02/22-rdf-syntax-ns#"
   xmlns:svg="http://www.w3.org/2000/svg"
   xmlns="http://www.w3.org/2000/svg"
   xmlns:sodipodi="http://sodipodi.sourceforge.net/DTD/sodipodi-0.dtd"
   xmlns:inkscape="http://www.inkscape.org/namespaces/inkscape"
   version="1.1"
   id="svg2"
   xml:space="preserve"
   width="939.95648"
   height="395.73599"
   viewBox="0 0 939.95648 395.73599"
   sodipodi:docname="hero_image.svg"
   inkscape:version="0.92.4 (5da689c313, 2019-01-14)"><metadata
     id="metadata8"><rdf:RDF><cc:Work
         rdf:about=""><dc:format>image/svg+xml</dc:format><dc:type
           rdf:resource="http://purl.org/dc/dcmitype/StillImage" /><dc:title></dc:title></cc:Work></rdf:RDF></metadata><defs
     id="defs6" /><sodipodi:namedview
     pagecolor="#ffffff"
     bordercolor="#666666"
     borderopacity="1"
     objecttolerance="10"
     gridtolerance="10"
     guidetolerance="10"
     inkscape:pageopacity="0"
     inkscape:pageshadow="2"
     inkscape:window-width="2560"
     inkscape:window-height="1377"
     id="namedview4"
     showgrid="false"
     inkscape:zoom="1.3107386"
     inkscape:cx="395.77306"
     inkscape:cy="215.47885"
     inkscape:window-x="1266"
     inkscape:window-y="2152"
     inkscape:window-maximized="1"
     inkscape:current-layer="layer11"
     showborder="true"
     fit-margin-top="0"
     fit-margin-left="0"
     fit-margin-right="0"
     fit-margin-bottom="0" /><g
     inkscape:groupmode="layer"
     id="layer1"
     inkscape:label="mountain"
     style="display:inline"
     sodipodi:insensitive="true"
     transform="translate(-130.0208,-166.62668)"><g
       transform="matrix(1.3333333,0,0,-1.3333333,0,800)"
       style="display:inline"
       id="g4982"><path
         d="M 740.41,206.224 H 159.59 c 0,0 28.603,85.306 47.048,133.356 6.3,16.423 11.428,28.496 13.808,31.314 6.686,7.903 24.531,-20.539 37.527,-40.433 6.129,-9.389 11.194,-16.879 13.486,-17.738 4.661,-1.746 36.666,56.615 62.126,97.944 v 0.007 c 13.657,22.177 25.418,39.451 30.054,39.869 7.248,0.664 20.207,-18.828 34.347,-43.842 24.262,-42.922 52.033,-102.122 60.516,-103.823 7.867,-1.574 20.602,16.127 31.618,31.646 7.804,10.97 14.74,20.86 18.5,22.051 8.42,2.676 16.842,-7.741 25.406,-21.382 11.455,-18.256 23.162,-42.276 35.45,-48.424 14.721,-7.355 43.315,37.409 66.19,73.797 10.498,16.708 19.796,31.645 25.989,38.966 6.747,7.974 18.122,-12.215 30.151,-42.214 23.081,-57.519 48.604,-151.094 48.604,-151.094"
         style="fill:#bceafb;fill-opacity:1;fill-rule:nonzero;stroke:none;stroke-width:0.1"
         id="path358"
         inkscape:connector-curvature="0" /><path
         d="m 257.973,330.461 -2.623,-8.789 -11.634,21.478 -6.712,-16.108 -10.741,11.187 c 0,0 -6.711,-18.347 -8.501,-17.899 -0.921,0.232 -6.202,9.899 -11.124,19.25 6.3,16.423 11.428,28.496 13.808,31.314 6.686,7.903 24.531,-20.539 37.527,-40.433"
         style="fill:#e1f5fb;fill-opacity:1;fill-rule:nonzero;stroke:none;stroke-width:0.1"
         id="path360"
         inkscape:connector-curvature="0" /><path
         d="m 397.986,406.701 c -2.299,-3.141 -5.012,-6.023 -6.309,-5.379 -2.381,1.191 -4.771,5.971 -4.771,5.971 l -7.759,-25.061 -8.349,23.861 -7.759,-1.79 -4.77,8.949 c 0,0 -9.549,-30.428 -11.339,-28.639 -1.074,1.075 -7.902,14.731 -13.345,26.054 v 0.007 c 13.657,22.177 25.418,39.451 30.054,39.869 7.248,0.664 20.207,-18.828 34.347,-43.842"
         style="fill:#e1f5fb;fill-opacity:1;fill-rule:nonzero;stroke:none;stroke-width:0.1"
         id="path362"
         inkscape:connector-curvature="0" /><path
         d="m 534.026,335.193 c -1.431,-3.193 -2.845,-6.379 -3.927,-9.644 -2.981,-8.95 -3.581,3.578 -7.76,9.546 -4.17,5.971 -1.79,-8.349 -2.982,-14.917 -1.188,-6.561 -1.188,-13.12 -2.978,-12.53 -1.791,0.6 -7.759,20.289 -9.55,16.709 -1.789,-3.58 -5.369,-13.72 -7.759,-10.74 -1.163,1.459 -5.065,11.107 -8.95,20.907 7.804,10.97 14.74,20.86 18.5,22.051 8.42,2.676 16.842,-7.741 25.406,-21.382"
         style="fill:#e1f5fb;fill-opacity:1;fill-rule:nonzero;stroke:none;stroke-width:0.1"
         id="path364"
         inkscape:connector-curvature="0" /><path
         d="m 691.806,357.318 c -3.678,-3.527 -6.846,-5.621 -7.778,-4.922 -2.388,1.79 -2.388,4.179 -2.388,4.179 l -6.561,-16.109 -14.92,26.249 c 0,0 -5.368,-20.28 -7.158,-19.089 -1.791,1.19 -2.381,8.349 -2.381,8.349 0,0 -5.369,-17.298 -7.158,-14.321 -0.842,1.407 -4.333,10.115 -7.796,18.912 10.498,16.708 19.796,31.645 25.989,38.966 6.747,7.974 18.122,-12.215 30.151,-42.214"
         style="fill:#e1f5fb;fill-opacity:1;fill-rule:nonzero;stroke:none;stroke-width:0.1"
         id="path366"
         inkscape:connector-curvature="0" /></g></g><g
     inkscape:groupmode="layer"
     id="layer15"
     inkscape:label="floor"
     sodipodi:insensitive="true"
     transform="translate(-130.0208,-166.62668)"><a
       transform="matrix(1.3333333,0,0,-1.3333333,0,800)"
       style="display:inline"
       id="a5047"><path
         d="m 802.483,200.558 c 0,-12.332 -157.812,-22.33 -352.484,-22.33 -194.67,0 -352.4834,9.998 -352.4834,22.33 0,12.332 157.8134,22.33 352.4834,22.33 194.672,0 352.484,-9.998 352.484,-22.33"
         style="fill:#e1f5fb;fill-opacity:1;fill-rule:nonzero;stroke:none;stroke-width:0.1"
         id="path368"
         inkscape:connector-curvature="0" /></a></g><g
     inkscape:groupmode="layer"
     id="layer11"
     inkscape:label="leaf_1"
     style="display:inline"
     sodipodi:insensitive="true"
     transform="translate(-130.0208,-166.62668)"><path
       transform="matrix(1.3333333,0,0,-1.3333333,0,800)"
       inkscape:connector-curvature="0"
       id="path410"
       style="display:inline;fill:#f03ca7;fill-opacity:1;fill-rule:nonzero;stroke:none;stroke-width:0.1"
       d="m 715.176,234.853 -0.841,-0.151 c -0.028,0.156 -2.739,15.756 -1.471,34.526 1.081,15.98 -11.316,29.908 -11.441,30.046 l 0.634,0.573 c 0.128,-0.141 12.765,-14.339 11.66,-30.676 -1.262,-18.668 1.431,-34.165 1.459,-34.318" /><path
       transform="matrix(1.3333333,0,0,-1.3333333,0,800)"
       inkscape:connector-curvature="0"
       id="path412"
       style="display:inline;fill:#f03ca7;fill-opacity:1;fill-rule:nonzero;stroke:none;stroke-width:0.1"
       d="m 702.827,298.245 c 0,0 -12.845,4.294 -8.046,8.515 4.335,3.812 8.754,-5.738 8.046,-8.515" /><path
       transform="matrix(1.3333333,0,0,-1.3333333,0,800)"
       inkscape:connector-curvature="0"
       id="path414"
       style="display:inline;fill:#f03ca7;fill-opacity:1;fill-rule:nonzero;stroke:none;stroke-width:0.1"
       d="m 706.506,292.211 c 0,0 0.041,12.105 4.971,10.608 5.523,-1.678 -2.127,-10.248 -4.971,-10.608" /><path
       transform="matrix(1.3333333,0,0,-1.3333333,0,800)"
       inkscape:connector-curvature="0"
       id="path416"
       style="display:inline;fill:#f03ca7;fill-opacity:1;fill-rule:nonzero;stroke:none;stroke-width:0.1"
       d="m 707.115,292.403 c 0,0 -14.066,-4.509 -11.632,1.401 2.022,4.906 10.399,1.187 11.632,-1.401" /><path
       transform="matrix(1.3333333,0,0,-1.3333333,0,800)"
       inkscape:connector-curvature="0"
       id="path418"
       style="display:inline;fill:#f03ca7;fill-opacity:1;fill-rule:nonzero;stroke:none;stroke-width:0.1"
       d="m 710.938,282.839 c 0,0 1.002,12.064 5.798,10.18 5.372,-2.112 -2.935,-10.047 -5.798,-10.18" /><path
       transform="matrix(1.3333333,0,0,-1.3333333,0,800)"
       inkscape:connector-curvature="0"
       id="path420"
       style="display:inline;fill:#f03ca7;fill-opacity:1;fill-rule:nonzero;stroke:none;stroke-width:0.1"
       d="m 711.561,282.982 c 0,0 -14.379,-3.378 -11.484,2.32 2.405,4.73 10.46,0.357 11.484,-2.32" /><path
       transform="matrix(1.3333333,0,0,-1.3333333,0,800)"
       inkscape:connector-curvature="0"
       id="path422"
       style="display:inline;fill:#f03ca7;fill-opacity:1;fill-rule:nonzero;stroke:none;stroke-width:0.1"
       d="m 713.103,272.76 c 0,0 4.521,11.229 8.546,8.011 4.509,-3.604 -5.772,-8.729 -8.546,-8.011" /><path
       transform="matrix(1.3333333,0,0,-1.3333333,0,800)"
       inkscape:connector-curvature="0"
       id="path424"
       style="display:inline;fill:#f03ca7;fill-opacity:1;fill-rule:nonzero;stroke:none;stroke-width:0.1"
       d="m 713.739,272.713 c 0,0 -14.735,1.02 -10.285,5.608 3.695,3.81 10.099,-2.748 10.285,-5.608" /><path
       transform="matrix(1.3333333,0,0,-1.3333333,0,800)"
       inkscape:connector-curvature="0"
       id="path426"
       style="display:inline;fill:#f03ca7;fill-opacity:1;fill-rule:nonzero;stroke:none;stroke-width:0.1"
       d="m 712.512,258.424 c 0,0 5.889,14.624 11.131,10.433 5.872,-4.694 -7.518,-11.369 -11.131,-10.433" /><path
       transform="matrix(1.3333333,0,0,-1.3333333,0,800)"
       inkscape:connector-curvature="0"
       id="path428"
       style="display:inline;fill:#f03ca7;fill-opacity:1;fill-rule:nonzero;stroke:none;stroke-width:0.1"
       d="m 713.342,258.362 c 0,0 -19.192,1.33 -13.396,7.305 4.813,4.961 13.153,-3.58 13.396,-7.305" /><path
       transform="matrix(1.3333333,0,0,-1.3333333,0,800)"
       inkscape:connector-curvature="0"
       id="path430"
       style="display:inline;fill:#f03ca7;fill-opacity:1;fill-rule:nonzero;stroke:none;stroke-width:0.1"
       d="m 713.156,244.373 c 0,0 5.887,14.62 11.127,10.431 5.87,-4.693 -7.514,-11.367 -11.127,-10.431" /><path
       transform="matrix(1.3333333,0,0,-1.3333333,0,800)"
       inkscape:connector-curvature="0"
       id="path432"
       style="display:inline;fill:#f03ca7;fill-opacity:1;fill-rule:nonzero;stroke:none;stroke-width:0.1"
       d="m 713.985,244.312 c 0,0 -19.183,1.33 -13.389,7.302 4.81,4.959 13.146,-3.579 13.389,-7.302" /></g><g
     inkscape:groupmode="layer"
     id="layer12"
     inkscape:label="leaf_2"
     style="display:inline"
     sodipodi:insensitive="true"
     transform="translate(-130.0208,-166.62668)"><path
       transform="matrix(1.3333333,0,0,-1.3333333,0,800)"
       inkscape:connector-curvature="0"
       id="path454"
       style="display:inline;fill:#ef75c1;fill-opacity:1;fill-rule:nonzero;stroke:none;stroke-width:0.1"
       d="m 716.143,235.217 c -0.026,0.12 -2.466,12.138 -6.135,27.901 -2.713,11.662 -12.82,18.471 -12.921,18.537 l 0.472,0.714 c 0.104,-0.069 10.492,-7.068 13.282,-19.057 3.671,-15.775 6.114,-27.806 6.138,-27.925 l -0.836,-0.17" /><path
       transform="matrix(1.3333333,0,0,-1.3333333,0,800)"
       inkscape:connector-curvature="0"
       id="path456"
       style="display:inline;fill:#ef75c1;fill-opacity:1;fill-rule:nonzero;stroke:none;stroke-width:0.1"
       d="m 698.058,281.187 c 0,0 -11.511,-0.663 -9.05,4.19 2.222,4.383 8.732,-1.771 9.05,-4.19" /><path
       transform="matrix(1.3333333,0,0,-1.3333333,0,800)"
       inkscape:connector-curvature="0"
       id="path458"
       style="display:inline;fill:#ef75c1;fill-opacity:1;fill-rule:nonzero;stroke:none;stroke-width:0.1"
       d="m 702.577,276.942 c 0,0 -3.792,9.582 0.579,9.955 4.897,0.418 1.555,-8.772 -0.579,-9.955" /><path
       transform="matrix(1.3333333,0,0,-1.3333333,0,800)"
       inkscape:connector-curvature="0"
       id="path460"
       style="display:inline;fill:#ef75c1;fill-opacity:1;fill-rule:nonzero;stroke:none;stroke-width:0.1"
       d="m 702.997,277.286 c 0,0 -9.694,-8.008 -9.636,-2.566 0.047,4.517 7.845,4.222 9.636,2.566" /><path
       transform="matrix(1.3333333,0,0,-1.3333333,0,800)"
       inkscape:connector-curvature="0"
       id="path462"
       style="display:inline;fill:#ef75c1;fill-opacity:1;fill-rule:nonzero;stroke:none;stroke-width:0.1"
       d="m 708.21,268.503 c 0,0 -1.157,10.24 3.159,9.459 4.836,-0.876 -0.791,-8.875 -3.159,-9.459" /><path
       transform="matrix(1.3333333,0,0,-1.3333333,0,800)"
       inkscape:connector-curvature="0"
       id="path464"
       style="display:inline;fill:#ef75c1;fill-opacity:1;fill-rule:nonzero;stroke:none;stroke-width:0.1"
       d="m 708.705,268.726 c 0,0 -11.449,-5.198 -9.973,0.039 1.227,4.348 8.676,2.027 9.973,-0.039" /><path
       transform="matrix(1.3333333,0,0,-1.3333333,0,800)"
       inkscape:connector-curvature="0"
       id="path466"
       style="display:inline;fill:#ef75c1;fill-opacity:1;fill-rule:nonzero;stroke:none;stroke-width:0.1"
       d="m 711.578,256.767 c 0,0 2.15,12.507 6.985,10.101 5.418,-2.697 -3.983,-10.224 -6.985,-10.101" /><path
       transform="matrix(1.3333333,0,0,-1.3333333,0,800)"
       inkscape:connector-curvature="0"
       id="path468"
       style="display:inline;fill:#ef75c1;fill-opacity:1;fill-rule:nonzero;stroke:none;stroke-width:0.1"
       d="m 712.241,256.859 c 0,0 -15.326,-2.213 -11.78,3.472 2.943,4.721 10.956,-0.582 11.78,-3.472" /><path
       transform="matrix(1.3333333,0,0,-1.3333333,0,800)"
       inkscape:connector-curvature="0"
       id="path470"
       style="display:inline;fill:#ef75c1;fill-opacity:1;fill-rule:nonzero;stroke:none;stroke-width:0.1"
       d="m 713.919,245.784 c 0,0 2.393,13.927 7.778,11.247 6.032,-3.002 -4.435,-11.383 -7.778,-11.247" /><path
       transform="matrix(1.3333333,0,0,-1.3333333,0,800)"
       inkscape:connector-curvature="0"
       id="path472"
       style="display:inline;fill:#ef75c1;fill-opacity:1;fill-rule:nonzero;stroke:none;stroke-width:0.1"
       d="m 714.656,245.888 c 0,0 -17.063,-2.465 -13.116,3.866 3.278,5.257 12.199,-0.649 13.116,-3.866" /></g><g
     inkscape:groupmode="layer"
     id="layer13"
     inkscape:label="leaf_3"
     style="display:inline"
     sodipodi:insensitive="true"
     transform="translate(-130.0208,-166.62668)"><path
       transform="matrix(1.3333333,0,0,-1.3333333,0,800)"
       inkscape:connector-curvature="0"
       id="path434"
       style="display:inline;fill:#ef54b2;fill-opacity:1;fill-rule:nonzero;stroke:none;stroke-width:0.1"
       d="m 720.441,235.538 c 0.024,0.12 2.465,12.139 6.134,27.901 2.714,11.663 12.82,18.472 12.921,18.539 l -0.472,0.712 c -0.104,-0.07 -10.491,-7.068 -13.282,-19.057 -3.67,-15.775 -6.114,-27.806 -6.138,-27.925 l 0.837,-0.17" /><path
       transform="matrix(1.3333333,0,0,-1.3333333,0,800)"
       inkscape:connector-curvature="0"
       id="path436"
       style="display:inline;fill:#ef54b2;fill-opacity:1;fill-rule:nonzero;stroke:none;stroke-width:0.1"
       d="m 738.525,281.509 c 0,0 11.511,-0.663 9.05,4.189 -2.221,4.383 -8.731,-1.77 -9.05,-4.189" /><path
       transform="matrix(1.3333333,0,0,-1.3333333,0,800)"
       inkscape:connector-curvature="0"
       id="path438"
       style="display:inline;fill:#ef54b2;fill-opacity:1;fill-rule:nonzero;stroke:none;stroke-width:0.1"
       d="m 734.006,277.264 c 0,0 3.792,9.582 -0.578,9.956 -4.897,0.418 -1.555,-8.774 0.578,-9.956" /><path
       transform="matrix(1.3333333,0,0,-1.3333333,0,800)"
       inkscape:connector-curvature="0"
       id="path440"
       style="display:inline;fill:#ef54b2;fill-opacity:1;fill-rule:nonzero;stroke:none;stroke-width:0.1"
       d="m 733.586,277.607 c 0,0 9.694,-8.007 9.637,-2.566 -0.048,4.518 -7.846,4.223 -9.637,2.566" /><path
       transform="matrix(1.3333333,0,0,-1.3333333,0,800)"
       inkscape:connector-curvature="0"
       id="path442"
       style="display:inline;fill:#ef54b2;fill-opacity:1;fill-rule:nonzero;stroke:none;stroke-width:0.1"
       d="m 728.374,268.824 c 0,0 1.156,10.24 -3.16,9.459 -4.836,-0.876 0.791,-8.874 3.16,-9.459" /><path
       transform="matrix(1.3333333,0,0,-1.3333333,0,800)"
       inkscape:connector-curvature="0"
       id="path444"
       style="display:inline;fill:#ef54b2;fill-opacity:1;fill-rule:nonzero;stroke:none;stroke-width:0.1"
       d="m 727.878,269.047 c 0,0 11.45,-5.197 9.973,0.04 -1.227,4.348 -8.677,2.026 -9.973,-0.04" /><path
       transform="matrix(1.3333333,0,0,-1.3333333,0,800)"
       inkscape:connector-curvature="0"
       id="path446"
       style="display:inline;fill:#ef54b2;fill-opacity:1;fill-rule:nonzero;stroke:none;stroke-width:0.1"
       d="m 725.005,257.088 c 0,0 -2.15,12.508 -6.985,10.1 -5.418,-2.695 3.983,-10.222 6.985,-10.1" /><path
       transform="matrix(1.3333333,0,0,-1.3333333,0,800)"
       inkscape:connector-curvature="0"
       id="path448"
       style="display:inline;fill:#ef54b2;fill-opacity:1;fill-rule:nonzero;stroke:none;stroke-width:0.1"
       d="m 724.342,257.181 c 0,0 15.326,-2.214 11.781,3.471 -2.944,4.722 -10.957,-0.582 -11.781,-3.471" /><path
       transform="matrix(1.3333333,0,0,-1.3333333,0,800)"
       inkscape:connector-curvature="0"
       id="path450"
       style="display:inline;fill:#ef54b2;fill-opacity:1;fill-rule:nonzero;stroke:none;stroke-width:0.1"
       d="m 722.664,246.106 c 0,0 -2.393,13.926 -7.777,11.247 -6.033,-3.002 4.435,-11.383 7.777,-11.247" /><path
       transform="matrix(1.3333333,0,0,-1.3333333,0,800)"
       inkscape:connector-curvature="0"
       id="path452"
       style="display:inline;fill:#ef54b2;fill-opacity:1;fill-rule:nonzero;stroke:none;stroke-width:0.1"
       d="m 721.927,246.21 c 0,0 17.063,-2.466 13.116,3.865 -3.277,5.257 -12.199,-0.648 -13.116,-3.865" /></g><g
     inkscape:groupmode="layer"
     id="layer14"
     inkscape:label="vase"
     sodipodi:insensitive="true"
     transform="translate(-130.0208,-166.62668)"><g
       transform="matrix(1.3333333,0,0,-1.3333333,0,800)"
       style="display:inline"
       id="g5040"><path
         d="m 722.063,235.483 v 3.454 h -10.108 v -3.454 c 0,-2.904 -0.954,-5.754 -2.82,-7.98 -4.806,-5.732 -8.046,-15.491 -8.046,-21.419 0,-4.329 1.733,-8.249 4.537,-11.119 7.341,-2.747 15.426,-2.747 22.767,0 2.803,2.87 4.537,6.79 4.537,11.119 0,5.927 -3.241,15.687 -8.046,21.419 -1.866,2.226 -2.821,5.076 -2.821,7.98"
         style="fill:#74d2ea;fill-opacity:1;fill-rule:nonzero;stroke:none;stroke-width:0.1"
         id="path474"
         inkscape:connector-curvature="0" /><path
         d="m 728.044,205.073 c -0.559,0 -1.011,0.452 -1.011,1.011 0,5.481 -2.97,14.963 -7.771,20.724 -0.358,0.428 -0.299,1.066 0.129,1.423 0.431,0.358 1.067,0.298 1.424,-0.128 5.09,-6.11 8.24,-16.186 8.24,-22.019 0,-0.559 -0.451,-1.011 -1.011,-1.011"
         style="fill:#ffffff;fill-opacity:1;fill-rule:nonzero;stroke:none;stroke-width:0.1"
         id="path476"
         inkscape:connector-curvature="0" /></g></g><g
     inkscape:groupmode="layer"
     id="layer2"
     inkscape:label="clouds"
     sodipodi:insensitive="true"
     transform="translate(-130.0208,-166.62668)"><g
       transform="matrix(1.3333333,0,0,-1.3333333,0,800)"
       style="display:inline"
       id="g4954"><path
         d="m 619.89,413.142 c 1.999,2.045 3.219,4.853 3.184,7.946 -0.07,6.089 -5.122,11.065 -11.211,11.049 -1.335,-0.003 -2.613,-0.241 -3.799,-0.673 0.009,0.223 0.018,0.447 0.018,0.674 0,9.253 -7.502,16.755 -16.756,16.755 -8.754,0 -15.935,-6.714 -16.687,-15.273 -1.265,0.928 -2.826,1.477 -4.516,1.477 -4.103,0 -7.452,-3.234 -7.637,-7.292 -0.433,0.058 -0.875,0.091 -1.324,0.091 -5.437,0 -9.845,-4.408 -9.845,-9.844 v -0.081 c 0.031,-3.799 3.191,-6.833 6.99,-6.833 h 56.684 c 1.832,0 3.617,0.693 4.899,2.004"
         style="fill:#e1f5fb;fill-opacity:1;fill-rule:nonzero;stroke:none;stroke-width:0.1"
         id="path370"
         inkscape:connector-curvature="0" /></g><g
       transform="matrix(1.3333333,0,0,-1.3333333,0,800)"
       style="display:inline"
       id="g4951"><path
         d="m 464.323,452.852 c 1.24,1.268 1.997,3.01 1.976,4.929 -0.044,3.779 -3.178,6.865 -6.955,6.855 -0.828,-0.002 -1.621,-0.15 -2.357,-0.418 0.005,0.139 0.011,0.278 0.011,0.418 0,5.741 -4.654,10.394 -10.394,10.394 -5.432,0 -9.887,-4.165 -10.353,-9.474 -0.785,0.576 -1.753,0.916 -2.802,0.916 -2.546,0 -4.623,-2.006 -4.738,-4.524 -0.269,0.036 -0.542,0.057 -0.821,0.057 -3.373,0 -6.107,-2.734 -6.107,-6.108 v -0.049 c 0.019,-2.357 1.979,-4.24 4.335,-4.24 h 35.166 c 1.137,0 2.244,0.431 3.039,1.244"
         style="fill:#e1f5fb;fill-opacity:1;fill-rule:nonzero;stroke:none;stroke-width:0.1"
         id="path372"
         inkscape:connector-curvature="0" /></g></g><g
     inkscape:groupmode="layer"
     id="layer3"
     inkscape:label="guy with radio"
     sodipodi:insensitive="true"
     transform="translate(-130.0208,-166.62668)"><g
       transform="matrix(1.3333333,0,0,-1.3333333,0,800)"
       style="display:inline"
       id="g5440"><path
         d="M 667.709,206.892 H 549.223 c -4.836,0 -8.757,3.92 -8.757,8.757 v 70.487 c 0,4.836 3.921,8.756 8.757,8.756 h 118.486 c 4.836,0 8.757,-3.92 8.757,-8.756 v -70.487 c 0,-4.837 -3.921,-8.757 -8.757,-8.757"
         style="fill:#3d409f;fill-opacity:1;fill-rule:nonzero;stroke:none;stroke-width:0.1"
         id="path374"
         inkscape:connector-curvature="0" /><path
         d="M 658.709,206.892 H 540.223 c -4.836,0 -8.757,3.92 -8.757,8.757 v 70.487 c 0,4.836 3.921,8.756 8.757,8.756 h 118.486 c 4.836,0 8.757,-3.92 8.757,-8.756 v -70.487 c 0,-4.837 -3.921,-8.757 -8.757,-8.757"
         style="fill:#7b76c3;fill-opacity:1;fill-rule:nonzero;stroke:none;stroke-width:0.1"
         id="path376"
         inkscape:connector-curvature="0" /><path
         d="m 592.836,250.892 c 0,-1.35 -0.1,-2.67 -0.3,-3.97 -0.171,-1.18 -0.431,-2.34 -0.761,-3.47 -0.339,-1.18 -0.759,-2.32 -1.259,-3.42 -0.18,-0.44 -0.39,-0.87 -0.61,-1.29 -0.77,-1.52 -1.69,-2.94 -2.73,-4.27 -0.27,-0.35 -0.561,-0.7 -0.87,-1.039 -1.07,-1.25 -2.27,-2.411 -3.57,-3.431 -0.36,-0.29 -0.72,-0.56 -1.09,-0.819 -1.38,-1 -2.871,-1.861 -4.44,-2.561 -0.431,-0.21 -0.88,-0.4 -1.33,-0.57 -0.74,-0.289 -1.5,-0.55 -2.271,-0.77 -0.819,-0.24 -1.66,-0.45 -2.519,-0.599 -0.24,-0.051 -0.481,-0.091 -0.721,-0.121 -0.559,-0.1 -1.119,-0.17 -1.689,-0.22 -0.83,-0.079 -1.66,-0.12 -2.51,-0.12 -0.82,0 -1.62,0.041 -2.42,0.11 -0.57,0.05 -1.141,0.12 -1.7,0.21 -0.23,0.03 -0.46,0.07 -0.681,0.12 -0.849,0.15 -1.689,0.34 -2.5,0.58 -0.799,0.22 -1.579,0.48 -2.34,0.78 -0.449,0.17 -0.899,0.36 -1.339,0.57 -1.571,0.7 -3.06,1.56 -4.44,2.55 -0.37,0.25 -0.73,0.52 -1.09,0.82 -1.301,1.01 -2.51,2.16 -3.59,3.41 -0.31,0.34 -0.6,0.69 -0.86,1.05 -1.06,1.32 -1.97,2.75 -2.74,4.261 -0.23,0.42 -0.441,0.839 -0.62,1.279 -0.54,1.16 -0.981,2.38 -1.33,3.63 -0.31,1.05 -0.54,2.14 -0.71,3.24 -0.201,1.32 -0.31,2.681 -0.31,4.06 0,0.85 0.04,1.68 0.119,2.51 0.08,0.85 0.201,1.69 0.361,2.51 0.299,1.62 0.76,3.191 1.35,4.691 0.17,0.459 0.36,0.899 0.57,1.339 0.709,1.571 1.57,3.05 2.56,4.43 0.26,0.37 0.53,0.731 0.819,1.09 1.021,1.301 2.181,2.5 3.431,3.57 0.34,0.31 0.69,0.6 1.04,0.87 1.33,1.04 2.75,1.96 4.27,2.73 0.42,0.221 0.849,0.43 1.29,0.61 1.67,0.76 3.43,1.34 5.27,1.73 0.92,0.2 1.86,0.35 2.81,0.44 0.92,0.101 1.84,0.15 2.78,0.15 0.98,0 1.939,-0.049 2.89,-0.16 0.94,-0.1 1.87,-0.25 2.78,-0.45 1.83,-0.39 3.59,-0.98 5.26,-1.74 0.44,-0.18 0.86,-0.39 1.28,-0.62 1.51,-0.77 2.94,-1.68 4.26,-2.739 0.36,-0.261 0.71,-0.551 1.05,-0.861 1.25,-1.08 2.4,-2.29 3.41,-3.59 0.3,-0.36 0.57,-0.719 0.82,-1.09 0.99,-1.379 1.85,-2.87 2.55,-4.44 0.21,-0.439 0.399,-0.89 0.57,-1.34 0.56,-1.44 1,-2.94 1.3,-4.5 0.18,-0.89 0.31,-1.8 0.39,-2.72 0.07,-0.799 0.11,-1.6 0.11,-2.42"
         style="fill:#3d409f;fill-opacity:1;fill-rule:nonzero;stroke:none;stroke-width:0.1"
         id="path378"
         inkscape:connector-curvature="0" /><path
         d="m 591.976,245.572 -3.49,-3.5 -3.5,3.5 3.5,3.5 z m -7.951,-7.95 -3.5,3.49 3.5,3.5 3.5,-3.5 z m -4.449,-4.46 -3.5,3.5 3.5,3.5 3.5,-3.5 z m -4.45,-4.45 -3.5,3.5 3.5,3.5 3.5,-3.5 z m -7.96,7.95 3.5,3.5 3.5,-3.5 -3.5,-3.5 z m -0.95,-7.95 -3.5,3.5 3.5,3.5 3.5,-3.5 z m -7.95,7.95 3.5,3.5 3.5,-3.5 -3.5,-3.5 z m -0.96,-7.95 -3.5,3.5 3.5,3.5 3.5,-3.5 z m -7.951,7.95 3.5,3.5 3.5,-3.5 -3.5,-3.5 z m -4.449,4.45 3.5,3.5 3.5,-3.5 -3.5,-3.5 z m -4.45,4.46 3.489,3.5 3.5,-3.5 -3.5,-3.5 z m 0,8.9 3.489,3.5 3.5,-3.5 -3.5,-3.5 z m 7.95,7.961 3.5,-3.5 -3.5,-3.5 -3.5,3.5 z m 4.449,4.449 3.5,-3.5 -3.5,-3.5 -3.5,3.5 z m 4.451,4.45 3.5,-3.5 -3.5,-3.5 -3.5,3.5 z m 4.46,4.46 3.5,-3.5 -3.5,-3.5 -3.5,3.5 z m 7.95,-7.96 -3.5,-3.5 -3.5,3.5 3.5,3.5 z m 0.95,7.96 3.5,-3.5 -3.5,-3.5 -3.5,3.5 z m 7.96,-7.96 -3.5,-3.5 -3.5,3.5 3.5,3.5 z m 4.45,-4.45 -3.5,-3.5 -3.5,3.5 3.5,3.5 z m 4.449,-4.449 -3.5,-3.5 -3.5,3.5 3.5,3.5 z m -7,-8.911 3.5,3.5 3.5,-3.5 -3.5,-3.5 z m -4.449,-4.45 3.5,3.5 3.5,-3.5 -3.5,-3.5 z m -0.95,-0.96 3.5,-3.5 -3.5,-3.5 -3.5,3.5 z m -7.96,0.96 3.5,3.5 3.5,-3.5 -3.5,-3.5 z m -0.95,-0.96 3.5,-3.5 -3.5,-3.49 -3.5,3.49 z m -7.95,0.96 3.5,3.5 3.5,-3.5 -3.5,-3.5 z m -0.96,-0.96 3.5,-3.5 -3.5,-3.49 -3.5,3.49 z m -4.451,4.46 3.5,-3.5 -3.5,-3.5 -3.5,3.5 z m -0.949,0.95 -3.5,-3.5 -3.5,3.5 3.5,3.5 z m 4.449,4.45 -3.5,-3.5 -3.5,3.5 3.5,3.5 z m 4.451,4.461 -3.5,-3.5 -3.5,3.5 3.5,3.5 z m 0.96,0.949 -3.5,3.5 3.5,3.5 3.5,-3.5 z m 7.95,-0.949 -3.5,-3.5 -3.5,3.5 3.5,3.5 z m 0.95,0.949 -3.5,3.5 3.5,3.5 3.5,-3.5 z m 4.46,-4.449 -3.5,3.5 3.5,3.5 3.5,-3.5 z m 0.95,-0.961 3.5,3.5 3.5,-3.5 -3.5,-3.5 z m -0.95,-0.95 3.5,-3.5 -3.5,-3.5 -3.5,3.5 z m -7.96,0.95 3.5,3.5 3.5,-3.5 -3.5,-3.5 z m -0.95,-0.95 3.5,-3.5 -3.5,-3.5 -3.5,3.5 z m -5.41,-3.5 -3.5,-3.5 -3.5,3.5 3.5,3.5 z m -2.54,4.45 3.5,3.5 3.5,-3.5 -3.5,-3.5 z m 33.71,0 -3.49,-3.5 -3.5,3.5 3.5,3.5 z m 0.75,-1.16 c -0.08,0.92 -0.21,1.83 -0.39,2.72 l -2.9,2.901 1.6,1.599 c -0.171,0.45 -0.36,0.901 -0.57,1.34 l -1.98,-1.99 -3.5,3.5 2.93,2.93 c -0.25,0.371 -0.52,0.73 -0.82,1.09 l -3.071,-3.07 -3.5,3.5 3.161,3.16 c -0.34,0.31 -0.69,0.6 -1.05,0.861 l -3.06,-3.061 -3.5,3.5 2.3,2.3 c -0.42,0.23 -0.84,0.44 -1.28,0.62 l -1.97,-1.97 -3.5,3.5 0.21,0.21 c -0.91,0.2 -1.84,0.35 -2.78,0.45 l 0.66,-0.66 -3.5,-3.5 -3.5,3.5 0.67,0.67 c -0.95,-0.09 -1.89,-0.24 -2.81,-0.44 l 0.23,-0.23 -3.5,-3.5 -2,2 c -0.441,-0.18 -0.87,-0.389 -1.29,-0.61 l 2.339,-2.34 -3.5,-3.5 -3.109,3.11 c -0.35,-0.27 -0.7,-0.56 -1.04,-0.87 l 3.2,-3.2 -3.5,-3.5 -3.131,3.13 c -0.289,-0.359 -0.559,-0.72 -0.819,-1.09 l 2.989,-2.99 -3.5,-3.5 -2.049,2.06 c -0.21,-0.44 -0.4,-0.88 -0.57,-1.339 l 1.67,-1.67 -3.02,-3.021 c -0.16,-0.82 -0.281,-1.66 -0.361,-2.51 l 3.381,-3.38 -3.19,-3.19 c 0.17,-1.1 0.4,-2.19 0.71,-3.24 l 2.48,-2.48 -1.15,-1.15 c 0.179,-0.44 0.39,-0.859 0.62,-1.279 l 1.479,1.479 3.5,-3.5 -2.239,-2.24 c 0.26,-0.36 0.55,-0.71 0.86,-1.05 l 2.34,2.34 3.5,-3.5 -2.25,-2.25 c 0.36,-0.3 0.72,-0.57 1.09,-0.82 l 2.109,2.11 3.5,-3.5 -1.169,-1.16 c 0.44,-0.21 0.89,-0.4 1.339,-0.57 l 0.781,0.78 1.559,-1.56 c 0.811,-0.24 1.651,-0.43 2.5,-0.58 l -3.099,3.09 3.5,3.5 3.5,-3.5 -3.22,-3.21 c 0.559,-0.09 1.13,-0.16 1.7,-0.21 l 2.47,2.47 2.46,-2.46 c 0.57,0.05 1.13,0.12 1.689,0.22 l -3.199,3.19 3.5,3.5 3.5,-3.5 -3.08,-3.069 c 0.859,0.149 1.7,0.359 2.519,0.599 l 1.521,1.52 0.75,-0.75 c 0.45,0.17 0.899,0.36 1.33,0.57 l -1.13,1.13 3.5,3.5 2.07,-2.069 c 0.37,0.259 0.73,0.529 1.09,0.819 l -2.211,2.21 3.5,3.5 2.281,-2.279 c 0.309,0.339 0.6,0.689 0.87,1.039 l -2.19,2.19 3.5,3.5 1.42,-1.42 c 0.22,0.42 0.43,0.85 0.61,1.29 l -1.08,1.08 2.339,2.34 c 0.33,1.13 0.59,2.29 0.761,3.47 l -3.1,3.1 3.29,3.29"
         style="fill:#4d52ad;fill-opacity:1;fill-rule:nonzero;stroke:none;stroke-width:0.1"
         id="path380"
         inkscape:connector-curvature="0" /><path
         d="m 650.466,294.892 h -16.333 v 3.167 c 0,4.51 3.656,8.167 8.166,8.167 4.511,0 8.167,-3.657 8.167,-8.167 v -3.167"
         style="fill:#a59ed6;fill-opacity:1;fill-rule:nonzero;stroke:none;stroke-width:0.1"
         id="path382"
         inkscape:connector-curvature="0" /><path
         d="m 646.133,299.559 h -8 v 24.6 h 8 v -24.6"
         style="fill:#a59ed6;fill-opacity:1;fill-rule:nonzero;stroke:none;stroke-width:0.1"
         id="path384"
         inkscape:connector-curvature="0" /><path
         d="m 643.968,323.809 h -3.671 v 62.411 h 3.671 v -62.411"
         style="fill:#a59ed6;fill-opacity:1;fill-rule:nonzero;stroke:none;stroke-width:0.1"
         id="path386"
         inkscape:connector-curvature="0" /><path
         d="m 646.799,386.559 c 0,2.577 -2.089,4.667 -4.666,4.667 -2.578,0 -4.667,-2.09 -4.667,-4.667 0,-2.578 2.089,-4.667 4.667,-4.667 2.577,0 4.666,2.089 4.666,4.667"
         style="fill:#ef54b2;fill-opacity:1;fill-rule:nonzero;stroke:none;stroke-width:0.1"
         id="path388"
         inkscape:connector-curvature="0" /><path
         d="m 657.029,268.226 h -54.793 c -0.609,0 -1.103,0.494 -1.103,1.103 v 13.459 c 0,0.609 0.494,1.104 1.103,1.104 h 54.793 c 0.61,0 1.104,-0.495 1.104,-1.104 v -13.459 c 0,-0.609 -0.494,-1.103 -1.104,-1.103"
         style="fill:#ffffff;fill-opacity:1;fill-rule:nonzero;stroke:none;stroke-width:0.1"
         id="path390"
         inkscape:connector-curvature="0" /><path
         d="m 654.883,275.559 h -50.5 c -0.277,0 -0.5,0.223 -0.5,0.5 0,0.276 0.223,0.5 0.5,0.5 h 50.5 c 0.276,0 0.5,-0.224 0.5,-0.5 0,-0.277 -0.224,-0.5 -0.5,-0.5"
         style="fill:#f7ec35;fill-opacity:1;fill-rule:nonzero;stroke:none;stroke-width:0.1"
         id="path392"
         inkscape:connector-curvature="0" /><path
         d="m 621.064,268.22 h -2.395 l 1.085,13.922 z"
         style="fill:#ef54b2;fill-opacity:1;fill-rule:nonzero;stroke:none;stroke-width:0.1"
         id="path394"
         inkscape:connector-curvature="0" /><path
         d="m 643.091,258.18 c 0,2.825 -2.291,5.116 -5.116,5.116 -2.827,0 -5.117,-2.291 -5.117,-5.116 0,-2.826 2.29,-5.117 5.117,-5.117 2.825,0 5.116,2.291 5.116,5.117"
         style="fill:#f7ec35;fill-opacity:1;fill-rule:nonzero;stroke:none;stroke-width:0.1"
         id="path396"
         inkscape:connector-curvature="0" /><path
         d="m 658.216,258.18 c 0,2.825 -2.291,5.116 -5.116,5.116 -2.827,0 -5.117,-2.291 -5.117,-5.116 0,-2.826 2.29,-5.117 5.117,-5.117 2.825,0 5.116,2.291 5.116,5.117"
         style="fill:#f7ec35;fill-opacity:1;fill-rule:nonzero;stroke:none;stroke-width:0.1"
         id="path398"
         inkscape:connector-curvature="0" /><path
         d="m 620.633,253.976 h -15.167 c -2.302,0 -4.167,1.865 -4.167,4.166 0,2.301 1.865,4.167 4.167,4.167 h 15.167 c 2.301,0 4.166,-1.866 4.166,-4.167 0,-2.301 -1.865,-4.166 -4.166,-4.166"
         style="fill:#a59ed6;fill-opacity:1;fill-rule:nonzero;stroke:none;stroke-width:0.1"
         id="path400"
         inkscape:connector-curvature="0" /><path
         d="m 630.966,227.642 c 0,5.937 -4.814,10.75 -10.75,10.75 -5.938,0 -10.75,-4.813 -10.75,-10.75 0,-5.937 4.812,-10.75 10.75,-10.75 5.936,0 10.75,4.813 10.75,10.75"
         style="fill:#f03ca7;fill-opacity:1;fill-rule:nonzero;stroke:none;stroke-width:0.1"
         id="path402"
         inkscape:connector-curvature="0" /><path
         d="m 628.59,227.642 c 0,4.625 -3.749,8.375 -8.374,8.375 -4.625,0 -8.374,-3.75 -8.374,-8.375 0,-4.624 3.749,-8.373 8.374,-8.373 4.625,0 8.374,3.749 8.374,8.373"
         style="fill:#ef54b2;fill-opacity:1;fill-rule:nonzero;stroke:none;stroke-width:0.1"
         id="path404"
         inkscape:connector-curvature="0" /><path
         d="m 659.216,227.642 c 0,5.937 -4.814,10.75 -10.75,10.75 -5.938,0 -10.75,-4.813 -10.75,-10.75 0,-5.937 4.812,-10.75 10.75,-10.75 5.936,0 10.75,4.813 10.75,10.75"
         style="fill:#f03ca7;fill-opacity:1;fill-rule:nonzero;stroke:none;stroke-width:0.1"
         id="path406"
         inkscape:connector-curvature="0" /><path
         d="m 656.84,227.642 c 0,4.625 -3.749,8.375 -8.374,8.375 -4.625,0 -8.374,-3.75 -8.374,-8.375 0,-4.624 3.749,-8.373 8.374,-8.373 4.625,0 8.374,3.749 8.374,8.373"
         style="fill:#ef54b2;fill-opacity:1;fill-rule:nonzero;stroke:none;stroke-width:0.1"
         id="path408"
         inkscape:connector-curvature="0" /><path
         d="m 582.926,244.892 -2.825,-0.341 c 0,0 -0.281,-0.447 -1.124,-0.921 l -0.008,0.001 c -0.399,-0.234 -0.93,-0.463 -1.625,-0.656 -1.436,-0.402 -3.052,-0.28 -4.335,-0.305 -0.611,-0.006 -1.147,-0.052 -1.557,-0.202 -0.727,-0.27 -1.354,-1.758 -1.254,-2.919 0.033,-0.409 13.862,-0.208 13.786,0.428 -0.213,1.8 -1.058,4.915 -1.058,4.915"
         style="fill:#74d2ea;fill-opacity:1;fill-rule:nonzero;stroke:none;stroke-width:0.1"
         id="path744"
         inkscape:connector-curvature="0" /><path
         d="m 568.856,254.208 -2.754,-0.715 c 0,0 -0.218,-0.48 -0.991,-1.063 h -0.007 c -0.365,-0.284 -0.86,-0.583 -1.523,-0.868 -1.37,-0.59 -2.987,-0.684 -4.256,-0.881 -0.604,-0.088 -1.13,-0.204 -1.515,-0.409 -0.685,-0.364 -1.108,-1.923 -0.853,-3.06 0.088,-0.4 13.765,1.646 13.605,2.266 -0.453,1.756 -1.706,4.73 -1.706,4.73"
         style="fill:#74d2ea;fill-opacity:1;fill-rule:nonzero;stroke:none;stroke-width:0.1"
         id="path746"
         inkscape:connector-curvature="0" /><path
         d="m 579.369,248.777 0.354,-4.53 c 0.062,-0.802 0.709,-1.434 1.511,-1.478 0.902,-0.049 1.666,0.652 1.694,1.554 l 0.135,4.409 -3.694,0.045"
         style="fill:#fbc8b6;fill-opacity:1;fill-rule:nonzero;stroke:none;stroke-width:0.1"
         id="path748"
         inkscape:connector-curvature="0" /><path
         d="m 564.813,257.584 0.955,-4.442 c 0.17,-0.787 0.894,-1.327 1.696,-1.264 0.899,0.071 1.563,0.869 1.471,1.767 l -0.456,4.388 -3.666,-0.449"
         style="fill:#fbc8b6;fill-opacity:1;fill-rule:nonzero;stroke:none;stroke-width:0.1"
         id="path750"
         inkscape:connector-curvature="0" /><path
         d="m 613.141,304.787 c 0,0 2.83,-6.085 -3.68,-12.312 -6.51,-6.228 -23.606,-12.782 -24.481,-15.329 -0.874,-2.547 -0.076,-30.205 -0.076,-30.205 0,0 -5.398,-0.283 -7.133,0 -1.736,0.284 -4.682,28.647 -2.968,32.76 2.678,6.43 16.962,18.253 16.962,18.253 0,0 -13.026,-9.133 -18.977,-17.817 -3.589,-5.238 -1.286,-18.197 -1.853,-23.575 -2.085,-1.536 -7.628,-0.816 -7.628,-0.816 0,0 -2.551,26.326 1.54,32.211 8.561,12.316 26.854,20.8 26.854,20.8 l 21.44,-3.97"
         style="fill:#f7ec35;fill-opacity:1;fill-rule:nonzero;stroke:none;stroke-width:0.1"
         id="path752"
         inkscape:connector-curvature="0" /><path
         d="m 596.242,342.896 c 3.728,1.286 7.709,-1.64 4.349,-7.26 -3.361,-5.621 -9.517,-16.959 -13.259,-20.12 -2.299,-1.943 -16.652,-10.58 -18.827,-9.468 l 1.514,3.645 10.592,7.944 c 2.019,1.514 3.586,3.547 4.535,5.885 2.445,6.023 7.312,18.07 11.096,19.374"
         style="fill:#bceafb;fill-opacity:1;fill-rule:nonzero;stroke:none;stroke-width:0.1"
         id="path754"
         inkscape:connector-curvature="0" /><path
         d="m 602.568,346.51 c 0,0 7.664,-2.753 10.134,-16.228 2.47,-13.474 0.966,-27.777 0.966,-27.777 0,0 -14.442,-0.912 -25.094,5.774 0,0 1.727,24.284 5.91,33.396 2.079,4.529 8.084,4.835 8.084,4.835"
         style="fill:#eaf3fb;fill-opacity:1;fill-rule:nonzero;stroke:none;stroke-width:0.1"
         id="path756"
         inkscape:connector-curvature="0" /><path
         d="m 584.794,303.058 10.579,0.829 -9.648,-4.216 z"
         style="fill:#dcd8f0;fill-opacity:1;fill-rule:nonzero;stroke:none;stroke-width:0.1"
         id="path758"
         inkscape:connector-curvature="0" /><path
         d="m 595.373,303.887 0.051,-0.649 -9.668,-4.495 -0.031,0.928 9.648,4.216"
         style="fill:#eaf3fb;fill-opacity:1;fill-rule:nonzero;stroke:none;stroke-width:0.1"
         id="path760"
         inkscape:connector-curvature="0" /><path
         d="m 563.831,297.954 21.894,1.717 0.031,-0.928 -21.906,-1.578 -0.019,0.789"
         style="fill:#dcd8f0;fill-opacity:1;fill-rule:nonzero;stroke:none;stroke-width:0.1"
         id="path762"
         inkscape:connector-curvature="0" /><path
         d="m 592.394,363.359 c 0,0 -1.712,-2.827 -1.029,-6.206 0.414,-2.046 -1.56,-2.738 -0.847,-3.191 1.397,-0.888 1.154,-2.238 1.169,-2.899 0.014,-0.66 -0.436,-3.632 3.673,-3.091 1.494,0.196 2.287,-1.219 2.273,-3.107 0,0 0.762,-3.401 6.691,0.57 0,0 -1.102,6.996 0.676,12.697 -3.598,4.236 -6.447,9.122 -12.606,5.227"
         style="fill:#fbc8b6;fill-opacity:1;fill-rule:nonzero;stroke:none;stroke-width:0.1"
         id="path764"
         inkscape:connector-curvature="0" /><path
         d="m 599.327,338.245 c 2.732,2.843 7.609,1.654 7.615,-4.892 0.007,-6.557 -1.601,-15.147 -3.971,-18.843 -1.623,-2.532 -17.957,-11.691 -20.34,-11.15 l 0.568,3.907 12.581,8.968 c 1.15,1.073 1.818,2.559 1.861,4.129 0.127,4.506 -0.539,15.565 1.686,17.881"
         style="fill:#bceafb;fill-opacity:1;fill-rule:nonzero;stroke:none;stroke-width:0.1"
         id="path766"
         inkscape:connector-curvature="0" /><path
         d="m 563.831,297.954 21.894,1.717 -4.758,17.312 c -0.111,0.401 -0.49,0.667 -0.904,0.635 L 559.93,316.04 c -0.544,-0.043 -0.914,-0.57 -0.77,-1.096 l 4.671,-16.99"
         style="fill:#eaf3fb;fill-opacity:1;fill-rule:nonzero;stroke:none;stroke-width:0.1"
         id="path768"
         inkscape:connector-curvature="0" /><path
         d="m 606.223,361.634 c 0.645,-0.037 1.541,-0.571 1.541,-0.571 -0.259,1.677 -2.198,2.143 -2.198,2.143 -0.487,1.94 -1.675,2.32 -1.675,2.32 0.599,-0.573 0.686,-1.178 0.62,-1.656 -2.797,2.742 -6.773,3.428 -9.281,3.562 -1.436,0.077 -2.783,0.708 -3.816,1.708 -0.449,0.434 -0.824,0.76 -0.824,0.76 -0.644,-0.26 -3.864,-3.063 -2.916,-6.906 0.634,-2.563 3.575,-3.402 5.462,-3.677 0.775,-0.113 1.552,-0.039 2.331,0.045 2.06,0.221 3.439,-2.257 3.64,-3.984 0.224,-1.921 -1.51,-4.975 -3.1,-3.787 -1.59,1.185 -4.532,1.289 -4.532,1.289 0,0 -1.413,-2.887 -0.689,-4.252 1.065,-2.004 7.042,-1.199 8.912,0.033 1.87,1.233 0.365,6.119 1.685,7.415 1.32,1.296 2.44,-1.421 0.793,-2.421 -0.766,-0.465 0.035,-4.613 0.035,-4.613 3.904,0.279 7.061,7.119 4.012,12.592"
         style="fill:#1c395a;fill-opacity:1;fill-rule:nonzero;stroke:none;stroke-width:0.1"
         id="path770"
         inkscape:connector-curvature="0" /></g></g><g
     inkscape:groupmode="layer"
     id="layer5"
     inkscape:label="computer with guy"
     sodipodi:insensitive="true"
     transform="translate(-130.0208,-166.62668)"><g
       transform="matrix(1.3333333,0,0,-1.3333333,0,800)"
       style="display:inline"
       id="g5360"><path
         d="M 487.289,219.131 H 268.928 v 3.472 h 218.361 v -3.472"
         style="fill:#5156b0;fill-opacity:1;fill-rule:nonzero;stroke:none;stroke-width:0.1"
         id="path482"
         inkscape:connector-curvature="0" /><path
         d="M 409.589,219.131 H 268.928 c 0,0 3.988,-7.218 31.681,-8.173 h 59.186 23.893 71.919 c 27.694,0.955 31.682,8.173 31.682,8.173 h -77.7"
         style="fill:#3d409f;fill-opacity:1;fill-rule:nonzero;stroke:none;stroke-width:0.1"
         id="path484"
         inkscape:connector-curvature="0" /><path
         d="M 474.004,216.555 H 282.213 v 121.742 c 0,1.668 1.351,3.02 3.019,3.02 h 185.751 c 1.668,0 3.021,-1.352 3.021,-3.02 V 216.555"
         style="fill:#3d409f;fill-opacity:1;fill-rule:nonzero;stroke:none;stroke-width:0.1"
         id="path478"
         inkscape:connector-curvature="0" /><path
         d="m 464.643,230.499 h -173.07 c -1.267,0 -2.295,1.027 -2.295,2.295 v 101.913 c 0,1.268 1.028,2.296 2.295,2.296 h 173.07 c 1.267,0 2.295,-1.028 2.295,-2.296 V 232.794 c 0,-1.268 -1.028,-2.295 -2.295,-2.295"
         style="fill:#7b76c3;fill-opacity:1;fill-rule:nonzero;stroke:none;stroke-width:0.1"
         id="path480"
         inkscape:connector-curvature="0" /><path
         d="m 394.164,215.252 h -34.662 c -2.207,0 -3.997,1.153 -3.997,3.36 v 0.519 h 42.657 v -0.519 c 0,-2.207 -1.79,-3.36 -3.998,-3.36"
         style="fill:#2f3693;fill-opacity:1;fill-rule:nonzero;stroke:none;stroke-width:0.1"
         id="path486"
         inkscape:connector-curvature="0" /><path
         d="m 366.461,236.121 h -66.218 c -1.656,0 -3,1.343 -3,3 v 29.839 c 0,1.656 1.344,3 3,3 h 66.218 c 1.657,0 3,-1.344 3,-3 v -29.839 c 0,-1.657 -1.343,-3 -3,-3"
         style="fill:#ffffff;fill-opacity:1;fill-rule:nonzero;stroke:none;stroke-width:0.1"
         id="path488"
         inkscape:connector-curvature="0" /><path
         d="m 364.618,238.289 h -62.532 c -1.105,0 -2,0.896 -2,2 v 27.503 c 0,1.104 0.895,2 2,2 h 62.532 c 1.105,0 2,-0.896 2,-2 v -27.503 c 0,-1.104 -0.895,-2 -2,-2"
         style="fill:#bceafb;fill-opacity:1;fill-rule:nonzero;stroke:none;stroke-width:0.1"
         id="path490"
         inkscape:connector-curvature="0" /><path
         d="m 340.844,256.88 c 0,4.138 -3.354,7.492 -7.491,7.492 -4.138,0 -7.493,-3.354 -7.493,-7.492 0,-4.138 3.355,-7.492 7.493,-7.492 4.137,0 7.491,3.354 7.491,7.492"
         style="fill:#ffffff;fill-opacity:1;fill-rule:nonzero;stroke:none;stroke-width:0.1"
         id="path492"
         inkscape:connector-curvature="0" /><path
         d="m 337.816,257.181 -6.239,3.601 c -0.231,0.134 -0.52,-0.033 -0.52,-0.301 v -7.203 c 0,-0.267 0.289,-0.435 0.52,-0.3 l 6.239,3.601 c 0.232,0.134 0.232,0.468 0,0.602"
         style="fill:#f7ec35;fill-opacity:1;fill-rule:nonzero;stroke:none;stroke-width:0.1"
         id="path494"
         inkscape:connector-curvature="0" /><path
         d="m 363.462,242.663 c 0,-0.707 -0.568,-1.275 -1.276,-1.275 h -57.667 c -0.708,0 -1.276,0.568 -1.276,1.275 0,0.699 0.568,1.275 1.276,1.275 h 57.667 c 0.708,0 1.276,-0.576 1.276,-1.275"
         style="fill:#ffffff;fill-opacity:1;fill-rule:nonzero;stroke:none;stroke-width:0.1"
         id="path496"
         inkscape:connector-curvature="0" /><path
         d="m 336.961,243.938 v -2.55 h -32.442 c -0.708,0 -1.276,0.568 -1.276,1.275 0,0.699 0.568,1.275 1.276,1.275 h 32.442"
         style="fill:#f7ec35;fill-opacity:1;fill-rule:nonzero;stroke:none;stroke-width:0.1"
         id="path498"
         inkscape:connector-curvature="0" /><path
         d="M 366.649,279.687 H 299.83 c -1.656,0 -3,1.342 -3,3 v 44.233 c 0,1.657 1.344,3 3,3 h 66.819 c 1.658,0 3,-1.343 3,-3 v -44.233 c 0,-1.658 -1.342,-3 -3,-3"
         style="fill:#ffffff;fill-opacity:1;fill-rule:nonzero;stroke:none;stroke-width:0.1"
         id="path500"
         inkscape:connector-curvature="0" /><path
         d="m 301.198,289.335 h 63.156 c 0,0 0.063,31.061 -3.807,30.331 -3.871,-0.731 -3.677,-20.221 -6.459,-22.048 -2.783,-1.827 -5.721,15.592 -9.446,15.105 -2.312,-0.302 -5.99,-12.448 -8.661,-12.546 -3.292,-0.122 -5.565,8.404 -8.581,7.651 -1.683,-0.421 -4.902,-9.755 -15.187,-7.967 -3.111,0.54 -6.245,-1.171 -8.379,-4.729 -1.831,-3.052 -2.636,-5.797 -2.636,-5.797"
         style="fill:#c9edf9;fill-opacity:1;fill-rule:nonzero;stroke:none;stroke-width:0.1"
         id="path502"
         inkscape:connector-curvature="0" /><path
         d="m 333.219,321.375 h -27.432 c -1.045,0 -1.892,0.847 -1.892,1.892 0,1.045 0.847,1.892 1.892,1.892 h 27.432 c 1.045,0 1.892,-0.847 1.892,-1.892 0,-1.045 -0.847,-1.892 -1.892,-1.892"
         style="fill:#ef54b2;fill-opacity:1;fill-rule:nonzero;stroke:none;stroke-width:0.1"
         id="path504"
         inkscape:connector-curvature="0" /><path
         d="m 333.219,314.753 h -27.432 c -1.045,0 -1.892,0.848 -1.892,1.893 0,1.044 0.847,1.891 1.892,1.891 h 27.432 c 1.045,0 1.892,-0.847 1.892,-1.891 0,-1.045 -0.847,-1.893 -1.892,-1.893"
         style="fill:#ef54b2;fill-opacity:1;fill-rule:nonzero;stroke:none;stroke-width:0.1"
         id="path506"
         inkscape:connector-curvature="0" /><path
         d="m 416.56,286.255 v -19.617 c 0,-1.105 -0.896,-2 -2,-2 h -28.184 c -1.105,0 -2,0.895 -2,2 v 19.617 c 0,1.104 0.895,2 2,2 h 28.184 c 1.104,0 2,-0.896 2,-2"
         style="fill:#bceafb;fill-opacity:1;fill-rule:nonzero;stroke:none;stroke-width:0.1"
         id="path508"
         inkscape:connector-curvature="0" /><path
         d="m 416.56,275.199 v -8.645 c 0,-1.059 -0.859,-1.916 -1.915,-1.916 h -28.354 c -1.058,0 -1.915,0.857 -1.915,1.916 v 0.738 l 7.058,7.855 c 0.34,0.379 0.931,0.391 1.285,0.024 l 5.286,-5.469 c 0.351,-0.364 0.937,-0.356 1.279,0.017 l 10.872,11.85 c 0.364,0.397 0.996,0.376 1.333,-0.044 l 5.071,-6.326"
         style="fill:#ffffff;fill-opacity:1;fill-rule:nonzero;stroke:none;stroke-width:0.1"
         id="path510"
         inkscape:connector-curvature="0" /><path
         d="m 394.846,282.324 c 0,1.78 -1.442,3.222 -3.221,3.222 -1.779,0 -3.223,-1.442 -3.223,-3.222 0,-1.779 1.444,-3.221 3.223,-3.221 1.779,0 3.221,1.442 3.221,3.221"
         style="fill:#ffffff;fill-opacity:1;fill-rule:nonzero;stroke:none;stroke-width:0.1"
         id="path512"
         inkscape:connector-curvature="0" /><path
         d="m 456.268,286.255 v -19.617 c 0,-1.105 -0.896,-2 -2,-2 h -28.183 c -1.105,0 -2,0.895 -2,2 v 19.617 c 0,1.104 0.895,2 2,2 h 28.183 c 1.104,0 2,-0.896 2,-2"
         style="fill:#bceafb;fill-opacity:1;fill-rule:nonzero;stroke:none;stroke-width:0.1"
         id="path514"
         inkscape:connector-curvature="0" /><path
         d="m 456.268,274.525 v -7.968 c 0,-1.06 -0.859,-1.919 -1.918,-1.919 h -28.347 c -1.06,0 -1.918,0.859 -1.918,1.919 0,0.473 0.175,0.929 0.491,1.282 l 5.82,6.478 c 0.745,0.829 2.034,0.852 2.807,0.052 l 3.743,-3.873 c 0.768,-0.794 2.046,-0.778 2.793,0.036 l 9.306,10.145 c 0.795,0.866 2.176,0.82 2.91,-0.098 l 3.892,-4.854 c 0.272,-0.34 0.421,-0.763 0.421,-1.2"
         style="fill:#ffffff;fill-opacity:1;fill-rule:nonzero;stroke:none;stroke-width:0.1"
         id="path516"
         inkscape:connector-curvature="0" /><path
         d="m 434.555,282.324 c 0,1.78 -1.443,3.222 -3.222,3.222 -1.779,0 -3.222,-1.442 -3.222,-3.222 0,-1.779 1.443,-3.221 3.222,-3.221 1.779,0 3.222,1.442 3.222,3.221"
         style="fill:#ffffff;fill-opacity:1;fill-rule:nonzero;stroke:none;stroke-width:0.1"
         id="path518"
         inkscape:connector-curvature="0" /><path
         d="m 453.967,242.144 h -68.756 c -1.657,0 -3,1.342 -3,3 v 8.026 c 0,1.656 1.343,3 3,3 h 68.756 c 1.657,0 3,-1.344 3,-3 v -8.026 c 0,-1.658 -1.343,-3 -3,-3"
         style="fill:#ffffff;fill-opacity:1;fill-rule:nonzero;stroke:none;stroke-width:0.1"
         id="path520"
         inkscape:connector-curvature="0" /><path
         d="m 440.764,249.455 c 0.049,0.451 0.457,0.778 0.911,0.773 l 2.187,-0.024 c -0.177,0.795 -0.217,2.174 0.163,3.05 0.457,1.055 1.168,0.906 1.33,0.682 0.167,-0.234 -0.025,-1.523 0.098,-1.885 0.09,-0.266 0.651,-1.314 0.943,-1.852 0.153,-0.28 0.384,-0.512 0.671,-0.649 0.221,-0.106 0.456,-0.187 0.652,-0.243 0.062,0.326 0.35,0.571 0.694,0.567 l 1.144,-0.013 c 0.386,-0.005 0.696,-0.321 0.691,-0.708 l -0.045,-3.983 c -0.004,-0.387 -0.321,-0.696 -0.708,-0.692 l -1.143,0.013 c -0.381,0.004 -0.687,0.314 -0.691,0.694 -0.323,-0.078 -0.669,-0.278 -1.026,-0.481 -0.575,-0.326 -1.228,-0.495 -1.89,-0.487 l -2.293,0.025 c -0.321,0.004 -0.606,0.247 -0.619,0.569 -0.015,0.342 0.261,0.622 0.6,0.618 l -0.245,0.003 c -0.398,0.005 -0.75,0.299 -0.784,0.697 -0.038,0.456 0.323,0.834 0.769,0.829 l -0.339,0.004 c -0.398,0.005 -0.751,0.3 -0.785,0.697 -0.038,0.455 0.323,0.834 0.769,0.829 l -0.2,0.003 c -0.508,0.005 -0.909,0.446 -0.854,0.964"
         style="fill:#f7ec35;fill-opacity:1;fill-rule:nonzero;stroke:none;stroke-width:0.1"
         id="path522"
         inkscape:connector-curvature="0" /><path
         d="m 430.889,251.038 h -16.592 c -0.417,0 -0.755,0.338 -0.755,0.755 0,0.417 0.338,0.755 0.755,0.755 h 16.592 c 0.416,0 0.754,-0.338 0.754,-0.755 0,-0.417 -0.338,-0.755 -0.754,-0.755"
         style="fill:#bceafb;fill-opacity:1;fill-rule:nonzero;stroke:none;stroke-width:0.1"
         id="path532"
         inkscape:connector-curvature="0" /><path
         d="m 430.638,247.942 h -3.002 c -0.417,0 -0.755,0.338 -0.755,0.755 0,0.417 0.338,0.755 0.755,0.755 h 3.002 c 0.417,0 0.755,-0.338 0.755,-0.755 0,-0.417 -0.338,-0.755 -0.755,-0.755"
         style="fill:#bceafb;fill-opacity:1;fill-rule:nonzero;stroke:none;stroke-width:0.1"
         id="path536"
         inkscape:connector-curvature="0" /><path
         d="m 430.638,244.847 h -16.341 c -0.417,0 -0.755,0.338 -0.755,0.756 0,0.416 0.338,0.754 0.755,0.754 h 16.341 c 0.417,0 0.755,-0.338 0.755,-0.754 0,-0.418 -0.338,-0.756 -0.755,-0.756"
         style="fill:#bceafb;fill-opacity:1;fill-rule:nonzero;stroke:none;stroke-width:0.1"
         id="path538"
         inkscape:connector-curvature="0" /><path
         d="m 471.537,305.272 c -1.453,0.315 -6.147,3.732 -6.504,4.24 -0.611,0.87 -0.22,1.079 -0.22,1.079 -0.77,0.834 -0.327,1.355 -0.327,1.355 -0.618,1.187 0.799,0.803 0.799,0.803 -0.193,1.669 2.243,0.176 2.895,-0.352 0.351,-0.285 2.056,-1.267 2.056,-1.267 0,0 0.164,0.474 -0.082,1.047 -0.193,0.451 -0.841,1.107 -0.675,1.924 0.111,0.546 2.293,-1.893 2.864,-3.038 0.459,-0.921 0.7,-3.238 0.7,-3.238 l 8.24,-2.812 -0.582,-4.634 -9.164,4.893"
         style="fill:#fab8a9;fill-opacity:1;fill-rule:nonzero;stroke:none;stroke-width:0.1"
         id="path540"
         inkscape:connector-curvature="0" /><path
         d="m 493.6,316.718 c -1.7,-3.524 -5.798,-9.297 -7.346,-10.311 -1.637,-1.07 -5.598,-0.422 -5.598,-0.422 l -3.317,-5.536 c 0,0 7.78,-2.602 10.226,-1.93 3.92,1.075 12.468,7.085 15.404,13.162 2.014,4.173 -0.695,9.252 -4.27,8.952 -2.461,-0.207 -4.64,-2.964 -5.099,-3.915"
         style="fill:#59c9ea;fill-opacity:1;fill-rule:nonzero;stroke:none;stroke-width:0.1"
         id="path542"
         inkscape:connector-curvature="0" /><path
         d="m 482.552,306.625 c 0,0 -3.88,-4.24 -4.432,-7.27 0,0 -1.617,0.192 -2.223,0.924 0,0 3.101,6.361 4.748,7.372 0,0 0.945,0.002 1.907,-1.026"
         style="fill:#74d2ea;fill-opacity:1;fill-rule:nonzero;stroke:none;stroke-width:0.1"
         id="path544"
         inkscape:connector-curvature="0" /><path
         d="m 489.015,192.601 c 0.108,-0.86 -17.007,-1.031 -17.055,-0.477 -0.147,1.572 0.691,3.596 1.675,3.968 0.554,0.207 1.28,0.273 2.108,0.286 1.739,0.045 2.533,-0.072 4.247,0.232 0.963,0.17 1.658,0.583 2.198,0.903 l 0.009,-0.001 c 1.139,0.649 1.263,2 1.263,2 l 4.897,-0.532 c 0,0 0.354,-3.94 0.658,-6.379"
         style="fill:#1c395a;fill-opacity:1;fill-rule:nonzero;stroke:none;stroke-width:0.1"
         id="path546"
         inkscape:connector-curvature="0" /><path
         d="m 488.246,198.223 0.77,5.228 -5.085,1.052 -0.519,-5.498 c 0.508,-1.863 4.666,-1.511 4.834,-0.782"
         style="fill:#fab8a9;fill-opacity:1;fill-rule:nonzero;stroke:none;stroke-width:0.1"
         id="path548"
         inkscape:connector-curvature="0" /><path
         d="m 478.479,330.008 v -32.127 c 0,-1.657 -1.343,-3 -3,-3 h -45.956 c -1.657,0 -3,1.343 -3,3 v 32.127 c 0,1.657 1.343,3 3,3 h 45.956 c 1.657,0 3,-1.343 3,-3"
         style="fill:#bceafb;fill-opacity:1;fill-rule:nonzero;stroke:none;stroke-width:0.1"
         id="path550"
         inkscape:connector-curvature="0" /><path
         d="m 476.732,312.593 v -14.059 c 0,-1.104 -0.895,-2 -2,-2 h -44.935 c -1.105,0 -2,0.896 -2,2 v 2.035 l 10.732,11.946 c 0.518,0.576 1.415,0.592 1.953,0.035 l 8.038,-8.316 c 0.535,-0.553 1.425,-0.542 1.945,0.026 l 16.531,18.019 c 0.554,0.604 1.515,0.572 2.027,-0.067 l 7.709,-9.619"
         style="fill:#ffffff;fill-opacity:1;fill-rule:nonzero;stroke:none;stroke-width:0.1"
         id="path552"
         inkscape:connector-curvature="0" /><path
         d="m 443.426,323.434 c 0,2.872 -2.328,5.2 -5.201,5.2 -2.872,0 -5.202,-2.328 -5.202,-5.2 0,-2.872 2.33,-5.202 5.202,-5.202 2.873,0 5.201,2.33 5.201,5.202"
         style="fill:#ffffff;fill-opacity:1;fill-rule:nonzero;stroke:none;stroke-width:0.1"
         id="path554"
         inkscape:connector-curvature="0" /><path
         d="m 527.351,205.267 c 0.682,-0.537 -11.263,-12.619 -11.687,-12.259 -1.211,1.015 -2.037,3.043 -1.6,3.999 0.249,0.537 0.718,1.095 1.297,1.686 1.205,1.255 1.86,1.767 2.754,3.076 0.552,0.808 0.769,1.582 0.928,2.187 l 0.008,0.006 c 0.351,1.264 -0.51,2.31 -0.51,2.31 l 3.855,3.068 c 0,0 3.023,-2.554 4.955,-4.073"
         style="fill:#1c395a;fill-opacity:1;fill-rule:nonzero;stroke:none;stroke-width:0.1"
         id="path556"
         inkscape:connector-curvature="0" /><path
         d="m 522.851,208.723 -3.13,4.257 -4.355,-2.828 3.498,-4.273 c 1.671,-0.968 4.38,2.207 3.987,2.844"
         style="fill:#fab8a9;fill-opacity:1;fill-rule:nonzero;stroke:none;stroke-width:0.1"
         id="path558"
         inkscape:connector-curvature="0" /><path
         d="m 485.306,274.642 c 0,0 -3.711,-26.225 -4.827,-31.64 -1.293,-6.278 1.289,-41.933 1.289,-41.933 h 8.416 l 3.204,35.798 c 0.352,2.252 5.353,9.422 6.598,11.332 5.001,7.676 15.445,21.826 9.881,32.245 -6.83,12.79 -24.561,-5.802 -24.561,-5.802"
         style="fill:#152e45;fill-opacity:1;fill-rule:nonzero;stroke:none;stroke-width:0.1"
         id="path560"
         inkscape:connector-curvature="0" /><path
         d="m 490.895,276.795 c 0,0 8.802,-36.845 10.547,-42.6 1.813,-5.978 14.371,-27.968 14.371,-27.968 l 7.003,5.778 c 0,0 -7.464,18.378 -8.627,21.045 -1.162,2.666 1.288,26.651 0.922,38.142 -0.364,11.493 -24.216,5.603 -24.216,5.603"
         style="fill:#1c395a;fill-opacity:1;fill-rule:nonzero;stroke:none;stroke-width:0.1"
         id="path562"
         inkscape:connector-curvature="0" /><path
         d="m 506.595,318.305 c -3.054,3.491 -9.777,5.109 -13.736,0.712 -5.457,-6.059 -7.867,-37.807 -7.584,-45.745 0,0 21.12,-0.424 31.113,0.922 0,0 -4.107,37.609 -9.793,44.111"
         style="fill:#74d2ea;fill-opacity:1;fill-rule:nonzero;stroke:none;stroke-width:0.1"
         id="path564"
         inkscape:connector-curvature="0" /><path
         d="m 491.326,336.404 c -0.097,-0.213 -0.248,-0.57 -0.408,-0.954 -0.339,-0.812 -1.039,-1.358 -1.822,-1.762 -0.091,-0.045 -0.156,-0.109 -0.176,-0.197 -0.046,-0.201 0.219,-0.577 0.518,-0.924 0.443,-0.511 0.601,-1.207 0.436,-1.863 -0.326,-1.299 -0.718,-3.336 -0.098,-3.754 0.925,-0.623 4.016,-1.7 4.016,-1.7 l 0.838,-5.203 c 0,0 1.102,-1.693 5.951,-0.624 1.642,0.362 2.329,1.048 2.329,1.048 l -0.631,5.102 c 0,0 4.703,4.975 2.255,9.818 -2.448,4.842 -10.917,6.096 -13.208,1.013"
         style="fill:#fab8a9;fill-opacity:1;fill-rule:nonzero;stroke:none;stroke-width:0.1"
         id="path566"
         inkscape:connector-curvature="0" /><path
         d="m 503.023,320.831 c 0,0 -5.554,-2.449 -8.702,-0.532 l -0.428,-0.314 c 0,0 4.029,-2.654 9.763,0.553 0,0 -0.273,0.248 -0.633,0.293"
         style="fill:#e2eaf4;fill-opacity:1;fill-rule:nonzero;stroke:none;stroke-width:0.1"
         id="path568"
         inkscape:connector-curvature="0" /><path
         d="m 476.396,303.499 c -1.445,0.348 -5.648,4.697 -5.994,5.215 -0.59,0.883 -0.195,1.083 -0.195,1.083 -0.75,0.851 -0.295,1.362 -0.295,1.362 -0.592,1.2 0.817,0.784 0.817,0.784 -0.155,1.673 2.246,0.126 2.885,-0.417 0.346,-0.294 2.027,-1.314 2.027,-1.314 0,0 0.175,0.47 -0.058,1.048 -0.183,0.456 -0.815,1.127 -0.631,1.939 0.124,0.544 2.25,-1.944 2.794,-3.102 0.438,-0.932 0.626,-3.252 0.626,-3.252 l 8.175,-3 -1.994,-4.908 -8.157,4.562"
         style="fill:#fab8a9;fill-opacity:1;fill-rule:nonzero;stroke:none;stroke-width:0.1"
         id="path570"
         inkscape:connector-curvature="0" /><path
         d="m 499.127,315.265 c -1.779,-3.484 -6.01,-9.162 -7.58,-10.14 -1.66,-1.033 -5.607,-0.295 -5.607,-0.295 l -3.442,-5.459 c 0,0 7.719,-2.779 10.18,-2.163 3.944,0.985 12.627,6.798 15.7,12.808 2.11,4.126 -0.483,9.264 -4.064,9.046 -2.464,-0.15 -4.707,-2.857 -5.187,-3.797"
         style="fill:#59c9ea;fill-opacity:1;fill-rule:nonzero;stroke:none;stroke-width:0.1"
         id="path572"
         inkscape:connector-curvature="0" /><path
         d="m 487.852,305.427 c 0,0 -3.977,-4.151 -4.598,-7.167 0,0 -1.612,0.229 -2.2,0.974 0,0 3.244,6.289 4.914,7.263 0,0 0.945,-0.019 1.884,-1.07"
         style="fill:#74d2ea;fill-opacity:1;fill-rule:nonzero;stroke:none;stroke-width:0.1"
         id="path574"
         inkscape:connector-curvature="0" /><path
         d="m 501.957,335.563 c 0.307,-0.556 -1.043,-2.916 -0.626,-3.312 0.558,0.512 1.768,1.152 2.253,0.265 0.378,-0.69 0.104,-2.202 -1.789,-2.716 -0.816,-1.851 0.363,-3.803 0.572,-4.937 0,0 6.245,6.832 5.805,12.344 -0.434,5.442 -8.387,8.928 -10.479,8.557 l 1.07,-1.198 c 0,0 -6.501,3.027 -9.42,-1.594 0,0 0.701,-0.08 1.156,-0.03 0,0 -3.491,-1.744 -3.397,-4.877 0,0 2.115,0.414 3.377,-0.654 1.136,-0.961 7.017,-1.11 9.085,-0.55 0.497,0.134 1.037,0.035 1.455,-0.264 0.331,-0.237 0.684,-0.573 0.938,-1.034"
         style="fill:#1c395a;fill-opacity:1;fill-rule:nonzero;stroke:none;stroke-width:0.1"
         id="path576"
         inkscape:connector-curvature="0" /></g></g><g
     inkscape:groupmode="layer"
     id="layer6"
     inkscape:label="letter thing"
     sodipodi:insensitive="true"
     transform="translate(-130.0208,-166.62668)"><g
       transform="matrix(1.3333333,0,0,-1.3333333,0,800)"
       style="display:inline"
       id="g5193"><path
         d="M 406.939,251.038 H 388.82 c -0.417,0 -0.756,0.338 -0.756,0.755 0,0.417 0.339,0.755 0.756,0.755 h 18.119 c 0.417,0 0.756,-0.338 0.756,-0.755 0,-0.417 -0.339,-0.755 -0.756,-0.755"
         style="fill:#bceafb;fill-opacity:1;fill-rule:nonzero;stroke:none;stroke-width:0.1"
         id="path524"
         inkscape:connector-curvature="0" /><path
         d="m 399.39,247.942 h -10.57 c -0.417,0 -0.756,0.338 -0.756,0.755 0,0.417 0.339,0.755 0.756,0.755 h 10.57 c 0.417,0 0.755,-0.338 0.755,-0.755 0,-0.417 -0.338,-0.755 -0.755,-0.755"
         style="fill:#bceafb;fill-opacity:1;fill-rule:nonzero;stroke:none;stroke-width:0.1"
         id="path526"
         inkscape:connector-curvature="0" /><path
         d="m 406.939,247.942 h -4.529 c -0.417,0 -0.756,0.338 -0.756,0.755 0,0.417 0.339,0.755 0.756,0.755 h 4.529 c 0.417,0 0.756,-0.338 0.756,-0.755 0,-0.417 -0.339,-0.755 -0.756,-0.755"
         style="fill:#bceafb;fill-opacity:1;fill-rule:nonzero;stroke:none;stroke-width:0.1"
         id="path528"
         inkscape:connector-curvature="0" /><path
         d="M 406.939,244.847 H 388.82 c -0.417,0 -0.756,0.338 -0.756,0.756 0,0.416 0.339,0.754 0.756,0.754 h 18.119 c 0.417,0 0.756,-0.338 0.756,-0.754 0,-0.418 -0.339,-0.756 -0.756,-0.756"
         style="fill:#bceafb;fill-opacity:1;fill-rule:nonzero;stroke:none;stroke-width:0.1"
         id="path530"
         inkscape:connector-curvature="0" /><path
         d="m 424.664,247.942 h -10.367 c -0.417,0 -0.755,0.338 -0.755,0.755 0,0.417 0.338,0.755 0.755,0.755 h 10.367 c 0.418,0 0.756,-0.338 0.756,-0.755 0,-0.417 -0.338,-0.755 -0.756,-0.755"
         style="fill:#bceafb;fill-opacity:1;fill-rule:nonzero;stroke:none;stroke-width:0.1"
         id="path534"
         inkscape:connector-curvature="0" /><path
         d="M 397.873,255.774 367.264,231.61 c 0.004,-3.641 2.96,-6.589 6.6,-6.586 l 54.784,0.067 c 3.642,0.004 6.59,2.959 6.585,6.6 l -30.667,24.091 c -1.964,1.543 -4.731,1.54 -6.693,-0.008"
         style="fill:#f03ca7;fill-opacity:1;fill-rule:nonzero;stroke:none;stroke-width:0.1"
         id="path578"
         inkscape:connector-curvature="0" /><path
         d="M 429.337,200.805 H 373.12 v 49.466 c 0,1.236 1.001,2.237 2.236,2.237 h 51.745 c 1.235,0 2.236,-1.001 2.236,-2.237 v -49.466"
         style="fill:#ffffff;fill-opacity:1;fill-rule:nonzero;stroke:none;stroke-width:0.1"
         id="path580"
         inkscape:connector-curvature="0" /><path
         d="m 397.689,238.741 h -18.465 c -0.425,0 -0.77,0.344 -0.77,0.77 0,0.425 0.345,0.769 0.77,0.769 h 18.465 c 0.425,0 0.77,-0.344 0.77,-0.769 0,-0.426 -0.345,-0.77 -0.77,-0.77"
         style="fill:#bceafb;fill-opacity:1;fill-rule:nonzero;stroke:none;stroke-width:0.1"
         id="path582"
         inkscape:connector-curvature="0" /><path
         d="m 389.995,235.587 h -10.771 c -0.425,0 -0.77,0.344 -0.77,0.769 0,0.425 0.345,0.769 0.77,0.769 h 10.771 c 0.425,0 0.77,-0.344 0.77,-0.769 0,-0.425 -0.345,-0.769 -0.77,-0.769"
         style="fill:#bceafb;fill-opacity:1;fill-rule:nonzero;stroke:none;stroke-width:0.1"
         id="path584"
         inkscape:connector-curvature="0" /><path
         d="m 397.689,235.587 h -4.617 c -0.424,0 -0.769,0.344 -0.769,0.769 0,0.425 0.345,0.769 0.769,0.769 h 4.617 c 0.425,0 0.77,-0.344 0.77,-0.769 0,-0.425 -0.345,-0.769 -0.77,-0.769"
         style="fill:#bceafb;fill-opacity:1;fill-rule:nonzero;stroke:none;stroke-width:0.1"
         id="path586"
         inkscape:connector-curvature="0" /><path
         d="m 397.689,232.433 h -18.465 c -0.425,0 -0.77,0.343 -0.77,0.768 0,0.425 0.345,0.77 0.77,0.77 h 18.465 c 0.425,0 0.77,-0.345 0.77,-0.77 0,-0.425 -0.345,-0.768 -0.77,-0.768"
         style="fill:#bceafb;fill-opacity:1;fill-rule:nonzero;stroke:none;stroke-width:0.1"
         id="path588"
         inkscape:connector-curvature="0" /><path
         d="m 397.689,229.277 h -10.668 c -0.425,0 -0.77,0.345 -0.77,0.77 0,0.425 0.345,0.769 0.77,0.769 h 10.668 c 0.425,0 0.77,-0.344 0.77,-0.769 0,-0.425 -0.345,-0.77 -0.77,-0.77"
         style="fill:#bceafb;fill-opacity:1;fill-rule:nonzero;stroke:none;stroke-width:0.1"
         id="path590"
         inkscape:connector-curvature="0" /><path
         d="m 383.84,229.277 h -4.565 c -0.425,0 -0.769,0.345 -0.769,0.77 0,0.425 0.344,0.769 0.769,0.769 h 4.565 c 0.426,0 0.769,-0.344 0.769,-0.769 0,-0.425 -0.343,-0.77 -0.769,-0.77"
         style="fill:#bceafb;fill-opacity:1;fill-rule:nonzero;stroke:none;stroke-width:0.1"
         id="path592"
         inkscape:connector-curvature="0" /><path
         d="m 397.689,226.123 h -18.465 c -0.425,0 -0.77,0.345 -0.77,0.77 0,0.424 0.345,0.769 0.77,0.769 h 18.465 c 0.425,0 0.77,-0.345 0.77,-0.769 0,-0.425 -0.345,-0.77 -0.77,-0.77"
         style="fill:#bceafb;fill-opacity:1;fill-rule:nonzero;stroke:none;stroke-width:0.1"
         id="path594"
         inkscape:connector-curvature="0" /><path
         d="m 397.663,223.031 h -3.759 c -0.425,0 -0.769,0.345 -0.769,0.769 0,0.426 0.344,0.769 0.769,0.769 h 3.759 c 0.425,0 0.77,-0.343 0.77,-0.769 0,-0.424 -0.345,-0.769 -0.77,-0.769"
         style="fill:#bceafb;fill-opacity:1;fill-rule:nonzero;stroke:none;stroke-width:0.1"
         id="path596"
         inkscape:connector-curvature="0" /><path
         d="m 391.508,223.031 h -3.758 c -0.426,0 -0.77,0.345 -0.77,0.769 0,0.426 0.344,0.769 0.77,0.769 h 3.758 c 0.426,0 0.769,-0.343 0.769,-0.769 0,-0.424 -0.343,-0.769 -0.769,-0.769"
         style="fill:#bceafb;fill-opacity:1;fill-rule:nonzero;stroke:none;stroke-width:0.1"
         id="path598"
         inkscape:connector-curvature="0" /><path
         d="m 384.994,223.031 h -5.745 c -0.425,0 -0.769,0.345 -0.769,0.769 0,0.426 0.344,0.769 0.769,0.769 h 5.745 c 0.425,0 0.77,-0.343 0.77,-0.769 0,-0.424 -0.345,-0.769 -0.77,-0.769"
         style="fill:#bceafb;fill-opacity:1;fill-rule:nonzero;stroke:none;stroke-width:0.1"
         id="path600"
         inkscape:connector-curvature="0" /><path
         d="m 423.232,238.741 h -18.464 c -0.425,0 -0.77,0.344 -0.77,0.77 0,0.425 0.345,0.769 0.77,0.769 h 18.464 c 0.426,0 0.77,-0.344 0.77,-0.769 0,-0.426 -0.344,-0.77 -0.77,-0.77"
         style="fill:#bceafb;fill-opacity:1;fill-rule:nonzero;stroke:none;stroke-width:0.1"
         id="path602"
         inkscape:connector-curvature="0" /><path
         d="m 415.539,235.587 h -10.771 c -0.425,0 -0.77,0.344 -0.77,0.769 0,0.425 0.345,0.769 0.77,0.769 h 10.771 c 0.425,0 0.77,-0.344 0.77,-0.769 0,-0.425 -0.345,-0.769 -0.77,-0.769"
         style="fill:#bceafb;fill-opacity:1;fill-rule:nonzero;stroke:none;stroke-width:0.1"
         id="path604"
         inkscape:connector-curvature="0" /><path
         d="m 423.232,235.587 h -4.616 c -0.425,0 -0.769,0.344 -0.769,0.769 0,0.425 0.344,0.769 0.769,0.769 h 4.616 c 0.426,0 0.77,-0.344 0.77,-0.769 0,-0.425 -0.344,-0.769 -0.77,-0.769"
         style="fill:#bceafb;fill-opacity:1;fill-rule:nonzero;stroke:none;stroke-width:0.1"
         id="path606"
         inkscape:connector-curvature="0" /><path
         d="m 423.232,232.433 h -18.464 c -0.425,0 -0.77,0.343 -0.77,0.768 0,0.425 0.345,0.77 0.77,0.77 h 18.464 c 0.426,0 0.77,-0.345 0.77,-0.77 0,-0.425 -0.344,-0.768 -0.77,-0.768"
         style="fill:#bceafb;fill-opacity:1;fill-rule:nonzero;stroke:none;stroke-width:0.1"
         id="path608"
         inkscape:connector-curvature="0" /><path
         d="m 423.232,229.277 h -10.668 c -0.425,0 -0.769,0.345 -0.769,0.77 0,0.425 0.344,0.769 0.769,0.769 h 10.668 c 0.426,0 0.77,-0.344 0.77,-0.769 0,-0.425 -0.344,-0.77 -0.77,-0.77"
         style="fill:#bceafb;fill-opacity:1;fill-rule:nonzero;stroke:none;stroke-width:0.1"
         id="path610"
         inkscape:connector-curvature="0" /><path
         d="m 409.384,229.277 h -4.566 c -0.424,0 -0.769,0.345 -0.769,0.77 0,0.425 0.345,0.769 0.769,0.769 h 4.566 c 0.425,0 0.769,-0.344 0.769,-0.769 0,-0.425 -0.344,-0.77 -0.769,-0.77"
         style="fill:#bceafb;fill-opacity:1;fill-rule:nonzero;stroke:none;stroke-width:0.1"
         id="path612"
         inkscape:connector-curvature="0" /><path
         d="m 423.232,226.123 h -18.464 c -0.425,0 -0.77,0.345 -0.77,0.77 0,0.424 0.345,0.769 0.77,0.769 h 18.464 c 0.426,0 0.77,-0.345 0.77,-0.769 0,-0.425 -0.344,-0.77 -0.77,-0.77"
         style="fill:#bceafb;fill-opacity:1;fill-rule:nonzero;stroke:none;stroke-width:0.1"
         id="path614"
         inkscape:connector-curvature="0" /><path
         d="m 423.207,223.031 h -3.759 c -0.425,0 -0.769,0.345 -0.769,0.769 0,0.426 0.344,0.769 0.769,0.769 h 3.759 c 0.425,0 0.77,-0.343 0.77,-0.769 0,-0.424 -0.345,-0.769 -0.77,-0.769"
         style="fill:#bceafb;fill-opacity:1;fill-rule:nonzero;stroke:none;stroke-width:0.1"
         id="path616"
         inkscape:connector-curvature="0" /><path
         d="m 417.052,223.031 h -3.759 c -0.425,0 -0.77,0.345 -0.77,0.769 0,0.426 0.345,0.769 0.77,0.769 h 3.759 c 0.425,0 0.769,-0.343 0.769,-0.769 0,-0.424 -0.344,-0.769 -0.769,-0.769"
         style="fill:#bceafb;fill-opacity:1;fill-rule:nonzero;stroke:none;stroke-width:0.1"
         id="path618"
         inkscape:connector-curvature="0" /><path
         d="m 410.538,223.031 h -5.745 c -0.425,0 -0.77,0.345 -0.77,0.769 0,0.426 0.345,0.769 0.77,0.769 h 5.745 c 0.425,0 0.769,-0.343 0.769,-0.769 0,-0.424 -0.344,-0.769 -0.769,-0.769"
         style="fill:#bceafb;fill-opacity:1;fill-rule:nonzero;stroke:none;stroke-width:0.1"
         id="path620"
         inkscape:connector-curvature="0" /><path
         d="M 403.131,244.044 H 380.66 c -1.189,0 -2.154,0.965 -2.154,2.154 0,1.19 0.965,2.155 2.154,2.155 h 22.471 c 1.19,0 2.154,-0.965 2.154,-2.155 0,-1.189 -0.964,-2.154 -2.154,-2.154"
         style="fill:#bceafb;fill-opacity:1;fill-rule:nonzero;stroke:none;stroke-width:0.1"
         id="path622"
         inkscape:connector-curvature="0" /><path
         d="m 422.543,244.044 h -10.235 c -1.191,0 -2.155,0.965 -2.155,2.154 0,1.19 0.964,2.155 2.155,2.155 h 10.235 c 1.189,0 2.154,-0.965 2.154,-2.155 0,-1.189 -0.965,-2.154 -2.154,-2.154"
         style="fill:#bceafb;fill-opacity:1;fill-rule:nonzero;stroke:none;stroke-width:0.1"
         id="path624"
         inkscape:connector-curvature="0" /><path
         d="m 404.566,207.483 c -1.964,-1.544 -4.731,-1.541 -6.693,0.008 l -30.609,24.164 -0.041,-34.015 c -0.004,-3.641 2.944,-6.596 6.585,-6.601 l 54.784,-0.065 c 3.641,-0.005 6.596,2.943 6.6,6.584 l 0.041,34.015 -30.667,-24.09"
         style="fill:#ef75c1;fill-opacity:1;fill-rule:nonzero;stroke:none;stroke-width:0.1"
         id="path626"
         inkscape:connector-curvature="0" /><path
         d="m 428.592,190.974 -54.784,0.065 c -3.641,0.005 -6.589,2.96 -6.585,6.601 l 30.562,25.421 c 2.002,1.665 4.908,1.661 6.906,-0.009 l 30.501,-25.494 c -0.004,-3.641 -2.959,-6.589 -6.6,-6.584"
         style="fill:#ef54b2;fill-opacity:1;fill-rule:nonzero;stroke:none;stroke-width:0.1"
         id="path628"
         inkscape:connector-curvature="0" /></g></g><g
     inkscape:groupmode="layer"
     id="layer7"
     inkscape:label="lady sitting on couch "
     sodipodi:insensitive="true"
     transform="translate(-130.0208,-166.62668)"><g
       transform="matrix(1.3333333,0,0,-1.3333333,0,800)"
       style="display:inline"
       id="g5137"><path
         d="m 206.305,232.271 c 1.514,-11.942 6.962,-22.34 17.857,-27.265 34.576,-15.637 64.74,-10.311 79.033,3.909 7.169,7.134 6.2,14.063 1.721,20.142 -7.131,9.704 -23.173,17.229 -29.241,19.926 -9.88,4.398 -12.232,42.511 -39.046,42.511 -18.366,0 -33.646,-33.247 -30.324,-59.223"
         style="fill:#ffffff;fill-opacity:1;fill-rule:nonzero;stroke:none;stroke-width:0.1"
         id="path630"
         inkscape:connector-curvature="0" /><path
         d="m 277.395,224.665 c 0,0 -16.936,2.933 -25.09,14.497 -8.155,11.564 -6.9,27.526 -12.388,34.53 -5.488,7.004 -7.526,8.958 -7.526,8.958 0,0 7.369,-11.239 7.997,-17.264 0.627,-6.028 -5.175,1.302 -12.232,1.954 0,0 10.036,-7.329 12.545,-13.682 0,0 -9.487,0.978 -16.073,-7.33 0,0 11.996,3.177 15.76,2.933 0,0 -6.586,-0.734 -8.822,-3.91 0,0 7.528,0.855 9.41,-0.855 1.881,-1.71 3.807,-5.375 3.807,-5.375 0,0 -17.568,-4.765 -20.155,-13.315 0,0 13.275,9.36 21.405,7.451 0,0 -10.82,-2.809 -11.996,-16.736 0,0 8.054,13.144 13.289,13.316 0,0 -5.317,-4.935 -5.563,-10.272 0,0 4.74,8.073 6.622,9.294 1.882,1.222 8.703,-7.451 6.703,-18.446 0,0 4.47,11.239 0.471,17.225 0,0 13.171,-5.131 12.231,-16.369 0,0 2.823,8.184 -2.352,13.559 0,0 6.861,-2.158 11.957,-0.163"
         style="fill:#c4bde4;fill-opacity:1;fill-rule:nonzero;stroke:none;stroke-width:0.1"
         id="path632"
         inkscape:connector-curvature="0" /><path
         d="m 206.305,232.271 c 0.569,-12.923 9.385,-24.994 20.3,-30.556 27.747,-14.14 62.297,-7.02 76.59,7.2 7.169,7.134 6.2,14.063 1.721,20.142 -0.094,-4.476 -1.27,-13.096 -8.326,-18.647 -9.879,-7.76 -39.046,-11.425 -59.275,-4.828 -15.59,5.082 -26.288,17.855 -31.01,26.689"
         style="fill:#7b76c3;fill-opacity:1;fill-rule:nonzero;stroke:none;stroke-width:0.1"
         id="path634"
         inkscape:connector-curvature="0" /><path
         d="m 301.395,199.967 c 0,0 6.7,-2.283 8.292,-5.5 1.591,-3.217 -10.445,0.095 -10.445,0.095 0,0 -0.344,-2.573 -0.803,-2.8 -0.459,-0.228 -2.341,4.791 -1.334,7.12 1.006,2.328 4.29,1.085 4.29,1.085"
         style="fill:#f03ca7;fill-opacity:1;fill-rule:nonzero;stroke:none;stroke-width:0.1"
         id="path636"
         inkscape:connector-curvature="0" /><path
         d="m 299.37,206.066 1.016,-5.912 c 0,0 4.55,-2.432 3.941,-4.106 -0.607,-1.674 -7.457,1.459 -7.457,1.459 l -2.187,6.24 4.687,2.319"
         style="fill:#fbc8b6;fill-opacity:1;fill-rule:nonzero;stroke:none;stroke-width:0.1"
         id="path638"
         inkscape:connector-curvature="0" /><path
         d="m 312.23,201.397 c 0,0 6.748,-2.139 8.408,-5.322 1.659,-3.181 -10.445,-0.127 -10.445,-0.127 0,0 -0.288,-2.579 -0.743,-2.816 -0.454,-0.236 -2.442,4.74 -1.485,7.09 0.957,2.349 4.265,1.175 4.265,1.175"
         style="fill:#f03ca7;fill-opacity:1;fill-rule:nonzero;stroke:none;stroke-width:0.1"
         id="path640"
         inkscape:connector-curvature="0" /><path
         d="m 310.076,207.453 1.143,-5.889 c 0,0 4.598,-2.335 4.027,-4.021 -0.572,-1.687 -7.487,1.299 -7.487,1.299 l -2.32,6.192 4.637,2.419"
         style="fill:#fbc8b6;fill-opacity:1;fill-rule:nonzero;stroke:none;stroke-width:0.1"
         id="path642"
         inkscape:connector-curvature="0" /><path
         d="m 291.576,229.032 c 2.039,-1.356 13.125,-26.156 13.125,-26.156 0,0 3.722,0.434 7.015,1.375 0,0 -7.653,28.047 -12.304,31.463 -12.4,9.109 -36.944,18.207 -36.944,18.207 l -8.81,-8.765 c 0,0 31.158,-11.63 37.918,-16.124"
         style="fill:#59c9ea;fill-opacity:1;fill-rule:nonzero;stroke:none;stroke-width:0.1"
         id="path644"
         inkscape:connector-curvature="0" /><path
         d="m 242.214,266.693 c -1.653,0.103 -5.37,1.893 -7.021,6.108 -1.652,4.214 2.58,7.6 2.373,11.636 -0.206,4.035 -1.204,10.64 -1.031,12.602 0.412,4.706 4.823,10.217 15.212,10.217 12.936,0 8.578,-12.591 9.533,-16.101 0.955,-3.509 1.625,-7.947 0,-10.527 -1.625,-2.581 -19.066,-13.935 -19.066,-13.935"
         style="fill:#1c395a;fill-opacity:1;fill-rule:nonzero;stroke:none;stroke-width:0.1"
         id="path646"
         inkscape:connector-curvature="0" /><path
         d="m 245.783,246.366 c 0,0 -1.212,-16.97 16.488,-18.741 10.926,-1.093 14.731,-0.552 19.31,-1.782 0.901,-0.242 1.615,-0.931 1.922,-1.813 2.632,-7.576 10.547,-22.624 10.547,-22.624 0,0 2.628,-1.003 7.491,1.366 0,0 -7.339,23.655 -9.906,27.832 -4.238,6.892 -37.977,19.485 -37.977,19.485 l -7.875,-3.723"
         style="fill:#74d2ea;fill-opacity:1;fill-rule:nonzero;stroke:none;stroke-width:0.1"
         id="path648"
         inkscape:connector-curvature="0" /><path
         d="m 279.724,251.582 c 0,-1.83 1.484,-3.313 3.314,-3.313 1.83,0 3.314,1.483 3.314,3.313 0,1.831 -1.484,3.314 -3.314,3.314 -1.83,0 -3.314,-1.483 -3.314,-3.314"
         style="fill:#aecdd4;fill-opacity:1;fill-rule:nonzero;stroke:none;stroke-width:0.1"
         id="path650"
         inkscape:connector-curvature="0" /><path
         d="m 268.864,248.888 c -2.212,-5.661 -25.132,-13.036 -25.132,-13.036 0,0 3.451,25.091 2.381,30.6 -1.496,-1.194 -3.297,-2.654 -3.297,-2.654 0,0 -4.512,4.621 -3.305,11.211 1.206,6.587 9.803,8.742 9.803,8.742 0,0 10.434,2.172 16.032,-4.138 1.134,-1.278 2.32,-3.687 2.32,-3.687 0,0 0,0 -0.53,-0.281 h -0.009 c -1.081,-0.572 -2.714,-1.436 -2.714,-1.464 0.756,-0.901 1.303,-1.785 1.407,-2.541 0.145,-1.018 -0.176,-2.212 -0.655,-3.454 -0.949,-2.446 -2.505,-5.091 -2.332,-7.001 0.298,-3.302 6.031,-12.297 6.031,-12.297"
         style="fill:#f03ca7;fill-opacity:1;fill-rule:nonzero;stroke:none;stroke-width:0.1"
         id="path652"
         inkscape:connector-curvature="0" /><path
         d="m 286.356,243.692 h -25.045 l 3.867,20.108 c 0.089,0.466 0.497,0.803 0.97,0.803 h 23.032 c 0.621,0 1.089,-0.567 0.971,-1.176 l -3.795,-19.735"
         style="fill:#ffffff;fill-opacity:1;fill-rule:nonzero;stroke:none;stroke-width:0.1"
         id="path654"
         inkscape:connector-curvature="0" /><path
         d="m 256.091,279.178 c 0.087,-0.846 -1.023,-2.21 -3.15,-1.1 -0.498,0.261 -5.152,2.993 -3.755,5.704 l -0.277,5.795 5.079,-2.665 0.166,-2.864 c 0,0 1.616,-1.745 1.937,-4.87"
         style="fill:#fbc8b6;fill-opacity:1;fill-rule:nonzero;stroke:none;stroke-width:0.1"
         id="path656"
         inkscape:connector-curvature="0" /><path
         d="m 260.153,300.328 c 0,0 1.617,-10.522 -4.102,-14.214 -5.718,-3.69 -8.836,6.551 -8.836,6.551 0,0 -1.084,1.681 -0.916,2.912 0.239,1.751 2.389,0.202 2.389,0.202 l -0.046,4.428 4.646,0.049 6.865,0.072"
         style="fill:#fbc8b6;fill-opacity:1;fill-rule:nonzero;stroke:none;stroke-width:0.1"
         id="path658"
         inkscape:connector-curvature="0" /><path
         d="m 262.92,301.237 c -1.449,2.731 -4.382,2.545 -5.329,0.931 -2.417,1.035 -10.769,1.536 -11.816,0.78 -1.286,-0.929 -0.683,-5.015 -2.592,-6.361 -1.909,-1.346 0.363,-10.014 2.879,-8.877 2.515,1.136 1.334,2.352 1.485,3.828 0.15,1.475 5.799,3.393 8.419,5.06 1.863,1.184 2.219,2.882 2.247,3.904 0.994,-1.134 2.563,-2.839 3.221,-3.091 0.995,-0.382 2.14,2.596 1.486,3.826"
         style="fill:#1c395a;fill-opacity:1;fill-rule:nonzero;stroke:none;stroke-width:0.1"
         id="path660"
         inkscape:connector-curvature="0" /><path
         d="m 259.747,293.55 c 0,0 0.441,-2.059 0.71,-2.683 0.419,-0.971 -1.867,-0.613 -1.867,-0.613 l 1.157,3.296"
         style="fill:#fbc8b6;fill-opacity:1;fill-rule:nonzero;stroke:none;stroke-width:0.1"
         id="path662"
         inkscape:connector-curvature="0" /><path
         d="m 262.067,247.626 h -12.102 l 11.346,-3.934 z"
         style="fill:#bbd3e7;fill-opacity:1;fill-rule:nonzero;stroke:none;stroke-width:0.1"
         id="path664"
         inkscape:connector-curvature="0" /><path
         d="m 249.965,247.626 v -0.741 l 11.346,-3.921 v 0.728 l -11.346,3.934"
         style="fill:#deecf9;fill-opacity:1;fill-rule:nonzero;stroke:none;stroke-width:0.1"
         id="path666"
         inkscape:connector-curvature="0" /><path
         d="m 286.356,243.692 h -25.045 v -0.728 l 25.045,0.159 v 0.569"
         style="fill:#bbd3e7;fill-opacity:1;fill-rule:nonzero;stroke:none;stroke-width:0.1"
         id="path668"
         inkscape:connector-curvature="0" /><path
         d="m 243.263,264.161 c 0,0 4.758,-9.209 7.06,-11.22 2.193,-1.915 11.873,-4.643 11.873,-4.643 l 0.377,1.961 c 0,0 -7.325,3.779 -8.791,5.678 -2.498,3.238 -6.333,11.6 -6.333,11.6 l -4.186,-3.376"
         style="fill:#fbc8b6;fill-opacity:1;fill-rule:nonzero;stroke:none;stroke-width:0.1"
         id="path670"
         inkscape:connector-curvature="0" /><path
         d="m 271.106,264.603 h -3.97 c 0,0 -1.223,1.789 -1.971,3.583 0.479,1.242 0.8,2.436 0.655,3.454 -0.104,0.756 -0.651,1.64 -1.407,2.541 0,0.028 1.424,0.783 2.506,1.353 l 0.217,0.111 c 0,0 1.659,-6.216 2.161,-7.426 0.503,-1.21 1.809,-3.616 1.809,-3.616"
         style="fill:#fbc8b6;fill-opacity:1;fill-rule:nonzero;stroke:none;stroke-width:0.1"
         id="path672"
         inkscape:connector-curvature="0" /></g></g><g
     inkscape:groupmode="layer"
     id="layer9"
     inkscape:label="calculator"
     sodipodi:insensitive="true"
     transform="translate(-130.0208,-166.62668)"><g
       transform="matrix(1.3333333,0,0,-1.3333333,0,800)"
       style="display:inline"
       id="g5085"><path
         d="m 216.589,247.796 v -0.001 c -0.429,0.185 -0.901,0.29 -1.399,0.29 h -35.53 c -1.946,0 -3.523,-1.578 -3.523,-3.523 v -39.696 c 0,-1.47 0.9,-2.728 2.178,-3.257 v -0.001 l 3.815,-1.468 0.651,1.202 h 32.409 c 1.947,0 3.524,1.578 3.524,3.524 v 39.696 c 0,0.212 -0.023,0.421 -0.059,0.625 0.529,-0.047 0.924,-0.077 0.962,-0.065 0.122,0.041 1.148,0.995 1.148,0.995 l -4.176,1.679"
         style="fill:#7b76c3;fill-opacity:1;fill-rule:nonzero;stroke:none;stroke-width:0.1"
         id="path690"
         inkscape:connector-curvature="0" /><path
         d="m 219.523,199.603 h -35.529 c -1.946,0 -3.523,1.578 -3.523,3.523 v 39.695 c 0,1.947 1.577,3.524 3.523,3.524 h 35.529 c 1.947,0 3.524,-1.577 3.524,-3.524 v -39.695 c 0,-1.945 -1.577,-3.523 -3.524,-3.523"
         style="fill:#c4bde4;fill-opacity:1;fill-rule:nonzero;stroke:none;stroke-width:0.1"
         id="path692"
         inkscape:connector-curvature="0" /><path
         d="m 218.733,231.996 h -33.524 v 9.24 h 33.524 v -9.24"
         style="fill:#7b76c3;fill-opacity:1;fill-rule:nonzero;stroke:none;stroke-width:0.1"
         id="path694"
         inkscape:connector-curvature="0" /><path
         d="m 217.711,232.975 h -32.502 v 8.261 h 32.502 v -8.261"
         style="fill:#3d409f;fill-opacity:1;fill-rule:nonzero;stroke:none;stroke-width:0.1"
         id="path696"
         inkscape:connector-curvature="0" /><path
         d="m 194.017,228.085 0.541,0.542 -0.541,0.541 h -9.349 v -9.349 l 0.541,-0.541 0.541,0.541 h 8.267 v 8.266"
         style="fill:#3d409f;fill-opacity:1;fill-rule:nonzero;stroke:none;stroke-width:0.1"
         id="path698"
         inkscape:connector-curvature="0" /><path
         d="m 206.104,228.085 0.542,0.542 -0.542,0.541 h -9.348 v -9.349 l 0.541,-0.541 0.541,0.541 h 8.266 v 8.266"
         style="fill:#3d409f;fill-opacity:1;fill-rule:nonzero;stroke:none;stroke-width:0.1"
         id="path700"
         inkscape:connector-curvature="0" /><path
         d="m 206.104,214.389 0.542,0.542 -0.542,0.541 h -9.348 v -9.35 l 0.541,-0.541 0.541,0.541 h 8.266 v 8.267"
         style="fill:#3d409f;fill-opacity:1;fill-rule:nonzero;stroke:none;stroke-width:0.1"
         id="path702"
         inkscape:connector-curvature="0" /><path
         d="m 194.017,214.389 0.541,0.542 -0.541,0.541 h -9.349 v -9.35 l 0.541,-0.541 0.541,0.541 h 8.267 v 8.267"
         style="fill:#3d409f;fill-opacity:1;fill-rule:nonzero;stroke:none;stroke-width:0.1"
         id="path704"
         inkscape:connector-curvature="0" /><path
         d="m 218.193,227.293 0.541,1.334 -0.541,0.541 h -9.348 v -23.046 l 0.541,-0.541 0.219,0.541 h 8.588 v 21.171"
         style="fill:#3d409f;fill-opacity:1;fill-rule:nonzero;stroke:none;stroke-width:0.1"
         id="path706"
         inkscape:connector-curvature="0" /><path
         d="m 194.558,219.278 h -9.349 v 9.349 h 9.349 v -9.349"
         style="fill:#ffffff;fill-opacity:1;fill-rule:nonzero;stroke:none;stroke-width:0.1"
         id="path708"
         inkscape:connector-curvature="0" /><path
         d="m 206.646,219.278 h -9.349 v 9.349 h 9.349 v -9.349"
         style="fill:#ffffff;fill-opacity:1;fill-rule:nonzero;stroke:none;stroke-width:0.1"
         id="path710"
         inkscape:connector-curvature="0" /><path
         d="m 194.558,205.581 h -9.349 v 9.35 h 9.349 v -9.35"
         style="fill:#ffffff;fill-opacity:1;fill-rule:nonzero;stroke:none;stroke-width:0.1"
         id="path712"
         inkscape:connector-curvature="0" /><path
         d="m 206.646,205.581 h -9.349 v 9.35 h 9.349 v -9.35"
         style="fill:#ffffff;fill-opacity:1;fill-rule:nonzero;stroke:none;stroke-width:0.1"
         id="path714"
         inkscape:connector-curvature="0" /><path
         d="m 218.734,205.581 h -9.348 v 23.046 h 9.348 v -23.046"
         style="fill:#ffffff;fill-opacity:1;fill-rule:nonzero;stroke:none;stroke-width:0.1"
         id="path716"
         inkscape:connector-curvature="0" /><path
         d="m 189.389,221.601 v 1.681 h -1.696 v 1.161 h 1.696 v 1.681 h 1.129 v -1.681 h 1.699 v -1.161 h -1.699 v -1.681 h -1.129"
         style="fill:#7b76c3;fill-opacity:1;fill-rule:nonzero;stroke:none;stroke-width:0.1"
         id="path718"
         inkscape:connector-curvature="0" /><path
         d="m 199.71,223.282 v 1.161 h 4.523 v -1.161 h -4.523"
         style="fill:#7b76c3;fill-opacity:1;fill-rule:nonzero;stroke:none;stroke-width:0.1"
         id="path720"
         inkscape:connector-curvature="0" /><path
         d="m 187.955,209.058 1.19,1.188 -1.2,1.198 0.821,0.822 1.199,-1.199 1.189,1.189 0.798,-0.799 -1.188,-1.188 1.201,-1.203 -0.82,-0.82 -1.202,1.201 -1.189,-1.188 -0.799,0.799"
         style="fill:#7b76c3;fill-opacity:1;fill-rule:nonzero;stroke:none;stroke-width:0.1"
         id="path722"
         inkscape:connector-curvature="0" /><path
         d="m 211.826,215.626 v 1.143 h 4.524 v -1.143 z m 0,1.96 v 1.139 h 4.524 v -1.139 h -4.524"
         style="fill:#7b76c3;fill-opacity:1;fill-rule:nonzero;stroke:none;stroke-width:0.1"
         id="path724"
         inkscape:connector-curvature="0" /><path
         d="m 199.71,209.676 v 1.16 h 4.523 v -1.16 h -4.523"
         style="fill:#7b76c3;fill-opacity:1;fill-rule:nonzero;stroke:none;stroke-width:0.1"
         id="path726"
         inkscape:connector-curvature="0" /><path
         d="m 202.668,212.575 c 0,0.385 -0.312,0.696 -0.696,0.696 -0.385,0 -0.697,-0.311 -0.697,-0.696 0,-0.385 0.312,-0.697 0.697,-0.697 0.384,0 0.696,0.312 0.696,0.697"
         style="fill:#7b76c3;fill-opacity:1;fill-rule:nonzero;stroke:none;stroke-width:0.1"
         id="path728"
         inkscape:connector-curvature="0" /><path
         d="m 202.668,207.937 c 0,0.384 -0.312,0.696 -0.696,0.696 -0.385,0 -0.697,-0.312 -0.697,-0.696 0,-0.385 0.312,-0.698 0.697,-0.698 0.384,0 0.696,0.313 0.696,0.698"
         style="fill:#7b76c3;fill-opacity:1;fill-rule:nonzero;stroke:none;stroke-width:0.1"
         id="path730"
         inkscape:connector-curvature="0" /><path
         d="m 194.337,235.772 0.987,0.103 c 0.029,-0.224 0.113,-0.4 0.251,-0.53 0.139,-0.131 0.298,-0.197 0.48,-0.197 0.207,0 0.382,0.084 0.525,0.252 0.143,0.168 0.215,0.421 0.215,0.76 0,0.318 -0.071,0.556 -0.213,0.714 -0.143,0.159 -0.328,0.238 -0.556,0.238 -0.284,0 -0.54,-0.125 -0.765,-0.377 l -0.804,0.117 0.508,2.69 h 2.62 v -0.928 h -1.869 l -0.155,-0.878 c 0.22,0.111 0.447,0.166 0.677,0.166 0.44,0 0.812,-0.159 1.117,-0.479 0.306,-0.32 0.459,-0.735 0.459,-1.245 0,-0.425 -0.124,-0.805 -0.371,-1.139 -0.336,-0.456 -0.802,-0.685 -1.399,-0.685 -0.478,0 -0.866,0.129 -1.167,0.385 -0.301,0.257 -0.481,0.601 -0.54,1.033"
         style="fill:#ffffff;fill-opacity:1;fill-rule:nonzero;stroke:none;stroke-width:0.1"
         id="path732"
         inkscape:connector-curvature="0" /><path
         d="m 198.42,238.621 v 0.921 h 3.389 v -0.719 c -0.28,-0.275 -0.565,-0.671 -0.854,-1.185 -0.289,-0.515 -0.51,-1.062 -0.661,-1.642 -0.151,-0.579 -0.226,-1.097 -0.224,-1.553 h -0.955 c 0.016,0.715 0.164,1.444 0.442,2.187 0.279,0.742 0.651,1.406 1.117,1.991 h -2.254"
         style="fill:#ffffff;fill-opacity:1;fill-rule:nonzero;stroke:none;stroke-width:0.1"
         id="path734"
         inkscape:connector-curvature="0" /><path
         d="m 202.078,235.434 h 0.99 v -0.708 c 0,-0.288 -0.024,-0.514 -0.073,-0.68 -0.05,-0.165 -0.143,-0.314 -0.28,-0.445 -0.138,-0.132 -0.313,-0.236 -0.524,-0.311 l -0.194,0.409 c 0.2,0.066 0.342,0.156 0.427,0.272 0.084,0.115 0.129,0.272 0.134,0.472 h -0.48 v 0.991"
         style="fill:#ffffff;fill-opacity:1;fill-rule:nonzero;stroke:none;stroke-width:0.1"
         id="path736"
         inkscape:connector-curvature="0" /><path
         d="m 205.655,238.812 c -0.12,0 -0.226,-0.039 -0.321,-0.115 -0.094,-0.076 -0.166,-0.213 -0.218,-0.41 -0.068,-0.257 -0.102,-0.688 -0.102,-1.294 0,-0.607 0.03,-1.023 0.091,-1.25 0.061,-0.227 0.138,-0.379 0.231,-0.454 0.094,-0.075 0.199,-0.112 0.319,-0.112 0.12,0 0.228,0.038 0.322,0.114 0.093,0.077 0.166,0.214 0.218,0.411 0.068,0.254 0.102,0.684 0.102,1.291 0,0.606 -0.03,1.023 -0.092,1.249 -0.06,0.228 -0.138,0.379 -0.23,0.455 -0.093,0.076 -0.2,0.115 -0.32,0.115 z m 0,0.822 c 0.501,0 0.893,-0.179 1.175,-0.536 0.336,-0.423 0.504,-1.125 0.504,-2.105 0,-0.978 -0.17,-1.681 -0.508,-2.109 -0.279,-0.353 -0.67,-0.53 -1.171,-0.53 -0.503,0 -0.908,0.194 -1.216,0.581 -0.308,0.386 -0.462,1.076 -0.462,2.068 0,0.973 0.169,1.674 0.507,2.101 0.281,0.354 0.67,0.53 1.171,0.53"
         style="fill:#ffffff;fill-opacity:1;fill-rule:nonzero;stroke:none;stroke-width:0.1"
         id="path738"
         inkscape:connector-curvature="0" /><path
         d="m 209.887,238.812 c -0.119,0 -0.227,-0.039 -0.321,-0.115 -0.094,-0.076 -0.167,-0.213 -0.218,-0.41 -0.069,-0.257 -0.103,-0.688 -0.103,-1.294 0,-0.607 0.03,-1.023 0.092,-1.25 0.061,-0.227 0.138,-0.379 0.231,-0.454 0.092,-0.075 0.2,-0.112 0.319,-0.112 0.12,0 0.226,0.038 0.321,0.114 0.094,0.077 0.167,0.214 0.218,0.411 0.068,0.254 0.102,0.684 0.102,1.291 0,0.606 -0.03,1.023 -0.09,1.249 -0.062,0.228 -0.139,0.379 -0.232,0.455 -0.093,0.076 -0.199,0.115 -0.319,0.115 z m 0,0.822 c 0.501,0 0.892,-0.179 1.174,-0.536 0.336,-0.423 0.504,-1.125 0.504,-2.105 0,-0.978 -0.169,-1.681 -0.507,-2.109 -0.281,-0.353 -0.67,-0.53 -1.171,-0.53 -0.503,0 -0.908,0.194 -1.217,0.581 -0.308,0.386 -0.461,1.076 -0.461,2.068 0,0.973 0.169,1.674 0.508,2.101 0.279,0.354 0.67,0.53 1.17,0.53"
         style="fill:#ffffff;fill-opacity:1;fill-rule:nonzero;stroke:none;stroke-width:0.1"
         id="path740"
         inkscape:connector-curvature="0" /><path
         d="m 214.378,236.354 v 1.767 l -1.189,-1.767 z m 0,-1.911 v 1.04 h -2.116 v 0.868 l 2.243,3.283 h 0.832 v -3.28 h 0.642 v -0.871 h -0.642 v -1.04 h -0.959"
         style="fill:#ffffff;fill-opacity:1;fill-rule:nonzero;stroke:none;stroke-width:0.1"
         id="path742"
         inkscape:connector-curvature="0" /></g></g><g
     inkscape:groupmode="layer"
     id="layer16"
     inkscape:label="signal_1"
     sodipodi:insensitive="true"
     transform="translate(-130.0208,-166.62668)"><path
       transform="matrix(1.3333333,0,0,-1.3333333,0,800)"
       inkscape:connector-curvature="0"
       id="path772"
       style="display:inline;fill:#d5d0ec;fill-opacity:1;fill-rule:nonzero;stroke:none;stroke-width:0.1"
       d="m 631.103,391.677 c -0.115,0 -0.229,0.039 -0.323,0.118 -0.211,0.178 -0.238,0.493 -0.059,0.704 2.838,3.362 6.985,5.29 11.379,5.29 4.278,0 8.352,-1.844 11.179,-5.059 0.183,-0.207 0.162,-0.523 -0.045,-0.705 -0.207,-0.183 -0.523,-0.162 -0.705,0.045 -2.637,2.999 -6.439,4.719 -10.429,4.719 -4.099,0 -7.968,-1.799 -10.616,-4.935 -0.098,-0.117 -0.24,-0.177 -0.381,-0.177" /></g><g
     inkscape:groupmode="layer"
     id="layer17"
     inkscape:label="signal_2"
     sodipodi:insensitive="true"
     transform="translate(-130.0208,-166.62668)"><path
       transform="matrix(1.3333333,0,0,-1.3333333,0,800)"
       inkscape:connector-curvature="0"
       id="path774"
       style="display:inline;fill:#d5d0ec;fill-opacity:1;fill-rule:nonzero;stroke:none;stroke-width:0.1"
       d="m 627.256,396.684 c -0.114,0 -0.229,0.039 -0.322,0.118 -0.211,0.177 -0.239,0.493 -0.06,0.704 3.805,4.508 9.366,7.093 15.26,7.093 5.736,0 11.201,-2.473 14.992,-6.784 0.183,-0.207 0.162,-0.523 -0.045,-0.705 -0.207,-0.182 -0.523,-0.162 -0.705,0.045 -3.603,4.095 -8.793,6.444 -14.242,6.444 -5.598,0 -10.882,-2.456 -14.496,-6.738 -0.099,-0.117 -0.241,-0.177 -0.382,-0.177" /></g><g
     inkscape:groupmode="layer"
     id="layer18"
     inkscape:label="signal_3"
     sodipodi:insensitive="true"
     transform="translate(-130.0208,-166.62668)"><path
       transform="matrix(1.3333333,0,0,-1.3333333,0,800)"
       inkscape:connector-curvature="0"
       id="path776"
       style="display:inline;fill:#d5d0ec;fill-opacity:1;fill-rule:nonzero;stroke:none;stroke-width:0.1"
       d="m 623.287,401.707 c -0.114,0 -0.228,0.039 -0.322,0.118 -0.211,0.178 -0.238,0.493 -0.06,0.704 4.803,5.691 11.824,8.954 19.264,8.954 7.241,0 14.14,-3.121 18.926,-8.562 0.182,-0.207 0.162,-0.524 -0.045,-0.705 -0.207,-0.183 -0.524,-0.162 -0.705,0.045 -4.598,5.225 -11.222,8.222 -18.176,8.222 -7.145,0 -13.887,-3.133 -18.5,-8.598 -0.099,-0.117 -0.24,-0.178 -0.382,-0.178" /></g><g
     inkscape:groupmode="layer"
     id="layer10"
     inkscape:label="balloon"
     transform="translate(-130.0208,-166.62668)"
     sodipodi:insensitive="true"><g
       transform="matrix(1.3333333,0,0,-1.3333333,0,800)"
       id="g4948"><path
         d="m 263.267,404.276 -3.757,13.047 0.636,0.184 3.756,-13.047 -0.635,-0.184"
         style="fill:#74d2ea;fill-opacity:1;fill-rule:nonzero;stroke:none;stroke-width:0.1"
         id="path674"
         inkscape:connector-curvature="0" /><path
         d="m 264.661,404.073 -1.94,13.253 0.654,0.096 1.94,-13.253 -0.654,-0.096"
         style="fill:#74d2ea;fill-opacity:1;fill-rule:nonzero;stroke:none;stroke-width:0.1"
         id="path676"
         inkscape:connector-curvature="0" /><path
         d="m 273.77,404.276 -0.635,0.184 3.757,13.047 0.635,-0.184 -3.757,-13.047"
         style="fill:#74d2ea;fill-opacity:1;fill-rule:nonzero;stroke:none;stroke-width:0.1"
         id="path678"
         inkscape:connector-curvature="0" /><path
         d="m 272.376,404.073 -0.654,0.096 1.94,13.253 0.654,-0.096 -1.94,-13.253"
         style="fill:#74d2ea;fill-opacity:1;fill-rule:nonzero;stroke:none;stroke-width:0.1"
         id="path680"
         inkscape:connector-curvature="0" /><path
         d="m 289.885,437.117 c 0,-9.067 -5.311,-16.85 -12.912,-20.234 h -16.976 c -7.601,3.384 -12.911,11.167 -12.911,20.234 0,12.174 9.576,22.037 21.394,22.037 11.829,0 21.405,-9.863 21.405,-22.037"
         style="fill:#534daa;fill-opacity:1;fill-rule:nonzero;stroke:none;stroke-width:0.1"
         id="path682"
         inkscape:connector-curvature="0" /><path
         d="m 284.143,437.117 c 0,-9.067 -3.892,-16.86 -9.452,-20.234 H 262.27 c -5.561,3.384 -9.443,11.167 -9.443,20.234 0,12.174 7.007,22.037 15.653,22.037 8.656,0 15.663,-9.863 15.663,-22.037"
         style="fill:#bceafb;fill-opacity:1;fill-rule:nonzero;stroke:none;stroke-width:0.1"
         id="path684"
         inkscape:connector-curvature="0" /><path
         d="m 274.873,437.117 c 0,-9.067 -1.581,-16.85 -3.852,-20.234 h -5.072 c -2.271,3.384 -3.852,11.167 -3.852,20.234 0,12.174 2.856,22.037 6.383,22.037 3.538,0 6.393,-9.863 6.393,-22.037"
         style="fill:#534daa;fill-opacity:1;fill-rule:nonzero;stroke:none;stroke-width:0.1"
         id="path686"
         inkscape:connector-curvature="0" /><path
         d="m 269.528,397.039 h -2.006 c -2.429,0 -4.399,1.97 -4.399,4.399 v 3.599 h 10.805 v -3.599 c 0,-2.429 -1.97,-4.399 -4.4,-4.399"
         style="fill:#534daa;fill-opacity:1;fill-rule:nonzero;stroke:none;stroke-width:0.1"
         id="path688"
         inkscape:connector-curvature="0" /></g></g></svg>