<svg xmlns="http://www.w3.org/2000/svg" id="artboard-svg" width="25" height="33" viewBox="0 0 25 33" style="width:562.5px"><defs><style>.cls-1 { clip-path: url(#clip-Mobile_Page_-_2); } .cls-2 { fill: #eee; } .cls-3, .cls-4, .cls-5 { fill: #bdbdbd; } .cls-4 { fill-rule: evenodd; } .cls-5, .cls-6 { font-size: 10px; } .cls-31, .cls-32, .cls-5, .cls-6, .cls-8 { font-family: ArialMT, Arial; } .cls-6, .cls-8, .cls-9 { fill: #534daa; } .cls-7 { fill: #fff; } .cls-8 { font-size: 20px; } .cls-10 { fill: #e3e8e6; } .cls-11 { fill: #b3bad3; } .cls-12 { fill: #213760; } .cls-13 { fill: none; stroke: #eee; } .cls-14 { fill: #f7f8fd; } .cls-15 { fill: #bfb2df; } .cls-16 { fill: #99deef; } .cls-17 { fill: #d4d3ee; } .cls-18 { fill: #a79cd6; } .cls-19 { fill: #5762b7; } .cls-20 { fill: #234465; } .cls-21 { fill: #305c78; } .cls-22 { fill: #e8eaf7; } .cls-23 { fill: #6dccd6; } .cls-24 { fill: #f5af45; } .cls-25 { fill: #e4519c; } .cls-26 { fill: #83d6e5; } .cls-27 { fill: #3e52ac; } .cls-28 { fill: #f46bac; } .cls-29 { fill: #295072; } .cls-30 { fill: #3545a2; } .cls-31 { fill: #424242; } .cls-31, .cls-32 { font-size: 9px; } .cls-32 { fill: #566cff; } .cls-33 { fill: #f682b9; } .cls-34 { fill: #ee9f3d; } .cls-35 { fill: #e49035; } .cls-36 { filter: url(#Rectangle_6); } .cls-37 { filter: url(#Rectangle_5); } .cls-38 { filter: url(#Rectangle_3); } .cls-39 { filter: url(#Rectangle_8); } .cls-40 { filter: url(#Rectangle_7); } .cls-41 { filter: url(#Rectangle_4); }</style><filter id="Rectangle_4" width="295" height="172" x="52" y="183" filterUnits="userSpaceOnUse"><feOffset dy="3"/><feGaussianBlur result="blur" stdDeviation="3"/><feFlood flood-opacity=".161"/><feComposite in2="blur" operator="in"/><feComposite in="SourceGraphic"/></filter><filter id="Rectangle_7" width="295" height="156" x="52" y="400" filterUnits="userSpaceOnUse"><feOffset dy="3"/><feGaussianBlur result="blur-2" stdDeviation="3"/><feFlood flood-opacity=".161"/><feComposite in2="blur-2" operator="in"/><feComposite in="SourceGraphic"/></filter><filter id="Rectangle_8" width="295" height="182" x="52" y="603" filterUnits="userSpaceOnUse"><feOffset dy="3"/><feGaussianBlur result="blur-3" stdDeviation="3"/><feFlood flood-opacity=".161"/><feComposite in2="blur-3" operator="in"/><feComposite in="SourceGraphic"/></filter><filter id="Rectangle_3" width="68" height="68" x="27" y="158" filterUnits="userSpaceOnUse"><feOffset dy="3"/><feGaussianBlur result="blur-4" stdDeviation="3"/><feFlood flood-opacity=".161"/><feComposite in2="blur-4" operator="in"/><feComposite in="SourceGraphic"/></filter><filter id="Rectangle_5" width="68" height="68" x="27" y="375" filterUnits="userSpaceOnUse"><feOffset dy="3"/><feGaussianBlur result="blur-5" stdDeviation="3"/><feFlood flood-opacity=".161"/><feComposite in2="blur-5" operator="in"/><feComposite in="SourceGraphic"/></filter><filter id="Rectangle_6" width="68" height="68" x="27" y="573" filterUnits="userSpaceOnUse"><feOffset dy="3"/><feGaussianBlur result="blur-6" stdDeviation="3"/><feFlood flood-opacity=".161"/><feComposite in2="blur-6" operator="in"/><feComposite in="SourceGraphic"/></filter><clipPath id="clip-Mobile_Page_-_2"><path d="M0 0h375v812H0z"/></clipPath></defs><g transform="translate(-197 -31)"><g id="Mobile_Page_-_2" class="cls-1" data-name="Mobile Page - 2"><g id="Group_3" data-name="Group 3" transform="translate(58 13)"><g id="html-icon-edit" transform="translate(139.496 19)"><path id="polyline6" d="M161.318 110.395h1.456v1.616h1.655v-1.616h1.456v4.653h-1.456v-1.874h-1.655v1.874h-1.456v-4.653" class="cls-3" transform="translate(-160.638 -110.395)"/><path id="polyline8-2" d="M208.608 110.395h4.5v1.1h-1.522v3.554h-1.456v-3.554h-1.522v-1.1" class="cls-3" data-name="polyline8" transform="translate(-202.765 -110.395)"/><path id="polyline10-2" d="M255.292 110.395h1.919l.731 2.842.724-2.842h1.921v4.653H259.4v-3.528l-.9 3.528h-1.105l-.908-3.528v3.528h-1.191v-4.653" class="cls-3" data-name="polyline10" transform="translate(-244.353 -110.395)"/><path id="polyline12" d="M312.281 110.395h1.456v3.49h2.317v1.163h-3.773v-4.653" class="cls-3" transform="translate(-295.12 -110.395)"/><path id="polyline14" d="M165.8 187.963h-9.564l-1.05-11.5-.1-1.12h21.408l-.1 1.12-.195 2.116-.086.938h-16.356l.391 4.273h15.575l-.1 1.121-1 10.986-.064.705-8.747 2.367-.02.005-8.754-2.373-.6-6.552h4.29l.3 3.328 4.76 1.255 4.766-1.256.5-5.412H165.8" class="cls-3" transform="translate(-155.086 -168.254)"/></g></g></g></g></svg>