<svg xmlns="http://www.w3.org/2000/svg" id="artboard-svg" width="63" height="21" viewBox="0 0 63 21" style="width:562.5px"><defs><style>.cls-1 { clip-path: url(#clip-Mobile_Page_-_2); } .cls-2 { fill: #eee; } .cls-3, .cls-4, .cls-5 { fill: #bdbdbd; } .cls-4 { fill-rule: evenodd; } .cls-5, .cls-6 { font-size: 10px; } .cls-31, .cls-32, .cls-5, .cls-6, .cls-8 { font-family: ArialMT, Arial; } .cls-6, .cls-8, .cls-9 { fill: #534daa; } .cls-7 { fill: #fff; } .cls-8 { font-size: 20px; } .cls-10 { fill: #e3e8e6; } .cls-11 { fill: #b3bad3; } .cls-12 { fill: #213760; } .cls-13 { fill: none; stroke: #eee; } .cls-14 { fill: #f7f8fd; } .cls-15 { fill: #bfb2df; } .cls-16 { fill: #99deef; } .cls-17 { fill: #d4d3ee; } .cls-18 { fill: #a79cd6; } .cls-19 { fill: #5762b7; } .cls-20 { fill: #234465; } .cls-21 { fill: #305c78; } .cls-22 { fill: #e8eaf7; } .cls-23 { fill: #6dccd6; } .cls-24 { fill: #f5af45; } .cls-25 { fill: #e4519c; } .cls-26 { fill: #83d6e5; } .cls-27 { fill: #3e52ac; } .cls-28 { fill: #f46bac; } .cls-29 { fill: #295072; } .cls-30 { fill: #3545a2; } .cls-31 { fill: #424242; } .cls-31, .cls-32 { font-size: 9px; } .cls-32 { fill: #566cff; } .cls-33 { fill: #f682b9; } .cls-34 { fill: #ee9f3d; } .cls-35 { fill: #e49035; } .cls-36 { filter: url(#Rectangle_6); } .cls-37 { filter: url(#Rectangle_5); } .cls-38 { filter: url(#Rectangle_3); } .cls-39 { filter: url(#Rectangle_8); } .cls-40 { filter: url(#Rectangle_7); } .cls-41 { filter: url(#Rectangle_4); }</style><filter id="Rectangle_4" width="295" height="172" x="52" y="183" filterUnits="userSpaceOnUse"><feOffset dy="3"/><feGaussianBlur result="blur" stdDeviation="3"/><feFlood flood-opacity=".161"/><feComposite in2="blur" operator="in"/><feComposite in="SourceGraphic"/></filter><filter id="Rectangle_7" width="295" height="156" x="52" y="400" filterUnits="userSpaceOnUse"><feOffset dy="3"/><feGaussianBlur result="blur-2" stdDeviation="3"/><feFlood flood-opacity=".161"/><feComposite in2="blur-2" operator="in"/><feComposite in="SourceGraphic"/></filter><filter id="Rectangle_8" width="295" height="182" x="52" y="603" filterUnits="userSpaceOnUse"><feOffset dy="3"/><feGaussianBlur result="blur-3" stdDeviation="3"/><feFlood flood-opacity=".161"/><feComposite in2="blur-3" operator="in"/><feComposite in="SourceGraphic"/></filter><filter id="Rectangle_3" width="68" height="68" x="27" y="158" filterUnits="userSpaceOnUse"><feOffset dy="3"/><feGaussianBlur result="blur-4" stdDeviation="3"/><feFlood flood-opacity=".161"/><feComposite in2="blur-4" operator="in"/><feComposite in="SourceGraphic"/></filter><filter id="Rectangle_5" width="68" height="68" x="27" y="375" filterUnits="userSpaceOnUse"><feOffset dy="3"/><feGaussianBlur result="blur-5" stdDeviation="3"/><feFlood flood-opacity=".161"/><feComposite in2="blur-5" operator="in"/><feComposite in="SourceGraphic"/></filter><filter id="Rectangle_6" width="68" height="68" x="27" y="573" filterUnits="userSpaceOnUse"><feOffset dy="3"/><feGaussianBlur result="blur-6" stdDeviation="3"/><feFlood flood-opacity=".161"/><feComposite in2="blur-6" operator="in"/><feComposite in="SourceGraphic"/></filter><clipPath id="clip-Mobile_Page_-_2"><path d="M0 0h375v812H0z"/></clipPath></defs><g transform="translate(-80 -41)"><g id="Mobile_Page_-_2" class="cls-1" data-name="Mobile Page - 2"><g id="Group_3" data-name="Group 3" transform="translate(58 13)"><g id="jquery-icon-edit" transform="translate(22 28.791)"><path id="path6" d="M251.465 39.909l.048.2a.081.081 0 0 1-.082.1" class="cls-3" transform="translate(-211.222 -33.527)"/><path id="path8" d="M225.275 37.749l-.036.173-.42 1.968.442-2.073.014-.067" class="cls-3" transform="translate(-188.865 -31.712)"/><path id="polyline10" d="M215.8 234.431l-.232.822.232-.822" class="cls-3" transform="translate(-191.989 -227.077)"/><path id="path12" d="M268.75 19.858l-.25-1.058c-.2-.766-.757-1.129-2.016-1.129h-5.292a.252.252 0 0 0-.269.174l-2.008 9.522a.659.659 0 0 0-.02.265c.014.061.25.05.37.05h1.835a1.962 1.962 0 0 0 .41-.017c.068-.028.1-.209.123-.33l.646-3.335.791-3.7a.287.287 0 0 1 .267-.216h5.242a.168.168 0 0 0 .17-.216" class="cls-3" transform="translate(-217.487 -14.844)"/><path id="path14" d="M313.119 7.211h-2.325a.53.53 0 0 0-.346.232l-4.081 6c-.07.1-.148.1-.175-.021l-.3-1.316a.289.289 0 0 0-.271-.217H303a.164.164 0 0 0-.162.218l1.176 4.122a.967.967 0 0 1 .007.429l-.548 2.088c-.029.118.046.154.17.154h2.59c.122 0 .247-.036.277-.154l.549-2.117a1.259 1.259 0 0 1 .187-.377l6.66-8.832c.075-.1.064-.213-.057-.213h-.725" class="cls-3" transform="translate(-254.399 -6.057)"/><path id="path16" d="M144.393 17.721h-2.367c-.121 0-.244.043-.268.162l-.782 3.661-.779 3.505c-.025.119-.146.111-.268.111h-1.556c-1.539 0-1.361-.972-1.045-2.43 0-.015.987-4.847.987-4.847.022-.119-.058-.162-.179-.162h-2.255c-.122 0-.243.043-.266.162l-.907 4.843c-.453 2.619-.466 4.923 2.571 5h4.8c.123 0 .243-.04.269-.158l1.03-4.857 1.026-4.877s.037-.112 0-.112" class="cls-3" transform="translate(-112.98 -14.887)"/><path id="path18" d="M31.809 17.67h-2.538c-.122 0-.245.029-.271.149l-.459 1.981a.167.167 0 0 0 .175.211h2.43a.3.3 0 0 0 .27-.229l.441-2s.035-.116-.049-.116" class="cls-3" transform="translate(-23.973 -14.844)"/><path id="path20" d="M4.579 36.488a.291.291 0 0 0-.271.216l-.342 1.511L3.2 41.7s-.406 1.856-.445 1.972c0 0-.342 1.339-1.159 1.286a7.3 7.3 0 0 1-.815-.112c-.228-.069-.244.168-.272.287l-.5 2.175a.177.177 0 0 0 .17.228 16.649 16.649 0 0 0 1.864.154h.127c1.906 0 2.913-1.121 3.557-4.164l.754-3.522.707-3.277a.178.178 0 0 0-.168-.23" class="cls-3" transform="translate(0 -30.653)"/><path id="path22" d="M202.93 21.766c0 .132-.418.107-.418.107l-3.328-.024c-.115 0-.148-.161-.156-.276a1.475 1.475 0 0 1 .018-.172 2.065 2.065 0 0 1 2.241-1.4c1.369 0 1.661.679 1.661 1.432m-1.148-3.856c-4.269 0-5.288 2.639-5.855 5.254-.567 2.667-.518 4.774 3.9 4.774h4.041a.3.3 0 0 0 .263-.23l.434-1.691c.025-.12-.056-.155-.176-.155h-3.973c-1.439 0-1.954-.443-1.9-1.439 0-.113.129-.4.25-.4h6.116c.269 0 .277-.159.277-.159.623-2.812.664-5.952-3.376-5.952" class="cls-3" transform="translate(-164.402 -14.766)"/><path id="path24" d="M59.744 8.306l-.492 1.681a.312.312 0 0 1-.294.2H56.42c-1.926 0-2.394-1.488-1.926-3.709.47-2.27 1.4-3.675 3.3-3.817 2.59-.2 3.12 1.634 2.492 3.736l-.537 1.913M62 10.087A28.442 28.442 0 0 0 63.467 5.5c.371-2.246-.753-5.5-5.1-5.5-4.319 0-6.193 3.11-6.911 6.492-.714 3.406.221 6.371 4.516 6.347h6.556a.307.307 0 0 0 .277-.214l.553-2.1a.165.165 0 0 0-.168-.216h-1.056a.135.135 0 0 1-.15-.158.152.152 0 0 1 .016-.064" class="cls-3" transform="translate(-43.047)"/></g></g></g></g></svg>