<svg xmlns="http://www.w3.org/2000/svg" id="artboard-svg" width="37" height="30" viewBox="0 0 37 30" style="width:562.5px"><defs><style>.cls-1 { clip-path: url(#clip-Mobile_Page_-_2); } .cls-2 { fill: #eee; } .cls-3, .cls-4, .cls-5 { fill: #bdbdbd; } .cls-4 { fill-rule: evenodd; } .cls-5, .cls-6 { font-size: 10px; } .cls-31, .cls-32, .cls-5, .cls-6, .cls-8 { font-family: ArialMT, Arial; } .cls-6, .cls-8, .cls-9 { fill: #534daa; } .cls-7 { fill: #fff; } .cls-8 { font-size: 20px; } .cls-10 { fill: #e3e8e6; } .cls-11 { fill: #b3bad3; } .cls-12 { fill: #213760; } .cls-13 { fill: none; stroke: #eee; } .cls-14 { fill: #f7f8fd; } .cls-15 { fill: #bfb2df; } .cls-16 { fill: #99deef; } .cls-17 { fill: #d4d3ee; } .cls-18 { fill: #a79cd6; } .cls-19 { fill: #5762b7; } .cls-20 { fill: #234465; } .cls-21 { fill: #305c78; } .cls-22 { fill: #e8eaf7; } .cls-23 { fill: #6dccd6; } .cls-24 { fill: #f5af45; } .cls-25 { fill: #e4519c; } .cls-26 { fill: #83d6e5; } .cls-27 { fill: #3e52ac; } .cls-28 { fill: #f46bac; } .cls-29 { fill: #295072; } .cls-30 { fill: #3545a2; } .cls-31 { fill: #424242; } .cls-31, .cls-32 { font-size: 9px; } .cls-32 { fill: #566cff; } .cls-33 { fill: #f682b9; } .cls-34 { fill: #ee9f3d; } .cls-35 { fill: #e49035; } .cls-36 { filter: url(#Rectangle_6); } .cls-37 { filter: url(#Rectangle_5); } .cls-38 { filter: url(#Rectangle_3); } .cls-39 { filter: url(#Rectangle_8); } .cls-40 { filter: url(#Rectangle_7); } .cls-41 { filter: url(#Rectangle_4); }</style><filter id="Rectangle_4" width="295" height="172" x="52" y="183" filterUnits="userSpaceOnUse"><feOffset dy="3"/><feGaussianBlur result="blur" stdDeviation="3"/><feFlood flood-opacity=".161"/><feComposite in2="blur" operator="in"/><feComposite in="SourceGraphic"/></filter><filter id="Rectangle_7" width="295" height="156" x="52" y="400" filterUnits="userSpaceOnUse"><feOffset dy="3"/><feGaussianBlur result="blur-2" stdDeviation="3"/><feFlood flood-opacity=".161"/><feComposite in2="blur-2" operator="in"/><feComposite in="SourceGraphic"/></filter><filter id="Rectangle_8" width="295" height="182" x="52" y="603" filterUnits="userSpaceOnUse"><feOffset dy="3"/><feGaussianBlur result="blur-3" stdDeviation="3"/><feFlood flood-opacity=".161"/><feComposite in2="blur-3" operator="in"/><feComposite in="SourceGraphic"/></filter><filter id="Rectangle_3" width="68" height="68" x="27" y="158" filterUnits="userSpaceOnUse"><feOffset dy="3"/><feGaussianBlur result="blur-4" stdDeviation="3"/><feFlood flood-opacity=".161"/><feComposite in2="blur-4" operator="in"/><feComposite in="SourceGraphic"/></filter><filter id="Rectangle_5" width="68" height="68" x="27" y="375" filterUnits="userSpaceOnUse"><feOffset dy="3"/><feGaussianBlur result="blur-5" stdDeviation="3"/><feFlood flood-opacity=".161"/><feComposite in2="blur-5" operator="in"/><feComposite in="SourceGraphic"/></filter><filter id="Rectangle_6" width="68" height="68" x="27" y="573" filterUnits="userSpaceOnUse"><feOffset dy="3"/><feGaussianBlur result="blur-6" stdDeviation="3"/><feFlood flood-opacity=".161"/><feComposite in2="blur-6" operator="in"/><feComposite in="SourceGraphic"/></filter><clipPath id="clip-Mobile_Page_-_2"><path d="M0 0h375v812H0z"/></clipPath></defs><g transform="translate(-154 -31)"><g id="Mobile_Page_-_2" class="cls-1" data-name="Mobile Page - 2"><g id="Group_3" data-name="Group 3" transform="translate(58 13)"><g id="js-icon-edit" transform="translate(96.834 19)"><path id="path4" d="M2 .6h1.214v2.16a3.382 3.382 0 0 1-.121 1.04 1.189 1.189 0 0 1-.488.6 1.647 1.647 0 0 1-.939.247 2.194 2.194 0 0 1-.938-.161 1.175 1.175 0 0 1-.514-.472A1.756 1.756 0 0 1 0 3.244l1.219-.151a1.216 1.216 0 0 0 .045.368.4.4 0 0 0 .144.194.34.34 0 0 0 .2.048.323.323 0 0 0 .3-.152A1.028 1.028 0 0 0 2 3.037V.6" class="cls-3" transform="translate(0 -.544)"/><path id="path6-2" d="M41.95 13.609q-.217.077-.45.136a1.041 1.041 0 0 0-.4.167.267.267 0 0 0 0 .394.365.365 0 0 0 .253.078.653.653 0 0 0 .326-.085.515.515 0 0 0 .213-.207.687.687 0 0 0 .063-.317v-.167m-.831-.554l-1.108-.111a1.319 1.319 0 0 1 .17-.462.955.955 0 0 1 .319-.293 1.266 1.266 0 0 1 .412-.138 3.083 3.083 0 0 1 .561-.05 4.471 4.471 0 0 1 .786.055 1 1 0 0 1 .494.231.815.815 0 0 1 .219.345 1.259 1.259 0 0 1 .08.426v1.269a1.543 1.543 0 0 0 .025.318 1.412 1.412 0 0 0 .112.294h-1.06a1.077 1.077 0 0 1-.083-.171 1.221 1.221 0 0 1-.039-.185 1.4 1.4 0 0 1-.422.294 1.743 1.743 0 0 1-.666.118 1.117 1.117 0 0 1-.766-.233.739.739 0 0 1-.261-.574.751.751 0 0 1 .188-.526 1.271 1.271 0 0 1 .694-.307q.606-.121.786-.17a3.654 3.654 0 0 0 .382-.129.364.364 0 0 0-.073-.258.355.355 0 0 0-.257-.074.6.6 0 0 0-.353.085.466.466 0 0 0-.145.247z" class="cls-3" data-name="path6" transform="translate(-36.215 -10.893)"/><path id="polyline8" d="M148.4 121.8h1.135l.556 1.826.553-1.826h1.138l-1.222 2.882h-.973L148.4 121.8" class="cls-3" transform="translate(-141.361 -120.635)"/><path id="path10" d="M117.249 13.609q-.217.077-.45.136a1.039 1.039 0 0 0-.4.167.267.267 0 0 0 0 .394.365.365 0 0 0 .253.078.653.653 0 0 0 .326-.085.517.517 0 0 0 .214-.207.689.689 0 0 0 .063-.317v-.167m-.831-.554l-1.108-.111a1.321 1.321 0 0 1 .17-.462.955.955 0 0 1 .319-.293 1.267 1.267 0 0 1 .412-.138 3.082 3.082 0 0 1 .567-.049 4.472 4.472 0 0 1 .786.055 1 1 0 0 1 .495.231.814.814 0 0 1 .219.345 1.257 1.257 0 0 1 .08.426v1.269a1.544 1.544 0 0 0 .025.318 1.406 1.406 0 0 0 .112.294h-1.06a1.085 1.085 0 0 1-.083-.171 1.232 1.232 0 0 1-.039-.185 1.4 1.4 0 0 1-.422.294 1.743 1.743 0 0 1-.666.118 1.117 1.117 0 0 1-.766-.233.739.739 0 0 1-.261-.574.75.75 0 0 1 .188-.526 1.27 1.27 0 0 1 .694-.307q.606-.121.786-.17a3.663 3.663 0 0 0 .382-.129.364.364 0 0 0-.073-.258.355.355 0 0 0-.257-.074.6.6 0 0 0-.353.085.464.464 0 0 0-.148.248z" class="cls-3" transform="translate(-104.558 -10.893)"/><path id="path12-2" d="M174.6 2.732l1.219-.072a.9.9 0 0 0 .145.427.6.6 0 0 0 .507.238.533.533 0 0 0 .379-.124.383.383 0 0 0 .133-.288.392.392 0 0 0-.118-.278 1.377 1.377 0 0 0-.609-.232 2.669 2.669 0 0 1-1.145-.482.966.966 0 0 1-.345-.763 1.035 1.035 0 0 1 .177-.577 1.176 1.176 0 0 1 .534-.426 2.507 2.507 0 0 1 .979-.155 1.975 1.975 0 0 1 1.161.287 1.245 1.245 0 0 1 .476.914l-1.219.074a.747.747 0 0 0-.167-.422.462.462 0 0 0-.35-.132.38.38 0 0 0-.277.091.3.3 0 0 0-.093.222.346.346 0 0 0 .043.172q.042.079.365.147a5.1 5.1 0 0 1 1.146.352 1.207 1.207 0 0 1 .5.442 1.128 1.128 0 0 1 .158.59 1.265 1.265 0 0 1-.211.706 1.324 1.324 0 0 1-.591.491 2.378 2.378 0 0 1-.956.167 1.981 1.981 0 0 1-1.4-.387 1.516 1.516 0 0 1-.441-.982" class="cls-3" data-name="path12" transform="translate(-158.474)"/><path id="path14-2" d="M220.616 13.828l1.108.111a1.425 1.425 0 0 1-.284.557 1.325 1.325 0 0 1-.5.366 2.016 2.016 0 0 1-.782.13 2.892 2.892 0 0 1-.762-.085 1.33 1.33 0 0 1-.524-.275 1.4 1.4 0 0 1-.344-.446 1.563 1.563 0 0 1-.125-.678 1.592 1.592 0 0 1 .152-.735 1.325 1.325 0 0 1 .3-.387 1.412 1.412 0 0 1 .4-.255 2.21 2.21 0 0 1 .826-.132 1.983 1.983 0 0 1 1.075.24 1.268 1.268 0 0 1 .518.7l-1.108.166a.51.51 0 0 0-.164-.29.491.491 0 0 0-.32-.1.5.5 0 0 0-.411.2.982.982 0 0 0-.157.609.842.842 0 0 0 .158.552.5.5 0 0 0 .4.189.536.536 0 0 0 .342-.109.649.649 0 0 0 .207-.335" class="cls-3" data-name="path14" transform="translate(-198.227 -10.891)"/><path id="path16-2" d="M259.8 12.056h1.032v.5a1.152 1.152 0 0 1 .309-.433.642.642 0 0 1 .394-.118 1.21 1.21 0 0 1 .537.146l-.344.82a.9.9 0 0 0-.311-.08.386.386 0 0 0-.338.176 1.754 1.754 0 0 0-.171.926v.948H259.8v-2.885" class="cls-3" data-name="path16" transform="translate(-235.803 -10.893)"/><path id="path18-2" d="M286.8 1.707h1.108v2.882H286.8V1.707m0-1.107h1.108v.776H286.8z" class="cls-3" data-name="path18" transform="translate(-260.309 -.544)"/><path id="path20-2" d="M307.1 13.514a.946.946 0 0 0 .142.573.434.434 0 0 0 .359.186.382.382 0 0 0 .32-.179 1.076 1.076 0 0 0 .129-.607 1 1 0 0 0-.134-.58.4.4 0 0 0-.327-.185.42.42 0 0 0-.349.187 1.026 1.026 0 0 0-.139.606M306 16.046v-3.99h1.028v.379a1.323 1.323 0 0 1 .392-.322 1.24 1.24 0 0 1 .532-.113 1.032 1.032 0 0 1 .891.439 1.816 1.816 0 0 1 .315 1.086 1.565 1.565 0 0 1-.343 1.091 1.126 1.126 0 0 1-.869.376 1.355 1.355 0 0 1-.463-.076 1.12 1.12 0 0 1-.375-.226v1.354z" class="cls-3" data-name="path20" transform="translate(-277.737 -10.893)"/><path id="path22-2" d="M345.9.6v1.107h.61v.831h-.61v1.043a.552.552 0 0 0 .036.248.207.207 0 0 0 .195.094 1.246 1.246 0 0 0 .351-.072l.083.71a3.991 3.991 0 0 1-.773.082 1.374 1.374 0 0 1-.614-.1.637.637 0 0 1-.292-.316 1.817 1.817 0 0 1-.094-.687v-1h-.392v-.833h.388v-.535L345.9.6" class="cls-3" data-name="path22" transform="translate(-312.59 -.544)"/><path id="polyline26" d="M164.248 178.358l3.283.016-.274 2.212-.15 1.19-.736 5.931-8.684 2.957-7.947-2.957.485-3.942h3.285l-.2 1.625 4.8 1.785 5.255-1.785.462-3.722h-10.098l-3.282-.016.274-2.212.15-1.19.736-5.931 8.684-2.957 7.947 2.957-.485 3.942h-3.285l.2-1.625-4.8-1.785-5.256 1.785-.462 3.722h10.106" class="cls-3" transform="translate(-142.578 -163.805)"/></g></g></g></g></svg>