<?xml version="1.0" encoding="UTF-8" standalone="no"?>
<!-- Created with Inkscape (http://www.inkscape.org/) -->

<svg
   xmlns:dc="http://purl.org/dc/elements/1.1/"
   xmlns:cc="http://creativecommons.org/ns#"
   xmlns:rdf="http://www.w3.org/1999/02/22-rdf-syntax-ns#"
   xmlns:svg="http://www.w3.org/2000/svg"
   xmlns="http://www.w3.org/2000/svg"
   xmlns:xlink="http://www.w3.org/1999/xlink"
   xmlns:sodipodi="http://sodipodi.sourceforge.net/DTD/sodipodi-0.dtd"
   xmlns:inkscape="http://www.inkscape.org/namespaces/inkscape"
   width="98.460213mm"
   height="58.354374mm"
   viewBox="0 0 98.460213 58.354374"
   version="1.1"
   id="svg3906"
   inkscape:version="0.92.4 (5da689c313, 2019-01-14)"
   sodipodi:docname="jido_edit_1.svg">
  <defs
     id="defs3900">
    <linearGradient
       inkscape:collect="always"
       id="gradient_1">
      <stop
         style="stop-color:#0055d4;stop-opacity:1"
         offset="0"
         id="stop4501" />
      <stop
         id="stop4509"
         offset="0.5"
         style="stop-color:#ff8080;stop-opacity:1" />
      <stop
         style="stop-color:#55ff55;stop-opacity:1"
         offset="1"
         id="stop4503" />
    </linearGradient>
    <linearGradient
       inkscape:collect="always"
       xlink:href="#gradient_1"
       id="linearGradient4490"
       gradientUnits="userSpaceOnUse"
       gradientTransform="translate(263.94887,148.0374)"
       x1="-222.77449"
       y1="-1.471923"
       x2="-132.76611"
       y2="-1.471923" />
    <linearGradient
       inkscape:collect="always"
       xlink:href="#gradient_1"
       id="linearGradient4492"
       gradientUnits="userSpaceOnUse"
       gradientTransform="translate(263.94887,148.0374)"
       x1="-222.77449"
       y1="-1.471923"
       x2="-132.76611"
       y2="-1.471923" />
    <linearGradient
       inkscape:collect="always"
       xlink:href="#gradient_1"
       id="linearGradient3814"
       gradientUnits="userSpaceOnUse"
       gradientTransform="translate(263.94887,148.0374)"
       x1="-222.77449"
       y1="-1.471923"
       x2="-132.76611"
       y2="-1.471923" />
    <linearGradient
       inkscape:collect="always"
       xlink:href="#gradient_1"
       id="linearGradient3816"
       gradientUnits="userSpaceOnUse"
       gradientTransform="translate(263.94887,148.0374)"
       x1="-222.77449"
       y1="-1.471923"
       x2="-132.76611"
       y2="-1.471923" />
  </defs>
  <sodipodi:namedview
     id="base"
     pagecolor="#ffffff"
     bordercolor="#666666"
     borderopacity="1.0"
     inkscape:pageopacity="0.0"
     inkscape:pageshadow="2"
     inkscape:zoom="1.4"
     inkscape:cx="123.32396"
     inkscape:cy="259.88162"
     inkscape:document-units="mm"
     inkscape:current-layer="layer1"
     showgrid="false"
     fit-margin-top="0"
     fit-margin-left="0"
     fit-margin-right="0"
     fit-margin-bottom="0"
     inkscape:window-width="2560"
     inkscape:window-height="1377"
     inkscape:window-x="1266"
     inkscape:window-y="2152"
     inkscape:window-maximized="1"
     showborder="false"
     inkscape:snap-global="false" />
  <metadata
     id="metadata3903">
    <rdf:RDF>
      <cc:Work
         rdf:about="">
        <dc:format>image/svg+xml</dc:format>
        <dc:type
           rdf:resource="http://purl.org/dc/dcmitype/StillImage" />
        <dc:title></dc:title>
      </cc:Work>
    </rdf:RDF>
  </metadata>
  <g
     inkscape:label="Layer 1"
     inkscape:groupmode="layer"
     id="layer1"
     transform="translate(-36.789769,-117.44251)">
    <path
       style="font-style:normal;font-variant:normal;font-weight:normal;font-stretch:normal;font-size:10.58333302px;line-height:1.25;font-family:'Fredoka One';-inkscape-font-specification:'Fredoka One, Normal';font-variant-ligatures:normal;font-variant-caps:normal;font-variant-numeric:normal;font-feature-settings:normal;text-align:start;letter-spacing:0px;word-spacing:0px;writing-mode:lr-tb;text-anchor:start;fill:#f2f2f2;fill-opacity:1;stroke:none;stroke-width:1.2415154"
       d="m 65.089844,117.74609 c -7.361609,0.0768 -8.578814,10.35389 -5.166016,14.77539 -3.933667,6.28281 -0.310153,14.07105 -1.798828,20.9629 -1.174706,5.42222 2.743077,11.54623 8.697266,10.75585 5.456418,0.38613 9.510176,-4.98526 7.921875,-10.18359 -0.101903,-7.20253 1.721292,-15.62007 -1.583985,-22.08594 4.674305,-5.38777 0.532286,-15.99924 -7.320312,-14.19336 -0.248933,-0.0262 -0.499663,-0.0393 -0.75,-0.0312 z"
       id="path3802"
       inkscape:connector-curvature="0" />
    <path
       style="font-style:normal;font-variant:normal;font-weight:normal;font-stretch:normal;font-size:10.58333302px;line-height:1.25;font-family:'Fredoka One';-inkscape-font-specification:'Fredoka One, Normal';font-variant-ligatures:normal;font-variant-caps:normal;font-variant-numeric:normal;font-feature-settings:normal;text-align:start;letter-spacing:0px;word-spacing:0px;writing-mode:lr-tb;text-anchor:start;fill:#f2f2f2;fill-opacity:1;stroke:none;stroke-width:1.2415154"
       d="m 54.353516,117.48438 c -7.622358,-0.75769 -11.189719,8.94754 -7.236328,14.5625 -3.503252,8.2867 -0.132018,17.21317 -1.570313,25.77539 -2.334876,2.35324 -8.067174,1.86596 -8.255859,6.54296 -2.544233,6.77486 5.098412,13.63948 11.628906,10.75586 10.593339,-2.21366 15.600586,-14.50924 13.220703,-24.30273 0.357369,-6.37852 0.876814,-13.1456 -1.314453,-19.1875 3.699014,-5.33767 0.697862,-14.25857 -6.472656,-14.14648 z"
       id="path3800"
       inkscape:connector-curvature="0" />
    <path
       d="m 56.3706,130.10298 q -0.89389,0.24831 -2.43335,0.24831 -1.53951,0 -2.4334,-0.29797 -0.8939,-0.29796 -1.29115,-0.99321 -0.3477,-0.74491 -0.44671,-1.29117 -0.0497,-0.59593 -0.0497,-1.73813 0,-1.14219 0.0497,-1.68846 0.0995,-0.54626 0.44671,-1.24151 0.39744,-0.69525 1.34084,-0.99321 0.94353,-0.29797 2.483,-0.29797 1.48982,0 2.38371,0.29797 0.94358,0.29796 1.29119,0.99321 0.39744,0.64559 0.44671,1.19185 0.0995,0.54627 0.0995,1.6388 v 0.29797 q 0,1.09253 -0.0995,1.6388 -0.0497,0.54626 -0.44671,1.24151 -0.39744,0.69525 -1.34084,0.99321 z m -4.81706,4.02251 q 0.94353,-0.29796 2.483,-0.29796 1.53951,0 2.4334,0.29796 0.89389,0.29797 1.2415,1.04288 0.39744,0.69524 0.44671,1.29117 0.0995,0.54627 0.0995,1.68846 v 20.46018 q 0,5.81029 -4.02251,9.28653 -4.02251,3.47624 -8.83962,3.47624 -1.14217,0 -1.68845,-0.0993 -0.54628,-0.0497 -1.2415,-0.44694 -0.69526,-0.34763 -0.99323,-1.29118 -0.29796,-0.94355 -0.29796,-2.48303 0,-2.73133 1.09252,-3.47624 1.04287,-0.74491 3.22795,-0.74491 1.44018,0 2.83066,-0.99321 1.39048,-0.99322 1.39048,-3.57557 V 137.8004 q 0,-0.99321 0.0995,-1.53948 0.0995,-0.54627 0.44671,-1.19186 0.39744,-0.64558 1.29119,-0.94355 z"
       style="font-style:normal;font-variant:normal;font-weight:normal;font-stretch:normal;font-size:10.58333302px;line-height:1.25;font-family:'Fredoka One';-inkscape-font-specification:'Fredoka One, Normal';font-variant-ligatures:normal;font-variant-caps:normal;font-variant-numeric:normal;font-feature-settings:normal;text-align:start;letter-spacing:0px;word-spacing:0px;writing-mode:lr-tb;text-anchor:start;fill:url(#linearGradient4490);fill-opacity:1;stroke:none;stroke-width:1.2415154"
       id="path4511"
       inkscape:connector-curvature="0" />
    <path
       style="font-style:normal;font-variant:normal;font-weight:normal;font-stretch:normal;font-size:10.58333302px;line-height:1.25;font-family:'Fredoka One';-inkscape-font-specification:'Fredoka One, Normal';font-variant-ligatures:normal;font-variant-caps:normal;font-variant-numeric:normal;font-feature-settings:normal;text-align:start;letter-spacing:0px;word-spacing:0px;writing-mode:lr-tb;text-anchor:start;fill:#f2f2f2;fill-opacity:1;stroke:none;stroke-width:1.2415154"
       d="m 94.951172,117.75391 c -6.365047,-0.16868 -8.015469,7.76975 -7.091797,12.45507 -11.456029,-1.72965 -20.351389,12.01805 -16.607422,22.36329 2.560802,8.22278 12.134433,13.7692 20.408203,10.53906 5.301485,3.06411 14.214464,-0.31705 12.942344,-7.33743 -0.66497,-11.53083 1.60171,-23.48893 -1.05367,-34.77976 -1.70369,-3.01108 -5.492689,-3.38523 -8.597658,-3.24023 z m -7.533203,28.94726 c 1.14038,0.30024 -1.099416,1.21193 0,0 z"
       id="path4515"
       inkscape:connector-curvature="0" />
    <path
       style="font-style:normal;font-variant:normal;font-weight:normal;font-stretch:normal;font-size:10.58333302px;line-height:1.25;font-family:'Fredoka One';-inkscape-font-specification:'Fredoka One, Normal';font-variant-ligatures:normal;font-variant-caps:normal;font-variant-numeric:normal;font-feature-settings:normal;text-align:start;letter-spacing:0px;word-spacing:0px;writing-mode:lr-tb;text-anchor:start;fill:#f2f2f2;fill-opacity:1;stroke:none;stroke-width:1.2415154"
       d="m 116.74609,129.39648 c -13.13845,-0.11282 -21.86196,17.04911 -13.86914,27.57032 6.94576,10.81707 25.60406,9.76395 30.66602,-2.33399 5.75193,-11.44414 -3.83218,-26.37836 -16.79688,-25.23633 z m 0.82227,16.73047 c 2.34717,0.19997 -1.30944,3.35946 -0.89258,0.59571 0.106,-0.39291 0.47353,-0.70007 0.89258,-0.59571 z"
       id="path4517"
       inkscape:connector-curvature="0" />
    <path
       inkscape:connector-curvature="0"
       id="path3804"
       style="font-style:normal;font-variant:normal;font-weight:normal;font-stretch:normal;font-size:10.58333302px;line-height:1.25;font-family:'Fredoka One';-inkscape-font-specification:'Fredoka One, Normal';font-variant-ligatures:normal;font-variant-caps:normal;font-variant-numeric:normal;font-feature-settings:normal;text-align:start;letter-spacing:0px;word-spacing:0px;writing-mode:lr-tb;text-anchor:start;fill:url(#linearGradient3814);fill-opacity:1;stroke:none;stroke-width:1.2415154"
       d="m 96.33809,121.76 q 1.53946,0 2.48305,0.29796 0.94353,0.29797 1.29114,1.04288 0.39744,0.74491 0.44671,1.34083 0.0995,0.54627 0.0995,1.68846 v 29.64739 q 0,1.1422 -0.0995,1.73812 -0.0497,0.54627 -0.44671,1.29118 -0.39744,0.69525 -1.34083,0.99321 -0.94354,0.29796 -2.5327,0.29796 -3.77419,0 -4.17149,-2.43337 -2.08574,2.38371 -5.81029,2.38371 -4.46946,0 -8.14431,-3.87352 -3.6749,-3.92319 -3.6749,-9.23688 0,-5.06538 3.6749,-8.98857 3.72455,-3.92319 8.14431,-3.92319 3.6749,0 5.711,2.48303 v -10.42873 q 0,-1.14219 0.0497,-1.68846 0.0995,-0.59593 0.44671,-1.29117 0.39744,-0.74491 1.34084,-1.04288 0.94354,-0.29796 2.53269,-0.29796 z m -11.91855,28.30655 q 1.29119,1.34084 3.12862,1.34084 1.83743,0 3.02928,-1.34084 1.24155,-1.34084 1.24155,-2.97964 0,-1.58914 -1.19185,-2.97963 -1.14221,-1.3905 -3.12862,-1.3905 -1.98646,0 -3.17831,1.3905 -1.19186,1.34083 -1.19186,2.97963 0,1.6388 1.29119,2.97964 z" />
    <path
       inkscape:connector-curvature="0"
       id="path3806"
       style="font-style:normal;font-variant:normal;font-weight:normal;font-stretch:normal;font-size:10.58333302px;line-height:1.25;font-family:'Fredoka One';-inkscape-font-specification:'Fredoka One, Normal';font-variant-ligatures:normal;font-variant-caps:normal;font-variant-numeric:normal;font-feature-settings:normal;text-align:start;letter-spacing:0px;word-spacing:0px;writing-mode:lr-tb;text-anchor:start;fill:url(#linearGradient3816);fill-opacity:1;stroke:none;stroke-width:1.2415154"
       d="m 117.47643,133.38058 q 5.46269,0 9.58449,3.87353 4.12184,3.82387 4.12184,9.78314 0,4.12183 -2.13539,7.34977 -2.13543,3.17828 -5.21436,4.71776 -3.02933,1.48982 -6.25724,1.48982 -3.32729,0 -6.40622,-1.58914 -3.07897,-1.6388 -5.21436,-4.76742 -2.08575,-3.17828 -2.08575,-7.15113 0,-5.95927 4.17149,-9.8328 4.17149,-3.87353 9.4355,-3.87353 z m -3.22795,17.2819 q 1.58915,1.19185 3.22795,1.19185 1.6388,0 3.2776,-1.24151 1.6388,-1.24152 1.6388,-3.67489 0,-2.43337 -1.53946,-3.62522 -1.53951,-1.19186 -3.42658,-1.19186 -1.68849,0 -3.22796,1.24152 -1.53946,1.24151 -1.53946,3.62522 0,2.43337 1.58911,3.67489 z" />
    <path
       d="m 62.22824,138.34665 q 0,-1.1422 0.0497,-1.68847 0.0995,-0.59592 0.44671,-1.29117 0.39744,-0.74491 1.34084,-1.04287 0.94353,-0.29797 2.53269,-0.29797 1.2415,0 2.08574,0.24831 0.89389,0.2483 1.29119,0.59592 0.44718,0.34763 0.64558,1.04288 0.24822,0.64558 0.24822,1.14219 0.0497,0.44695 0.0497,1.3905 v 17.38121 q 0,1.1422 -0.0995,1.73812 -0.0497,0.54627 -0.44671,1.29118 -0.3477,0.69525 -1.29114,0.99321 -0.94359,0.29797 -2.53269,0.29797 -1.53951,0 -2.48305,-0.29797 -0.94354,-0.29796 -1.34084,-1.04287 -0.3477,-0.74491 -0.44671,-1.29118 -0.0497,-0.54626 -0.0497,-1.73812 z m 4.32047,-7.89604 q -1.53951,0 -2.48304,-0.29797 -0.94354,-0.29796 -1.34084,-1.04287 -0.3477,-0.74491 -0.44671,-1.29118 -0.0497,-0.59592 -0.0497,-1.73812 0,-1.14219 0.0497,-1.68846 0.0995,-0.59593 0.44671,-1.29117 0.39744,-0.74491 1.34084,-1.04288 0.94353,-0.29796 2.53269,-0.29796 1.53946,0 2.48304,0.29796 0.94354,0.29797 1.29115,1.04288 0.39744,0.74491 0.44671,1.34083 0.0995,0.54627 0.0995,1.68846 0,1.1422 -0.0995,1.73813 -0.0497,0.54626 -0.44671,1.29117 -0.3477,0.69525 -1.29115,0.99321 -0.94358,0.29797 -2.53269,0.29797 z"
       style="font-style:normal;font-variant:normal;font-weight:normal;font-stretch:normal;font-size:10.58333302px;line-height:1.25;font-family:'Fredoka One';-inkscape-font-specification:'Fredoka One, Normal';font-variant-ligatures:normal;font-variant-caps:normal;font-variant-numeric:normal;font-feature-settings:normal;text-align:start;letter-spacing:0px;word-spacing:0px;writing-mode:lr-tb;text-anchor:start;fill:url(#linearGradient4492);fill-opacity:1;stroke:none;stroke-width:1.2415154"
       id="path4513"
       inkscape:connector-curvature="0" />
  </g>
</svg>
