<svg xmlns="http://www.w3.org/2000/svg" id="artboard-svg" width="54" height="23" viewBox="0 0 54 23" style="width:562.5px"><defs><style>.cls-1 { clip-path: url(#clip-Mobile_Page_-_2); } .cls-2 { fill: #eee; } .cls-3, .cls-4, .cls-5 { fill: #bdbdbd; } .cls-4 { fill-rule: evenodd; } .cls-5, .cls-6 { font-size: 10px; } .cls-31, .cls-32, .cls-5, .cls-6, .cls-8 { font-family: ArialMT, Arial; } .cls-6, .cls-8, .cls-9 { fill: #534daa; } .cls-7 { fill: #fff; } .cls-8 { font-size: 20px; } .cls-10 { fill: #e3e8e6; } .cls-11 { fill: #b3bad3; } .cls-12 { fill: #213760; } .cls-13 { fill: none; stroke: #eee; } .cls-14 { fill: #f7f8fd; } .cls-15 { fill: #bfb2df; } .cls-16 { fill: #99deef; } .cls-17 { fill: #d4d3ee; } .cls-18 { fill: #a79cd6; } .cls-19 { fill: #5762b7; } .cls-20 { fill: #234465; } .cls-21 { fill: #305c78; } .cls-22 { fill: #e8eaf7; } .cls-23 { fill: #6dccd6; } .cls-24 { fill: #f5af45; } .cls-25 { fill: #e4519c; } .cls-26 { fill: #83d6e5; } .cls-27 { fill: #3e52ac; } .cls-28 { fill: #f46bac; } .cls-29 { fill: #295072; } .cls-30 { fill: #3545a2; } .cls-31 { fill: #424242; } .cls-31, .cls-32 { font-size: 9px; } .cls-32 { fill: #566cff; } .cls-33 { fill: #f682b9; } .cls-34 { fill: #ee9f3d; } .cls-35 { fill: #e49035; } .cls-36 { filter: url(#Rectangle_6); } .cls-37 { filter: url(#Rectangle_5); } .cls-38 { filter: url(#Rectangle_3); } .cls-39 { filter: url(#Rectangle_8); } .cls-40 { filter: url(#Rectangle_7); } .cls-41 { filter: url(#Rectangle_4); }</style><filter id="Rectangle_4" width="295" height="172" x="52" y="183" filterUnits="userSpaceOnUse"><feOffset dy="3"/><feGaussianBlur result="blur" stdDeviation="3"/><feFlood flood-opacity=".161"/><feComposite in2="blur" operator="in"/><feComposite in="SourceGraphic"/></filter><filter id="Rectangle_7" width="295" height="156" x="52" y="400" filterUnits="userSpaceOnUse"><feOffset dy="3"/><feGaussianBlur result="blur-2" stdDeviation="3"/><feFlood flood-opacity=".161"/><feComposite in2="blur-2" operator="in"/><feComposite in="SourceGraphic"/></filter><filter id="Rectangle_8" width="295" height="182" x="52" y="603" filterUnits="userSpaceOnUse"><feOffset dy="3"/><feGaussianBlur result="blur-3" stdDeviation="3"/><feFlood flood-opacity=".161"/><feComposite in2="blur-3" operator="in"/><feComposite in="SourceGraphic"/></filter><filter id="Rectangle_3" width="68" height="68" x="27" y="158" filterUnits="userSpaceOnUse"><feOffset dy="3"/><feGaussianBlur result="blur-4" stdDeviation="3"/><feFlood flood-opacity=".161"/><feComposite in2="blur-4" operator="in"/><feComposite in="SourceGraphic"/></filter><filter id="Rectangle_5" width="68" height="68" x="27" y="375" filterUnits="userSpaceOnUse"><feOffset dy="3"/><feGaussianBlur result="blur-5" stdDeviation="3"/><feFlood flood-opacity=".161"/><feComposite in2="blur-5" operator="in"/><feComposite in="SourceGraphic"/></filter><filter id="Rectangle_6" width="68" height="68" x="27" y="573" filterUnits="userSpaceOnUse"><feOffset dy="3"/><feGaussianBlur result="blur-6" stdDeviation="3"/><feFlood flood-opacity=".161"/><feComposite in2="blur-6" operator="in"/><feComposite in="SourceGraphic"/></filter><clipPath id="clip-Mobile_Page_-_2"><path d="M0 0h375v812H0z"/></clipPath></defs><g transform="translate(-82 -68)"><g id="Mobile_Page_-_2" class="cls-1" data-name="Mobile Page - 2"><g id="Group_3" data-name="Group 3" transform="translate(58 13)"><g id="node--icon-edit" transform="translate(24.098 55.368)"><path id="path6-5" d="M11.012 55.221a.592.592 0 0 0-.3-.516L5.8 51.878a.578.578 0 0 0-.271-.078h-.048a.585.585 0 0 0-.271.078L.3 54.705a.594.594 0 0 0-.3.516l.011 7.613a.291.291 0 0 0 .148.256.285.285 0 0 0 .295 0l2.92-1.672a.6.6 0 0 0 .3-.515v-3.556a.591.591 0 0 1 .3-.514l1.243-.716a.585.585 0 0 1 .3-.08.575.575 0 0 1 .3.08l1.243.716a.591.591 0 0 1 .3.514V60.9a.6.6 0 0 0 .3.515l2.919 1.672a.289.289 0 0 0 .3 0 .3.3 0 0 0 .121-.253l.01-7.613" class="cls-4" data-name="path6" transform="translate(0 -44.718)"/><path id="path8-3" d="M202.533 14.467a.149.149 0 0 1-.075.129l-1.687.972a.147.147 0 0 1-.148 0l-1.688-.972a.148.148 0 0 1-.074-.129v-1.948a.148.148 0 0 1 .074-.128l1.688-.975a.149.149 0 0 1 .149 0l1.687.975a.148.148 0 0 1 .075.128v1.949m.456-14.43a.3.3 0 0 0-.441.259v7.54a.208.208 0 0 1-.312.18l-1.23-.709a.592.592 0 0 0-.593 0l-4.914 2.836a.593.593 0 0 0-.3.514v5.674a.6.6 0 0 0 .3.514l4.914 2.838a.593.593 0 0 0 .594 0l4.916-2.838a.594.594 0 0 0 .3-.514V2.188a.593.593 0 0 0-.3-.518z" class="cls-4" data-name="path8" transform="translate(-168.513)"/><path id="path10-3" d="M303.158 57.62a.593.593 0 0 0 .3-.513v-1.376a.592.592 0 0 0-.3-.513l-4.883-2.835a.593.593 0 0 0-.595 0l-4.913 2.836a.593.593 0 0 0-.3.514V61.4a.594.594 0 0 0 .3.516l4.883 2.782a.592.592 0 0 0 .582 0l2.953-1.641a.3.3 0 0 0 0-.517l-4.944-2.838a.3.3 0 0 1-.149-.257v-1.77a.3.3 0 0 1 .149-.257l1.539-.887a.3.3 0 0 1 .3 0l1.54.887a.3.3 0 0 1 .149.257v1.4a.3.3 0 0 0 .446.257l2.942-1.71" class="cls-4" data-name="path10" transform="translate(-252.484 -45.152)"/><path id="path12-4" d="M102.886 52.164a.6.6 0 0 1 .593 0L108.393 55a.593.593 0 0 1 .3.514v5.676a.6.6 0 0 1-.3.514l-4.914 2.838a.593.593 0 0 1-.594 0L97.973 61.7a.6.6 0 0 1-.3-.514v-5.672a.593.593 0 0 1 .3-.514l4.913-2.836" class="cls-4" data-name="path12" transform="translate(-84.322 -44.964)"/></g></g></g></g></svg>