<svg xmlns="http://www.w3.org/2000/svg" id="artboard-svg" width="50" height="18" viewBox="0 0 50 18" style="width:562.5px"><defs><style>.cls-1 { clip-path: url(#clip-Mobile_Page_-_2); } .cls-2 { fill: #eee; } .cls-3, .cls-4, .cls-5 { fill: #bdbdbd; } .cls-4 { fill-rule: evenodd; } .cls-5, .cls-6 { font-size: 10px; } .cls-31, .cls-32, .cls-5, .cls-6, .cls-8 { font-family: ArialMT, Arial; } .cls-6, .cls-8, .cls-9 { fill: #534daa; } .cls-7 { fill: #fff; } .cls-8 { font-size: 20px; } .cls-10 { fill: #e3e8e6; } .cls-11 { fill: #b3bad3; } .cls-12 { fill: #213760; } .cls-13 { fill: none; stroke: #eee; } .cls-14 { fill: #f7f8fd; } .cls-15 { fill: #bfb2df; } .cls-16 { fill: #99deef; } .cls-17 { fill: #d4d3ee; } .cls-18 { fill: #a79cd6; } .cls-19 { fill: #5762b7; } .cls-20 { fill: #234465; } .cls-21 { fill: #305c78; } .cls-22 { fill: #e8eaf7; } .cls-23 { fill: #6dccd6; } .cls-24 { fill: #f5af45; } .cls-25 { fill: #e4519c; } .cls-26 { fill: #83d6e5; } .cls-27 { fill: #3e52ac; } .cls-28 { fill: #f46bac; } .cls-29 { fill: #295072; } .cls-30 { fill: #3545a2; } .cls-31 { fill: #424242; } .cls-31, .cls-32 { font-size: 9px; } .cls-32 { fill: #566cff; } .cls-33 { fill: #f682b9; } .cls-34 { fill: #ee9f3d; } .cls-35 { fill: #e49035; } .cls-36 { filter: url(#Rectangle_6); } .cls-37 { filter: url(#Rectangle_5); } .cls-38 { filter: url(#Rectangle_3); } .cls-39 { filter: url(#Rectangle_8); } .cls-40 { filter: url(#Rectangle_7); } .cls-41 { filter: url(#Rectangle_4); }</style><filter id="Rectangle_4" width="295" height="172" x="52" y="183" filterUnits="userSpaceOnUse"><feOffset dy="3"/><feGaussianBlur result="blur" stdDeviation="3"/><feFlood flood-opacity=".161"/><feComposite in2="blur" operator="in"/><feComposite in="SourceGraphic"/></filter><filter id="Rectangle_7" width="295" height="156" x="52" y="400" filterUnits="userSpaceOnUse"><feOffset dy="3"/><feGaussianBlur result="blur-2" stdDeviation="3"/><feFlood flood-opacity=".161"/><feComposite in2="blur-2" operator="in"/><feComposite in="SourceGraphic"/></filter><filter id="Rectangle_8" width="295" height="182" x="52" y="603" filterUnits="userSpaceOnUse"><feOffset dy="3"/><feGaussianBlur result="blur-3" stdDeviation="3"/><feFlood flood-opacity=".161"/><feComposite in2="blur-3" operator="in"/><feComposite in="SourceGraphic"/></filter><filter id="Rectangle_3" width="68" height="68" x="27" y="158" filterUnits="userSpaceOnUse"><feOffset dy="3"/><feGaussianBlur result="blur-4" stdDeviation="3"/><feFlood flood-opacity=".161"/><feComposite in2="blur-4" operator="in"/><feComposite in="SourceGraphic"/></filter><filter id="Rectangle_5" width="68" height="68" x="27" y="375" filterUnits="userSpaceOnUse"><feOffset dy="3"/><feGaussianBlur result="blur-5" stdDeviation="3"/><feFlood flood-opacity=".161"/><feComposite in2="blur-5" operator="in"/><feComposite in="SourceGraphic"/></filter><filter id="Rectangle_6" width="68" height="68" x="27" y="573" filterUnits="userSpaceOnUse"><feOffset dy="3"/><feGaussianBlur result="blur-6" stdDeviation="3"/><feFlood flood-opacity=".161"/><feComposite in2="blur-6" operator="in"/><feComposite in="SourceGraphic"/></filter><clipPath id="clip-Mobile_Page_-_2"><path d="M0 0h375v812H0z"/></clipPath></defs><g transform="translate(-248 -41)"><g id="Mobile_Page_-_2" class="cls-1" data-name="Mobile Page - 2"><g id="Group_3" data-name="Group 3" transform="translate(58 13)"><g id="sass-icon-edit" transform="translate(190.551 28.791)"><path id="path6-3" d="M194.331 32.995a30.35 30.35 0 0 0-.034.16l-.389 1.821.409-1.918.013-.062" class="cls-3" data-name="path6" transform="translate(-165.221 -28.114)"/><path id="polyline8-3" d="M214.781 234.431l-.215.761.215-.76" class="cls-3" data-name="polyline8" transform="translate(-197.326 -228.331)"/><path id="path10-2" d="M0 13.837v-3.084a6.111 6.111 0 0 0 3.893 1.42 4.305 4.305 0 0 0 1.051-.114 2.413 2.413 0 0 0 .749-.315 1.341 1.341 0 0 0 .449-.474 1.27 1.27 0 0 0-.087-1.33 2.53 2.53 0 0 0-.64-.6 6.728 6.728 0 0 0-.962-.533q-.557-.257-1.2-.523A6.114 6.114 0 0 1 .805 6.6 3.7 3.7 0 0 1 0 4.2a3.81 3.81 0 0 1 .445-1.9A3.779 3.779 0 0 1 1.66 1 5.447 5.447 0 0 1 3.44.241 9.226 9.226 0 0 1 5.582 0 13.112 13.112 0 0 1 7.55.131a7.863 7.863 0 0 1 1.58.4v2.918A4.692 4.692 0 0 0 8.362 3a5.841 5.841 0 0 0-.856-.32 6.3 6.3 0 0 0-.875-.187 6.039 6.039 0 0 0-.827-.06 4.107 4.107 0 0 0-.976.108 2.4 2.4 0 0 0-.743.3 1.474 1.474 0 0 0-.469.471 1.158 1.158 0 0 0-.166.613 1.126 1.126 0 0 0 .185.635 2.127 2.127 0 0 0 .528.531 5.747 5.747 0 0 0 .831.493q.488.242 1.1.5a12.185 12.185 0 0 1 1.506.757 5.382 5.382 0 0 1 1.148.9 3.513 3.513 0 0 1 .732 1.148 4.083 4.083 0 0 1 .254 1.5 3.984 3.984 0 0 1-.453 1.984 3.66 3.66 0 0 1-1.23 1.3 5.363 5.363 0 0 1-1.807.715 10.52 10.52 0 0 1-2.175.217 12.448 12.448 0 0 1-2.237-.194A6.951 6.951 0 0 1 0 13.837" class="cls-3" data-name="path10"/><path id="path12-3" d="M78.431 9.892L76.9 5.118a5.873 5.873 0 0 1-.234-1.277h-.086a4.548 4.548 0 0 1-.257 1.233l-1.54 4.818h3.649m5.262 5.681h-3.507l-.9-2.84H73.99l-.91 2.84h-3.487l5.2-14.2h3.816z" class="cls-3" data-name="path12" transform="translate(-59.297 -1.168)"/><path id="path14-3" d="M172.787 13.837v-3.084a6.113 6.113 0 0 0 3.893 1.42 4.3 4.3 0 0 0 1.051-.114 2.414 2.414 0 0 0 .75-.315 1.341 1.341 0 0 0 .448-.474 1.27 1.27 0 0 0-.087-1.33 2.536 2.536 0 0 0-.64-.6 6.74 6.74 0 0 0-.962-.533q-.557-.257-1.2-.523a6.117 6.117 0 0 1-2.448-1.684 3.7 3.7 0 0 1-.805-2.4 3.81 3.81 0 0 1 .446-1.9 3.772 3.772 0 0 1 1.214-1.3 5.442 5.442 0 0 1 1.78-.755A9.225 9.225 0 0 1 178.369 0a13.106 13.106 0 0 1 1.967.131 7.866 7.866 0 0 1 1.581.4v2.918A4.7 4.7 0 0 0 181.15 3a5.855 5.855 0 0 0-.856-.32 6.291 6.291 0 0 0-.875-.187 6.031 6.031 0 0 0-.827-.06 4.11 4.11 0 0 0-.976.108 2.4 2.4 0 0 0-.743.3 1.477 1.477 0 0 0-.469.471 1.16 1.16 0 0 0-.166.613 1.126 1.126 0 0 0 .186.635 2.121 2.121 0 0 0 .528.531 5.764 5.764 0 0 0 .831.493q.488.242 1.1.5a12.229 12.229 0 0 1 1.509.755 5.378 5.378 0 0 1 1.148.9 3.516 3.516 0 0 1 .732 1.148 4.086 4.086 0 0 1 .254 1.5 3.983 3.983 0 0 1-.453 1.984 3.661 3.661 0 0 1-1.23 1.3 5.368 5.368 0 0 1-1.807.715 10.529 10.529 0 0 1-2.175.217 12.444 12.444 0 0 1-2.236-.194 6.957 6.957 0 0 1-1.837-.577" class="cls-3" data-name="path14" transform="translate(-147.224)"/><path id="path16-3" d="M249.583 13.837v-3.084a6.11 6.11 0 0 0 3.893 1.42 4.3 4.3 0 0 0 1.051-.114 2.413 2.413 0 0 0 .75-.315 1.344 1.344 0 0 0 .448-.474 1.27 1.27 0 0 0-.087-1.33 2.534 2.534 0 0 0-.64-.6 6.738 6.738 0 0 0-.962-.533q-.556-.257-1.2-.523a6.115 6.115 0 0 1-2.448-1.684 3.7 3.7 0 0 1-.8-2.4 3.81 3.81 0 0 1 .445-1.9 3.774 3.774 0 0 1 1.21-1.3 5.442 5.442 0 0 1 1.78-.755A9.225 9.225 0 0 1 255.165 0a13.106 13.106 0 0 1 1.967.131 7.865 7.865 0 0 1 1.58.4v2.918a4.693 4.693 0 0 0-.767-.449 5.861 5.861 0 0 0-.856-.32 6.312 6.312 0 0 0-.875-.187 6.035 6.035 0 0 0-.827-.06 4.112 4.112 0 0 0-.977.108 2.4 2.4 0 0 0-.743.3 1.472 1.472 0 0 0-.469.471 1.158 1.158 0 0 0-.167.613 1.126 1.126 0 0 0 .186.635 2.13 2.13 0 0 0 .528.531 5.727 5.727 0 0 0 .83.493q.488.242 1.1.5a12.177 12.177 0 0 1 1.509.755 5.375 5.375 0 0 1 1.148.9 3.512 3.512 0 0 1 .732 1.148 4.093 4.093 0 0 1 .254 1.5 3.984 3.984 0 0 1-.453 1.984 3.659 3.659 0 0 1-1.23 1.3 5.362 5.362 0 0 1-1.807.715 10.518 10.518 0 0 1-2.174.217 12.443 12.443 0 0 1-2.236-.194 6.948 6.948 0 0 1-1.837-.577" class="cls-3" data-name="path16" transform="translate(-212.659)"/></g></g></g></g></svg>