<svg xmlns="http://www.w3.org/2000/svg" id="artboard-svg" width="21" height="21" viewBox="0 0 21 21"><defs><style>.cls-1 { clip-path: url(#clip-Invalid_Form); } .cls-10, .cls-2 { fill: #fff; } .cls-3 { fill: #566cff; } .cls-4, .cls-9 { fill: #ff2e2e; } .cls-4 { font-size: 10px; } .cls-10, .cls-4, .cls-5 { font-family: Montserrat-Regular, Montserrat; } .cls-5 { fill: #9e9e9e; } .cls-10, .cls-5 { font-size: 12px; } .cls-6, .cls-7 { fill: none; } .cls-6 { stroke: #ff2e2e; } .cls-7 { stroke: #bdbdbd; } .cls-8 { fill: #707070; font-size: 20px; font-family: SegoeUI, Segoe UI; } .cls-11 { filter: url(#Ellipse_1); } .cls-12 { filter: url(#Rectangle_10); }</style><filter id="Rectangle_10" width="318" height="370" x="29" y="400" filterUnits="userSpaceOnUse"><feOffset dy="3"/><feGaussianBlur result="blur" stdDeviation="3"/><feFlood flood-opacity=".161"/><feComposite in2="blur" operator="in"/><feComposite in="SourceGraphic"/></filter><filter id="Ellipse_1" width="63" height="63" x="156" y="694" filterUnits="userSpaceOnUse"><feOffset dy="3"/><feGaussianBlur result="blur-2" stdDeviation="3"/><feFlood flood-opacity=".161"/><feComposite in2="blur-2" operator="in"/><feComposite in="SourceGraphic"/></filter><clipPath id="clip-Invalid_Form"><path d="M0 0h375v812H0z"/></clipPath></defs><g transform="translate(-176 -713)"><g id="Invalid_Form" class="cls-1" data-name="Invalid Form"><g id="Group_9" data-name="Group 9" transform="translate(-43 185)"><path id="Icon_awesome-paper-plane" d="M16.022.107l-15.6 9A.808.808 0 0 0 .5 10.561l3.578 1.5 9.67-8.522a.2.2 0 0 1 .289.279L5.924 13.7v2.709a.808.808 0 0 0 1.43.532l2.137-2.6 4.194 1.757a.81.81 0 0 0 1.111-.613L17.22.941a.808.808 0 0 0-1.198-.834z" class="cls-2" data-name="Icon awesome-paper-plane" transform="translate(219.382 528.388)"/></g></g></g></svg>