<svg xmlns="http://www.w3.org/2000/svg" id="artboard-svg" width="92" height="92" viewBox="0 0 92 92" style="width:562.5px"><defs><style>.cls-1 { clip-path: url(#clip-Success_Message_-_1); } .cls-2 { fill: url(#linear-gradient); } .cls-3, .cls-6 { fill: #eee; } .cls-4, .cls-5 { fill: #fff; } .cls-5 { font-size: 20px; } .cls-5, .cls-9 { font-family: Montserrat-Bold, Montserrat; font-weight: 700; } .cls-6 { font-size: 10px; font-family: Montserrat-Regular, Montserrat; } .cls-7 { fill: #ffeb3b; } .cls-8, .cls-9 { fill: #212121; } .cls-9 { font-size: 13px; } .cls-10 { filter: url(#Rectangle_11); } .cls-11 { filter: url(#Icon_awesome-check-circle); }</style><linearGradient id="linear-gradient" x1=".5" x2=".5" y2="1" gradientUnits="objectBoundingBox"><stop offset="0" stop-color="#8293ff"/><stop offset=".502" stop-color="#5e74ff"/><stop offset="1" stop-color="#414a80"/></linearGradient><filter id="Icon_awesome-check-circle" width="106.284" height="106.284" x="134.295" y="196.295" filterUnits="userSpaceOnUse"><feOffset dy="3"/><feGaussianBlur result="blur" stdDeviation="3"/><feFlood flood-opacity=".161"/><feComposite in2="blur" operator="in"/><feComposite in="SourceGraphic"/></filter><filter id="Rectangle_11" width="174" height="59" x="101" y="525" filterUnits="userSpaceOnUse"><feOffset dy="3"/><feGaussianBlur result="blur-2" stdDeviation="3"/><feFlood flood-opacity=".161"/><feComposite in2="blur-2" operator="in"/><feComposite in="SourceGraphic"/></filter><clipPath id="clip-Success_Message_-_1"><path d="M0 0h375v812H0z"/></clipPath></defs><g transform="translate(-143 -202)"><g id="Success_Message_-_1" class="cls-1" data-name="Success Message - 1"><g class="cls-11"><path id="Icon_awesome-check-circle-2" d="M88.847 44.7A44.142 44.142 0 1 1 44.7.562 44.142 44.142 0 0 1 88.847 44.7zM39.6 68.077l32.749-32.75a2.848 2.848 0 0 0 0-4.027l-4.027-4.027a2.848 2.848 0 0 0-4.028 0L37.585 53.981l-12.47-12.47a2.848 2.848 0 0 0-4.028 0l-4.027 4.028a2.848 2.848 0 0 0 0 4.027l18.511 18.511a2.848 2.848 0 0 0 4.029 0z" class="cls-4" data-name="Icon awesome-check-circle" transform="translate(142.73 201.73)"/></g></g></g></svg>