<svg xmlns="http://www.w3.org/2000/svg" id="artboard-svg" width="30" height="30" viewBox="0 0 30 30" style="width:562.5px"><defs><style>.cls-1 { clip-path: url(#clip-Mobile_Page_-_2); } .cls-2 { fill: #eee; } .cls-3, .cls-4, .cls-5 { fill: #bdbdbd; } .cls-4 { fill-rule: evenodd; } .cls-5, .cls-6 { font-size: 10px; } .cls-31, .cls-32, .cls-5, .cls-6, .cls-8 { font-family: ArialMT, Arial; } .cls-6, .cls-8, .cls-9 { fill: #534daa; } .cls-7 { fill: #fff; } .cls-8 { font-size: 20px; } .cls-10 { fill: #e3e8e6; } .cls-11 { fill: #b3bad3; } .cls-12 { fill: #213760; } .cls-13 { fill: none; stroke: #eee; } .cls-14 { fill: #f7f8fd; } .cls-15 { fill: #bfb2df; } .cls-16 { fill: #99deef; } .cls-17 { fill: #d4d3ee; } .cls-18 { fill: #a79cd6; } .cls-19 { fill: #5762b7; } .cls-20 { fill: #234465; } .cls-21 { fill: #305c78; } .cls-22 { fill: #e8eaf7; } .cls-23 { fill: #6dccd6; } .cls-24 { fill: #f5af45; } .cls-25 { fill: #e4519c; } .cls-26 { fill: #83d6e5; } .cls-27 { fill: #3e52ac; } .cls-28 { fill: #f46bac; } .cls-29 { fill: #295072; } .cls-30 { fill: #3545a2; } .cls-31 { fill: #424242; } .cls-31, .cls-32 { font-size: 9px; } .cls-32 { fill: #566cff; } .cls-33 { fill: #f682b9; } .cls-34 { fill: #ee9f3d; } .cls-35 { fill: #e49035; } .cls-36 { filter: url(#Rectangle_6); } .cls-37 { filter: url(#Rectangle_5); } .cls-38 { filter: url(#Rectangle_3); } .cls-39 { filter: url(#Rectangle_8); } .cls-40 { filter: url(#Rectangle_7); } .cls-41 { filter: url(#Rectangle_4); }</style><filter id="Rectangle_4" width="295" height="172" x="52" y="183" filterUnits="userSpaceOnUse"><feOffset dy="3"/><feGaussianBlur result="blur" stdDeviation="3"/><feFlood flood-opacity=".161"/><feComposite in2="blur" operator="in"/><feComposite in="SourceGraphic"/></filter><filter id="Rectangle_7" width="295" height="156" x="52" y="400" filterUnits="userSpaceOnUse"><feOffset dy="3"/><feGaussianBlur result="blur-2" stdDeviation="3"/><feFlood flood-opacity=".161"/><feComposite in2="blur-2" operator="in"/><feComposite in="SourceGraphic"/></filter><filter id="Rectangle_8" width="295" height="182" x="52" y="603" filterUnits="userSpaceOnUse"><feOffset dy="3"/><feGaussianBlur result="blur-3" stdDeviation="3"/><feFlood flood-opacity=".161"/><feComposite in2="blur-3" operator="in"/><feComposite in="SourceGraphic"/></filter><filter id="Rectangle_3" width="68" height="68" x="27" y="158" filterUnits="userSpaceOnUse"><feOffset dy="3"/><feGaussianBlur result="blur-4" stdDeviation="3"/><feFlood flood-opacity=".161"/><feComposite in2="blur-4" operator="in"/><feComposite in="SourceGraphic"/></filter><filter id="Rectangle_5" width="68" height="68" x="27" y="375" filterUnits="userSpaceOnUse"><feOffset dy="3"/><feGaussianBlur result="blur-5" stdDeviation="3"/><feFlood flood-opacity=".161"/><feComposite in2="blur-5" operator="in"/><feComposite in="SourceGraphic"/></filter><filter id="Rectangle_6" width="68" height="68" x="27" y="573" filterUnits="userSpaceOnUse"><feOffset dy="3"/><feGaussianBlur result="blur-6" stdDeviation="3"/><feFlood flood-opacity=".161"/><feComposite in2="blur-6" operator="in"/><feComposite in="SourceGraphic"/></filter><clipPath id="clip-Mobile_Page_-_2"><path d="M0 0h375v812H0z"/></clipPath></defs><g transform="translate(-46 -174)"><g id="Mobile_Page_-_2" class="cls-1" data-name="Mobile Page - 2"><g id="layer1" transform="translate(-55.658 41.556)"><g id="g8602" transform="translate(55.6 217.178)"><path id="path844" d="M74.576-75.315a4.939 4.939 0 0 1-4.939 4.939 4.939 4.939 0 0 1-4.937-4.939 4.939 4.939 0 0 1 4.939-4.939 4.939 4.939 0 0 1 4.939 4.939" class="cls-10"/><path id="path846" d="M60.112-60.516a4.233 4.233 0 0 1-4.233 4.233 4.233 4.233 0 0 1-4.233-4.233 4.234 4.234 0 0 1 4.233-4.233 4.234 4.234 0 0 1 4.233 4.233" class="cls-10"/><path id="path848" d="M61.17-76.678a7.056 7.056 0 0 1-7.056 7.056 7.055 7.055 0 0 1-7.056-7.056 7.056 7.056 0 0 1 7.056-7.056 7.056 7.056 0 0 1 7.056 7.056" class="cls-10"/><path id="path850" d="M65.4-61.045h-9.169v2.117H65.4v-2.117" class="cls-11"/><path id="path852" d="M63.639-61.045h-7.408v1.411h6a1.411 1.411 0 0 0 1.411-1.411" class="cls-7"/><path id="path854" d="M56.5-59.193h8.643v-1.587H56.5zm8.908.529h-9.177a.264.264 0 0 1-.265-.265v-2.117a.265.265 0 0 1 .265-.265H65.4a.265.265 0 0 1 .265.265v2.117a.264.264 0 0 1-.265.265" class="cls-12"/><path id="path856" d="M72.106-63.162H49.528v-13.053a1.059 1.059 0 0 1 1.058-1.058h20.462a1.059 1.059 0 0 1 1.058 1.058v13.053" class="cls-11"/><path id="path858" d="M68.931-65.278h-19.4v-10.937a1.059 1.059 0 0 1 1.058-1.058h19.753v10.583a1.411 1.411 0 0 1-1.411 1.411" class="cls-7"/><path id="path860" d="M49.793-63.426h22.049v-12.789a.8.8 0 0 0-.794-.794H50.587a.8.8 0 0 0-.794.794zm22.313.529H49.528a.264.264 0 0 1-.265-.265v-13.053a1.325 1.325 0 0 1 1.323-1.323h20.462a1.325 1.325 0 0 1 1.323 1.323v13.053a.264.264 0 0 1-.265.265" class="cls-12"/><path id="path862" d="M71.048-61.045H50.587a1.058 1.058 0 0 1-1.059-1.055v-1.058h22.578v1.058a1.058 1.058 0 0 1-1.058 1.058" class="cls-11"/><path id="path864" d="M68.578-61.751h-19.05v-1.411h20.461a1.411 1.411 0 0 1-1.411 1.411" class="cls-7"/><path id="path866" d="M49.793-62.9v.794a.794.794 0 0 0 .794.794h20.461a.794.794 0 0 0 .794-.794v-.794zm21.255 2.12H50.587a1.324 1.324 0 0 1-1.323-1.32v-1.058a.265.265 0 0 1 .265-.265h22.577a.265.265 0 0 1 .265.265v1.058a1.324 1.324 0 0 1-1.323 1.323" class="cls-12"/><path id="path868" d="M67.873-58.664H53.762a.264.264 0 0 1-.265-.265.265.265 0 0 1 .265-.265h14.111a.265.265 0 0 1 .265.265.264.264 0 0 1-.265.265" class="cls-12"/><path id="path870" d="M61.082-62.1a.264.264 0 0 1-.265.265.264.264 0 0 1-.265-.265.265.265 0 0 1 .265-.265.265.265 0 0 1 .265.265" class="cls-12"/><path id="path872" d="M68.931-78.684H52.7v15.522h16.231v-15.522" class="cls-11"/><path id="path874" d="M68.226-81.506H53.409a.706.706 0 0 0-.706.706v2.117h16.228V-80.8a.706.706 0 0 0-.706-.706" class="cls-11"/><path id="path876" d="M67.167-78.684H52.7v14.111h8.47a6 6 0 0 0 6-6v-8.114" class="cls-7"/><path id="path878" d="M67.167-81.506H53.409a.706.706 0 0 0-.706.706v1.411h12.348a2.117 2.117 0 0 0 2.117-2.117" class="cls-7"/><path id="path880" d="M52.968-63.426h15.7v-14.993h-15.7zm15.963.529H52.7a.264.264 0 0 1-.265-.265v-15.522a.265.265 0 0 1 .265-.265h16.231a.265.265 0 0 1 .265.265v15.522a.264.264 0 0 1-.265.265" class="cls-12"/><path id="path882" d="M52.968-78.949h15.7V-80.8a.442.442 0 0 0-.441-.441H53.409a.442.442 0 0 0-.441.441zm15.963.529H52.7a.264.264 0 0 1-.265-.265V-80.8a.971.971 0 0 1 .97-.97h14.821a.971.971 0 0 1 .97.97v2.117a.264.264 0 0 1-.265.265" class="cls-12"/><path id="path884" d="M66.037-70.063a5.3 5.3 0 0 0 .072-.859 5.3 5.3 0 0 0-.072-.859l-1.8-.286a3.627 3.627 0 0 0-.193-.463l1.071-1.475a5.27 5.27 0 0 0-1.215-1.216l-1.476 1.072a3.675 3.675 0 0 0-.463-.193l-.287-1.8a5.222 5.222 0 0 0-.858-.071 5.208 5.208 0 0 0-.858.071l-.287 1.8a3.707 3.707 0 0 0-.463.193l-1.477-1.071a5.3 5.3 0 0 0-1.213 1.215l1.072 1.475a3.342 3.342 0 0 0-.193.463l-1.8.286a5.226 5.226 0 0 0-.071.859 5.218 5.218 0 0 0 .071.859l1.8.286a3.263 3.263 0 0 0 .193.462l-1.072 1.477a5.328 5.328 0 0 0 1.213 1.215l1.477-1.072a3.327 3.327 0 0 0 .463.193l.287 1.8a5.247 5.247 0 0 0 .858.07 5.26 5.26 0 0 0 .858-.07l.287-1.8a3.573 3.573 0 0 0 .463-.193l1.476 1.072a5.294 5.294 0 0 0 1.214-1.215l-1.071-1.477a3.535 3.535 0 0 0 .193-.462l1.8-.286" class="cls-7"/><path id="path886" d="M56.518-67.837a5.328 5.328 0 0 0 1.213 1.215l1.177-.854a4.559 4.559 0 0 1-1.992-.909l-.4.549" class="cls-11"/><path id="path888" d="M65.114-74.005a5.263 5.263 0 0 0-1.214-1.216l-.547.4a4.557 4.557 0 0 1 .909 1.991l.852-1.173" class="cls-11"/><path id="path892" d="M66.037-70.063a5.3 5.3 0 0 0 .072-.859 5.3 5.3 0 0 0-.072-.859l-1.7-.27v.069a4.586 4.586 0 0 1-4.578 4.582h-.071l.271 1.7a5.247 5.247 0 0 0 .858.069 5.26 5.26 0 0 0 .858-.069l.287-1.8a3.573 3.573 0 0 0 .463-.193l1.475 1.07a5.288 5.288 0 0 0 1.214-1.215l-1.071-1.477a3.535 3.535 0 0 0 .193-.462l1.8-.286" class="cls-11"/><path id="path894" d="M66.037-70.063zm-5.848 4.129a5.083 5.083 0 0 0 1.255 0l.256-1.609a.264.264 0 0 1 .177-.209 3.3 3.3 0 0 0 .428-.179.265.265 0 0 1 .275.022l1.318.957a5 5 0 0 0 .887-.888l-.957-1.319a.265.265 0 0 1-.023-.274 3.321 3.321 0 0 0 .179-.428.265.265 0 0 1 .21-.177l1.609-.256a5.037 5.037 0 0 0 .041-.628 5.036 5.036 0 0 0-.041-.628l-1.603-.256a.265.265 0 0 1-.21-.177 3.281 3.281 0 0 0-.179-.429.265.265 0 0 1 .023-.273L64.786-74a4.987 4.987 0 0 0-.887-.888l-1.318.957a.264.264 0 0 1-.273.023 3.347 3.347 0 0 0-.429-.179.265.265 0 0 1-.177-.21l-.256-1.609a5.016 5.016 0 0 0-1.255 0l-.258 1.606a.265.265 0 0 1-.178.21 3.409 3.409 0 0 0-.43.179.263.263 0 0 1-.272-.023l-1.319-.956a5 5 0 0 0-.887.889l.957 1.318a.265.265 0 0 1 .022.275 3.149 3.149 0 0 0-.178.427.264.264 0 0 1-.21.178l-1.608.256a4.941 4.941 0 0 0-.04.628 5 5 0 0 0 .04.628l1.609.256a.264.264 0 0 1 .21.178 3.045 3.045 0 0 0 .178.426.265.265 0 0 1-.022.275l-.957 1.319a5.069 5.069 0 0 0 .887.888l1.319-.958a.264.264 0 0 1 .276-.021 3.08 3.08 0 0 0 .426.178.265.265 0 0 1 .177.209zm.628.568a5.527 5.527 0 0 1-.9-.073.264.264 0 0 1-.218-.219l-.262-1.646a3.227 3.227 0 0 1-.2-.083l-1.349.979a.264.264 0 0 1-.31 0 5.577 5.577 0 0 1-1.278-1.275.264.264 0 0 1 0-.31l.979-1.349a2.703 2.703 0 0 1-.082-.2l-1.642-.258a.264.264 0 0 1-.219-.218 5.5 5.5 0 0 1-.075-.9 5.5 5.5 0 0 1 .075-.9.263.263 0 0 1 .219-.218L57.2-72.3a4.69 4.69 0 0 1 .082-.2l-.982-1.35a.264.264 0 0 1 0-.309 5.557 5.557 0 0 1 1.274-1.276.265.265 0 0 1 .31 0l1.351.979q.1-.045.2-.083l.262-1.647a.266.266 0 0 1 .218-.22 5.546 5.546 0 0 1 1.8 0 .265.265 0 0 1 .218.22l.262 1.647c.065.026.132.053.2.083l1.349-.98a.264.264 0 0 1 .31 0 5.506 5.506 0 0 1 1.274 1.277.264.264 0 0 1 0 .309l-.978 1.35q.046.1.083.2l1.646.262a.264.264 0 0 1 .22.218 5.614 5.614 0 0 1 .075.9 5.612 5.612 0 0 1-.075.9.265.265 0 0 1-.22.218l-1.646.262a4.506 4.506 0 0 1-.083.2l.979 1.35a.264.264 0 0 1 0 .309 5.55 5.55 0 0 1-1.274 1.276.265.265 0 0 1-.31 0l-1.345-.983a3.987 3.987 0 0 1-.2.083l-.262 1.647a.264.264 0 0 1-.218.219 5.531 5.531 0 0 1-.9.073" class="cls-12"/><path id="path896" d="M62.581-70.923a1.764 1.764 0 0 1-1.764 1.764 1.764 1.764 0 0 1-1.764-1.764 1.764 1.764 0 0 1 1.764-1.764 1.764 1.764 0 0 1 1.764 1.764" class="cls-7"/><path id="path898" d="M61.655-72.466a1.744 1.744 0 0 1 .22.838 1.764 1.764 0 0 1-1.764 1.764 1.748 1.748 0 0 1-.837-.22 1.756 1.756 0 0 0 1.543.926 1.764 1.764 0 0 0 1.764-1.764 1.757 1.757 0 0 0-.926-1.543" class="cls-11"/><path id="path900" d="M60.817-72.422a1.5 1.5 0 0 0-1.5 1.5 1.5 1.5 0 0 0 1.5 1.5 1.5 1.5 0 0 0 1.5-1.5 1.5 1.5 0 0 0-1.5-1.5zm0 3.528a2.031 2.031 0 0 1-2.028-2.028 2.031 2.031 0 0 1 2.028-2.028 2.031 2.031 0 0 1 2.028 2.028 2.031 2.031 0 0 1-2.028 2.028" class="cls-12"/><path id="path902" d="M63.994-79.83a.275.275 0 0 1-.19-.077.278.278 0 0 1-.074-.187.277.277 0 0 1 .074-.187.274.274 0 0 1 .374 0 .254.254 0 0 1 .081.187.266.266 0 0 1-.077.187.273.273 0 0 1-.187.077" class="cls-12"/><path id="path904" d="M65.314-80.094a.264.264 0 0 1 .265-.265.262.262 0 0 1 .265.265.264.264 0 0 1-.265.265.266.266 0 0 1-.265-.265" class="cls-12"/><path id="path906" d="M67.166-79.83a.255.255 0 0 1-.187-.081.251.251 0 0 1-.077-.183.266.266 0 0 1 .077-.187.274.274 0 0 1 .374 0 .264.264 0 0 1 .078.187.264.264 0 0 1-.078.187.259.259 0 0 1-.187.077" class="cls-12"/><path id="path908" d="M54.115-72.069a.264.264 0 0 1-.265-.265v-2.716a.264.264 0 0 1 .265-.265.265.265 0 0 1 .265.265v2.716a.265.265 0 0 1-.265.265" class="cls-12"/><path id="path910" d="M54.115-76.2a.264.264 0 0 1-.265-.265v-.811a.264.264 0 0 1 .265-.265.265.265 0 0 1 .265.265v.811a.265.265 0 0 1-.265.265" class="cls-12"/><path id="path912" d="M50.94-67.483a.264.264 0 0 1-.265-.265v-4.127a.264.264 0 0 1 .265-.265.265.265 0 0 1 .265.265v4.127a.264.264 0 0 1-.265.265" class="cls-12"/><path id="path914" d="M50.94-73.022a.264.264 0 0 1-.265-.265v-.813a.264.264 0 0 1 .265-.265.265.265 0 0 1 .265.265v.811a.265.265 0 0 1-.265.265" class="cls-12"/></g></g></g></g></svg>