<svg xmlns="http://www.w3.org/2000/svg" id="artboard-svg" width="94" height="55" viewBox="0 0 94 55" style="width:562.5px"><defs><style>.cls-1 { clip-path: url(#clip-Mobile_Page_-_2); } .cls-2 { fill: #eee; } .cls-3, .cls-4, .cls-5 { fill: #bdbdbd; } .cls-4 { fill-rule: evenodd; } .cls-5, .cls-6 { font-size: 10px; } .cls-31, .cls-32, .cls-5, .cls-6, .cls-8 { font-family: ArialMT, Arial; } .cls-6, .cls-8, .cls-9 { fill: #534daa; } .cls-7 { fill: #fff; } .cls-8 { font-size: 20px; } .cls-10 { fill: #e3e8e6; } .cls-11 { fill: #b3bad3; } .cls-12 { fill: #213760; } .cls-13 { fill: none; stroke: #eee; } .cls-14 { fill: #f7f8fd; } .cls-15 { fill: #bfb2df; } .cls-16 { fill: #99deef; } .cls-17 { fill: #d4d3ee; } .cls-18 { fill: #a79cd6; } .cls-19 { fill: #5762b7; } .cls-20 { fill: #234465; } .cls-21 { fill: #305c78; } .cls-22 { fill: #e8eaf7; } .cls-23 { fill: #6dccd6; } .cls-24 { fill: #f5af45; } .cls-25 { fill: #e4519c; } .cls-26 { fill: #83d6e5; } .cls-27 { fill: #3e52ac; } .cls-28 { fill: #f46bac; } .cls-29 { fill: #295072; } .cls-30 { fill: #3545a2; } .cls-31 { fill: #424242; } .cls-31, .cls-32 { font-size: 9px; } .cls-32 { fill: #566cff; } .cls-33 { fill: #f682b9; } .cls-34 { fill: #ee9f3d; } .cls-35 { fill: #e49035; } .cls-36 { filter: url(#Rectangle_6); } .cls-37 { filter: url(#Rectangle_5); } .cls-38 { filter: url(#Rectangle_3); } .cls-39 { filter: url(#Rectangle_8); } .cls-40 { filter: url(#Rectangle_7); } .cls-41 { filter: url(#Rectangle_4); }</style><filter id="Rectangle_4" width="295" height="172" x="52" y="183" filterUnits="userSpaceOnUse"><feOffset dy="3"/><feGaussianBlur result="blur" stdDeviation="3"/><feFlood flood-opacity=".161"/><feComposite in2="blur" operator="in"/><feComposite in="SourceGraphic"/></filter><filter id="Rectangle_7" width="295" height="156" x="52" y="400" filterUnits="userSpaceOnUse"><feOffset dy="3"/><feGaussianBlur result="blur-2" stdDeviation="3"/><feFlood flood-opacity=".161"/><feComposite in2="blur-2" operator="in"/><feComposite in="SourceGraphic"/></filter><filter id="Rectangle_8" width="295" height="182" x="52" y="603" filterUnits="userSpaceOnUse"><feOffset dy="3"/><feGaussianBlur result="blur-3" stdDeviation="3"/><feFlood flood-opacity=".161"/><feComposite in2="blur-3" operator="in"/><feComposite in="SourceGraphic"/></filter><filter id="Rectangle_3" width="68" height="68" x="27" y="158" filterUnits="userSpaceOnUse"><feOffset dy="3"/><feGaussianBlur result="blur-4" stdDeviation="3"/><feFlood flood-opacity=".161"/><feComposite in2="blur-4" operator="in"/><feComposite in="SourceGraphic"/></filter><filter id="Rectangle_5" width="68" height="68" x="27" y="375" filterUnits="userSpaceOnUse"><feOffset dy="3"/><feGaussianBlur result="blur-5" stdDeviation="3"/><feFlood flood-opacity=".161"/><feComposite in2="blur-5" operator="in"/><feComposite in="SourceGraphic"/></filter><filter id="Rectangle_6" width="68" height="68" x="27" y="573" filterUnits="userSpaceOnUse"><feOffset dy="3"/><feGaussianBlur result="blur-6" stdDeviation="3"/><feFlood flood-opacity=".161"/><feComposite in2="blur-6" operator="in"/><feComposite in="SourceGraphic"/></filter><clipPath id="clip-Mobile_Page_-_2"><path d="M0 0h375v812H0z"/></clipPath></defs><g transform="translate(-87 -224)"><g id="Mobile_Page_-_2" class="cls-1" data-name="Mobile Page - 2"><g id="layer1-2" data-name="layer1" transform="translate(84.014 141.846)"><g id="g3616" transform="translate(8.056 87.7)"><path id="path3618" d="M143.86-760.071a41.544 41.544 0 0 0 .215-4.221 41.092 41.092 0 0 0-41.092-41.091 41.092 41.092 0 0 0-41.093 41.091 41.607 41.607 0 0 0 .215 4.221h81.755" class="cls-14" transform="translate(-61.89 805.383)"/></g><g id="g3620" transform="translate(3.986 132.736)"><path id="path3622" d="M143.039-706.116H53.127a.21.21 0 0 0-.21.21.208.208 0 0 0 .21.208h89.911a.208.208 0 0 0 .21-.208.21.21 0 0 0-.21-.21" class="cls-15" transform="translate(-52.918 706.116)"/></g><g id="g3624" transform="translate(52.004 119.277)"><path id="path3626" d="M161.952-728.647a10.739 10.739 0 0 0-3.191-4.473 7.979 7.979 0 0 1 3.923 3.18 13.4 13.4 0 0 0-1-5.843 7.935 7.935 0 0 1 2.3 5.552 8.032 8.032 0 0 1 3.734-2.89 10.728 10.728 0 0 0-3.191 4.469 6.192 6.192 0 0 1 3.191-1.921 7.726 7.726 0 0 0-3.145 3.426H161.9a7.706 7.706 0 0 0-3.141-3.426 6.179 6.179 0 0 1 3.191 1.925" class="cls-16" transform="translate(-158.761 735.782)"/></g><g id="g3628" transform="translate(53.031 126.746)"><path id="path3630" d="M161.024-718.881a.443.443 0 0 0 .438.439h.064l1 4.747a.436.436 0 0 0 .438.358h3.02a.436.436 0 0 0 .438-.358l1-4.747h.072a.436.436 0 0 0 .43-.439.435.435 0 0 0-.43-.438h-6.031a.441.441 0 0 0-.438.438" class="cls-15" transform="translate(-161.024 719.319)"/></g><g id="g3636" transform="translate(21.293 84.89)"><path id="path3638" d="M105.127-811.2a10.08 10.08 0 0 0-.694-.025v-.352c.237 0 .476.009.716.025zm-2.081.056l-.041-.35c.237-.027.475-.047.713-.063l.021.352q-.347.021-.693.062zm-1.375.228l-.073-.343q.35-.075.7-.136l.058.35q-.343.059-.685.13zm-1.356.343l-.1-.339a27.8 27.8 0 0 1 .686-.185l.087.341c-.223.056-.448.121-.673.184zm-1.337.425l-.114-.334q.335-.115.673-.224l.108.337c-.223.069-.445.147-.666.222zm-1.322.479l-.124-.33c.221-.084.442-.165.663-.246l.121.332-.659.245zm-1.313.506l-.133-.328.66-.255.127.328zm-1.18.651l-.231-.266a3.261 3.261 0 0 1 .619-.411l.165.312a2.922 2.922 0 0 0-.552.365zM94.3-807.4v-.1a1.448 1.448 0 0 1 .084-.492 1.675 1.675 0 0 1 .077-.181l.316.156-.019.038a3.859 3.859 0 0 1 .4.047l-.065.348a2.752 2.752 0 0 0-.433-.045 1.141 1.141 0 0 0-.007.129v.077zm-1.143.14l-.167-.309a3.385 3.385 0 0 1 .687-.28l.1.339a3.118 3.118 0 0 0-.623.247zm2.964.314a.956.956 0 0 0-.205-.264 1.176 1.176 0 0 0-.218-.158l.176-.307a1.657 1.657 0 0 1 .281.2 1.376 1.376 0 0 1 .279.361zm-3.965.549l-.284-.208a3.364 3.364 0 0 1 .506-.547l.23.269a2.937 2.937 0 0 0-.455.483zm2.894.319a1.743 1.743 0 0 1-.525-.576l.307-.174a1.4 1.4 0 0 0 .418.458zm.792.26h-.044l.022-.35-.011.174.022-.174a.463.463 0 0 0 .251-.068.335.335 0 0 0 .105-.163l.335.111a.685.685 0 0 1-.222.328.722.722 0 0 1-.461.139zm-4.207.644l-.344-.075a4.063 4.063 0 0 1 .218-.7l.326.133a3.846 3.846 0 0 0-.2.644zm-.16 1.371l-.352-.018c.012-.237.028-.477.053-.714l.351.038c-.027.228-.043.46-.055.691zm-.047 1.4l-.353-.007c0-.237.01-.472.018-.707l.353.011c-.011.235-.017.47-.021.706zm-.352 1.412c0-.237-.007-.472-.007-.709h.353c0 .233 0 .468.007.7zm.051 1.416a41.783 41.783 0 0 1-.032-.707l.353-.014c.008.235.018.468.031.7zm.1 1.414c-.021-.235-.04-.472-.056-.707l.352-.025c.016.235.035.468.055.7zm.227 1.43a4.393 4.393 0 0 1-.153-.721l.349-.047a4.06 4.06 0 0 0 .14.662zm.492.861a1.725 1.725 0 0 1-.154-.181l.283-.21a1.455 1.455 0 0 0 .122.142l-.252.248" class="cls-17" transform="translate(-91.066 811.577)"/></g><g id="g3640" transform="translate(36.01 82.154)"><path id="path3642" d="M123.674-817.608l8.246 2.148-8.414-.036.168-2.112" class="cls-17" transform="translate(-123.505 817.608)"/></g><g id="g3644" transform="translate(36.005 84.299)"><path id="path3646" d="M123.495-812.881l8.414.036-7.154 3.575-1.259-3.611" class="cls-18" transform="translate(-123.495 812.881)"/></g><g id="g3648" transform="translate(35.878 84.299)"><path id="path3650" d="M123.39-811.8l8.372-1.079-8.547 3.339.175-2.26" class="cls-17" transform="translate(-123.215 812.881)"/></g><g id="g3652" transform="translate(80.612 106.188)"><path id="path3654" d="M221.818-764.633l6.318.3-6.128 1.243-.19-1.545" class="cls-17" transform="translate(-221.818 764.633)"/></g><g id="g3656" transform="translate(80.804 106.484)"><path id="path3658" d="M222.241-762.739l6.128-1.242-4.677 3.649-1.451-2.407" class="cls-18" transform="translate(-222.241 763.981)"/></g><g id="g3660" transform="translate(81 106.484)"><path id="path3662" d="M222.673-761.942l5.932-2.039-5.725 3.689-.207-1.65" class="cls-17" transform="translate(-222.673 763.981)"/></g><g id="g3664" transform="translate(74.11 108.332)"><path id="path3666" d="M213.318-759.233l-.2-.294c.2-.133.4-.258.61-.379l.176.307c-.197.114-.394.237-.586.366zm-1.109.838l-.228-.271c.182-.154.368-.3.558-.446l.213.281c-.185.139-.366.285-.543.431zm-1.017.952l-.252-.247c.166-.169.336-.336.509-.5l.241.258q-.254.237-.498.488zm-.939 1.036l-.269-.228c.153-.18.309-.36.468-.535l.262.237q-.235.256-.461.525zm-.876 1.093l-.28-.214q.215-.282.436-.558l.276.22q-.219.273-.432.552zm-.835 1.134l-.287-.207q.206-.286.416-.571l.284.209c-.139.188-.276.378-.413.568zm-.768 1.087l-.289-.2.361-.514.288.205-.36.512" class="cls-17" transform="translate(-207.486 759.906)"/></g><g id="g3668" transform="translate(40.997 124.158)"><path id="path3670" d="M138.081-720.011a1.431 1.431 0 0 1-1.43-1.431 1.43 1.43 0 0 1 1.43-1.431 1.43 1.43 0 0 1 1.431 1.431 1.431 1.431 0 0 1-1.431 1.431zm3.582-.821v-1.221h-.812a2.748 2.748 0 0 0-.381-.914l.575-.575-.863-.864-.575.575a2.808 2.808 0 0 0-.916-.381v-.811h-1.221v.811a2.851 2.851 0 0 0-.917.379l-.574-.573-.864.864.575.575a2.748 2.748 0 0 0-.381.914h-.809v1.221h.812a2.81 2.81 0 0 0 .379.918l-.574.573.864.864.574-.573a2.808 2.808 0 0 0 .917.379v.811h1.221v-.811a2.763 2.763 0 0 0 .916-.381l.575.575.863-.864-.574-.573a2.81 2.81 0 0 0 .379-.918h.812" class="cls-19" transform="translate(-134.499 725.024)"/></g><g id="g3672" transform="translate(53.793 83.263)"><path id="path3674" d="M189.652-815.163h-26.518a.431.431 0 0 0-.431.431v.5a.431.431 0 0 0 .431.431h2v22.155a.852.852 0 0 0 .852.853h.988a.852.852 0 0 0 .852-.853V-813.8h20.11v6.831h-.409a.325.325 0 0 0-.325.324v1.427a.325.325 0 0 0 .325.324h.409v.592a1.375 1.375 0 0 0-1.156 1.695 1.359 1.359 0 0 0 1.029 1 1.373 1.373 0 0 0 1.656-1.139.174.174 0 0 0-.173-.2.169.169 0 0 0-.17.143 1.028 1.028 0 0 1-1.232.858 1.021 1.021 0 0 1-.78-.781 1.025 1.025 0 0 1 1-1.246h.173v-.928h.338a.325.325 0 0 0 .325-.324v-1.427a.324.324 0 0 0-.325-.324h-.339v-6.825h1.374a.431.431 0 0 0 .431-.431v-.5a.431.431 0 0 0-.431-.431" class="cls-19" transform="translate(-162.703 815.163)"/></g><g id="g3676" transform="translate(27.463 89.993)"><path id="path3678" d="M147.826-800.33h-41.918a1.241 1.241 0 0 0-1.241 1.241v27.475a1.241 1.241 0 0 0 1.241 1.241h41.918a1.241 1.241 0 0 0 1.241-1.241v-27.475a1.241 1.241 0 0 0-1.241-1.241" class="cls-20" transform="translate(-104.667 800.33)"/></g><g id="g3680" transform="translate(28.702 91.25)"><path id="path3682" d="M149.314-771.787v-25.772H107.4v25.772h41.916" class="cls-19" transform="translate(-107.398 797.559)"/></g><g id="g3684" transform="translate(46.88 117.872)"><path id="path3686" d="M148.686-738.268a.611.611 0 0 1-.611.611.611.611 0 0 1-.611-.611.611.611 0 0 1 .611-.611.611.611 0 0 1 .611.611" class="cls-21" transform="translate(-147.465 738.879)"/></g><g id="g3688" transform="translate(49.051 117.872)"><path id="path3690" d="M153.474-738.268a.611.611 0 0 1-.611.611.611.611 0 0 1-.611-.611.611.611 0 0 1 .611-.611.611.611 0 0 1 .611.611" class="cls-21" transform="translate(-152.252 738.879)"/></g><g id="g3692" transform="translate(51.224 117.872)"><path id="path3694" d="M158.261-738.268a.611.611 0 0 1-.611.611.611.611 0 0 1-.611-.611.611.611 0 0 1 .611-.611.611.611 0 0 1 .611.611" class="cls-21" transform="translate(-157.04 738.879)"/></g><g id="g3696" transform="translate(51.487 92.433)"><path id="path3698" d="M175.723-783.587h-18.1v-11.364h18.1v11.364" class="cls-22" transform="translate(-157.62 794.951)"/></g><g id="g3700" transform="translate(52.883 93.616)"><path id="path3702" d="M167.6-792.343h-6.9v9h6.9v-9" class="cls-23" transform="translate(-160.698 792.343)"/></g><g id="g3704" transform="translate(63.356 93.616)"><path id="path3706" d="M188.35-792.343h-4.568v9h4.568v-9" class="cls-7" transform="translate(-183.782 792.343)"/></g><g id="g3708" transform="translate(51.487 104.931)"><path id="path3710" d="M166.255-762.506h-8.634v-4.9h8.634v4.9" class="cls-22" transform="translate(-157.621 767.404)"/></g><g id="g3712" transform="translate(60.956 104.931)"><path id="path3714" d="M187.127-762.506h-8.634v-4.9h8.634v4.9" class="cls-22" transform="translate(-178.493 767.404)"/></g><g id="g3716" transform="translate(51.48 110.995)"><path id="path3718" d="M166.239-749.142h-8.633v-4.9h8.633v4.9" class="cls-22" transform="translate(-157.605 754.038)"/></g><g id="g3720" transform="translate(52.233 111.808)"><path id="path3722" d="M166.4-751.646h-7.139v-.6h7.139v.6" class="cls-15" transform="translate(-159.265 752.245)"/></g><g id="g3724" transform="translate(52.228 113.139)"><path id="path3726" d="M166.394-748.712h-7.139v-.6h7.139v.6" class="cls-15" transform="translate(-159.255 749.311)"/></g><g id="g3728" transform="translate(52.239 114.396)"><path id="path3730" d="M163.155-745.939h-3.877v-.6h3.877v.6" class="cls-15" transform="translate(-159.279 746.54)"/></g><g id="g3732" transform="translate(61.506 105.818)"><path id="path3734" d="M187.255-765.448v3.488H179.7l.937-1.419 1.35.477 1.939-1.4 1.588.788 1.737-1.934" class="cls-15" transform="translate(-179.704 765.448)"/></g><g id="g3736" transform="translate(62.759 105.596)"><path id="path3738" d="M183.9-765.223a.714.714 0 0 1-.714.714.714.714 0 0 1-.714-.714.714.714 0 0 1 .714-.714.714.714 0 0 1 .714.714" class="cls-15" transform="translate(-182.467 765.937)"/></g><g id="g3740" transform="translate(68.749 101.085)"><path id="path3742" d="M201.031-775.88l-.327 1.356s-1.963.091-2.891.158a.915.915 0 0 1-.613-.175c-.339-.25-.932-.62-1.253-.412l.431.335a.814.814 0 0 1-.709.205.849.849 0 0 0 1.053.367s.985.119 1.921.317 2.8.667 3.07-.473a13.691 13.691 0 0 0 .311-1.54l-.994-.138" class="cls-24" transform="translate(-195.669 775.88)"/></g><g id="g3744" transform="translate(73.831 100.002)"><path id="path3746" d="M207.764-778.263h-.014a.658.658 0 0 0-.721.576l-.159 1.441a1.087 1.087 0 0 0 1.174.2c.029-.613.771-2.134-.281-2.212" class="cls-25" transform="translate(-206.871 778.268)"/></g><g id="g3748" transform="translate(67.701 101.011)"><path id="path3750" d="M193.8-776.043l-.44.328a23.3 23.3 0 0 0 4.1 5.551.3.3 0 0 0 .4.039.3.3 0 0 0 .078-.4 23.457 23.457 0 0 0-4.136-5.523" class="cls-26" transform="translate(-193.36 776.043)"/></g><g id="g3752" transform="translate(67.351 100.494)"><path id="path3754" d="M192.588-776.855l.358.48.441-.329-.357-.48-.442.329" class="cls-21" transform="translate(-192.588 777.184)"/></g><g id="g3756" transform="translate(65.821 98.349)"><path id="path3758" d="M191.075-780.768a.907.907 0 0 1-.066 1.269.9.9 0 0 1-1.234-.3c-.322-.433.19-1.1-.561-2.109a7.737 7.737 0 0 1 1.86 1.143" class="cls-15" transform="translate(-189.215 781.911)"/></g><g id="g3760" transform="translate(65.821 98.349)"><path id="path3762" d="M189.656-780.473a.3.3 0 0 0 .216-.255c.147.081.3-.076.215-.2-.025-.035-.071-.081-.041-.113.087 0 .158.117.239.085.121-.048.02-.192-.028-.261a.591.591 0 0 1-.086-.207c-.478-.27-.955-.49-.955-.49a2.1 2.1 0 0 1 .441 1.438" class="cls-27" transform="translate(-189.215 781.911)"/></g><g id="g3764" transform="translate(84.388 97.905)"><path id="path3766" d="M230.141-782.458l.085.405h.89l-.1-.431-.059-.344-.452-.061-.31.061-.054.37" class="cls-24" transform="translate(-230.141 782.889)"/></g><g id="g3768" transform="translate(81.092 98.323)"><path id="path3770" d="M226.965-778.66l-.79-3.135a.882.882 0 0 1 .958-.061l1.467 3.556a.469.469 0 0 1-.44.646h-5.28v-2.512s1.035-.594 4.09 1.5" class="cls-27" transform="translate(-222.876 781.969)"/></g><g id="g3772" transform="translate(84.008 96.665)"><path id="path3774" d="M229.527-784.98l2.418-.639a.148.148 0 0 1 .184.107.3.3 0 0 1-.2.346l-.156.052a.342.342 0 0 0-.11.066l-1.132 1.054a.588.588 0 0 0-.849.046 2.028 2.028 0 0 1-.373-.691.3.3 0 0 1 .218-.341" class="cls-20" transform="translate(-229.303 785.623)"/></g><g id="g3776" transform="translate(88.051 98.719)"><path id="path3778" d="M238.508-780.889l-.294.213.45.767.322-.307.266-.224-.175-.42-.21-.237-.358.207" class="cls-24" transform="translate(-238.214 781.096)"/></g><g id="g3780" transform="translate(85.667 98.941)"><path id="path3782" d="M232.96-777.044l.477-1.545 2.049-2.018a.884.884 0 0 1 .539.8l-1.963 2.579-1.1.189" class="cls-27" transform="translate(-232.96 780.607)"/></g><g id="g3784" transform="translate(88.329 98.233)"><path id="path3786" d="M239.638-782.079l1.775 1.761a.148.148 0 0 1 0 .213.3.3 0 0 1-.4 0l-.124-.109a.311.311 0 0 0-.112-.061l-1.482-.444a.586.586 0 0 0-.469-.708 2.039 2.039 0 0 1 .408-.673.294.294 0 0 1 .4.015" class="cls-20" transform="translate(-238.827 782.167)"/></g><g id="g3788" transform="translate(74.24 99.676)"><path id="path3790" d="M214.658-778.519c-2.376.423-7.044-.907-6.88-.313a3.984 3.984 0 0 1 .152 1.263 8.186 8.186 0 0 0 .256.8c0 .326.547.68.937.68a.8.8 0 0 0 .36-.1 1.274 1.274 0 0 1 .862-.143 23.133 23.133 0 0 0 4.273.334c.8-.992.041-2.525.041-2.525" class="cls-28" transform="translate(-207.773 778.987)"/></g><g id="g3792" transform="translate(71.228 99.089)"><path id="path3794" d="M204.309-779.206a1.359 1.359 0 0 1-.485-.378 8.489 8.489 0 0 0-.569-.7l-.3.015-1.816.634c-.033 1.336 1.731 2.176 2.093 1.522a.282.282 0 0 1 .231-.128l.849-.061v-.908" class="cls-24" transform="translate(-201.135 780.281)"/></g><g id="g3796" transform="translate(70.932 98.056)"><path id="path3798" d="M207.2-779.886a.574.574 0 0 1-.308.063c-1.4 0-.093 1.442-3.486-.22-.031-.015-.072-.037-.072-.074a.1.1 0 0 1 .016-.063c.093-.15.138-.37 0-.471s-.318-.011-.47.063a3 3 0 0 1-2.259.041.22.22 0 0 1-.1-.055.21.21 0 0 1-.037-.124 1.8 1.8 0 0 1 1.011-1.606 2.419 2.419 0 0 1 1.949-.041c.836.325.586.767.842.874.192.094.063-.1.44.2.542.429 1.236-.185 1.5-.235.418-.085 1.049.425 1.163.641a1.017 1.017 0 0 1-.191 1" class="cls-29" transform="translate(-200.481 782.556)"/></g><g id="g3800" transform="translate(70.337 102.416)"><path id="path3802" d="M203.94-772.78l.094 1.39s-1.65.615-2.532.972a1.159 1.159 0 0 1-.837.034c-.411-.138-.475-.376-.968-.234 0 0 .355.166.269.346s-.5.136-.8.177a.8.8 0 0 0 1.291.269s.887-.1 1.841-.189 2.868-.2 2.789-1.366a13.287 13.287 0 0 0-.164-1.564l-.988.166" class="cls-24" transform="translate(-199.17 772.946)"/></g><g id="g3804" transform="translate(74.841 101.36)"><path id="path3806" d="M209.112-774.491l.279 1.423a1.09 1.09 0 0 0 1.179-.164l-.157-1.449a.658.658 0 1 0-1.3.19" class="cls-25" transform="translate(-209.097 775.274)"/></g><g id="g3808" transform="translate(61.025 93.616)"><path id="path3810" d="M184.1-792.343v3.634a.453.453 0 0 1-.457.456.458.458 0 0 1-.464-.456v-1.431a.456.456 0 0 1-.464.459.458.458 0 0 1-.457-.459v6.795h-3.615v-9h5.457" class="cls-28" transform="translate(-178.644 792.343)"/></g><g id="g3812" transform="translate(30.15 92.433)"><path id="path3814" d="M130.585-794.951v21.086a2.343 2.343 0 0 1-2.345 2.31 2.343 2.343 0 0 1-2.345-2.31h-15.306v-21.086h20" class="cls-7" transform="translate(-110.589 794.951)"/></g><g id="g3816" transform="translate(22.623 105.596)"><path id="path3818" d="M119.183-755.73h-6.871v7.628H94v-15.321a2.516 2.516 0 0 1 2.508-2.513h17.982a2.347 2.347 0 0 1 2.346 2.347v5.513a2.347 2.347 0 0 0 2.346 2.347" class="cls-30" transform="translate(-93.997 765.937)"/></g><g id="g3820" transform="translate(22.781 105.818)"><path id="path3822" d="M112.326-763.1v15.15h-17.98v-15.15a2.347 2.347 0 0 1 2.345-2.346h17.979a2.343 2.343 0 0 0-2.345 2.346" class="cls-7" transform="translate(-94.346 765.448)"/></g><g id="g3824" transform="translate(23.89 107.741)"><path id="path3826" d="M111.775-760.579H96.791v-.631h14.984v.631" class="cls-15" transform="translate(-96.791 761.21)"/></g><g id="g3828" transform="translate(23.888 109.811)"><path id="path3830" d="M111.771-756.014H96.787v-.632h14.984v.632" class="cls-15" transform="translate(-96.787 756.646)"/></g><g id="g3832" transform="translate(23.887 111.882)"><path id="path3834" d="M111.767-751.45H96.784v-.632h14.983v.632" class="cls-15" transform="translate(-96.784 752.082)"/></g><g id="g3836" transform="translate(23.895 113.879)"><path id="path3838" d="M106.077-747.681H96.8v.631h9.276v-.631" class="cls-15" transform="translate(-96.801 747.681)"/></g><g id="g3840" transform="translate(13.709 126.376)"><path id="path3842" d="M85.25-716.837a1.1 1.1 0 0 1-1.1 1.1H78.4a1.1 1.1 0 0 1-1.1-1.1 1.1 1.1 0 0 1 1.1-1.1h-2.951a1.1 1.1 0 0 1-1.1-1.1 1.1 1.1 0 0 1 1.1-1.1H81.2a1.1 1.1 0 0 1 1.1 1.1 1.1 1.1 0 0 1-1.1 1.1h2.954a1.1 1.1 0 0 1 1.1 1.1" class="cls-17" transform="translate(-74.35 720.134)"/></g><g id="g3844" transform="translate(32.281 114.482)"><path id="path3846" d="M116.366-746.288a.051.051 0 0 0-.07-.058l-1.009.44.841.692.239-1.074" class="cls-22" transform="translate(-115.286 746.35)"/></g><g id="g3848" transform="translate(32.939 114.482)"><path id="path3850" d="M117.159-746.288a.051.051 0 0 0-.07-.058l-.35.154.338.278.083-.374" class="cls-29" transform="translate(-116.738 746.35)"/></g><g id="g3852" transform="translate(27.851 114.766)"><path id="path3854" d="M110.871-745.231l-.224.06a.046.046 0 0 1-.061-.05l.017-.232a.048.048 0 0 0-.061-.05l-.223.062a.045.045 0 0 1-.061-.05l.017-.232-.315.137-4.387 5.322a.205.205 0 0 0 .028.289l.525.432a.2.2 0 0 0 .288-.027l4.387-5.322.075-.336" class="cls-26" transform="translate(-105.522 745.725)"/></g><g id="g3856" transform="translate(27.714 119.499)"><path id="path3858" d="M105.994-735.293l-.727.882a.205.205 0 0 0 .028.289l.525.432a.2.2 0 0 0 .288-.029l.727-.88-.84-.694" class="cls-25" transform="translate(-105.22 735.293)"/></g><g id="g3860" transform="translate(28.398 119.425)"><path id="path3862" d="M107.568-734.561l.167-.2-.84-.692-.167.2.84.692" class="cls-21" transform="translate(-106.728 735.456)"/></g><g id="g3864" transform="translate(25.676 131.567)"><path id="path3866" d="M102.609-708.031h-.008c-.264-.073-.843-.268-.918-.545s-.866.037-.866.037a2.784 2.784 0 0 0-.087.809c.006.118.059.205.13.213h1.668a.263.263 0 0 0 .082-.513" class="cls-20" transform="translate(-100.728 708.692)"/></g><g id="g3868" transform="translate(22.617 131.567)"><path id="path3870" d="M95.866-708.029h-.008c-.264-.073-.843-.268-.918-.545s-.866.037-.866.037a2.78 2.78 0 0 0-.087.809c.006.118.059.207.13.213h1.668a.262.262 0 0 0 .082-.511" class="cls-20" transform="translate(-93.985 708.692)"/></g><g id="g3872" transform="translate(22.705 122.531)"><path id="path3874" d="M98.426-728.45s-.306 9.047-.323 9.053-.865 0-.865 0l-.923-6.966s-.5 2.444-.692 3.328c-.26 1.192-.56 3.638-.56 3.638h-.885s.069-2.876.127-4.214c.054-1.231-.068-4.946-.068-4.946l2-.053 2.192.16" class="cls-30" transform="translate(-94.179 728.61)"/></g><g id="g3876" transform="translate(24.12 113.731)"><path id="path3878" d="M99.257-747.926l-1.349-.081a5.066 5.066 0 0 0-.586 2.532 1.04 1.04 0 0 0 1.217-.06v-.45s.729.025.808-.235a4.427 4.427 0 0 0-.086-1.705" class="cls-24" transform="translate(-97.298 748.007)"/></g><g id="g3880" transform="translate(23.977 116.104)"><path id="path3882" d="M98.488-742.754a.1.1 0 0 0-.123 0 1.136 1.136 0 0 1-.607.165 1.136 1.136 0 0 1-.606-.165.1.1 0 0 0-.123 0 .107.107 0 0 0 .011.178 1.459 1.459 0 0 0 .72.182 1.461 1.461 0 0 0 .721-.182.107.107 0 0 0 .011-.178" class="cls-30" transform="translate(-96.983 742.776)"/></g><g id="g3884" transform="translate(23.488 112.78)"><path id="path3886" d="M97.178-750.1c-1.247.012-1.463 1.2-1.135 2.414.052.19.177.541.219.737s1.166.2 1.263.033a.774.774 0 0 0 .128-.357c.009-.138.037-.449.054-.585.116-.935.433-.092.433-.092l.12-.063a2.921 2.921 0 0 1-.009-.56.4.4 0 0 1 .185-.213.47.47 0 0 0 .179-.466c-.062-.376-.537-.86-1.436-.85" class="cls-20" transform="translate(-95.906 750.103)"/></g><g id="g3888" transform="translate(22.624 116.171)"><path id="path3890" d="M98.231-740.768l-.093-1.166a.4.4 0 0 0-.277-.351c-.394-.124-.958-.322-.958-.322a1.733 1.733 0 0 1-1.543-.021s-.362.037-.722.1a.769.769 0 0 0-.638.775l.139 5.513c.05.943 4.314.963 4.267.023l-.176-4.551" class="cls-27" transform="translate(-94 742.628)"/></g><g id="g3892" transform="translate(26.308 116.911)"><path id="path3894" d="M102.983-740.227l.8 1.13 1.989-.613a1.139 1.139 0 0 0 .664-.5c.23-.363.128-.588.6-.788 0 0-.169.351.012.435s.426.033.722-.363a.79.79 0 0 1-.824 1.017s-.742.485-1.534 1.013-1.763 1.415-2.434.47a13.3 13.3 0 0 1-.857-1.306l.863-.495" class="cls-24" transform="translate(-102.12 740.998)"/></g><g id="g3896" transform="translate(25.646 116.553)"><path id="path3898" d="M101-741.707l.012-.006a.654.654 0 0 1 .877.264l.928 1.636a1.081 1.081 0 0 1-1.009.615l-1.039-1.58a.639.639 0 0 1 .23-.929" class="cls-30" transform="translate(-100.661 741.786)"/></g><g id="g3904" transform="translate(68.087 118.838)"><path id="path3906" d="M194.224-736.279l1.191-.453a.247.247 0 0 1 .144-.012.881.881 0 0 1 .5.324l-.059.22a1.612 1.612 0 0 0-.561.039c-.469.143-1.349.152-1.213-.121" class="cls-24" transform="translate(-194.21 736.749)"/></g><g id="g3908" transform="translate(69.71 116.112)"><path id="path3910" d="M197.873-739.869l2.333-.335a.357.357 0 0 0 .277-.215l.842-1.969a.62.62 0 0 1 .8-.318.671.671 0 0 1 .28.9l-1.277 2.089a.444.444 0 0 1-.369.219l-2.939.087a.5.5 0 0 1 .049-.459" class="cls-26" transform="translate(-197.789 742.758)"/></g><g id="g3912" transform="translate(73.847 112.621)"><path id="path3914" d="M206.949-750.045s-.284 2.392.607 2.511l.177 1.2 1.062.167s-.282-.994-.109-1.3.42-.781.42-.781l-.1-1.176-.272-.524-.607-.512-1.179.407" class="cls-24" transform="translate(-206.906 750.452)"/></g><g id="g3916" transform="translate(75.005 131.627)"><path id="path3918" d="M211.881-708.442s-.662-.266-.807 0-.669.43-1.092.513-.522.16-.524.464h2.263a.249.249 0 0 0 .226-.209 1.515 1.515 0 0 0-.066-.768" class="cls-20" transform="translate(-209.458 708.561)"/></g><g id="g3920" transform="translate(72.008 131.627)"><path id="path3922" d="M205.277-708.442s-.662-.266-.807 0-.669.43-1.092.513-.522.16-.524.464h2.264a.249.249 0 0 0 .226-.209 1.515 1.515 0 0 0-.066-.768" class="cls-20" transform="translate(-202.853 708.561)"/></g><g id="g3924" transform="translate(74.772 122.45)"><path id="path3926" d="M210.959-728.587l-1.258-.079s-.8-.485-.753.475 1.812 8.677 1.812 8.677a1.321 1.321 0 0 0 .838.091c-.048-4.859-.373-8.931-.639-9.164" class="cls-27" transform="translate(-208.946 728.789)"/></g><g id="g3928" transform="translate(73.146 122.007)"><path id="path3930" d="M207.426-729.643h-1.247s-.742-.486-.811.476.514 9.183.514 9.183c.264.205.755 0 .755 0 .572-1.739.789-9.659.789-9.659" class="cls-27" transform="translate(-205.362 729.765)"/></g><g id="g3932" transform="translate(73.15 115.727)"><path id="path3934" d="M208.826-743.012c-.388-.223-.907-.513-1.016-.594a2.514 2.514 0 0 1-.684.652s-.3-.1-.372-.637c-.207.083-.458.151-.7.238a.874.874 0 0 0-.682.913c.033 1.968.03 5.507.008 5.71a7.073 7.073 0 0 0 3.634.021s.207-3.75.211-5.615a.789.789 0 0 0-.4-.687" class="cls-16" transform="translate(-205.371 743.606)"/></g><g id="g3936" transform="translate(73.558 112.297)"><path id="path3938" d="M206.431-750.851a2.705 2.705 0 0 0 1.482-.253c1.059-.477 1.912 1.919.6 3.142 0 0-.328.063-.278-.159s.426-1.229-.318-.714l-.176-.067s.654-1.022.032-.929a1.872 1.872 0 0 1-1.469-.783.144.144 0 0 1 .128-.237" class="cls-20" transform="translate(-206.269 751.167)"/></g><g id="g3940" transform="translate(63.716 112.927)"><path id="path3942" d="M191.867-749.737L185-747.163a.648.648 0 0 0-.379.835l1.263 3.371a.648.648 0 0 0 .835.38l6.871-2.574a.649.649 0 0 0 .38-.835l-1.263-3.371a.648.648 0 0 0-.835-.38" class="cls-22" transform="translate(-184.576 749.778)"/></g><g id="g3944" transform="translate(64.988 116.11)"><path id="path3946" d="M189.773-741.961a1.235 1.235 0 0 1-.723 1.59 1.236 1.236 0 0 1-1.59-.722 1.235 1.235 0 0 1 .723-1.591 1.236 1.236 0 0 1 1.59.722" class="cls-15" transform="translate(-187.38 742.762)"/></g><g id="g3948" transform="translate(67.878 114.47)"><path id="path3950" d="M197.546-745.93l-3.629 1.361-.168-.449 3.629-1.359.167.447" class="cls-15" transform="translate(-193.75 746.377)"/></g><g id="g3952" transform="translate(68.302 116.245)"><path id="path3954" d="M196.922-742.017l-2.069.775-.168-.448 2.07-.775.168.448" class="cls-15" transform="translate(-194.685 742.465)"/></g><g id="g3956" transform="translate(70.419 116.983)"><path id="path3958" d="M200.593-740.393a1.6 1.6 0 0 0-.537-.419c-.3-.1-.269.109-.067.183s.207.167.207.167c-.094.2-.543-.017-.686-.13s-.15 0-.15 0c-.1.575.6.687.94.707a.684.684 0 0 1 .336.111.772.772 0 0 1 .158-.4c-.074-.033-.144-.155-.2-.217" class="cls-24" transform="translate(-199.35 740.837)"/></g><g id="g3960" transform="translate(71.649 116.309)"><path id="path3962" d="M202.272-741.015l2.3.519a.356.356 0 0 0 .336-.105l1.487-1.54a.621.621 0 0 1 .864-.012.674.674 0 0 1-.06.944l-1.935 1.5a.443.443 0 0 1-.423.074l-2.778-.963a.5.5 0 0 1 .21-.413" class="cls-26" transform="translate(-202.062 742.323)"/></g><g id="g3964" transform="translate(18.143 98.127)"><path id="path3966" d="M91.949-781.888v3.667a.514.514 0 0 1-.513.514h-4.815l-1.715 1.339v-1.339h-.27a.513.513 0 0 1-.512-.514v-3.667a.511.511 0 0 1 .512-.512h6.8a.512.512 0 0 1 .513.512" class="cls-26" transform="translate(-84.123 782.4)"/></g><g id="g3968" transform="translate(19.507 99.31)"><path id="path3970" d="M88.283-779.792l-1.152 1.152 1.152 1.152.263-.265-.889-.888.889-.89-.263-.263" class="cls-7" transform="translate(-87.131 779.792)"/></g><g id="g3972" transform="translate(23.19 99.311)"><path id="path3974" d="M95.513-779.792l-.264.263.889.89-.889.888.264.265 1.152-1.152-1.152-1.153" class="cls-7" transform="translate(-95.249 779.792)"/></g><g id="g3976" transform="translate(21.285 98.941)"><path id="path3978" d="M91.049-777.691l.345.141 1.2-2.916-.345-.141-1.2 2.916" class="cls-7" transform="translate(-91.049 780.607)"/></g><g id="g3980" transform="translate(62.755 124.601)"><path id="path3982" d="M184.974-719.012a2.516 2.516 0 0 1-2.516-2.515 2.517 2.517 0 0 1 2.516-2.519 2.518 2.518 0 0 1 2.519 2.519 2.517 2.517 0 0 1-2.519 2.515" class="cls-25" transform="translate(-182.458 724.046)"/></g><g id="g3984" transform="translate(64.463 125.784)"><path id="path3986" d="M186.221-721.438v2.616l2.262-1.307-2.262-1.309" class="cls-7" transform="translate(-186.221 721.438)"/></g><g id="g3988" transform="translate(30.832 94.134)"><path id="path3990" d="M119.088-785.188h-7v-6.012h7v6.014" class="cls-15" transform="translate(-112.092 791.202)"/></g><g id="g3992" transform="translate(38.873 94.134)"><path id="path3994" d="M140.4-790.561h-10.584v-.641H140.4v.641" class="cls-17" transform="translate(-129.816 791.202)"/></g><g id="g3996" transform="translate(38.875 95.465)"><path id="path3998" d="M139.234-788.268h-9.414v.641h9.414v-.641" class="cls-17" transform="translate(-129.82 788.268)"/></g><g id="g4000" transform="translate(38.876 96.796)"><path id="path4002" d="M140.407-784.693h-10.583v-.641h10.582v.641" class="cls-17" transform="translate(-129.824 785.334)"/></g><g id="g4004" transform="translate(31.098 100.79)"><path id="path4006" d="M131.047-775.89h-18.369v-.642h18.368v.642" class="cls-17" transform="translate(-112.678 776.532)"/></g><g id="g4008" transform="translate(31.089 102.195)"><path id="path4010" d="M129-773.435h-16.341v.641H129v-.641" class="cls-17" transform="translate(-112.659 773.435)"/></g><g id="g4012" transform="translate(31.09 103.526)"><path id="path4014" d="M131.028-769.86h-18.366v-.641h18.366v.641" class="cls-17" transform="translate(-112.662 770.501)"/></g><g id="g4016" transform="translate(38.879 98.127)"><path id="path4018" d="M135.536-782.4h-5.707v.64h5.707v-.64" class="cls-17" transform="translate(-129.829 782.4)"/></g><g id="g4020" transform="translate(38.88 99.458)"><path id="path4022" d="M137.743-779.466h-7.91v.642h7.91v-.642" class="cls-17" transform="translate(-129.833 779.466)"/></g><g id="g4024" transform="translate(78.781 96.205)"><path id="path4026" d="M218.252-779.976a.143.143 0 0 1-.112-.053c-.737-.95-.127-2.538-.03-2.774v-3.697a.142.142 0 0 1 .141-.142.142.142 0 0 1 .141.142v3.72a.142.142 0 0 1-.012.057c-.007.015-.7 1.644-.018 2.516a.143.143 0 0 1-.025.2.142.142 0 0 1-.087.029" class="cls-29" transform="translate(-217.781 786.638)"/></g></g></g></g></svg>