<svg xmlns="http://www.w3.org/2000/svg" id="artboard-svg" width="304" height="173" viewBox="0 0 304 173"><defs><style>.cls-1 { clip-path: url(#clip-iPhone_X_XS_1); } .cls-2, .cls-3, .cls-5 { fill: #566cff; } .cls-2 { font-size: 15px; } .cls-2, .cls-5, .cls-7 { font-family: Montserrat-Regular, Montserrat; } .cls-4, .cls-8 { fill: #fff; } .cls-5 { font-size: 20px; } .cls-6 { font-family: Montserrat-Bold, Montserrat; font-weight: 700; } .cls-7 { fill: #707070; } .cls-7, .cls-8 { font-size: 13px; } .cls-8 { font-family: SegoeUI, Segoe UI; } .cls-9 { fill: #f7f8fd; } .cls-10 { fill: #bfb2df; } .cls-11 { fill: #99deef; } .cls-12 { fill: #ee9f3d; } .cls-13 { fill: #d4d3ee; } .cls-14 { fill: #a79cd6; } .cls-15 { fill: #5762b7; } .cls-16 { fill: #234465; } .cls-17 { fill: #305c78; } .cls-18 { fill: #e8eaf7; } .cls-19 { fill: #6dccd6; } .cls-20 { fill: #f5af45; } .cls-21 { fill: #e4519c; } .cls-22 { fill: #83d6e5; } .cls-23 { fill: #3e52ac; } .cls-24 { fill: #f46bac; } .cls-25 { fill: #295072; } .cls-26 { fill: #3545a2; } .cls-27 { fill: #f682b9; } .cls-28 { fill: #e49035; } .cls-29 { filter: url(#Rectangle_1-3); } .cls-30 { filter: url(#Rectangle_1-2); } .cls-31 { filter: url(#Rectangle_1); }</style><filter id="Rectangle_1" width="320" height="203" x="27" y="255" filterUnits="userSpaceOnUse"><feOffset dy="3"/><feGaussianBlur result="blur" stdDeviation="3"/><feFlood flood-opacity=".161"/><feComposite in2="blur" operator="in"/><feComposite in="SourceGraphic"/></filter><filter id="Rectangle_1-2" width="320" height="203" x="27" y="708" filterUnits="userSpaceOnUse"><feOffset dy="3"/><feGaussianBlur result="blur-2" stdDeviation="3"/><feFlood flood-opacity=".161"/><feComposite in2="blur-2" operator="in"/><feComposite in="SourceGraphic"/></filter><filter id="Rectangle_1-3" width="320" height="203" x="27" y="1180" filterUnits="userSpaceOnUse"><feOffset dy="3"/><feGaussianBlur result="blur-3" stdDeviation="3"/><feFlood flood-opacity=".161"/><feComposite in2="blur-3" operator="in"/><feComposite in="SourceGraphic"/></filter><clipPath id="clip-iPhone_X_XS_1"><path d="M0 0h375v1494H0z"/></clipPath></defs><g transform="translate(-37 -80)"><g id="iPhone_X_XS_1" class="cls-1" data-name="iPhone X/XS – 1"><g id="layer1" transform="translate(33.028 -1.382)"><g id="g16238" transform="translate(3.987 82.183)"><g id="g3616" transform="translate(13.562 18.428)"><path id="path3618" d="M335.01-654.411a138.427 138.427 0 0 0 .715-14.064 136.915 136.915 0 0 0-136.917-136.914A136.916 136.916 0 0 0 61.891-668.475a138.625 138.625 0 0 0 .715 14.064h272.4" class="cls-9" transform="translate(-61.891 805.389)"/></g><g id="g3620" transform="translate(0 168.457)"><path id="path3622" d="M353.206-706.139H53.618a.7.7 0 0 0-.7.7.7.7 0 0 0 .7.694h299.588a.694.694 0 0 0 .7-.694.7.7 0 0 0-.7-.7" class="cls-10" transform="translate(-52.919 706.139)"/></g><g id="g3624" transform="translate(159.983 123.692)"><path id="path3626" d="M169.387-711.981c-2.908-8.829-10.633-14.9-10.633-14.9a26.58 26.58 0 0 1 13.072 10.6 44.658 44.658 0 0 0-3.337-19.467c5.6 5.261 7.383 12.357 7.674 18.5a26.76 26.76 0 0 1 12.439-9.628s-7.724 6.066-10.632 14.888a20.627 20.627 0 0 1 10.632-6.4s-7.892 4.408-10.477 11.415h-8.905c-2.573-7.008-10.465-11.415-10.465-11.415a20.585 20.585 0 0 1 10.633 6.414" class="cls-11" transform="translate(-158.755 735.753)"/></g><g id="g3628" transform="translate(163.409 148.552)"><path id="path3630" d="M161.021-717.846a1.475 1.475 0 0 0 1.46 1.461h.213l3.344 15.816a1.453 1.453 0 0 0 1.46 1.194h10.061a1.452 1.452 0 0 0 1.46-1.194l3.318-15.816h.239a1.452 1.452 0 0 0 1.434-1.461 1.448 1.448 0 0 0-1.434-1.461h-20.095a1.471 1.471 0 0 0-1.46 1.461" class="cls-10" transform="translate(-161.021 719.307)"/></g><g id="g3632" transform="translate(18.228 88.008)"><path id="path3634" d="M87.307-754.492c-1.525-.127-2.229 1.711-2.293 4a13.844 13.844 0 0 0 1.568 7.042c-1.942-1.458-3.926-2.866-5.989-4.155a9.186 9.186 0 0 0 1.668-7.106c-.36-2.535-1.748-4.69-3.5-4.648-1.623.035-1.987 1.993-1.678 4.3a16.032 16.032 0 0 0 2.517 6.849q-1.632-.993-3.334-1.873a9.416 9.416 0 0 0-6.255-4.577 6.871 6.871 0 0 0-3.628.049c-.979.387-1.47.944-1.4 1.634.225 1.415 1.8 2.028 3.9 2.74a15.921 15.921 0 0 0 7.11.8q1.656.856 3.249 1.831a9.122 9.122 0 0 0-6.612 1.887c-1.747 1.338-2.682 3.021-2.178 4.063.519 1.071 2.361.634 4.463-.437 2.086-1.1 4.41-2.859 5.306-4.916 2.042 1.275 4.011 2.669 5.937 4.12a10.155 10.155 0 0 0-6.885 1c-1.975 1.063-3.211 2.556-2.757 3.7.473 1.246 2.48 1.1 4.724.3 2.244-.838 4.725-2.345 5.828-4.3 1.9 1.479 3.748 3.035 5.54 4.648-4.349-1.592-10.864 1.331-10.07 3.789.378 1.3 2.432 1.366 4.74.775 2.316-.62 4.923-1.93 6.181-3.789 1.761 1.648 3.5 3.324 5.134 5.1-4.2-1.944-10.941.423-10.349 2.944.285 1.324 2.308 1.57 4.663 1.155s5.068-1.521 6.475-3.261c1.607 1.8 3.2 3.613 4.647 5.535-4-2.338-10.9-.521-10.542 2.021.176 1.324 2.113 1.732 4.5 1.521 2.344-.225 5.168-1.049 6.746-2.634a60.08 60.08 0 0 1 3.959 6.028c-3.67-2.88-10.678-1.648-10.633.845.007 1.3 1.826 1.831 4.176 1.873 2.321.021 5.227-.387 7.021-1.718a34.582 34.582 0 0 1 2.74 6.62 8.281 8.281 0 0 0-6.175-2.732c-2.22-.042-4.009.683-4.258 1.789-.285 1.169 1.323 1.754 3.531 2.134 2.214.338 5.055.683 7.172-.085a12.538 12.538 0 0 1-.9 9.049.391.391 0 0 0 .142.5.327.327 0 0 0 .471-.155 13.233 13.233 0 0 0 .975-9.549 7.934 7.934 0 0 0 6.061-4.183c1.361-2.352 1.54-5.141.168-6.2-1.309-.993-2.813.3-4.009 2.275a19.072 19.072 0 0 0-2.5 6.972 35.453 35.453 0 0 0-2.8-6.768 8.917 8.917 0 0 0 4.915-5.409c.882-2.408.725-4.958-.739-5.662-2.744-1.31-5.266 5.634-4.749 10.064a60.6 60.6 0 0 0-4.006-6.106 9.362 9.362 0 0 0 4.156-5.993c.593-2.451.222-4.88-1.28-5.388-2.806-.951-4.715 6.134-3.584 10.465-1.466-1.944-3.066-3.775-4.685-5.585a9.55 9.55 0 0 0 3.56-6.359c.385-2.486-.187-4.817-1.706-5.2-2.857-.69-4.2 6.507-2.649 10.711-1.647-1.782-3.4-3.472-5.17-5.127a9.6 9.6 0 0 0 3.023-6.634c.194-2.521-.586-4.768-2.123-5.049-2.913-.451-3.64 6.838-1.758 10.9-1.8-1.627-3.66-3.2-5.579-4.683a9.5 9.5 0 0 0 2.444-6.873c-.031-2.528-1.047-4.732-2.636-4.88" class="cls-12" transform="translate(-64.978 759.359)"/></g><g id="g3636" transform="translate(57.678 8.953)"><path id="path3638" d="M137.929-810.4a33.762 33.762 0 0 0-2.312-.083l.005-1.174c.791 0 1.587.03 2.385.083zm-6.933.188l-.138-1.167a50.98 50.98 0 0 1 2.376-.211l.068 1.174q-1.155.069-2.302.204zm-4.583.76l-.244-1.144q1.165-.248 2.334-.452l.193 1.167q-1.144.193-2.284.43zm-4.518 1.144l-.324-1.129a84.8 84.8 0 0 1 2.285-.617l.29 1.137c-.752.188-1.5.4-2.251.61zm-4.454 1.415l-.379-1.114q1.117-.384 2.242-.745l.358 1.122c-.743.241-1.483.489-2.221.738zm-4.4 1.6l-.413-1.1c.736-.279 1.472-.549 2.211-.82l.4 1.106c-.735.263-1.469.542-2.2.813zm-4.374 1.686l-.442-1.092 2.2-.851.425 1.091zm-3.931 2.168l-.769-.888a10.879 10.879 0 0 1 2.063-1.37l.549 1.039a9.72 9.72 0 0 0-1.848 1.216zm-2.893 3.7a4.985 4.985 0 0 1-.011-.324 4.826 4.826 0 0 1 .281-1.641 5.637 5.637 0 0 1 .258-.6l1.054.519-.062.128a12.87 12.87 0 0 1 1.329.158l-.216 1.159a9.21 9.21 0 0 0-1.443-.15 3.8 3.8 0 0 0-.024.429c0 .083 0 .173.008.256zm-3.807.467l-.558-1.031a11.267 11.267 0 0 1 2.29-.933l.324 1.129a10.38 10.38 0 0 0-2.062.827zm9.876 1.046a3.189 3.189 0 0 0-.684-.881 3.92 3.92 0 0 0-.727-.527l.586-1.024a5.522 5.522 0 0 1 .935.677 4.583 4.583 0 0 1 .929 1.2zM94.7-794.4l-.948-.692a11.2 11.2 0 0 1 1.685-1.822l.767.9A9.774 9.774 0 0 0 94.7-794.4zm9.644 1.061a5.805 5.805 0 0 1-1.748-1.919l1.022-.58a4.656 4.656 0 0 0 1.392 1.528zm2.638.866l-.147-.007.073-1.167-.037.58.074-.58a1.543 1.543 0 0 0 .838-.226 1.117 1.117 0 0 0 .351-.542l1.118.369a2.283 2.283 0 0 1-.738 1.091 2.4 2.4 0 0 1-1.531.482zm-14.019 2.145l-1.148-.248a13.544 13.544 0 0 1 .726-2.341l1.086.444a12.816 12.816 0 0 0-.665 2.145zm-.532 4.569l-1.173-.06c.04-.79.093-1.588.178-2.378l1.169.128a42.755 42.755 0 0 0-.174 2.311zm-.157 4.682l-1.176-.023c.013-.79.033-1.573.059-2.356l1.176.038a89.6 89.6 0 0 0-.063 2.336zm-1.172 4.7a143.21 143.21 0 0 1-.023-2.364h1.171c0 .775.009 1.558.023 2.341zm.169 4.719a123.72 123.72 0 0 1-.105-2.356l1.176-.045c.028.783.061 1.558.1 2.341zm.331 4.712c-.069-.783-.132-1.573-.187-2.356l1.173-.083c.055.783.116 1.558.184 2.334zm.755 4.765a14.649 14.649 0 0 1-.51-2.4l1.164-.158a13.519 13.519 0 0 0 .466 2.205zm1.64 2.868a5.716 5.716 0 0 1-.512-.6l.944-.7a4.815 4.815 0 0 0 .408.474l-.84.828" class="cls-13" transform="translate(-91.075 811.657)"/></g><g id="g3640" transform="translate(106.693)"><path id="path3642" d="M124.061-817.58l27.475 7.158-28.035-.121.56-7.036" class="cls-13" transform="translate(-123.501 817.58)"/></g><g id="g3644" transform="translate(106.693 7.041)"><path id="path3646" d="M123.5-812.922l28.035.121L127.7-800.89l-4.2-12.032" class="cls-14" transform="translate(-123.501 812.922)"/></g><g id="g3648" transform="translate(106.244 7.215)"><path id="path3650" d="M123.787-809.211l27.891-3.6-28.478 11.13.583-7.53" class="cls-13" transform="translate(-123.204 812.807)"/></g><g id="g3652" transform="translate(255.331 79.969)"><path id="path3654" d="M221.831-764.677l21.052 1.007-20.419 4.141-.633-5.148" class="cls-13" transform="translate(-221.831 764.677)"/></g><g id="g3656" transform="translate(255.979 80.925)"><path id="path3658" d="M222.26-759.906l20.42-4.138-15.586 12.159-4.834-8.021" class="cls-14" transform="translate(-222.259 764.044)"/></g><g id="g3660" transform="translate(256.632 80.925)"><path id="path3662" d="M222.692-757.249l19.767-6.8-19.077 12.293-.689-5.5" class="cls-13" transform="translate(-222.692 764.044)"/></g><g id="g3664" transform="translate(233.669 87.097)"><path id="path3666" d="M226.936-757.72l-.652-.98c.661-.444 1.338-.86 2.032-1.261l.586 1.022c-.671.381-1.325.789-1.966 1.219zm-3.7 2.791l-.758-.9a43.179 43.179 0 0 1 1.858-1.487l.709.937c-.617.465-1.219.952-1.809 1.452zm-3.389 3.172l-.84-.825a53.425 53.425 0 0 1 1.7-1.663l.8.86q-.842.792-1.656 1.627zm-3.128 3.453l-.9-.761c.51-.6 1.03-1.2 1.559-1.783l.872.789q-.774.859-1.527 1.759zm-2.918 3.644l-.935-.712q.716-.941 1.454-1.861l.919.733q-.727.909-1.439 1.839zm-2.782 3.777l-.956-.691q.685-.951 1.386-1.9l.947.7c-.464.627-.923 1.262-1.376 1.9zm-2.558 3.623l-.964-.677 1.2-1.713.959.684-1.2 1.706" class="cls-13" transform="translate(-207.501 759.961)"/></g><g id="g3668" transform="translate(123.327 139.859)"><path id="path3670" d="M146.441-708.355a4.769 4.769 0 0 1-4.764-4.767 4.764 4.764 0 0 1 4.764-4.767 4.765 4.765 0 0 1 4.768 4.767 4.769 4.769 0 0 1-4.768 4.767zm11.936-2.737v-4.068h-2.706a9.158 9.158 0 0 0-1.268-3.046l1.916-1.916-2.875-2.878-1.916 1.916a9.353 9.353 0 0 0-3.051-1.271v-2.7h-4.067v2.7a9.5 9.5 0 0 0-3.056 1.264L139.442-723l-2.879 2.878 1.916 1.916a9.157 9.157 0 0 0-1.268 3.046h-2.706v4.068h2.706a9.365 9.365 0 0 0 1.264 3.059l-1.912 1.91 2.879 2.878 1.912-1.91a9.354 9.354 0 0 0 3.056 1.264v2.7h4.067v-2.7a9.2 9.2 0 0 0 3.051-1.271l1.916 1.916 2.874-2.878-1.912-1.91a9.366 9.366 0 0 0 1.264-3.059h2.706" class="cls-15" transform="translate(-134.505 725.057)"/></g><g id="g3672" transform="translate(165.97 3.564)"><path id="path3674" d="M252.513-815.222H164.15a1.436 1.436 0 0 0-1.435 1.436v1.663a1.436 1.436 0 0 0 1.436 1.437h6.65v73.825a2.839 2.839 0 0 0 2.839 2.843h3.292a2.84 2.84 0 0 0 2.84-2.843v-73.825h67.01v22.764h-1.364a1.082 1.082 0 0 0-1.083 1.081v4.755a1.082 1.082 0 0 0 1.082 1.086h1.364v1.973a4.581 4.581 0 0 0-3.852 5.647 4.528 4.528 0 0 0 3.428 3.342 4.575 4.575 0 0 0 5.519-3.8.579.579 0 0 0-.576-.658.562.562 0 0 0-.565.476 3.424 3.424 0 0 1-4.107 2.858 3.4 3.4 0 0 1-2.6-2.6 3.417 3.417 0 0 1 3.329-4.151h.578V-781h1.127a1.082 1.082 0 0 0 1.083-1.081v-4.756a1.081 1.081 0 0 0-1.082-1.081h-1.128v-22.764h4.578a1.436 1.436 0 0 0 1.436-1.436v-1.663a1.436 1.436 0 0 0-1.436-1.436" class="cls-15" transform="translate(-162.715 815.222)"/></g><g id="g3676" transform="translate(78.212 26.164)"><path id="path3678" d="M248.452-800.271H108.8a4.133 4.133 0 0 0-4.136 4.134v91.537a4.133 4.133 0 0 0 4.136 4.134h139.652a4.133 4.133 0 0 0 4.136-4.134v-91.537a4.133 4.133 0 0 0-4.136-4.134" class="cls-16" transform="translate(-104.659 800.271)"/></g><g id="g3680" transform="translate(82.342 30.336)"><path id="path3682" d="M247.044-711.644v-85.867H107.392v85.867h139.652" class="cls-15" transform="translate(-107.392 797.511)"/></g><g id="g3684" transform="translate(142.911 118.998)"><path id="path3686" d="M151.531-736.823a2.035 2.035 0 0 1-2.035 2.035 2.035 2.035 0 0 1-2.035-2.035 2.035 2.035 0 0 1 2.035-2.035 2.035 2.035 0 0 1 2.035 2.035" class="cls-17" transform="translate(-147.461 738.858)"/></g><g id="g3688" transform="translate(150.148 118.998)"><path id="path3690" d="M156.319-736.823a2.035 2.035 0 0 1-2.036 2.035 2.035 2.035 0 0 1-2.035-2.035 2.035 2.035 0 0 1 2.035-2.035 2.035 2.035 0 0 1 2.036 2.035" class="cls-17" transform="translate(-152.248 738.858)"/></g><g id="g3692" transform="translate(157.385 118.998)"><path id="path3694" d="M161.105-736.823a2.035 2.035 0 0 1-2.035 2.035 2.035 2.035 0 0 1-2.035-2.035 2.035 2.035 0 0 1 2.035-2.035 2.035 2.035 0 0 1 2.035 2.035" class="cls-17" transform="translate(-157.035 738.858)"/></g><g id="g3696" transform="translate(158.26 34.248)"><path id="path3698" d="M217.931-757.061h-60.316v-37.862h60.316v37.862" class="cls-18" transform="translate(-157.615 794.923)"/></g><g id="g3700" transform="translate(162.919 38.159)"><path id="path3702" d="M183.681-792.336H160.7v29.98h22.984v-29.98" class="cls-19" transform="translate(-160.697 792.336)"/></g><g id="g3704" transform="translate(197.813 38.159)"><path id="path3706" d="M199-792.336h-15.219v29.98H199v-29.98" class="cls-4" transform="translate(-183.781 792.336)"/></g><g id="g3708" transform="translate(158.262 75.884)"><path id="path3710" d="M186.383-751.061h-28.767v-16.318h28.767v16.318" class="cls-18" transform="translate(-157.616 767.379)"/></g><g id="g3712" transform="translate(189.811 75.884)"><path id="path3714" d="M207.255-751.061h-28.768v-16.318h28.768v16.318" class="cls-18" transform="translate(-178.487 767.379)"/></g><g id="g3716" transform="translate(158.265 95.963)"><path id="path3718" d="M186.386-737.781h-28.768V-754.1h28.768v16.315" class="cls-18" transform="translate(-157.618 754.096)"/></g><g id="g3720" transform="translate(160.759 98.745)"><path id="path3722" d="M183.056-750.261h-23.788v-2h23.788v2" class="cls-10" transform="translate(-159.268 752.256)"/></g><g id="g3724" transform="translate(160.762 103.091)"><path id="path3726" d="M183.059-747.386H159.27v-1.994h23.789v1.994" class="cls-10" transform="translate(-159.27 749.381)"/></g><g id="g3728" transform="translate(160.765 107.437)"><path id="path3730" d="M172.187-744.505h-12.916v-2h12.916v2" class="cls-10" transform="translate(-159.271 746.506)"/></g><g id="g3732" transform="translate(191.623 78.926)"><path id="path3734" d="M204.842-765.367v11.619h-25.157l3.122-4.727 4.5 1.59 6.461-4.663 5.291 2.626 5.785-6.445" class="cls-10" transform="translate(-179.685 765.367)"/></g><g id="g3736" transform="translate(195.83 78.057)"><path id="path3738" d="M187.228-763.562a2.38 2.38 0 0 1-2.38 2.38 2.38 2.38 0 0 1-2.38-2.38 2.38 2.38 0 0 1 2.38-2.38 2.38 2.38 0 0 1 2.38 2.38" class="cls-10" transform="translate(-182.469 765.942)"/></g><g id="g3740" transform="translate(215.81 62.932)"><path id="path3742" d="M213.553-775.947l-1.09 4.519s-6.543.3-9.632.525a3.047 3.047 0 0 1-2.043-.583c-1.13-.835-3.105-2.065-4.176-1.374l1.436 1.115a2.713 2.713 0 0 1-2.364.684 2.83 2.83 0 0 0 3.509 1.223s3.282.4 6.4 1.058 9.316 2.224 10.231-1.576a45.619 45.619 0 0 0 1.038-5.131l-3.311-.461" class="cls-20" transform="translate(-195.686 775.947)"/></g><g id="g3744" transform="translate(232.709 59.455)"><path id="path3746" d="M209.842-778.233l-.046-.007a2.193 2.193 0 0 0-2.4 1.92l-.528 4.8a3.621 3.621 0 0 0 3.911.657c.1-2.043 2.57-7.11-.935-7.369" class="cls-21" transform="translate(-206.865 778.248)"/></g><g id="g3748" transform="translate(212.302 62.759)"><path id="path3750" d="M194.833-776.062l-1.467 1.094c5.546 9.493 6.444 10.594 13.651 18.5a1 1 0 0 0 1.339.13 1 1 0 0 0 .259-1.317c-5.5-9.176-6.291-10.349-13.782-18.4" class="cls-22" transform="translate(-193.365 776.062)"/></g><g id="g3752" transform="translate(211.115 61.107)"><path id="path3754" d="M192.58-776.06l1.191 1.6 1.471-1.1-1.191-1.6-1.472 1.1" class="cls-17" transform="translate(-192.58 777.155)"/></g><g id="g3756" transform="translate(206.035 53.892)"><path id="path3758" d="M195.416-778.121a3.023 3.023 0 0 1-.218 4.227 3.012 3.012 0 0 1-4.11-1.008c-1.074-1.443.632-3.669-1.868-7.027 0 0 5.122 2.364 6.2 3.807" class="cls-10" transform="translate(-189.219 781.928)"/></g><g id="g3760" transform="translate(206.035 53.892)"><path id="path3762" d="M190.688-777.134a1 1 0 0 0 .719-.849c.49.268 1-.254.716-.66-.085-.116-.238-.268-.136-.377.291.007.526.392.8.283.4-.16.065-.638-.094-.87a1.972 1.972 0 0 1-.286-.689 49.44 49.44 0 0 0-3.183-1.632 7 7 0 0 1 1.468 4.793" class="cls-23" transform="translate(-189.219 781.928)"/></g><g id="g3764" transform="translate(267.899 52.415)"><path id="path3766" d="M230.145-781.468l.283 1.351h2.964l-.335-1.438-.2-1.147-1.505-.2-1.032.2-.18 1.234" class="cls-20" transform="translate(-230.145 782.905)"/></g><g id="g3768" transform="translate(256.897 53.878)"><path id="path3770" d="M236.493-770.913l-2.633-10.444a2.939 2.939 0 0 1 3.193-.2l4.872 11.858a1.564 1.564 0 0 1-1.466 2.154h-17.592v-8.369s3.45-1.98 13.626 5" class="cls-23" transform="translate(-222.867 781.937)"/></g><g id="g3772" transform="translate(266.653 48.211)"><path id="path3774" d="M230.067-783.541l8.057-2.128a.492.492 0 0 1 .614.357 1.006 1.006 0 0 1-.667 1.151l-.52.175a1.146 1.146 0 0 0-.365.219l-3.773 3.512a1.959 1.959 0 0 0-2.829.153 6.756 6.756 0 0 1-1.244-2.3.986.986 0 0 1 .726-1.137" class="cls-16" transform="translate(-229.321 785.686)"/></g><g id="g3776" transform="translate(280.082 55.196)"><path id="path3778" d="M239.185-780.377l-.98.71 1.5 2.557 1.072-1.021.885-.746-.582-1.4-.7-.79-1.194.688" class="cls-20" transform="translate(-238.205 781.065)"/></g><g id="g3780" transform="translate(272.127 55.978)"><path id="path3782" d="M232.942-768.676l1.589-5.147 6.827-6.725a2.945 2.945 0 0 1 1.8 2.649l-6.54 8.592-3.671.63" class="cls-23" transform="translate(-232.942 780.548)"/></g><g id="g3784" transform="translate(281.066 53.39)"><path id="path3786" d="M241.557-781.967l5.916 5.869a.492.492 0 0 1 0 .711 1.011 1.011 0 0 1-1.332.014l-.414-.363a1.035 1.035 0 0 0-.372-.2l-4.938-1.48a1.952 1.952 0 0 0-1.563-2.358 6.792 6.792 0 0 1 1.359-2.242.98.98 0 0 1 1.343.051" class="cls-16" transform="translate(-238.856 782.26)"/></g><g id="g3788" transform="translate(234.088 58.311)"><path id="path3790" d="M230.717-777.444c-7.916 1.411-23.47-3.023-22.925-1.042a13.279 13.279 0 0 1 .507 4.21 27.284 27.284 0 0 0 .854 2.662c0 1.085 1.822 2.264 3.12 2.264a2.65 2.65 0 0 0 1.2-.318 4.247 4.247 0 0 1 2.872-.477 77.075 77.075 0 0 0 14.237 1.114c2.673-3.306.135-8.412.135-8.412" class="cls-24" transform="translate(-207.778 779.005)"/></g><g id="g3792" transform="translate(224.038 56.413)"><path id="path3794" d="M211.7-776.678a4.533 4.533 0 0 1-1.617-1.259 28.249 28.249 0 0 0-1.9-2.323l-1.009.051-6.051 2.113c-.111 4.45 5.768 7.25 6.975 5.072a.938.938 0 0 1 .769-.427l2.83-.2v-3.025" class="cls-20" transform="translate(-201.129 780.26)"/></g><g id="g3796" transform="translate(223.039 53.019)"><path id="path3798" d="M222.85-773.609a1.914 1.914 0 0 1-1.026.211c-4.653 0-.309 4.8-11.614-.733-.1-.051-.24-.123-.24-.247a.328.328 0 0 1 .054-.21c.308-.5.459-1.234 0-1.568-.438-.356-1.06-.036-1.567.211a10 10 0 0 1-7.528.138.733.733 0 0 1-.336-.182.7.7 0 0 1-.123-.414 5.981 5.981 0 0 1 3.367-5.349 8.057 8.057 0 0 1 6.495-.138c2.784 1.081 1.953 2.555 2.805 2.911.641.312.21-.334 1.465.675 1.805 1.43 4.119-.617 5.01-.784 1.394-.283 3.494 1.416 3.874 2.134a3.389 3.389 0 0 1-.637 3.346" class="cls-25" transform="translate(-200.468 782.505)"/></g><g id="g3800" transform="translate(221.103 67.365)"><path id="path3802" d="M215.083-772.463l.312 4.631s-5.5 2.05-8.438 3.24a3.865 3.865 0 0 1-2.789.115c-1.371-.459-1.581-1.255-3.227-.781 0 0 1.183.552.9 1.154s-1.661.451-2.65.588c0 0 1.555 3.133 4.3.9 0 0 2.956-.323 6.135-.631s9.557-.667 9.3-4.552a44.249 44.249 0 0 0-.546-5.212l-3.292.552" class="cls-20" transform="translate(-199.187 773.015)"/></g><g id="g3804" transform="translate(236.067 64.008)"><path id="path3806" d="M209.136-772.627l.929 4.743a3.633 3.633 0 0 0 3.929-.547l-.525-4.829c-.292-3.138-4.909-2.245-4.333.633" class="cls-21" transform="translate(-209.087 775.236)"/></g><g id="g3808" transform="translate(190.047 38.159)"><path id="path3810" d="M196.821-792.336v12.109a1.508 1.508 0 0 1-1.523 1.521 1.527 1.527 0 0 1-1.545-1.521V-785a1.518 1.518 0 0 1-1.545 1.528 1.528 1.528 0 0 1-1.521-1.528v22.639h-12.044v-29.98h18.179" class="cls-24" transform="translate(-178.643 792.336)"/></g><g id="g3812" transform="translate(87.181 34.161)"><path id="path3814" d="M177.223-794.981v70.26a7.808 7.808 0 0 1-7.813 7.7 7.808 7.808 0 0 1-7.814-7.7h-51v-70.26h66.629" class="cls-4" transform="translate(-110.593 794.981)"/></g><g id="g3816" transform="translate(62.085 78.144)"><path id="path3818" d="M177.9-731.877h-22.891v25.413H93.991v-51.046a8.382 8.382 0 0 1 8.357-8.374h59.919a7.818 7.818 0 0 1 7.817 7.82v18.364a7.818 7.818 0 0 0 7.817 7.82" class="cls-26" transform="translate(-93.991 765.884)"/></g><g id="g3820" transform="translate(62.639 78.665)"><path id="path3822" d="M154.271-757.723v50.484H94.358v-50.484a7.821 7.821 0 0 1 7.815-7.817h59.913a7.808 7.808 0 0 0-7.815 7.817" class="cls-4" transform="translate(-94.358 765.539)"/></g><g id="g3824" transform="translate(66.321 85.185)"><path id="path3826" d="M146.721-759.123H96.793v-2.1h49.928v2.1" class="cls-10" transform="translate(-96.793 761.227)"/></g><g id="g3828" transform="translate(66.319 92.052)"><path id="path3830" d="M146.72-754.579H96.792v-2.105h49.928v2.105" class="cls-10" transform="translate(-96.792 756.684)"/></g><g id="g3832" transform="translate(66.318 98.919)"><path id="path3834" d="M146.719-750.034H96.791v-2.107h49.928v2.107" class="cls-10" transform="translate(-96.791 752.141)"/></g><g id="g3836" transform="translate(66.317 105.786)"><path id="path3838" d="M127.695-747.6h-30.9v2.1h30.9v-2.1" class="cls-10" transform="translate(-96.791 747.598)"/></g><g id="g3840" transform="translate(32.401 147.248)"><path id="path3842" d="M110.673-709.183a3.667 3.667 0 0 1-3.662 3.66H87.857a3.666 3.666 0 0 1-3.662-3.66 3.666 3.666 0 0 1 3.662-3.66h-9.841a3.672 3.672 0 0 1-3.662-3.667 3.666 3.666 0 0 1 3.662-3.66h19.153a3.667 3.667 0 0 1 3.662 3.66 3.672 3.672 0 0 1-3.662 3.667h9.842a3.667 3.667 0 0 1 3.662 3.66" class="cls-13" transform="translate(-74.354 720.169)"/></g><g id="g3844" transform="translate(94.292 107.565)"><path id="path3846" d="M118.895-746.213a.17.17 0 0 0-.235-.194l-3.363 1.468 2.8 2.305.8-3.579" class="cls-18" transform="translate(-115.297 746.421)"/></g><g id="g3848" transform="translate(96.487 107.565)"><path id="path3850" d="M118.152-746.213a.17.17 0 0 0-.235-.194l-1.168.512 1.126.928.277-1.246" class="cls-25" transform="translate(-116.749 746.421)"/></g><g id="g3852" transform="translate(79.511 108.654)"><path id="path3854" d="M123.34-744.055l-.016.007-.745.2a.153.153 0 0 1-.2-.166l.057-.774a.161.161 0 0 0-.2-.166l-.743.208a.15.15 0 0 1-.2-.166l.057-.775v-.014l-1.051.456-14.617 17.731a.684.684 0 0 0 .092.961l1.749 1.438a.678.678 0 0 0 .959-.09l14.617-17.731.25-1.12" class="cls-22" transform="translate(-105.519 745.701)"/></g><g id="g3856" transform="translate(79.059 124.387)"><path id="path3858" d="M107.8-735.293l-2.423 2.939a.684.684 0 0 0 .093.961l1.748 1.439a.68.68 0 0 0 .959-.1l2.422-2.932-2.8-2.312" class="cls-21" transform="translate(-105.22 735.293)"/></g><g id="g3860" transform="translate(81.34 124.126)"><path id="path3862" d="M109.529-732.485l.555-.675-2.8-2.305-.555.675 2.8 2.305" class="cls-17" transform="translate(-106.729 735.465)"/></g><g id="g3864" transform="translate(72.274 164.566)"><path id="path3866" d="M107-706.512l-.026-.007c-.88-.243-2.809-.894-3.06-1.815s-2.886.125-2.886.125a9.278 9.278 0 0 0-.291 2.7c.018.395.2.684.433.71h5.557a.876.876 0 0 0 .272-1.71" class="cls-16" transform="translate(-100.731 708.713)"/></g><g id="g3868" transform="translate(62.081 164.566)"><path id="path3870" d="M100.255-706.506l-.026-.013c-.88-.243-2.809-.894-3.06-1.815s-2.885.125-2.885.125a9.263 9.263 0 0 0-.291 2.7c.018.395.2.691.433.71h5.557a.873.873 0 0 0 .272-1.7" class="cls-16" transform="translate(-93.988 708.713)"/></g><g id="g3872" transform="translate(62.383 134.383)"><path id="path3874" d="M108.339-728.146s-1.021 30.146-1.077 30.166-2.883 0-2.883 0l-3.074-23.212S99.643-713.049 99-710.1c-.865 3.973-1.865 12.123-1.865 12.123h-2.947s.229-9.582.422-14.042c.178-4.1-.226-16.482-.226-16.482l6.65-.176 7.3.534" class="cls-26" transform="translate(-94.188 728.68)"/></g><g id="g3876" transform="translate(67.094 105.09)"><path id="path3878" d="M103.832-747.788l-4.5-.271c-.789 1.887-2.407 5.293-1.951 8.436a3.464 3.464 0 0 0 4.055-.2l-.014-1.5s2.428.083 2.693-.784a14.754 14.754 0 0 0-.287-5.682" class="cls-20" transform="translate(-97.305 748.058)"/></g><g id="g3880" transform="translate(66.614 113.022)"><path id="path3882" d="M102-742.737a.347.347 0 0 0-.411-.014 3.787 3.787 0 0 1-2.021.551 3.784 3.784 0 0 1-2.02-.551.347.347 0 0 0-.411.014h-.006a.356.356 0 0 0 .037.592 4.864 4.864 0 0 0 2.4.606 4.869 4.869 0 0 0 2.4-.606.357.357 0 0 0 .037-.592" class="cls-26" transform="translate(-96.987 742.811)"/></g><g id="g3884" transform="translate(64.98 101.995)"><path id="path3886" d="M100.144-750.105c-4.154.042-4.874 3.993-3.78 8.042.173.633.591 1.8.73 2.455.146.682 3.887.668 4.207.111a2.577 2.577 0 0 0 .426-1.19c.031-.459.122-1.5.179-1.948.387-3.116 1.441-.306 1.441-.306l.4-.209a9.732 9.732 0 0 1-.031-1.864 1.328 1.328 0 0 1 .617-.709 1.565 1.565 0 0 0 .6-1.551c-.207-1.252-1.789-2.866-4.786-2.831" class="cls-16" transform="translate(-95.906 750.106)"/></g><g id="g3888" transform="translate(62.093 113.348)"><path id="path3890" d="M108.093-736.4l-.309-3.884a1.334 1.334 0 0 0-.921-1.171c-1.312-.413-3.191-1.074-3.191-1.074a5.775 5.775 0 0 1-5.142-.069s-1.205.124-2.406.338A2.562 2.562 0 0 0 94-739.676l.463 18.367c.166 3.14 14.375 3.209 14.218.076l-.585-15.164" class="cls-23" transform="translate(-93.996 742.596)"/></g><g id="g3892" transform="translate(74.358 115.869)"><path id="path3894" d="M104.986-738.358l2.671 3.766s3.62-1.113 6.626-2.041a3.794 3.794 0 0 0 2.213-1.67c.767-1.209.428-1.958 1.989-2.625 0 0-.562 1.168.04 1.45s1.419.11 2.406-1.209c0 0 .771 3.387-2.746 3.387 0 0-2.474 1.615-5.109 3.374s-5.872 4.714-8.11 1.567a44.306 44.306 0 0 1-2.854-4.349l2.876-1.649" class="cls-20" transform="translate(-102.11 740.928)"/></g><g id="g3896" transform="translate(72.177 114.504)"><path id="path3898" d="M101.805-741.567l.041-.021a2.178 2.178 0 0 1 2.922.881l3.092 5.45a3.6 3.6 0 0 1-3.362 2.051l-3.461-5.264a2.13 2.13 0 0 1 .767-3.1" class="cls-26" transform="translate(-100.667 741.831)"/></g><g id="g3900" transform="translate(233.922 83.665)"><path id="path3902" d="M258.068-740.321c-.1-1.527-2.015-1.958-4.289-1.7a13.827 13.827 0 0 0-6.746 2.566c1.165-2.128 2.271-4.3 3.251-6.525a9.2 9.2 0 0 0 7.276.629c2.451-.721 4.387-2.4 4.091-4.128-.269-1.6-2.253-1.676-4.5-1.039a16.078 16.078 0 0 0-6.411 3.471q.75-1.761 1.373-3.57a9.4 9.4 0 0 0 3.632-6.85 6.892 6.892 0 0 0-.574-3.577c-.523-.919-1.146-1.322-1.821-1.152-1.365.424-1.747 2.071-2.148 4.249a15.99 15.99 0 0 0 .227 7.154q-.605 1.761-1.339 3.478a9.172 9.172 0 0 0-2.821-6.278c-1.578-1.534-3.377-2.213-4.336-1.569-.986.672-.289 2.432 1.075 4.355 1.389 1.909 3.466 3.952 5.629 4.546-.969 2.206-2.066 4.355-3.222 6.469a10.187 10.187 0 0 0-1.983-6.674c-1.333-1.8-2.988-2.807-4.06-2.191-1.164.65-.729 2.609.38 4.715 1.15 2.107 3 4.341 5.1 5.154a102.692 102.692 0 0 1-3.8 6.151c.952-4.532-2.88-10.562-5.194-9.424-1.241.566-1 2.609-.088 4.807.949 2.2 2.621 4.6 4.639 5.571-1.378 1.979-2.784 3.938-4.3 5.811 1.316-4.432-1.993-10.767-4.4-9.82-1.27.474-1.227 2.517-.478 4.786s2.239 4.793 4.164 5.939c-1.547 1.845-3.116 3.683-4.81 5.394 1.74-4.3-1.057-10.859-3.519-10.145-1.285.368-1.413 2.34-.855 4.673.554 2.284 1.775 4.963 3.573 6.3a60.011 60.011 0 0 1-5.4 4.786c2.321-4.051.094-10.809-2.365-10.406-1.285.2-1.551 2.071-1.253 4.4.313 2.3 1.137 5.118 2.712 6.7a34.827 34.827 0 0 1-6.16 3.662 8.283 8.283 0 0 0 1.815-6.5c-.274-2.2-1.248-3.867-2.377-3.959-1.2-.113-1.549 1.562-1.61 3.8-.012 2.241.059 5.1 1.119 7.084a12.547 12.547 0 0 1-9.084.417.4.4 0 0 0-.478.212.333.333 0 0 0 .222.445 13.248 13.248 0 0 0 9.591-.41 7.937 7.937 0 0 0 5.014 5.394c2.525 1.011 5.307.785 6.164-.728.8-1.435-.7-2.743-2.83-3.641a19.052 19.052 0 0 0-7.259-1.463 35.261 35.261 0 0 0 6.295-3.747 8.939 8.939 0 0 0 6.06 4.086c2.515.523 5.014.007 5.5-1.548.9-2.906-6.339-4.4-10.643-3.252a59.927 59.927 0 0 0 5.461-4.843A9.363 9.363 0 0 0 237.8-715c2.508.233 4.857-.481 5.148-2.043.535-2.913-6.751-3.782-10.872-2.043 1.71-1.725 3.292-3.577 4.85-5.436a9.559 9.559 0 0 0 6.8 2.609c2.52.021 4.74-.877 4.9-2.439.266-2.927-7.047-3.217-10.986-1.082 1.531-1.88 2.946-3.86 4.334-5.853a9.534 9.534 0 0 0 7 2.036c2.522-.17 4.637-1.265 4.691-2.828.025-2.948-7.291-2.616-11.039-.17a97.966 97.966 0 0 0 3.831-6.193 9.494 9.494 0 0 0 7.151 1.428c2.5-.4 4.537-1.718 4.454-3.308" class="cls-12" transform="translate(-207.668 762.232)"/></g><g id="g3904" transform="translate(213.59 122.143)"><path id="path3906" d="M194.265-735.208l3.968-1.51a.824.824 0 0 1 .48-.041 2.938 2.938 0 0 1 1.651 1.079l-.188.745a5.376 5.376 0 0 0-1.87.13c-1.563.478-4.5.506-4.041-.4" class="cls-20" transform="translate(-194.218 736.777)"/></g><g id="g3908" transform="translate(219.029 112.95)"><path id="path3910" d="M198.1-733.233l7.776-1.116a1.189 1.189 0 0 0 .922-.717l2.807-6.56a2.067 2.067 0 0 1 2.676-1.061 2.236 2.236 0 0 1 .933 3l-4.254 6.96a1.479 1.479 0 0 1-1.229.73l-9.795.289a1.658 1.658 0 0 1 .165-1.53" class="cls-22" transform="translate(-197.816 742.859)"/></g><g id="g3912" transform="translate(232.779 101.439)"><path id="path3914" d="M207.055-749.116s-.946 7.969 2.024 8.365l.591 4.009 3.54.557s-.938-3.313-.365-4.315 1.4-2.6 1.4-2.6l-.331-3.918-.907-1.747-2.022-1.705-3.929 1.357" class="cls-20" transform="translate(-206.912 750.474)"/></g><g id="g3916" transform="translate(236.634 164.778)"><path id="path3918" d="M217.536-708.178s-2.205-.888-2.69 0-2.229 1.433-3.639 1.709-1.741.532-1.745 1.545H217a.83.83 0 0 0 .751-.7 5.049 5.049 0 0 0-.22-2.557" class="cls-16" transform="translate(-209.462 708.573)"/></g><g id="g3920" transform="translate(226.649 164.778)"><path id="path3922" d="M210.931-708.178s-2.2-.888-2.69 0-2.23 1.433-3.639 1.709-1.741.532-1.746 1.545h7.544a.83.83 0 0 0 .751-.7 5.048 5.048 0 0 0-.22-2.557" class="cls-16" transform="translate(-202.857 708.573)"/></g><g id="g3924" transform="translate(235.884 134.114)"><path id="path3926" d="M215.673-728.185l-4.191-.264s-2.667-1.617-2.51 1.583 6.038 28.914 6.038 28.914a4.4 4.4 0 0 0 2.793.3c-.159-16.193-1.242-29.76-2.13-30.538" class="cls-23" transform="translate(-208.966 728.858)"/></g><g id="g3928" transform="translate(230.466 132.638)"><path id="path3930" d="M212.257-729.425H208.1s-2.472-1.619-2.7 1.586 1.714 30.6 1.714 30.6c.879.684 2.515 0 2.515 0 1.906-5.793 2.628-32.185 2.628-32.185" class="cls-23" transform="translate(-205.382 729.834)"/></g><g id="g3932" transform="translate(230.46 111.783)"><path id="path3934" d="M216.89-741.651c-1.292-.745-3.022-1.71-3.385-1.979a8.381 8.381 0 0 1-2.279 2.172s-1.007-.331-1.239-2.124c-.689.276-1.527.5-2.337.793a2.911 2.911 0 0 0-2.271 3.041c.109 6.558.1 18.351.028 19.027-.113.524 9.484 1.579 12.108.069 0 0 .689-12.5.7-18.71a2.629 2.629 0 0 0-1.328-2.29" class="cls-11" transform="translate(-205.378 743.631)"/></g><g id="g3936" transform="translate(231.831 100.302)"><path id="path3938" d="M206.826-750.175a9.015 9.015 0 0 0 4.94-.844c3.53-1.59 6.37 6.4 1.994 10.47 0 0-1.093.209-.928-.53s1.419-4.095-1.059-2.379l-.587-.223s2.178-3.4.107-3.1c-1.712.258-3.749-1.207-4.894-2.609a.481.481 0 0 1 .428-.788" class="cls-16" transform="translate(-206.285 751.226)"/></g><g id="g3940" transform="translate(199.013 102.501)"><path id="path3942" d="M208.869-749.633l-22.893 8.575a2.159 2.159 0 0 0-1.264 2.782l4.207 11.232a2.16 2.16 0 0 0 2.781 1.266l22.893-8.575a2.161 2.161 0 0 0 1.266-2.782l-4.208-11.232a2.16 2.16 0 0 0-2.781-1.266" class="cls-18" transform="translate(-184.574 749.771)"/></g><g id="g3944" transform="translate(203.231 113.188)"><path id="path3946" d="M195.336-740.033a4.115 4.115 0 0 1-2.41 5.3 4.117 4.117 0 0 1-5.3-2.4 4.116 4.116 0 0 1 2.41-5.3 4.117 4.117 0 0 1 5.3 2.405" class="cls-10" transform="translate(-187.365 742.701)"/></g><g id="g3948" transform="translate(212.889 107.611)"><path id="path3950" d="M206.4-744.9l-12.09 4.534-.559-1.5 12.092-4.527.558 1.488" class="cls-10" transform="translate(-193.753 746.391)"/></g><g id="g3952" transform="translate(214.326 113.435)"><path id="path3954" d="M202.159-741.044l-6.9 2.582-.559-1.494 6.9-2.582.558 1.494" class="cls-10" transform="translate(-194.704 742.538)"/></g><g id="g3956" transform="translate(221.343 116.024)"><path id="path3958" d="M203.49-739.343a5.33 5.33 0 0 0-1.79-1.395c-.991-.33-.9.364-.224.612s.689.557.689.557c-.315.68-1.809-.055-2.287-.433s-.5-.014-.5-.014c-.322 1.917 1.987 2.288 3.132 2.357a2.28 2.28 0 0 1 1.121.371 2.572 2.572 0 0 1 .528-1.333c-.248-.11-.479-.516-.667-.722" class="cls-20" transform="translate(-199.346 740.825)"/></g><g id="g3960" transform="translate(225.43 113.823)"><path id="path3962" d="M202.751-737.924l7.662 1.728a1.185 1.185 0 0 0 1.118-.351l4.954-5.129a2.069 2.069 0 0 1 2.879-.041 2.245 2.245 0 0 1-.2 3.147l-6.448 4.985a1.474 1.474 0 0 1-1.41.248l-9.257-3.208a1.673 1.673 0 0 1 .7-1.377" class="cls-22" transform="translate(-202.05 742.281)"/></g><g id="g3964" transform="translate(47.176 53.11)"><path id="path3966" d="M110.2-780.74v12.219a1.713 1.713 0 0 1-1.708 1.712H92.45l-5.716 4.463v-4.463h-.9a1.71 1.71 0 0 1-1.707-1.712v-12.219a1.7 1.7 0 0 1 1.707-1.705H108.5a1.707 1.707 0 0 1 1.708 1.705" class="cls-22" transform="translate(-84.128 782.445)"/></g><g id="g3968" transform="translate(51.716 57.108)"><path id="path3970" d="M90.971-779.8l-3.839 3.84 3.839 3.84.878-.882-2.961-2.958 2.961-2.965-.878-.875" class="cls-4" transform="translate(-87.131 779.8)"/></g><g id="g3972" transform="translate(63.988 57.109)"><path id="path3974" d="M96.129-779.8l-.879.875 2.961 2.965L95.25-773l.879.882 3.838-3.84-3.838-3.84" class="cls-4" transform="translate(-95.25 779.8)"/></g><g id="g3976" transform="translate(57.648 55.805)"><path id="path3978" d="M91.055-770.947l1.15.471 3.988-9.716-1.15-.471-3.988 9.716" class="cls-4" transform="translate(-91.055 780.663)"/></g><g id="g3980" transform="translate(195.827 141.337)"><path id="path3982" d="M190.85-707.306a8.384 8.384 0 0 1-8.383-8.38 8.386 8.386 0 0 1 8.383-8.394 8.389 8.389 0 0 1 8.392 8.394 8.386 8.386 0 0 1-8.392 8.38" class="cls-21" transform="translate(-182.467 724.079)"/></g><g id="g3984" transform="translate(201.479 145.423)"><path id="path3986" d="M186.206-721.377v8.717l7.535-4.355-7.535-4.362" class="cls-4" transform="translate(-186.206 721.377)"/></g><g id="g3988" transform="translate(89.456 39.811)"><path id="path3990" d="M135.411-771.2H112.1v-20.039h23.313v20.039" class="cls-10" transform="translate(-112.098 791.243)"/></g><g id="g3992" transform="translate(116.249 39.811)"><path id="path3994" d="M165.082-789.108h-35.259v-2.135h35.259v2.135" class="cls-13" transform="translate(-129.823 791.243)"/></g><g id="g3996" transform="translate(116.256 44.244)"><path id="path3998" d="M161.194-788.311h-31.367v2.135h31.367v-2.135" class="cls-13" transform="translate(-129.827 788.311)"/></g><g id="g4000" transform="translate(116.248 48.764)"><path id="path4002" d="M165.082-783.187h-35.26v-2.134h35.259v2.134" class="cls-13" transform="translate(-129.822 785.32)"/></g><g id="g4004" transform="translate(90.318 62.15)"><path id="path4006" d="M173.866-774.326h-61.2v-2.139h61.2v2.139" class="cls-13" transform="translate(-112.668 776.465)"/></g><g id="g4008" transform="translate(90.325 66.583)"><path id="path4010" d="M167.114-773.532h-54.441v2.138h54.441v-2.138" class="cls-13" transform="translate(-112.673 773.532)"/></g><g id="g4012" transform="translate(90.318 71.103)"><path id="path4014" d="M173.865-768.406h-61.2v-2.137h61.2v2.137" class="cls-13" transform="translate(-112.668 770.542)"/></g><g id="g4016" transform="translate(116.256 53.197)"><path id="path4018" d="M148.843-782.388h-19.016v2.133h19.016v-2.133" class="cls-13" transform="translate(-129.827 782.388)"/></g><g id="g4020" transform="translate(116.262 57.63)"><path id="path4022" d="M156.186-779.455h-26.355v2.14h26.355v-2.14" class="cls-13" transform="translate(-129.831 779.455)"/></g><g id="g4024" transform="translate(249.187 46.851)"><path id="path4026" d="M219.336-764.388a.475.475 0 0 1-.373-.175c-2.457-3.166-.422-8.454-.1-9.242v-12.306a.473.473 0 0 1 .471-.474.472.472 0 0 1 .47.474v12.394a.478.478 0 0 1-.039.19c-.023.051-2.323 5.478-.06 8.382a.475.475 0 0 1-.082.664.473.473 0 0 1-.289.1" class="cls-25" transform="translate(-217.767 786.586)"/></g></g></g></g></g></svg>