<svg xmlns="http://www.w3.org/2000/svg" id="artboard-svg" width="32" height="31" viewBox="0 0 32 31" style="width:562.5px"><defs><style>.cls-1 { clip-path: url(#clip-Mobile_Page_-_2); } .cls-2 { fill: #eee; } .cls-3, .cls-4, .cls-5 { fill: #bdbdbd; } .cls-4 { fill-rule: evenodd; } .cls-5, .cls-6 { font-size: 10px; } .cls-31, .cls-32, .cls-5, .cls-6, .cls-8 { font-family: ArialMT, Arial; } .cls-6, .cls-8, .cls-9 { fill: #534daa; } .cls-7 { fill: #fff; } .cls-8 { font-size: 20px; } .cls-10 { fill: #e3e8e6; } .cls-11 { fill: #b3bad3; } .cls-12 { fill: #213760; } .cls-13 { fill: none; stroke: #eee; } .cls-14 { fill: #f7f8fd; } .cls-15 { fill: #bfb2df; } .cls-16 { fill: #99deef; } .cls-17 { fill: #d4d3ee; } .cls-18 { fill: #a79cd6; } .cls-19 { fill: #5762b7; } .cls-20 { fill: #234465; } .cls-21 { fill: #305c78; } .cls-22 { fill: #e8eaf7; } .cls-23 { fill: #6dccd6; } .cls-24 { fill: #f5af45; } .cls-25 { fill: #e4519c; } .cls-26 { fill: #83d6e5; } .cls-27 { fill: #3e52ac; } .cls-28 { fill: #f46bac; } .cls-29 { fill: #295072; } .cls-30 { fill: #3545a2; } .cls-31 { fill: #424242; } .cls-31, .cls-32 { font-size: 9px; } .cls-32 { fill: #566cff; } .cls-33 { fill: #f682b9; } .cls-34 { fill: #ee9f3d; } .cls-35 { fill: #e49035; } .cls-36 { filter: url(#Rectangle_6); } .cls-37 { filter: url(#Rectangle_5); } .cls-38 { filter: url(#Rectangle_3); } .cls-39 { filter: url(#Rectangle_8); } .cls-40 { filter: url(#Rectangle_7); } .cls-41 { filter: url(#Rectangle_4); }</style><filter id="Rectangle_4" width="295" height="172" x="52" y="183" filterUnits="userSpaceOnUse"><feOffset dy="3"/><feGaussianBlur result="blur" stdDeviation="3"/><feFlood flood-opacity=".161"/><feComposite in2="blur" operator="in"/><feComposite in="SourceGraphic"/></filter><filter id="Rectangle_7" width="295" height="156" x="52" y="400" filterUnits="userSpaceOnUse"><feOffset dy="3"/><feGaussianBlur result="blur-2" stdDeviation="3"/><feFlood flood-opacity=".161"/><feComposite in2="blur-2" operator="in"/><feComposite in="SourceGraphic"/></filter><filter id="Rectangle_8" width="295" height="182" x="52" y="603" filterUnits="userSpaceOnUse"><feOffset dy="3"/><feGaussianBlur result="blur-3" stdDeviation="3"/><feFlood flood-opacity=".161"/><feComposite in2="blur-3" operator="in"/><feComposite in="SourceGraphic"/></filter><filter id="Rectangle_3" width="68" height="68" x="27" y="158" filterUnits="userSpaceOnUse"><feOffset dy="3"/><feGaussianBlur result="blur-4" stdDeviation="3"/><feFlood flood-opacity=".161"/><feComposite in2="blur-4" operator="in"/><feComposite in="SourceGraphic"/></filter><filter id="Rectangle_5" width="68" height="68" x="27" y="375" filterUnits="userSpaceOnUse"><feOffset dy="3"/><feGaussianBlur result="blur-5" stdDeviation="3"/><feFlood flood-opacity=".161"/><feComposite in2="blur-5" operator="in"/><feComposite in="SourceGraphic"/></filter><filter id="Rectangle_6" width="68" height="68" x="27" y="573" filterUnits="userSpaceOnUse"><feOffset dy="3"/><feGaussianBlur result="blur-6" stdDeviation="3"/><feFlood flood-opacity=".161"/><feComposite in2="blur-6" operator="in"/><feComposite in="SourceGraphic"/></filter><clipPath id="clip-Mobile_Page_-_2"><path d="M0 0h375v812H0z"/></clipPath></defs><g transform="translate(-45 -391)"><g id="Mobile_Page_-_2" class="cls-1" data-name="Mobile Page - 2"><g id="layer1-3" data-name="layer1" transform="translate(2.157 358.652)"><g id="g8188" transform="translate(-44.93 159.259)"><path id="path548" d="M98.65-114.535a4.939 4.939 0 0 1-4.939 4.939 4.939 4.939 0 0 1-4.939-4.939 4.939 4.939 0 0 1 4.939-4.939 4.939 4.939 0 0 1 4.939 4.939" class="cls-10"/><path id="path550" d="M113.977-102.628a4.234 4.234 0 0 1-4.233 4.233 4.234 4.234 0 0 1-4.233-4.233 4.233 4.233 0 0 1 4.233-4.233 4.233 4.233 0 0 1 4.233 4.233" class="cls-10"/><path id="path552" d="M117.505-118.856a7.055 7.055 0 0 1-7.056 7.056 7.056 7.056 0 0 1-7.056-7.056 7.056 7.056 0 0 1 7.056-7.056 7.056 7.056 0 0 1 7.056 7.056" class="cls-10"/><path id="path554" d="M108.6-123H97.308a1.411 1.411 0 0 0-1.408 1.41v19.756a1.411 1.411 0 0 0 1.411 1.411H108.6a1.411 1.411 0 0 0 1.411-1.411v-19.756A1.411 1.411 0 0 0 108.6-123" class="cls-11"/><path id="path556" d="M107.186-123h-9.878a1.411 1.411 0 0 0-1.408 1.41v19.05a.705.705 0 0 0 .706.706h6.35a4.939 4.939 0 0 0 4.939-4.939V-122.3a.706.706 0 0 0-.706-.706" class="cls-7"/><path id="path558" d="M97.308-122.736a1.148 1.148 0 0 0-1.147 1.147v19.756a1.148 1.148 0 0 0 1.147 1.147H108.6a1.148 1.148 0 0 0 1.147-1.147v-19.757a1.147 1.147 0 0 0-1.147-1.147zm11.292 22.578H97.308a1.677 1.677 0 0 1-1.676-1.676v-19.756a1.677 1.677 0 0 1 1.676-1.676H108.6a1.678 1.678 0 0 1 1.676 1.676v19.756a1.677 1.677 0 0 1-1.676 1.676" class="cls-12"/><path id="path560" d="M109.3-120.179H96.6a.705.705 0 0 0-.706.706v15.522a.706.706 0 0 0 .706.706h12.7a.706.706 0 0 0 .706-.706v-15.522a.705.705 0 0 0-.706-.706" class="cls-11"/><path id="path562" d="M106.833-120.179H96.6a.705.705 0 0 0-.706.706v15.173h5.291a5.645 5.645 0 0 0 5.644-5.644v-10.23" class="cls-7"/><path id="path564" d="M96.6-119.914a.441.441 0 0 0-.441.441v15.522a.441.441 0 0 0 .441.441h12.7a.441.441 0 0 0 .441-.441v-15.522a.442.442 0 0 0-.441-.441zm12.7 16.933H96.6a.971.971 0 0 1-.97-.97v-15.522a.971.971 0 0 1 .97-.97h12.7a.971.971 0 0 1 .97.97v15.522a.971.971 0 0 1-.97.97" class="cls-12"/><path id="path566" d="M104.716-121.325h-3.528a.264.264 0 0 1-.265-.265.264.264 0 0 1 .265-.265h3.528a.265.265 0 0 1 .265.265.265.265 0 0 1-.265.265" class="cls-12"/><path id="path568" d="M99.425-101.481a.369.369 0 0 1-.25-.1.371.371 0 0 1-.1-.25.366.366 0 0 1 .1-.25.369.369 0 0 1 .5 0 .361.361 0 0 1 .1.25.373.373 0 0 1-.1.25.37.37 0 0 1-.25.1" class="cls-12"/><path id="path570" d="M102.6-101.833a.354.354 0 0 1 .353-.353.354.354 0 0 1 .353.353.354.354 0 0 1-.353.353.354.354 0 0 1-.353-.353" class="cls-12"/><path id="path572" d="M106.48-101.481a.352.352 0 0 1-.25-.105.357.357 0 0 1-.1-.247.359.359 0 0 1 .1-.25.366.366 0 0 1 .5 0 .367.367 0 0 1 .1.25.359.359 0 0 1-.1.247.359.359 0 0 1-.25.105" class="cls-12"/><path id="path574" d="M106.481-121.59a.353.353 0 0 1-.353.353.353.353 0 0 1-.353-.353.353.353 0 0 1 .353-.353.353.353 0 0 1 .353.353" class="cls-12"/><path id="path576" d="M113.889-118.062h-9.172a.353.353 0 0 0-.353.353v11.995a.353.353 0 0 0 .353.353h9.172a.353.353 0 0 0 .353-.353v-11.995a.353.353 0 0 0-.353-.353" class="cls-11"/><path id="path578" d="M112.125-118.063h-7.408a.353.353 0 0 0-.353.353v10.231h7.761v-10.583" class="cls-7"/><path id="path580" d="M104.717-117.8a.088.088 0 0 0-.088.088v11.995a.089.089 0 0 0 .088.088h9.172a.088.088 0 0 0 .088-.088v-11.995a.088.088 0 0 0-.088-.088zm9.172 12.7h-9.172a.618.618 0 0 1-.617-.617v-11.995a.619.619 0 0 1 .617-.617h9.172a.618.618 0 0 1 .617.617v11.995a.618.618 0 0 1-.617.617" class="cls-12"/><path id="path582" d="M108.068-116.652h-1.411a.353.353 0 0 0-.353.353v1.411a.353.353 0 0 0 .353.353h1.411a.353.353 0 0 0 .353-.353v-1.412a.353.353 0 0 0-.353-.353" class="cls-11"/><path id="path584" d="M107.715-116.652h-1.058a.353.353 0 0 0-.353.353v1.058h1.235a.176.176 0 0 0 .176-.176v-1.235" class="cls-7"/><path id="path586" d="M106.657-116.387a.089.089 0 0 0-.088.088v1.411a.088.088 0 0 0 .088.088h1.411a.088.088 0 0 0 .088-.088v-1.412a.088.088 0 0 0-.088-.088zm1.411 2.117h-1.411a.618.618 0 0 1-.617-.617v-1.413a.618.618 0 0 1 .617-.617h1.411a.618.618 0 0 1 .617.617v1.411a.618.618 0 0 1-.617.617" class="cls-12"/><path id="path588" d="M111.949-116.652h-1.411a.353.353 0 0 0-.353.353v1.411a.353.353 0 0 0 .353.353h1.411a.353.353 0 0 0 .353-.353v-1.412a.353.353 0 0 0-.353-.353" class="cls-11"/><path id="path590" d="M111.6-116.652h-1.058a.353.353 0 0 0-.353.353v1.058h1.235a.176.176 0 0 0 .176-.176v-1.235" class="cls-7"/><path id="path592" d="M110.538-116.387a.089.089 0 0 0-.088.088v1.411a.088.088 0 0 0 .088.088h1.411a.088.088 0 0 0 .088-.088v-1.412a.088.088 0 0 0-.088-.088zm1.411 2.117h-1.411a.618.618 0 0 1-.617-.617v-1.413a.619.619 0 0 1 .617-.617h1.411a.618.618 0 0 1 .617.617v1.411a.618.618 0 0 1-.617.617" class="cls-12"/><path id="path594" d="M108.068-112.77h-1.411a.353.353 0 0 0-.353.353v1.411a.353.353 0 0 0 .353.353h1.411a.353.353 0 0 0 .353-.353v-1.411a.353.353 0 0 0-.353-.353" class="cls-11"/><path id="path596" d="M107.715-112.771h-1.058a.353.353 0 0 0-.353.353v1.058h1.235a.176.176 0 0 0 .176-.176v-1.235" class="cls-7"/><path id="path598" d="M106.657-112.506a.088.088 0 0 0-.088.088v1.411a.089.089 0 0 0 .088.088h1.411a.088.088 0 0 0 .088-.088v-1.411a.088.088 0 0 0-.088-.088zm1.411 2.117h-1.411a.618.618 0 0 1-.617-.617v-1.411a.618.618 0 0 1 .617-.617h1.411a.618.618 0 0 1 .617.617v1.411a.618.618 0 0 1-.617.617" class="cls-12"/><path id="path600" d="M111.949-112.77h-1.411a.353.353 0 0 0-.353.353v1.411a.353.353 0 0 0 .353.353h1.411a.353.353 0 0 0 .353-.353v-1.411a.353.353 0 0 0-.353-.353" class="cls-11"/><path id="path602" d="M111.6-112.771h-1.058a.353.353 0 0 0-.353.353v1.058h1.235a.176.176 0 0 0 .176-.176v-1.235" class="cls-7"/><path id="path604" d="M110.538-112.506a.088.088 0 0 0-.088.088v1.411a.089.089 0 0 0 .088.088h1.411a.088.088 0 0 0 .088-.088v-1.411a.088.088 0 0 0-.088-.088zm1.411 2.117h-1.411a.618.618 0 0 1-.617-.617v-1.411a.618.618 0 0 1 .617-.617h1.411a.618.618 0 0 1 .617.617v1.411a.618.618 0 0 1-.617.617" class="cls-12"/><path id="path606" d="M108.068-108.89h-1.411a.353.353 0 0 0-.353.353v1.411a.353.353 0 0 0 .353.353h1.411a.353.353 0 0 0 .353-.353v-1.411a.353.353 0 0 0-.353-.353" class="cls-11"/><path id="path608" d="M107.715-108.89h-1.058a.353.353 0 0 0-.353.353v1.058h1.235a.176.176 0 0 0 .176-.176v-1.235" class="cls-7"/><path id="path610" d="M106.657-108.625a.089.089 0 0 0-.088.088v1.411a.088.088 0 0 0 .088.088h1.411a.088.088 0 0 0 .088-.088v-1.411a.089.089 0 0 0-.088-.088zm1.411 2.117h-1.411a.618.618 0 0 1-.617-.617v-1.411a.618.618 0 0 1 .617-.617h1.411a.618.618 0 0 1 .617.617v1.411a.618.618 0 0 1-.617.617" class="cls-12"/><path id="path612" d="M111.949-108.89h-1.411a.353.353 0 0 0-.353.353v1.411a.353.353 0 0 0 .353.353h1.411a.353.353 0 0 0 .353-.353v-1.411a.353.353 0 0 0-.353-.353" class="cls-11"/><path id="path614" d="M111.6-108.89h-1.058a.353.353 0 0 0-.353.353v1.058h1.235a.176.176 0 0 0 .176-.176v-1.235" class="cls-7"/><path id="path616" d="M110.538-108.625a.089.089 0 0 0-.088.088v1.411a.088.088 0 0 0 .088.088h1.411a.088.088 0 0 0 .088-.088v-1.411a.089.089 0 0 0-.088-.088zm1.411 2.117h-1.411a.618.618 0 0 1-.617-.617v-1.411a.619.619 0 0 1 .617-.617h1.411a.618.618 0 0 1 .617.617v1.411a.618.618 0 0 1-.617.617" class="cls-12"/><path id="path618" d="M101.188-118.062h-9.172a.353.353 0 0 0-.353.353v11.995a.353.353 0 0 0 .353.353h9.172a.353.353 0 0 0 .353-.353v-11.995a.353.353 0 0 0-.353-.353" class="cls-11"/><path id="path620" d="M99.424-118.063h-7.408a.353.353 0 0 0-.353.353v10.231h7.761v-10.583" class="cls-7"/><path id="path622" d="M92.016-117.8a.088.088 0 0 0-.088.088v11.995a.088.088 0 0 0 .088.088h9.172a.089.089 0 0 0 .088-.088v-11.995a.088.088 0 0 0-.088-.088zm9.172 12.7h-9.172a.618.618 0 0 1-.617-.617v-11.995a.619.619 0 0 1 .617-.617h9.172a.618.618 0 0 1 .617.617v11.995a.618.618 0 0 1-.617.617" class="cls-12"/><path id="path624" d="M96.6-112.77a1.764 1.764 0 0 1-1.764-1.764A1.764 1.764 0 0 1 96.6-116.3a1.764 1.764 0 0 1 1.764 1.764 1.764 1.764 0 0 1-1.764 1.766" class="cls-11"/><path id="path626" d="M96.073-114.005h-.882a.352.352 0 0 1-.353-.353v-.176A1.764 1.764 0 0 1 96.6-116.3h.176a.353.353 0 0 1 .353.353v.882a1.058 1.058 0 0 1-1.058 1.058" class="cls-7"/><path id="path628" d="M96.6-116.034a1.5 1.5 0 0 0-1.5 1.5 1.5 1.5 0 0 0 1.5 1.5 1.5 1.5 0 0 0 1.5-1.5 1.5 1.5 0 0 0-1.5-1.5zm0 3.528a2.031 2.031 0 0 1-2.028-2.028 2.031 2.031 0 0 1 2.028-2.028 2.031 2.031 0 0 1 2.028 2.028 2.031 2.031 0 0 1-2.028 2.028" class="cls-12"/><path id="path630" d="M99.777-110.742h-4.233a.265.265 0 0 1-.265-.265.265.265 0 0 1 .265-.265h4.233a.265.265 0 0 1 .265.265.265.265 0 0 1-.265.265" class="cls-12"/><path id="path632" d="M94.132-110.742h-.705a.265.265 0 0 1-.265-.265.265.265 0 0 1 .265-.265h.705a.265.265 0 0 1 .265.265.265.265 0 0 1-.265.265" class="cls-12"/><path id="path634" d="M99.777-108.977h-4.233a.265.265 0 0 1-.265-.265.265.265 0 0 1 .265-.265h4.233a.265.265 0 0 1 .265.265.265.265 0 0 1-.265.265" class="cls-12"/><path id="path636" d="M94.132-108.977h-.705a.265.265 0 0 1-.265-.265.265.265 0 0 1 .265-.265h.705a.265.265 0 0 1 .265.265.265.265 0 0 1-.265.265" class="cls-12"/><path id="path638" d="M99.777-107.213h-4.233a.265.265 0 0 1-.265-.265.265.265 0 0 1 .265-.265h4.233a.265.265 0 0 1 .265.265.265.265 0 0 1-.265.265" class="cls-12"/><path id="path640" d="M94.132-107.213h-.705a.265.265 0 0 1-.265-.265.265.265 0 0 1 .265-.265h.705a.265.265 0 0 1 .265.265.265.265 0 0 1-.265.265" class="cls-12"/><path id="path642" d="M93.78-120.972h-1.412a.265.265 0 0 1-.265-.265.265.265 0 0 1 .265-.265h1.412a.265.265 0 0 1 .265.265.265.265 0 0 1-.265.265" class="cls-12"/><path id="path644" d="M93.074-120.267a.265.265 0 0 1-.265-.265v-1.411a.265.265 0 0 1 .265-.265.265.265 0 0 1 .265.265v1.411a.265.265 0 0 1-.265.265" class="cls-12"/><path id="path646" d="M94.838-101.922h-1.411a.265.265 0 0 1-.265-.265.265.265 0 0 1 .265-.265h1.411a.264.264 0 0 1 .265.265.264.264 0 0 1-.265.265" class="cls-12"/><path id="path648" d="M94.133-101.217a.265.265 0 0 1-.265-.265v-1.411a.265.265 0 0 1 .265-.265.264.264 0 0 1 .265.265v1.411a.264.264 0 0 1-.265.265" class="cls-12"/><path id="path650" d="M112.478-103.333h-1.411a.264.264 0 0 1-.265-.265.264.264 0 0 1 .265-.265h1.411a.265.265 0 0 1 .265.265.265.265 0 0 1-.265.265" class="cls-12"/><path id="path652" d="M111.772-102.628a.264.264 0 0 1-.265-.265v-1.407a.264.264 0 0 1 .265-.265.265.265 0 0 1 .265.265v1.411a.265.265 0 0 1-.265.265" class="cls-12"/><path id="path654" d="M114.242-122.031h-1.411a.265.265 0 0 1-.265-.265.265.265 0 0 1 .265-.265h1.411a.264.264 0 0 1 .265.265.264.264 0 0 1-.265.265" class="cls-12"/><path id="path656" d="M113.536-121.325a.265.265 0 0 1-.265-.265V-123a.265.265 0 0 1 .265-.265.264.264 0 0 1 .265.265v1.411a.264.264 0 0 1-.265.265" class="cls-12"/><path id="path658" d="M112.478-119.914h-1.411a.265.265 0 0 1-.265-.265.265.265 0 0 1 .265-.265h1.411a.265.265 0 0 1 .265.265.265.265 0 0 1-.265.265" class="cls-12"/><path id="path660" d="M111.772-119.209a.265.265 0 0 1-.265-.265v-1.411a.265.265 0 0 1 .265-.265.265.265 0 0 1 .265.265v1.411a.265.265 0 0 1-.265.265" class="cls-12"/></g></g></g></g></svg>