<svg xmlns="http://www.w3.org/2000/svg" id="artboard-svg" width="305" height="202" viewBox="0 0 305 202"><defs><style>.cls-1 { clip-path: url(#clip-iPhone_X_XS_1); } .cls-2, .cls-3, .cls-5 { fill: #566cff; } .cls-2 { font-size: 15px; } .cls-2, .cls-5, .cls-7 { font-family: Montserrat-Regular, Montserrat; } .cls-4, .cls-8 { fill: #fff; } .cls-5 { font-size: 20px; } .cls-6 { font-family: Montserrat-Bold, Montserrat; font-weight: 700; } .cls-7 { fill: #707070; } .cls-7, .cls-8 { font-size: 13px; } .cls-8 { font-family: SegoeUI, Segoe UI; } .cls-9 { fill: #f7f8fd; } .cls-10 { fill: #bfb2df; } .cls-11 { fill: #99deef; } .cls-12 { fill: #ee9f3d; } .cls-13 { fill: #d4d3ee; } .cls-14 { fill: #a79cd6; } .cls-15 { fill: #5762b7; } .cls-16 { fill: #234465; } .cls-17 { fill: #305c78; } .cls-18 { fill: #e8eaf7; } .cls-19 { fill: #6dccd6; } .cls-20 { fill: #f5af45; } .cls-21 { fill: #e4519c; } .cls-22 { fill: #83d6e5; } .cls-23 { fill: #3e52ac; } .cls-24 { fill: #f46bac; } .cls-25 { fill: #295072; } .cls-26 { fill: #3545a2; } .cls-27 { fill: #f682b9; } .cls-28 { fill: #e49035; } .cls-29 { filter: url(#Rectangle_1-3); } .cls-30 { filter: url(#Rectangle_1-2); } .cls-31 { filter: url(#Rectangle_1); }</style><filter id="Rectangle_1" width="320" height="203" x="27" y="255" filterUnits="userSpaceOnUse"><feOffset dy="3"/><feGaussianBlur result="blur" stdDeviation="3"/><feFlood flood-opacity=".161"/><feComposite in2="blur" operator="in"/><feComposite in="SourceGraphic"/></filter><filter id="Rectangle_1-2" width="320" height="203" x="27" y="708" filterUnits="userSpaceOnUse"><feOffset dy="3"/><feGaussianBlur result="blur-2" stdDeviation="3"/><feFlood flood-opacity=".161"/><feComposite in2="blur-2" operator="in"/><feComposite in="SourceGraphic"/></filter><filter id="Rectangle_1-3" width="320" height="203" x="27" y="1180" filterUnits="userSpaceOnUse"><feOffset dy="3"/><feGaussianBlur result="blur-3" stdDeviation="3"/><feFlood flood-opacity=".161"/><feComposite in2="blur-3" operator="in"/><feComposite in="SourceGraphic"/></filter><clipPath id="clip-iPhone_X_XS_1"><path d="M0 0h375v1494H0z"/></clipPath></defs><g transform="translate(-36 -508)"><g id="iPhone_X_XS_1" class="cls-1" data-name="iPhone X/XS – 1"><g id="layer1-2" data-name="layer1" transform="translate(25.379 442.186)"><g id="g14507" transform="translate(10.804 66.397)"><g id="g322" transform="translate(236.069 9.677)"><path id="path324" d="M749.3-388.4c.186-1.166-1.289-2.449-3.344-3.188a9.708 9.708 0 0 0-6.716-.069c1.531-1.636 3.1-3.235 4.779-4.728 1.262 1.871 3.793 3.224 5.965 4.037 2.186.765 3.958.968 4.186-.1.221-1.038-.945-2.572-2.813-3.668a8.729 8.729 0 0 0-6.544-.984c.89-.754 1.786-1.514 2.724-2.209a15.057 15.057 0 0 0 6.358-1.572 10.647 10.647 0 0 0 2.062-1.166 2.221 2.221 0 0 0 1.179-1.524 1.742 1.742 0 0 0-1.269-1.749 5.614 5.614 0 0 0-3.668.182 8.058 8.058 0 0 0-5.123 5.294c-.952.7-1.834 1.46-2.731 2.214a15.547 15.547 0 0 0 1.034-6.968c-.138-2.3-.814-4.166-2.393-3.963-1.7.219-2.6 2.519-2.441 5.016a9.631 9.631 0 0 0 3 6.637c-1.69 1.508-3.275 3.123-4.82 4.77a13.431 13.431 0 0 0 .062-6.958c-.545-2.209-1.558-3.872-2.979-3.54-1.482.347-1.993 2.62-1.524 5.038a10.036 10.036 0 0 0 3.716 6.257c-1.531 1.663-2.979 3.4-4.386 5.166 1.007-4.086-1.179-10.968-3.841-10.155-1.427.454-1.7 2.716-1.021 5.08a10.13 10.13 0 0 0 4.2 5.931c-1.386 1.775-2.689 3.62-3.965 5.487.689-4.161-2.02-10.829-4.62-9.824-1.365.561-1.476 2.824-.62 5.139a10.135 10.135 0 0 0 4.648 5.583 88.73 88.73 0 0 0-3.51 5.8c.324-4.2-2.862-10.658-5.392-9.444-1.317.685-1.269 2.963-.221 5.219a9.913 9.913 0 0 0 5.1 5.172c-1.062 2-2.062 4.032-2.924 6.123-.145-4.2-3.841-10.412-6.275-8.926-1.276.829-1.027 3.155.234 5.327a9.643 9.643 0 0 0 5.634 4.6 47.959 47.959 0 0 0-2.041 6.487c-.876-4.086-5.172-9.984-7.454-8.1-1.186 1.059-.662 3.482.91 5.524a8.986 8.986 0 0 0 6.337 3.637 21.672 21.672 0 0 0-.021 8.984.332.332 0 0 0 .414.252.381.381 0 0 0 .276-.423 20.92 20.92 0 0 1 .028-8.679c2.158.69 4.951.31 7.185-.225 2.172-.551 3.765-1.358 3.344-2.486-.683-2.193-7.7-1.888-10.329 1.663a46.428 46.428 0 0 1 2.006-6.38c1.958 1.1 4.848 1.219 7.151.952 2.282-.288 4.041-1.01 3.8-2.251-.372-2.374-7.4-2.716-10.543.31a66.559 66.559 0 0 1 2.882-6.059c1.813 1.321 4.675 1.776 7.02 1.723 2.317-.081 4.179-.685 4.068-1.974-.124-2.449-7.116-3.337-10.571-.69a85.284 85.284 0 0 1 3.482-5.749c1.7 1.487 4.489 2.177 6.84 2.305 2.345.1 4.248-.374 4.255-1.673.069-2.465-6.833-3.862-10.509-1.529 1.269-1.845 2.558-3.679 3.944-5.45 1.572 1.615 4.31 2.524 6.647 2.824 2.337.283 4.248-.054 4.358-1.337.241-2.449-6.5-4.385-10.35-2.331a96.257 96.257 0 0 1 4.344-5.134c1.441 1.732 4.11 2.855 6.392 3.353s4.2.353 4.392-.882" class="cls-12" transform="translate(-710.896 408.576)"/></g><g id="g326" transform="translate(207.427)"><path id="path328" d="M692.544-414.96l27.251 5.113-27.792 2 .542-7.118" class="cls-13" transform="translate(-692.003 414.96)"/></g><g id="g330" transform="translate(207.427 5.113)"><path id="path332" d="M692-409.582l27.792-2-24.361 12.322L692-409.582" class="cls-14" transform="translate(-692.003 411.587)"/></g><g id="g334" transform="translate(206.958 5.113)"><path id="path336" d="M691.693-406.212l28.261-5.375-28.089 12.087-.172-6.711" class="cls-13" transform="translate(-691.693 411.587)"/></g><g id="g338" transform="translate(48.743 7.295)"><path id="path340" d="M726.659-408.925l-.071-1.181c.8-.043 1.611-.048 2.407-.032l-.026 1.181a25.078 25.078 0 0 0-2.31.032zm6.924.4c-.77-.117-1.54-.219-2.3-.289l.115-1.176c.789.08 1.579.176 2.375.3zm-11.449.316l-.315-1.139a21.3 21.3 0 0 1 2.368-.508l.186 1.166a19.978 19.978 0 0 0-2.239.481zm16.037.578a64.209 64.209 0 0 0-2.285-.492l.225-1.155c.776.15 1.553.321 2.323.492zm4.556 1.128c-.744-.2-1.508-.4-2.272-.583l.282-1.144c.77.192 1.54.39 2.291.588zm-24.835.011l-.552-1.048a27.166 27.166 0 0 1 2.182-1.027l.449 1.091c-.641.262-1.302.576-2.079.984zm-4.107 2.305l-.558-1.038c.565-.3 1.123-.631 1.681-.952l.353-.2.59 1.022-.353.2c-.564.326-1.135.655-1.713.968zm-41.591.508l-.194-1.166a16.808 16.808 0 0 1 2.439-.2l.013 1.182a15.715 15.715 0 0 0-2.258.184zm6.867.16c-.77-.112-1.534-.2-2.3-.267l.09-1.177c.8.064 1.6.16 2.381.279zm4.582.9q-1.145-.265-2.291-.5l.231-1.155c.776.155 1.547.327 2.323.5zm25.785.444l-.4-1.107a31.365 31.365 0 0 0 2.13-.888l.494 1.07c-.729.335-1.467.646-2.224.924zm-41.3.107l-.725-.936a8.982 8.982 0 0 1 2.208-1.208l.424 1.1a7.5 7.5 0 0 0-1.91 1.043zm20.1.535a166.42 166.42 0 0 1-2.3-.551l.282-1.145c.757.187 1.521.369 2.284.546zm16.6.7l-.25-1.155a31.36 31.36 0 0 0 2.246-.562l.327 1.134c-.77.225-1.547.417-2.323.583zm-11.936.246q-1.175-.185-2.349-.433l.238-1.155c.764.16 1.527.3 2.3.422zm7.175.39l-.071-1.176c.77-.048 1.54-.123 2.3-.225l.16 1.171c-.8.101-1.595.176-2.391.227zm-2.4.048a29.544 29.544 0 0 1-2.169-.112l-.212-.016.071-1.182.244.022c.693.058 1.386.1 2.086.107zm-32.256 1.649l-.988-.642c.173-.262.334-.54.5-.812.25-.407.488-.813.757-1.2l.969.669c-.25.369-.488.754-.712 1.139-.18.283-.353.567-.526.845zm-3.581 3.407l-.6-1.022a10.021 10.021 0 0 0 1.79-1.321l.8.861a11.164 11.164 0 0 1-1.99 1.485zm-4.531 1.775l-.289-1.139a19.755 19.755 0 0 0 2.182-.684l.424 1.1a20.345 20.345 0 0 1-2.316.726zm-4.71.845l-.148-1.171c.77-.1 1.54-.2 2.3-.337l.206 1.16c-.779.137-1.569.255-2.358.351zm-4.742.374l-.058-1.181a66.511 66.511 0 0 0 2.33-.134l.1 1.177a68.94 68.94 0 0 1-2.373.137zm-14.17.048l-.019-1.181c.789-.011 1.579-.022 2.368-.022v1.182c-.783.003-1.566.008-2.349.024zm7.059.011l-2.355-.021.006-1.182 2.362.027zm2.67.016h-.306v-1.176h.308q1.02 0 2.041-.016l.019 1.176c-.689.019-1.376.019-2.062.019zm-14.356.268l-.173-1.166q1.059-.161 1.925-.209l.481-.021.051 1.176-.468.022c-.546.035-1.149.099-1.816.201zm-4.543 1.011l-.308-1.134a46.9 46.9 0 0 1 2.31-.583l.263 1.149c-.719.17-1.472.356-2.266.571zm-4.479 1.39l-.385-1.117q1.165-.4 2.272-.738l.347 1.128c-.727.222-1.471.468-2.235.73zm-4.4 1.62l-.436-1.1c.751-.294 1.489-.578 2.22-.85l.411 1.107c-.729.278-1.46.557-2.198.846zm-4.319 1.84l-.494-1.075a159.81 159.81 0 0 1 2.182-.957l.462 1.091c-.722.307-1.441.618-2.153.944zm-4.229 2.038l-.539-1.043a131.95 131.95 0 0 1 2.124-1.07l.52 1.065c-.71.344-1.415.692-2.108 1.05zm-4.1 2.267l-.6-1.011c.667-.406 1.36-.8 2.06-1.181l.571 1.032c-.687.382-1.368.767-2.035 1.163zm-3.927 2.541l-.68-.963c.635-.455 1.3-.9 1.976-1.337l.642.99c-.672.43-1.32.868-1.943 1.312zm-3.645 2.882l-.8-.877a35.101 35.101 0 0 1 1.842-1.54l.725.925q-.934.741-1.775 1.494zm-3.1 3.375l-.963-.685a19.078 19.078 0 0 1 1.553-1.877l.86.8a18.131 18.131 0 0 0-1.45 1.76zm-1.983 4.064l-1.11-.39c.18-.519.372-1.038.571-1.551.09-.236.192-.47.3-.7l1.065.5c-.1.209-.193.417-.263.62a42.702 42.702 0 0 0-.567 1.523zm-1.264 4.46l-1.155-.241c.167-.775.359-1.556.584-2.326l1.129.321c-.212.749-.4 1.5-.558 2.246zm-.546 4.567l-1.187-.022a22.453 22.453 0 0 1 .173-2.412l1.168.144a20.234 20.234 0 0 0-.158 2.291zm-.584 4.818a15.085 15.085 0 0 1-.475-2.406l1.168-.133a14.249 14.249 0 0 0 .443 2.214zm2.15 4.4a12.847 12.847 0 0 1-1.271-2.1l1.059-.519a11.588 11.588 0 0 0 1.161 1.925zm3.388 3.476q-.943-.779-1.79-1.631l.841-.829a19.3 19.3 0 0 0 1.7 1.54zm4.024 2.663c-.725-.4-1.425-.808-2.079-1.241l.655-.979c.623.407 1.283.808 1.983 1.177zm4.389 1.93c-.757-.273-1.5-.562-2.227-.882l.468-1.08q1.059.465 2.156.85zm4.595 1.321a41.83 41.83 0 0 1-2.317-.594l.327-1.133c.745.219 1.5.406 2.253.578zm4.7.834a61.778 61.778 0 0 1-2.355-.363l.205-1.161c.764.134 1.54.252 2.31.353l-.16 1.171" class="cls-13" transform="translate(-587.324 410.147)"/></g><g id="g342" transform="translate(13.606 46.216)"><path id="path344" d="M838.044-233.068a139.351 139.351 0 0 0 .714-14.1 137.3 137.3 0 0 0-137.3-137.3 137.3 137.3 0 0 0-137.31 137.3 139.307 139.307 0 0 0 .721 14.1h273.175" class="cls-9" transform="translate(-564.145 384.472)"/></g><g id="g346" transform="translate(0 196.688)"><path id="path348" d="M856.285-285.211H555.871a.7.7 0 0 0-.7.7.7.7 0 0 0 .7.7h300.414a.7.7 0 0 0 .7-.7.7.7 0 0 0-.7-.7" class="cls-10" transform="translate(-555.17 285.211)"/></g><g id="g350" transform="translate(229.198 69.7)"><path id="path352" d="M732.709-326.3a16.3 16.3 0 0 1-16.281-16.337 16.31 16.31 0 0 1 16.343-16.274 16.307 16.307 0 0 1 16.267 16.343 16.294 16.294 0 0 1-16.329 16.268zm26.386-12.161l.014-8.177-5.287-.011a21.269 21.269 0 0 0-3.26-7.936l3.736-3.722-5.769-5.8-3.736 3.722a21.538 21.538 0 0 0-7.927-3.3l.014-5.279-8.182-.016-.007 5.279a21.543 21.543 0 0 0-7.94 3.262l-3.722-3.738-5.8 5.776 3.722 3.738a21.428 21.428 0 0 0-3.288 7.921l-5.287-.011-.014 8.177 5.28.011a21.319 21.319 0 0 0 3.267 7.936l-3.75 3.722 5.776 5.8 3.743-3.722a21.464 21.464 0 0 0 7.92 3.294l-.014 5.279 8.182.021.014-5.284a21.383 21.383 0 0 0 7.934-3.262l3.722 3.738 5.8-5.776-3.722-3.738a21.247 21.247 0 0 0 3.295-7.921l5.287.011" class="cls-17" transform="translate(-706.364 368.981)"/></g><g id="g354" transform="translate(35.672 99.683)"><path id="path356" d="M622-322a17.034 17.034 0 0 1-17.918 16.091 17.035 17.035 0 0 1-16.1-17.915 17.041 17.041 0 0 1 17.924-16.1A17.036 17.036 0 0 1 622-322zm4.056-3.845a21.158 21.158 0 0 0-2.824-8.011l3.891-3.492-5.419-6.033-3.891 3.492a21.165 21.165 0 0 0-7.667-3.663l.285-5.219-8.089-.433-.28 5.22a21.277 21.277 0 0 0-8.015 2.824l-3.5-3.888-6.024 5.417 3.491 3.888a21.147 21.147 0 0 0-3.657 7.669l-5.231-.284-.434 8.091 5.231.278a21.023 21.023 0 0 0 2.824 8.016l-3.9 3.492 5.419 6.027 3.89-3.492a21.064 21.064 0 0 0 7.661 3.663l-.279 5.224 8.095.434.274-5.225a21.25 21.25 0 0 0 8.021-2.824l3.485 3.888 6.03-5.417-3.491-3.882a21.162 21.162 0 0 0 3.662-7.669l5.22.278.433-8.086-5.22-.284" class="cls-17" transform="translate(-578.701 349.202)"/></g><g id="g358" transform="translate(52.801 116.776)"><path id="path360" d="M608.353-328.25a9.182 9.182 0 0 1-9.657 8.68 9.191 9.191 0 0 1-8.682-9.663 9.185 9.185 0 0 1 9.668-8.68 9.175 9.175 0 0 1 8.671 9.663" class="cls-17" transform="translate(-590.001 337.926)"/></g><g id="g362" transform="translate(120.773 154.499)"><path id="path364" d="M705.7-274.854c-14.472-9.652-18.8-38.188-18.8-38.188h-33.26s-4.329 28.536-18.8 38.188h70.86" class="cls-23" transform="translate(-634.84 313.042)"/></g><g id="g366" transform="translate(62.003 47.416)"><path id="path368" d="M596.071-378.531v109.862a5.149 5.149 0 0 0 5.152 5.15H779.39a5.149 5.149 0 0 0 5.152-5.15v-109.862a5.15 5.15 0 0 0-5.152-5.15H601.223a5.15 5.15 0 0 0-5.152 5.15" class="cls-15" transform="translate(-596.071 383.681)"/></g><g id="g370" transform="translate(114.004 188.661)"><path id="path372" d="M710.89-290.506h-76.521a4 4 0 0 0-3.995 4 4 4 0 0 0 3.995 4h76.521a4 4 0 0 0 4-4 4 4 0 0 0-4-4" class="cls-26" transform="translate(-630.374 290.506)"/></g><g id="g374" transform="translate(152.733 156.259)"><path id="path376" d="M662.833-308.426a3.452 3.452 0 0 1-3.452 3.46 3.457 3.457 0 0 1-3.458-3.46 3.463 3.463 0 0 1 3.458-3.455 3.458 3.458 0 0 1 3.452 3.455" class="cls-26" transform="translate(-655.922 311.881)"/></g><g id="g378" transform="translate(67.21 52.71)"><path id="path380" d="M777.453-280.076v-100.113H599.506v100.113h177.947" class="cls-13" transform="translate(-599.506 380.189)"/></g><g id="g382" transform="translate(82.962 31.382)"><path id="path384" d="M609.9-272.832v-115.837a5.593 5.593 0 0 1 5.585-5.589h135.331a5.6 5.6 0 0 1 5.585 5.589v115.838H609.9" class="cls-16" transform="translate(-609.897 394.258)"/></g><g id="g386" transform="translate(205.397 36.327)"><path id="path388" d="M692.636-391a1.967 1.967 0 0 0-1.973 1.963 1.971 1.971 0 0 0 1.973 1.968 1.964 1.964 0 0 0 1.96-1.968 1.96 1.96 0 0 0-1.96-1.963" class="cls-4" transform="translate(-690.663 390.996)"/></g><g id="g390" transform="translate(212.277 36.331)"><path id="path392" d="M697.175-390.994a1.967 1.967 0 0 0-1.973 1.963 1.97 1.97 0 0 0 1.973 1.968 1.969 1.969 0 0 0 1.966-1.968 1.965 1.965 0 0 0-1.966-1.963" class="cls-4" transform="translate(-695.202 390.994)"/></g><g id="g394" transform="translate(219.171 36.332)"><path id="path396" d="M701.715-390.993a1.96 1.96 0 0 0-1.966 1.963 1.965 1.965 0 0 0 1.966 1.968 1.969 1.969 0 0 0 1.966-1.968 1.964 1.964 0 0 0-1.966-1.963" class="cls-4" transform="translate(-699.749 390.993)"/></g><g id="g398" transform="translate(84.494 46.746)"><path id="path400" d="M610.908-278.052v-106.071h143.4v106.071h-143.4" class="cls-4" transform="translate(-610.908 384.123)"/></g><g id="g402" transform="translate(169.052 51.114)"><path id="path404" d="M666.688-352.314h54.051v-28.927h-54.051v28.927" class="cls-22" transform="translate(-666.688 381.241)"/></g><g id="g406" transform="translate(88.814 36.355)"><path id="path408" d="M699.443-390.978h-83.718a1.964 1.964 0 0 0-1.967 1.962 1.968 1.968 0 0 0 1.967 1.968h83.718a1.968 1.968 0 0 0 1.968-1.968 1.964 1.964 0 0 0-1.968-1.962" class="cls-13" transform="translate(-613.757 390.978)"/></g><g id="g410" transform="translate(89.414 51.105)"><path id="path412" d="M685.777-352.32h-71.624v-28.927h71.623v28.927" class="cls-27" transform="translate(-614.153 381.247)"/></g><g id="g414" transform="translate(95.454 55.368)"><path id="path416" d="M628.352-378.435a10.22 10.22 0 0 0-10.215 10.214 10.216 10.216 0 0 0 10.215 10.215 10.213 10.213 0 0 0 10.215-10.215 10.216 10.216 0 0 0-10.215-10.214" class="cls-4" transform="translate(-618.137 378.435)"/></g><g id="g418" transform="translate(98.528 61.702)"><path id="path420" d="M625.534-364.419a.894.894 0 0 1-.638-.267l-4.462-4.46a.9.9 0 0 1 0-1.284.9.9 0 0 1 1.283 0l3.818 3.819 7.39-7.38a.909.909 0 0 1 1.282 0 .913.913 0 0 1 0 1.284l-8.028 8.022a.888.888 0 0 1-.644.267" class="cls-16" transform="translate(-620.165 374.257)"/></g><g id="g422" transform="translate(125.468 57.058)"><path id="path424" d="M667.4-374.54h-29.463v-2.78H667.4v2.78" class="cls-4" transform="translate(-637.937 377.32)"/></g><g id="g426" transform="translate(125.468 63.561)"><path id="path428" d="M667.4-370.256h-29.463v-2.775H667.4v2.775" class="cls-4" transform="translate(-637.937 373.031)"/></g><g id="g430" transform="translate(125.468 70.059)"><path id="path432" d="M667.4-365.969h-29.463v-2.775H667.4v2.775" class="cls-4" transform="translate(-637.937 368.744)"/></g><g id="g434" transform="translate(226.453 162.377)"><path id="path436" d="M704.553-307.845l3.184 32.292h2.471l3.112-32.292h-8.766" class="cls-26" transform="translate(-704.553 307.845)"/></g><g id="g438" transform="translate(226.186 194.68)"><path id="path440" d="M707.8-286.536l-.375.567a.3.3 0 0 1-.165.128l-2.654.594a.351.351 0 0 0-.231.342.337.337 0 0 0 .31.358h5.283a.336.336 0 0 0 .3-.358v-1.631H707.8" class="cls-16" transform="translate(-704.377 286.536)"/></g><g id="g442" transform="translate(233.248 194.703)"><path id="path444" d="M712.457-286.521l-.371.567a.323.323 0 0 1-.166.128l-2.652.594a.351.351 0 0 0-.232.342.337.337 0 0 0 .312.358h5.278a.332.332 0 0 0 .3-.358v-1.631h-2.473" class="cls-16" transform="translate(-709.036 286.521)"/></g><g id="g446" transform="translate(232 161.574)"><path id="path448" d="M708.213-308.374l4.743 33.1h2.471l1.933-31.179-9.147-1.92" class="cls-23" transform="translate(-708.213 308.374)"/></g><g id="g450" transform="translate(228.358 124.43)"><path id="path452" d="M708.694-321.625l-.311-1.5s-2.193.374-2.478-.753-.106-9.091 2.829-9 7.163 3.112 6.9 4.845a27.87 27.87 0 0 1-1.272 4.4l-4.671 1.888-1 .117" class="cls-20" transform="translate(-705.81 332.877)"/></g><g id="g454" transform="translate(225.89 132.44)"><path id="path456" d="M719.555-296.967a40.236 40.236 0 0 1-1.422-10.059c.379-13.032-2.851-18.214-2.851-18.214l-.139-2.353c-1.615.984-1.462 2.021-5.615 3.246.272-.24-3.535 5.76-4.273 9.711-.6 3.2-1.515 18-.831 19.765.5 1.016 11.515 1.3 13.708-.037.851-.524 1.655-1.086 1.422-2.059" class="cls-21" transform="translate(-704.182 327.593)"/></g><g id="g458" transform="translate(227.924 122.498)"><path id="path460" d="M706.572-334.125a6.377 6.377 0 0 0 2.663.288c1.893-.321 5.027-.5 6.68 1.38 2.484 2.8 1 4.535-.206 7.043s-1.1 3.546-1.1 3.546c-1.069.016-2.9-.07-2.9-.07a38.476 38.476 0 0 0 .339-4.877c-1.687-1.615-1.746 2.851-1.746 2.851l-.817-.048-.213-2.887a11.714 11.714 0 0 0-1.248-1.161 2.283 2.283 0 0 0-1.1-2.316c-1.733-1.123-1.434-1.615-1.295-2.674.139-1 .525-1.182.936-1.074" class="cls-25" transform="translate(-705.524 334.152)"/></g><g id="g462" transform="translate(222.03 139.504)"><path id="path464" d="M704.282-318.559c1.948-1.615 4.167-3.46 5.266-4.374l1.442 3.46c-1.126.529-2.357.974-3.436 1.433a847.221 847.221 0 0 0-5.187 2.251l-.731-1.733a4.221 4.221 0 0 0 2.646-1.037" class="cls-12" transform="translate(-701.636 322.933)"/></g><g id="g466" transform="translate(207.264 127.626)"><path id="path468" d="M695.233-330.769l14.525 21.134a.761.761 0 0 1-.19 1.058l-2.088 1.433a.765.765 0 0 1-1.06-.192l-14.525-21.14 3.338-2.294" class="cls-23" transform="translate(-691.895 330.769)"/></g><g id="g470" transform="translate(211.716 136.451)"><path id="path472" d="M712.508-320.776l-3.334 3.925s-3.92-1.588-7.169-2.914a4.229 4.229 0 0 1-2.3-2.07c-.738-1.423-.29-2.22-1.957-3.113 0 0 .514 1.353-.191 1.61s-1.588-.016-2.557-1.577c0 0-1.186 3.685 2.728 4.032 0 0 2.6 2.033 5.357 4.247s6.068 5.819 8.869 2.53a50.647 50.647 0 0 0 3.591-4.556l-3.038-2.112" class="cls-20" transform="translate(-694.832 324.947)"/></g><g id="g474" transform="translate(226.779 136.551)"><path id="path476" d="M712.11-324.474l-.04-.027a2.429 2.429 0 0 0-3.337.7l-3.965 5.76a4.03 4.03 0 0 0 3.535 2.6l4.368-5.519a2.384 2.384 0 0 0-.562-3.519" class="cls-24" transform="translate(-704.768 324.881)"/></g><g id="g478" transform="translate(218.922 146.318)"><path id="path480" d="M700.355-318.438a2.227 2.227 0 0 1 1.645 2.327c-.111 1.171-1.1.882-1.422.593a4.125 4.125 0 0 1-.978-2.113c.124-.374.476-.807.756-.807" class="cls-12" transform="translate(-699.586 318.438)"/></g><g id="g482" transform="translate(198.513 115.162)"><path id="path484" d="M686.123-338.991c4.464 5.707.77 10.391 3.1 13.37s6.27 3.8 8.793 1.829 2.672-5.99.336-8.974-12.229-6.225-12.229-6.225" class="cls-10" transform="translate(-686.123 338.991)"/></g><g id="g486" transform="translate(198.478 115.178)"><path id="path488" d="M692.976-336.248a68.922 68.922 0 0 0-6.877-2.733 10.552 10.552 0 0 1 2.354 6.637s1.6 1.444 2.11 1.139c.656-.39-.585-2.567 0-3.054.7-.578 3 1.406 3.57.7.463-.573-1.158-2.69-1.158-2.69" class="cls-15" transform="translate(-686.099 338.981)"/></g><g id="g490" transform="translate(178.189 84.459)"><path id="path492" d="M702.141-359.245H674.43a1.724 1.724 0 0 0-1.715 1.717v36.511a1.724 1.724 0 0 0 1.715 1.717h15.47a1.724 1.724 0 0 0 1.715-1.717v-26.093a1.727 1.727 0 0 1 1.721-1.722 1.725 1.725 0 0 1 1.715 1.722v5.867a1.728 1.728 0 0 0 1.728 1.717h1.8v6.947a1.692 1.692 0 0 0 1.683 1.685h1.876a1.692 1.692 0 0 0 1.683-1.685l.032-24.949a1.724 1.724 0 0 0-1.715-1.717" class="cls-15" transform="translate(-672.715 359.245)"/></g><g id="g494" transform="translate(93.609 93.451)"><path id="path496" d="M633.617-351.019v12.1a2.3 2.3 0 0 1-2.3 2.294h-12.101a2.3 2.3 0 0 1-2.3-2.294v-12.1a2.3 2.3 0 0 1 2.3-2.294h12.106a2.3 2.3 0 0 1 2.3 2.294" class="cls-21" transform="translate(-616.92 353.313)"/></g><g id="g498" transform="translate(119.072 93.443)"><path id="path500" d="M650.4-351.024v12.1a2.286 2.286 0 0 1-2.3 2.294H636a2.288 2.288 0 0 1-2.291-2.294v-12.1a2.288 2.288 0 0 1 2.291-2.294h12.1a2.286 2.286 0 0 1 2.3 2.294" class="cls-20" transform="translate(-633.717 353.318)"/></g><g id="g502" transform="translate(144.534 93.438)"><path id="path504" d="M667.192-351.027v12.1a2.293 2.293 0 0 1-2.289 2.294H652.8a2.282 2.282 0 0 1-2.289-2.294v-12.1a2.282 2.282 0 0 1 2.289-2.294h12.1a2.293 2.293 0 0 1 2.289 2.294" class="cls-22" transform="translate(-650.514 353.321)"/></g><g id="g506" transform="translate(140.069 115.378)"><path id="path508" d="M668.6-326.377l-8.558 8.551a2.282 2.282 0 0 1-3.239 0l-8.558-8.551a2.285 2.285 0 0 1 0-3.241l8.558-8.556a2.283 2.283 0 0 1 3.239 0l8.558 8.556a2.29 2.29 0 0 1 0 3.241" class="cls-15" transform="translate(-647.568 338.848)"/></g><g id="g510" transform="translate(112.633 153.335)"><path id="path512" d="M638.993-312.976l-5.857-.326s-3.6-2.006-3.666 1.963 5.9 39.674 5.9 39.674c1.285.84 3.891.38 3.891.38 1.22-20.054.918-40.728-.266-41.69" class="cls-25" transform="translate(-629.47 313.809)"/></g><g id="g514" transform="translate(104.767 151.563)"><path id="path516" d="M634.439-314.472h-5.833s-3.322-2.005-3.932 1.963-.329 41.766-.329 41.766c1.174.839 3.533 0 3.533 0 3.192-7.172 6.561-43.729 6.561-43.729" class="cls-25" transform="translate(-624.281 314.979)"/></g><g id="g518" transform="translate(110.528 119.687)"><path id="path520" d="M628.081-328.381h6.319v-7.626h-6.315v7.626" class="cls-20" transform="translate(-628.081 336.006)"/></g><g id="g522" transform="translate(108.05 111.698)"><path id="path524" d="M634.653-340a1.992 1.992 0 0 1-1.345-.2c-1.274-.7-3.156-2.011-6.854-.016a1.422 1.422 0 0 1 1.15 1.449s-4.182 6.749 3.35 10.818a2.336 2.336 0 0 0 2.265-.011 7.945 7.945 0 0 0 3.952-4.679c1.032-3.642.578-7.942-2.518-7.364" class="cls-16" transform="translate(-626.447 341.276)"/></g><g id="g526" transform="translate(103.643 125.949)"><path id="path528" d="M641.628-330.357l-4.264-1.519H629.8l-4.176 1.519a3.471 3.471 0 0 0-2.085 3.177v25.119c0 3.46 20.173 3.46 20.173 0v-25.119a3.462 3.462 0 0 0-2.085-3.177" class="cls-15" transform="translate(-623.54 331.875)"/></g><g id="g530" transform="translate(109.557 125.054)"><path id="path532" d="M635.6-331.444a6.8 6.8 0 0 1-8.157 0 10.177 10.177 0 0 0 .948-1.021 5.9 5.9 0 0 0 6.256 0 11.8 11.8 0 0 0 .953 1.021" class="cls-4" transform="translate(-627.441 332.465)"/></g><g id="g534" transform="translate(117.648 194.188)"><path id="path536" d="M638.32-285.246a2.438 2.438 0 0 0-2.629-1.615 2.445 2.445 0 0 0-2.635 1.615.42.42 0 0 0-.278.428c0 .246.154.449.338.449h5.145c.189 0 .337-.2.337-.449a.413.413 0 0 0-.278-.428" class="cls-16" transform="translate(-632.778 286.86)"/></g><g id="g538" transform="translate(103.876 194.169)"><path id="path540" d="M629.232-285.258a2.44 2.44 0 0 0-2.632-1.615 2.444 2.444 0 0 0-2.632 1.615.413.413 0 0 0-.274.428c0 .246.152.449.333.449h5.147c.187 0 .338-.2.338-.449a.417.417 0 0 0-.28-.428" class="cls-16" transform="translate(-623.693 286.872)"/></g><g id="g542" transform="translate(145.184 125.041)"><path id="path544" d="M652.9-332.265c-.359-.129-1.955 3.508-1.955 3.508l1.181 1.283c.712.091 3.794-1.684 4.482-3a.539.539 0 0 0 .03-.434 2.294 2.294 0 0 0-1.7-1.545.587.587 0 0 0-.511.112 9.74 9.74 0 0 0-1.461 1.53c.03-.1.353-1.412-.061-1.449" class="cls-20" transform="translate(-650.943 332.474)"/></g><g id="g546" transform="translate(117.929 128.5)"><path id="path548" d="M660.03-330.192c-2.8 2.188-9.883 4.84-12.194 6.3 0 0-8.822-3.1-9.847-5.016l-5.026 4.246s10.411 5.947 13.327 5.76c4.087-.284 15.486-9.535 15.486-9.535-.206-1.1-1.746-1.754-1.746-1.754" class="cls-15" transform="translate(-632.963 330.192)"/></g><g id="g550" transform="translate(97.24 101.782)"><path id="path552" d="M623.6-344.838c.243.289-2.541 3.112-2.541 3.112l-1.632-.626c-.342-.631.162-4.15 1.14-5.278a.535.535 0 0 1 .394-.187 2.317 2.317 0 0 1 2.066 1.016.6.6 0 0 1 .081.524 9.923 9.923 0 0 1-.88 1.915c.075-.064 1.175-.845 1.372-.476" class="cls-20" transform="translate(-619.316 347.818)"/></g><g id="g554" transform="translate(93.63 106.939)"><path id="path556" d="M622.593-343.412c-1.006 3.4-.866 10.973-1.372 13.658 0 0 6.129 7.059 8.292 7.3l-2.093 6.241s-9.368-7.492-10.263-10.273c-1.244-3.9 3.163-17.91 3.163-17.91 1.093-.208 2.273.979 2.273.979" class="cls-15" transform="translate(-616.935 344.415)"/></g><g id="g558" transform="translate(247.285 173.106)"><path id="path560" d="M718.3-277.205h25.592v-23.562H718.3v23.562" class="cls-28" transform="translate(-718.296 300.768)"/></g><g id="g562" transform="translate(243.87 173.171)"><path id="path564" d="M716.043-292.044h25.4l3.521-8.68h-25.4l-3.521 8.68" class="cls-20" transform="translate(-716.043 300.724)"/></g><g id="g566" transform="translate(272.844 173.108)"><path id="path568" d="M750.269-277.2h-15.113v-23.563h15.114v23.563" class="cls-12" transform="translate(-735.156 300.766)"/></g><g id="g570" transform="translate(272.917 173.187)"><path id="path572" d="M753.644-292.035h-14.923l-3.517-8.679h14.923l3.517 8.679" class="cls-20" transform="translate(-735.204 300.714)"/></g><g id="g574" transform="translate(13.407 101.679)"><path id="path576" d="M583.8-324.889c-.785-1.348-2.723-.936-4.589.6a12.6 12.6 0 0 0-4.216 7.075c-.362-3.155-.653-6.327-.73-9.5 2.256.374 4.9-1.085 6.927-2.77 1.993-1.722 3.321-3.653 2.706-5-.6-1.3-2.541-1.278-4.633-.117a11.393 11.393 0 0 0-5.05 6.364c.005-1.658 0-3.321.1-4.979 1.537-2.283 2.519-5.877 3.376-8.6.379-1.423.791-2.5.994-3.423a2.762 2.762 0 0 0-.039-2.241c-.351-.572-1.339-.583-2.508.192a8.3 8.3 0 0 0-2.794 4.022c-1.284 3.471-1.026 7.642.269 10.086-.11 1.652-.1 3.3-.11 4.958a19.973 19.973 0 0 0-4.578-7.3c-1.795-1.823-3.65-2.631-4.556-.845-.982 1.915.159 4.8 2.174 6.845 1.96 2.086 4.814 3.348 7.01 2.829.082 3.2.373 6.386.73 9.562a17.327 17.327 0 0 0-5.434-6.551c-2.069-1.45-4-1.872-4.638-.123-.67 1.839.79 4.4 3 6.155 2.212 1.776 5.138 2.77 7.273 2.032.406 3.172.955 6.322 1.575 9.455-2.788-5.005-9.628-9.183-10.6-5.722-.505 1.856 1.164 4.225 3.508 5.787s5.335 2.337 7.4 1.428c.648 3.129 1.449 6.225 2.294 9.306-3.167-4.786-10.281-8.407-11.005-4.883-.34 1.877 1.482 4.107 3.947 5.487 2.432 1.4 5.5 1.925 7.492.861.889 3.07 1.921 6.1 3.046 9.087-3.579-4.487-10.94-7.584-11.39-3.995-.176 1.909 1.806 4.016 4.4 5.193 2.558 1.208 5.637 1.47 7.536.23 1.186 2.968 2.465 5.9 3.936 8.749-4.04-4.054-11.659-6.568-11.758-2.9-.005 1.952 2.207 3.915 4.94 4.851 2.69.962 5.78.872 7.525-.594a67.261 67.261 0 0 0 5.132 8.124c-4.66-3.284-12.553-5.081-12.158-1.316.285 2 2.843 3.776 5.752 4.337 2.843.62 5.972-.07 7.366-1.829a30.605 30.605 0 0 0 9.633 8.214c.242.128.505.091.582-.086a.457.457 0 0 0-.263-.551 29.591 29.591 0 0 1-9.4-8.022c2.009-1.1 3.244-3.77 3.979-6.278.653-2.46.692-4.8-.681-5.621-2.547-1.706-6.23 5.113-4.254 10.723a67.36 67.36 0 0 1-5.066-8.033c2.157-.669 3.93-3.145 4.978-5.572.994-2.412 1.307-4.878.017-5.936-2.388-2.1-6.713 4.353-5.7 10.167-1.46-2.819-2.728-5.733-3.908-8.685 2.234-.406 4.276-2.663 5.56-5.005 1.241-2.343 1.773-4.83.56-6.033-2.2-2.359-7.031 3.754-6.669 9.621a129.78 129.78 0 0 1-3.025-9.038c2.273-.209 4.485-2.273 5.961-4.524 1.438-2.252 2.146-4.7 1.043-6.012-2.026-2.54-7.284 3.2-7.432 9.081-.84-3.065-1.641-6.145-2.278-9.263 2.272-.032 4.655-1.926 6.285-4.054 1.614-2.14 2.481-4.519 1.509-5.9-1.844-2.679-7.509 2.615-8.107 8.477-.615-3.123-1.169-6.257-1.57-9.407 2.267.15 4.8-1.556 6.587-3.524 1.795-1.989 2.871-4.23 2.025-5.664" class="cls-12" transform="translate(-564.014 347.885)"/></g><g id="g578" transform="translate(25.624 186.642)"><path id="path580" d="M572.266-287.142l8.127-4.7v10.048l-8.127-4.7a.376.376 0 0 1 0-.657" class="cls-20" transform="translate(-572.073 291.838)"/></g><path id="path582" d="M574.6-286.3l-2.31-1.337a.377.377 0 0 1 0-.658l2.31-1.337c1.139 0 1.139 3.332 0 3.332" class="cls-25" transform="translate(-546.439 479.618)"/><g id="g584" transform="translate(31.434 186.653)"><path id="path586" d="M577.851-284.83l-1.763-1.572a.539.539 0 0 1 0-.808l1.763-1.572-1.763-1.588-.069-.085 2.381-1.375h65.082a1.619 1.619 0 0 1 1.619 1.62v6.8a1.624 1.624 0 0 1-1.619 1.626H578.4l-2.381-1.38.069-.091 1.763-1.572" class="cls-19" transform="translate(-575.905 291.831)"/></g><g id="g588" transform="translate(90.219 186.653)"><path id="path590" d="M614.684-291.831h8.792a1.619 1.619 0 0 1 1.619 1.62v6.8a1.624 1.624 0 0 1-1.619 1.626h-8.792v-10.043" class="cls-24" transform="translate(-614.684 291.831)"/></g><g id="g592" transform="translate(89.064 186.655)"><path id="path594" d="M616.6-291.83v10.043h-2.674v-10.043h2.674" class="cls-4" transform="translate(-613.922 291.83)"/></g></g></g></g></g></svg>