<svg xmlns="http://www.w3.org/2000/svg" id="artboard-svg" width="96" height="64" viewBox="0 0 96 64" style="width:562.5px"><defs><style>.cls-1 { clip-path: url(#clip-Mobile_Page_-_2); } .cls-2 { fill: #eee; } .cls-3, .cls-4, .cls-5 { fill: #bdbdbd; } .cls-4 { fill-rule: evenodd; } .cls-5, .cls-6 { font-size: 10px; } .cls-31, .cls-32, .cls-5, .cls-6, .cls-8 { font-family: ArialMT, Arial; } .cls-6, .cls-8, .cls-9 { fill: #534daa; } .cls-7 { fill: #fff; } .cls-8 { font-size: 20px; } .cls-10 { fill: #e3e8e6; } .cls-11 { fill: #b3bad3; } .cls-12 { fill: #213760; } .cls-13 { fill: none; stroke: #eee; } .cls-14 { fill: #f7f8fd; } .cls-15 { fill: #bfb2df; } .cls-16 { fill: #99deef; } .cls-17 { fill: #d4d3ee; } .cls-18 { fill: #a79cd6; } .cls-19 { fill: #5762b7; } .cls-20 { fill: #234465; } .cls-21 { fill: #305c78; } .cls-22 { fill: #e8eaf7; } .cls-23 { fill: #6dccd6; } .cls-24 { fill: #f5af45; } .cls-25 { fill: #e4519c; } .cls-26 { fill: #83d6e5; } .cls-27 { fill: #3e52ac; } .cls-28 { fill: #f46bac; } .cls-29 { fill: #295072; } .cls-30 { fill: #3545a2; } .cls-31 { fill: #424242; } .cls-31, .cls-32 { font-size: 9px; } .cls-32 { fill: #566cff; } .cls-33 { fill: #f682b9; } .cls-34 { fill: #ee9f3d; } .cls-35 { fill: #e49035; } .cls-36 { filter: url(#Rectangle_6); } .cls-37 { filter: url(#Rectangle_5); } .cls-38 { filter: url(#Rectangle_3); } .cls-39 { filter: url(#Rectangle_8); } .cls-40 { filter: url(#Rectangle_7); } .cls-41 { filter: url(#Rectangle_4); }</style><filter id="Rectangle_4" width="295" height="172" x="52" y="183" filterUnits="userSpaceOnUse"><feOffset dy="3"/><feGaussianBlur result="blur" stdDeviation="3"/><feFlood flood-opacity=".161"/><feComposite in2="blur" operator="in"/><feComposite in="SourceGraphic"/></filter><filter id="Rectangle_7" width="295" height="156" x="52" y="400" filterUnits="userSpaceOnUse"><feOffset dy="3"/><feGaussianBlur result="blur-2" stdDeviation="3"/><feFlood flood-opacity=".161"/><feComposite in2="blur-2" operator="in"/><feComposite in="SourceGraphic"/></filter><filter id="Rectangle_8" width="295" height="182" x="52" y="603" filterUnits="userSpaceOnUse"><feOffset dy="3"/><feGaussianBlur result="blur-3" stdDeviation="3"/><feFlood flood-opacity=".161"/><feComposite in2="blur-3" operator="in"/><feComposite in="SourceGraphic"/></filter><filter id="Rectangle_3" width="68" height="68" x="27" y="158" filterUnits="userSpaceOnUse"><feOffset dy="3"/><feGaussianBlur result="blur-4" stdDeviation="3"/><feFlood flood-opacity=".161"/><feComposite in2="blur-4" operator="in"/><feComposite in="SourceGraphic"/></filter><filter id="Rectangle_5" width="68" height="68" x="27" y="375" filterUnits="userSpaceOnUse"><feOffset dy="3"/><feGaussianBlur result="blur-5" stdDeviation="3"/><feFlood flood-opacity=".161"/><feComposite in2="blur-5" operator="in"/><feComposite in="SourceGraphic"/></filter><filter id="Rectangle_6" width="68" height="68" x="27" y="573" filterUnits="userSpaceOnUse"><feOffset dy="3"/><feGaussianBlur result="blur-6" stdDeviation="3"/><feFlood flood-opacity=".161"/><feComposite in2="blur-6" operator="in"/><feComposite in="SourceGraphic"/></filter><clipPath id="clip-Mobile_Page_-_2"><path d="M0 0h375v812H0z"/></clipPath></defs><g transform="translate(-85 -444)"><g id="Mobile_Page_-_2" class="cls-1" data-name="Mobile Page - 2"><g id="layer1-5" data-name="layer1" transform="translate(75.126 377.613)"><g id="g326" transform="translate(74.296 66.387)"><path id="path328" d="M692.186-414.97l8.336 1.564-8.5.613.166-2.177" class="cls-17" transform="translate(-692.02 414.97)"/></g><g id="g330" transform="translate(74.296 67.951)"><path id="path332" d="M692.02-410.984l8.5-.613-7.452 3.771-1.049-3.157" class="cls-18" transform="translate(-692.02 411.597)"/></g><g id="g334" transform="translate(74.153 67.951)"><path id="path336" d="M691.71-409.953l8.645-1.644-8.592 3.7-.053-2.053" class="cls-17" transform="translate(-691.71 411.597)"/></g><g id="g338" transform="translate(25.727 68.639)"><path id="path340" d="M629.889-409.739l-.022-.361c.245-.013.493-.015.736-.01l-.008.361a7.923 7.923 0 0 0-.706.01zm2.118.123a11.74 11.74 0 0 0-.7-.088l.035-.36c.241.025.483.054.726.092zm-3.5.1l-.1-.348a6.506 6.506 0 0 1 .724-.155l.057.357a6.112 6.112 0 0 0-.682.142zm4.905.177c-.232-.054-.463-.1-.7-.151l.069-.353c.237.046.475.1.711.151zm1.388.339c-.228-.06-.461-.121-.695-.178l.086-.35c.235.059.471.119.7.18zm-7.6 0l-.169-.321c.249-.129.461-.229.667-.314l.137.334c-.187.086-.389.182-.627.306zm-1.256.705l-.171-.317c.173-.093.343-.193.514-.291l.108-.062.181.312-.108.062a9.045 9.045 0 0 1-.516.302zm-12.721.155l-.059-.356a5.136 5.136 0 0 1 .746-.062v.362a4.8 4.8 0 0 0-.679.062zm2.1.049a12.43 12.43 0 0 0-.7-.082l.028-.36c.245.02.489.049.728.085zm1.4.275q-.35-.081-.7-.152l.071-.353c.237.048.473.1.711.152zm7.886.136l-.124-.339c.22-.082.438-.173.652-.271l.151.327c-.222.1-.448.2-.679.283zm-12.632.033l-.222-.286a2.747 2.747 0 0 1 .675-.37l.13.335a2.294 2.294 0 0 0-.573.326zm6.147.164a47.755 47.755 0 0 1-.7-.168l.086-.35c.232.057.465.113.7.167zm5.078.213l-.077-.353c.232-.049.461-.106.687-.172l.1.347a6.834 6.834 0 0 1-.7.182zm-3.651.075q-.359-.057-.718-.133l.073-.353c.234.049.467.093.7.129zm2.194.119l-.022-.36c.236-.015.471-.038.7-.069l.049.358a7.1 7.1 0 0 1-.716.076zm-.734.015c-.222 0-.444-.015-.663-.034h-.065l.022-.361.075.007c.212.018.424.029.638.033zm-9.865.507l-.3-.2c.053-.08.1-.165.153-.248.076-.124.149-.249.232-.366l.3.2a6.315 6.315 0 0 0-.218.348 3.4 3.4 0 0 1-.156.271zm-1.1 1.042l-.183-.312a3.064 3.064 0 0 0 .548-.4l.245.263a3.416 3.416 0 0 1-.61.453zm-1.386.543l-.088-.348a6.043 6.043 0 0 0 .667-.209l.13.337a6.227 6.227 0 0 1-.693.225zm-1.441.258l-.045-.358c.236-.029.471-.062.7-.1l.063.355a9.7 9.7 0 0 1-.702.108zm-1.45.114l-.018-.361c.237-.01.477-.023.712-.041l.029.36c-.225.023-.468.039-.707.048zm-4.334.015l-.006-.361c.241 0 .483-.007.724-.007v.362c-.223.005-.463.006-.702.011zm2.159 0l-.72-.006v-.362l.722.008zm.816 0h-.094v-.36h.718l.006.36a8.754 8.754 0 0 1-.614.014zm-4.391.082l-.053-.357q.324-.049.589-.064l.147-.006.016.36-.143.007c-.151.023-.335.042-.539.073zm-1.39.309l-.094-.347c.245-.069.483-.128.707-.178l.081.352c-.204.064-.436.121-.677.187zm-1.37.425l-.118-.342q.356-.123.695-.226l.106.345c-.205.081-.432.157-.666.237zm-1.346.5l-.133-.335c.23-.09.455-.177.679-.26l.126.339c-.206.09-.43.177-.655.265zm-1.321.563l-.151-.329c.224-.1.446-.2.667-.293l.141.334c-.203.102-.423.197-.64.297zm-1.294.623l-.165-.319c.216-.111.434-.221.65-.327l.159.326c-.199.113-.415.22-.627.329zm-1.254.693l-.183-.309c.2-.124.416-.244.63-.361l.175.316c-.193.125-.401.241-.605.364zm-1.2.777l-.208-.294c.194-.139.4-.275.6-.409l.2.3c-.188.143-.386.277-.576.413zm-1.115.882l-.243-.268c.177-.159.365-.316.563-.471l.222.283q-.271.235-.526.465zm-.948 1.032l-.294-.209a5.839 5.839 0 0 1 .475-.574l.263.245a5.549 5.549 0 0 0-.425.547zm-.606 1.243l-.34-.119c.055-.159.114-.317.175-.474a3.36 3.36 0 0 1 .092-.214l.326.154c-.029.064-.059.128-.081.19-.047.162-.102.316-.157.472zm-.387 1.364l-.353-.074c.051-.237.11-.476.179-.712l.345.1a9.568 9.568 0 0 0-.171.687zm-.167 1.4l-.363-.007a6.849 6.849 0 0 1 .053-.738l.357.044a6.179 6.179 0 0 0-.031.707zm-.179 1.474a4.624 4.624 0 0 1-.145-.736l.357-.041a4.362 4.362 0 0 0 .135.677zm.658 1.345a3.929 3.929 0 0 1-.389-.643l.324-.159a3.542 3.542 0 0 0 .355.589zm1.036 1.063q-.289-.238-.548-.5l.257-.254a5.9 5.9 0 0 0 .52.471zm1.231.815a8.479 8.479 0 0 1-.636-.38l.2-.3c.19.124.393.247.607.36zm1.343.59a10.15 10.15 0 0 1-.681-.27l.143-.33q.324.142.659.26zm1.405.4a12.487 12.487 0 0 1-.709-.182l.1-.347c.228.067.457.124.689.177zm1.437.255c-.24-.033-.481-.069-.72-.111l.063-.355c.234.041.471.077.707.108l-.049.358" class="cls-17" transform="translate(-587.274 410.113)"/></g><g id="g342" transform="translate(14.981 80.543)"><path id="path344" d="M647.87-338.133a42.617 42.617 0 0 0 .218-4.313 41.994 41.994 0 0 0-41.994-41.994 42 42 0 0 0-42 41.994 42.6 42.6 0 0 0 .221 4.313h83.555" class="cls-14" transform="translate(-564.098 384.44)"/></g><g id="g346" transform="translate(10.874 126.537)"><path id="path348" d="M647.355-285.247h-91.9a.214.214 0 0 0-.215.214.215.215 0 0 0 .215.214h91.9a.215.215 0 0 0 .215-.214.214.214 0 0 0-.215-.214" class="cls-15" transform="translate(-555.24 285.247)"/></g><g id="g350" transform="translate(80.949 87.711)"><path id="path352" d="M714.425-355.928a4.987 4.987 0 0 1-4.98-5 4.989 4.989 0 0 1 5-4.978 4.988 4.988 0 0 1 4.976 5 4.984 4.984 0 0 1-4.996 4.978zm8.071-3.72v-2.5h-1.617a6.5 6.5 0 0 0-1-2.428l1.143-1.139-1.765-1.773-1.143 1.139a6.588 6.588 0 0 0-2.425-1.009v-1.615h-2.5v1.615a6.59 6.59 0 0 0-2.429 1l-1.139-1.143-1.773 1.767 1.138 1.143a6.553 6.553 0 0 0-1.006 2.423h-1.617v2.5h1.615a6.522 6.522 0 0 0 1 2.428l-1.147 1.138 1.767 1.775 1.145-1.139a6.566 6.566 0 0 0 2.423 1.008v1.615l2.5.007v-1.616a6.54 6.54 0 0 0 2.427-1l1.138 1.143 1.773-1.767-1.138-1.143a6.5 6.5 0 0 0 1.008-2.423h1.617" class="cls-21" transform="translate(-706.367 368.982)"/></g><g id="g354" transform="translate(21.745 96.887)"><path id="path356" d="M591.93-340.871a5.21 5.21 0 0 1-5.481 4.922 5.21 5.21 0 0 1-4.926-5.48 5.212 5.212 0 0 1 5.482-4.925 5.211 5.211 0 0 1 4.925 5.483zm1.24-1.176a6.47 6.47 0 0 0-.864-2.45l1.19-1.068-1.658-1.845-1.19 1.068a6.474 6.474 0 0 0-2.345-1.121l.087-1.6-2.474-.133-.085 1.6a6.507 6.507 0 0 0-2.451.864l-1.07-1.189-1.843 1.657 1.068 1.189a6.469 6.469 0 0 0-1.118 2.346l-1.6-.087-.133 2.475 1.6.085a6.429 6.429 0 0 0 .864 2.452l-1.192 1.068 1.658 1.844 1.19-1.068a6.442 6.442 0 0 0 2.343 1.12l-.086 1.6 2.476.133.084-1.6a6.5 6.5 0 0 0 2.453-.864l1.066 1.189 1.844-1.657-1.068-1.188a6.473 6.473 0 0 0 1.12-2.346l1.6.085.133-2.473-1.6-.087" class="cls-21" transform="translate(-578.685 349.192)"/></g><g id="g358" transform="translate(26.991 102.112)"><path id="path360" d="M595.611-334.965a2.809 2.809 0 0 1-2.954 2.655 2.811 2.811 0 0 1-2.657-2.956 2.809 2.809 0 0 1 2.957-2.655 2.806 2.806 0 0 1 2.652 2.956" class="cls-21" transform="translate(-589.998 337.925)"/></g><g id="g362" transform="translate(47.818 113.632)"><path id="path364" d="M656.593-301.4c-4.427-2.953-5.751-11.682-5.751-11.682h-10.175s-1.324 8.73-5.751 11.682h21.677" class="cls-27" transform="translate(-634.915 313.079)"/></g><g id="g366" transform="translate(29.83 80.88)"><path id="path368" d="M596.121-382.138v33.607a1.575 1.575 0 0 0 1.576 1.575h54.5a1.575 1.575 0 0 0 1.576-1.575v-33.607a1.575 1.575 0 0 0-1.576-1.575H597.7a1.575 1.575 0 0 0-1.576 1.575" class="cls-19" transform="translate(-596.121 383.713)"/></g><g id="g370" transform="translate(45.687 124.11)"><path id="path372" d="M654.945-290.481h-23.4a1.222 1.222 0 0 0-1.222 1.223 1.222 1.222 0 0 0 1.222 1.223h23.4a1.224 1.224 0 0 0 1.224-1.223 1.224 1.224 0 0 0-1.224-1.223" class="cls-30" transform="translate(-630.319 290.481)"/></g><g id="g374" transform="translate(57.556 114.189)"><path id="path376" d="M658.031-310.822a1.056 1.056 0 0 1-1.056 1.058 1.057 1.057 0 0 1-1.058-1.058 1.059 1.059 0 0 1 1.058-1.057 1.058 1.058 0 0 1 1.056 1.057" class="cls-30" transform="translate(-655.917 311.878)"/></g><g id="g378" transform="translate(31.392 82.519)"><path id="path380" d="M653.92-349.558v-30.621h-54.429v30.621h54.429" class="cls-17" transform="translate(-599.491 380.179)"/></g><g id="g382" transform="translate(36.243 75.974)"><path id="path384" d="M609.952-357.149v-35.435a1.711 1.711 0 0 1 1.709-1.71h41.4a1.712 1.712 0 0 1 1.709 1.71v35.435h-44.818" class="cls-20" transform="translate(-609.952 394.293)"/></g><g id="g386" transform="translate(73.659 77.508)"><path id="path388" d="M691.248-390.986a.6.6 0 0 0-.6.6.6.6 0 0 0 .6.6.6.6 0 0 0 .6-.6.6.6 0 0 0-.6-.6" class="cls-7" transform="translate(-690.645 390.986)"/></g><g id="g390" transform="translate(75.773 77.504)"><path id="path392" d="M695.808-390.995a.6.6 0 0 0-.6.6.6.6 0 0 0 .6.6.6.6 0 0 0 .6-.6.6.6 0 0 0-.6-.6" class="cls-7" transform="translate(-695.204 390.995)"/></g><g id="g394" transform="translate(77.891 77.499)"><path id="path396" d="M700.374-391.006a.6.6 0 0 0-.6.6.6.6 0 0 0 .6.6.6.6 0 0 0 .6-.6.6.6 0 0 0-.6-.6" class="cls-7" transform="translate(-699.773 391.006)"/></g><g id="g398" transform="translate(36.669 80.701)"><path id="path400" d="M610.871-351.657V-384.1h43.861v32.443h-43.861" class="cls-7" transform="translate(-610.871 384.1)"/></g><g id="g402" transform="translate(62.561 82.02)"><path id="path404" d="M666.71-372.406h16.534v-8.848H666.71v8.848" class="cls-26" transform="translate(-666.71 381.254)"/></g><g id="g406" transform="translate(37.999 77.517)"><path id="path408" d="M639.948-390.967h-25.606a.6.6 0 0 0-.6.6.6.6 0 0 0 .6.6h25.607a.6.6 0 0 0 .6-.6.6.6 0 0 0-.6-.6" class="cls-17" transform="translate(-613.74 390.967)"/></g><g id="g410" transform="translate(38.144 82.053)"><path id="path412" d="M635.955-372.337h-21.9v-8.847h21.9v8.847" class="cls-33" transform="translate(-614.051 381.184)"/></g><g id="g414" transform="translate(40.043 83.324)"><path id="path416" d="M621.272-378.442a3.126 3.126 0 0 0-3.125 3.124 3.125 3.125 0 0 0 3.125 3.125 3.124 3.124 0 0 0 3.125-3.125 3.125 3.125 0 0 0-3.125-3.124" class="cls-7" transform="translate(-618.148 378.442)"/></g><g id="g418" transform="translate(40.983 85.262)"><path id="path420" d="M621.817-371.254a.274.274 0 0 1-.2-.082l-1.365-1.364a.276.276 0 0 1 0-.393.275.275 0 0 1 .392 0l1.168 1.168 2.26-2.257a.278.278 0 0 1 .392 0 .279.279 0 0 1 0 .393l-2.456 2.454a.271.271 0 0 1-.2.082" class="cls-20" transform="translate(-620.175 374.263)"/></g><g id="g422" transform="translate(49.22 83.844)"><path id="path424" d="M646.953-376.472h-9.013v-.85h9.014v.85" class="cls-7" transform="translate(-637.94 377.322)"/></g><g id="g426" transform="translate(49.22 85.833)"><path id="path428" d="M646.953-372.184h-9.013v-.849h9.014v.849" class="cls-7" transform="translate(-637.94 373.032)"/></g><g id="g430" transform="translate(49.22 87.82)"><path id="path432" d="M646.953-367.9h-9.013v-.849h9.014v.849" class="cls-7" transform="translate(-637.94 368.746)"/></g><g id="g434" transform="translate(80.116 116.056)"><path id="path436" d="M704.571-307.852l.974 9.878h.756l.952-9.878h-2.681" class="cls-30" transform="translate(-704.571 307.852)"/></g><g id="g438" transform="translate(80.012 125.946)"><path id="path440" d="M705.394-286.523l-.115.173a.091.091 0 0 1-.05.039l-.812.182a.107.107 0 0 0-.071.1.1.1 0 0 0 .095.11h1.616a.1.1 0 0 0 .093-.11v-.5h-.755" class="cls-20" transform="translate(-704.346 286.523)"/></g><g id="g442" transform="translate(82.204 125.94)"><path id="path444" d="M710.12-286.536l-.114.173a.1.1 0 0 1-.051.039l-.811.182a.108.108 0 0 0-.071.1.1.1 0 0 0 .1.109h1.614a.1.1 0 0 0 .093-.109v-.5h-.756" class="cls-20" transform="translate(-709.073 286.536)"/></g><g id="g446" transform="translate(81.814 115.81)"><path id="path448" d="M708.232-308.383l1.451 10.124h.756l.591-9.537-2.8-.587" class="cls-27" transform="translate(-708.232 308.383)"/></g><g id="g450" transform="translate(80.695 104.45)"><path id="path452" d="M706.7-329.44l-.1-.458s-.671.115-.758-.23-.032-2.781.865-2.753 2.191.952 2.112 1.482a8.523 8.523 0 0 1-.389 1.346l-1.429.577-.306.036" class="cls-24" transform="translate(-705.819 332.881)"/></g><g id="g454" transform="translate(79.914 106.912)"><path id="path456" d="M708.837-318.2a12.309 12.309 0 0 1-.435-3.077c.116-3.986-.872-5.571-.872-5.571l-.043-.72a3.818 3.818 0 0 1-1.717.993 13.724 13.724 0 0 0-1.307 2.97 32.649 32.649 0 0 0-.254 6.045c.155.311 3.522.4 4.193-.011.26-.16.506-.332.435-.63" class="cls-25" transform="translate(-704.135 327.571)"/></g><g id="g458" transform="translate(80.523 103.878)"><path id="path460" d="M705.768-334.108a1.951 1.951 0 0 0 .814.088 2.276 2.276 0 0 1 2.043.422c.76.857.307 1.387-.063 2.154a2.386 2.386 0 0 0-.335 1.085c-.327 0-.888-.021-.888-.021a11.76 11.76 0 0 0 .1-1.492c-.516-.494-.534.872-.534.872l-.25-.015-.065-.883a3.579 3.579 0 0 0-.382-.355.7.7 0 0 0-.335-.708c-.53-.343-.439-.494-.4-.818.043-.306.16-.362.286-.329" class="cls-29" transform="translate(-705.448 334.116)"/></g><g id="g462" transform="translate(78.727 109.076)"><path id="path464" d="M702.385-321.568c.6-.494 1.274-1.058 1.611-1.338l.441 1.058c-.344.162-.721.3-1.051.438-.632.272-1.232.533-1.586.689l-.223-.53a1.291 1.291 0 0 0 .809-.317" class="cls-34" transform="translate(-701.576 322.906)"/></g><g id="g466" transform="translate(74.236 105.43)"><path id="path468" d="M692.911-330.767l4.443 6.464a.233.233 0 0 1-.058.324l-.639.438a.234.234 0 0 1-.324-.059l-4.443-6.466 1.021-.7" class="cls-27" transform="translate(-691.89 330.767)"/></g><g id="g470" transform="translate(75.556 108.15)"><path id="path472" d="M700.142-323.626l-1.02 1.2s-1.2-.486-2.192-.891a1.293 1.293 0 0 1-.7-.633c-.226-.435-.089-.679-.6-.952 0 0 .157.414-.058.492s-.486 0-.782-.482a.9.9 0 0 0 .834 1.233s.794.622 1.638 1.3 1.856 1.78 2.712.774a15.488 15.488 0 0 0 1.1-1.393l-.929-.646" class="cls-24" transform="translate(-694.736 324.902)"/></g><g id="g474" transform="translate(80.185 108.17)"><path id="path476" d="M706.965-324.734l-.012-.008a.743.743 0 0 0-1.021.214l-1.213 1.762a1.233 1.233 0 0 0 1.081.8l1.336-1.688a.729.729 0 0 0-.172-1.076" class="cls-28" transform="translate(-704.719 324.859)"/></g><g id="g478" transform="translate(77.793 111.152)"><path id="path480" d="M699.8-318.427a.681.681 0 0 1 .5.712c-.034.358-.335.27-.435.182a1.262 1.262 0 0 1-.3-.646c.038-.114.146-.247.231-.247" class="cls-34" transform="translate(-699.561 318.427)"/></g><g id="g482" transform="translate(71.541 101.628)"><path id="path484" d="M686.077-338.968c1.366 1.745.236 3.178.948 4.089a1.956 1.956 0 0 0 2.689.559 1.957 1.957 0 0 0 .1-2.745c-.714-.911-3.74-1.9-3.74-1.9" class="cls-15" transform="translate(-686.077 338.968)"/></g><g id="g486" transform="translate(71.582 101.607)"><path id="path488" d="M688.269-338.177a21.085 21.085 0 0 0-2.1-.836 3.228 3.228 0 0 1 .72 2.03s.488.442.646.349c.2-.119-.179-.785 0-.934.214-.177.919.43 1.092.214.142-.175-.354-.823-.354-.823" class="cls-19" transform="translate(-686.166 339.013)"/></g><g id="g490" transform="translate(65.337 92.23)"><path id="path492" d="M681.7-359.235h-8.476a.527.527 0 0 0-.525.525v11.167a.527.527 0 0 0 .525.525h4.733a.527.527 0 0 0 .525-.525v-7.981a.528.528 0 0 1 .526-.527.528.528 0 0 1 .525.527v1.794a.528.528 0 0 0 .528.525h.55v2.125a.518.518 0 0 0 .515.515h.574a.517.517 0 0 0 .515-.515l.01-7.631a.527.527 0 0 0-.525-.525" class="cls-19" transform="translate(-672.697 359.235)"/></g><g id="g494" transform="translate(39.448 94.992)"><path id="path496" d="M621.97-352.578v3.7a.7.7 0 0 1-.7.7h-3.7a.7.7 0 0 1-.7-.7v-3.7a.7.7 0 0 1 .7-.7h3.7a.7.7 0 0 1 .7.7" class="cls-25" transform="translate(-616.863 353.28)"/></g><g id="g498" transform="translate(47.235 94.989)"><path id="path500" d="M638.762-352.583v3.7a.7.7 0 0 1-.7.7h-3.7a.7.7 0 0 1-.7-.7v-3.7a.7.7 0 0 1 .7-.7h3.7a.7.7 0 0 1 .7.7" class="cls-24" transform="translate(-633.658 353.285)"/></g><g id="g502" transform="translate(55.022 94.988)"><path id="path504" d="M655.554-352.587v3.7a.7.7 0 0 1-.7.7h-3.7a.7.7 0 0 1-.7-.7v-3.7a.7.7 0 0 1 .7-.7h3.7a.7.7 0 0 1 .7.7" class="cls-26" transform="translate(-650.453 353.288)"/></g><g id="g506" transform="translate(53.718 101.666)"><path id="path508" d="M654.072-335.07l-2.618 2.616a.7.7 0 0 1-.991 0l-2.618-2.616a.7.7 0 0 1 0-.991l2.618-2.617a.7.7 0 0 1 .991 0l2.618 2.617a.7.7 0 0 1 0 .991" class="cls-19" transform="translate(-647.639 338.885)"/></g><g id="g510" transform="translate(45.268 113.306)"><path id="path512" d="M632.329-313.528l-1.791-.1s-1.1-.613-1.121.6 1.8 12.134 1.8 12.134a2.088 2.088 0 0 0 1.19.116c.373-6.133.281-12.457-.081-12.751" class="cls-29" transform="translate(-629.416 313.783)"/></g><g id="g514" transform="translate(42.883 112.753)"><path id="path516" d="M627.379-314.819h-1.784a.744.744 0 0 0-1.2.6c-.187 1.214-.1 12.775-.1 12.775.359.257 1.081 0 1.081 0 .976-2.194 2.007-13.375 2.007-13.375" class="cls-29" transform="translate(-624.272 314.974)"/></g><g id="g518" transform="translate(44.663 102.994)"><path id="path520" d="M628.111-333.69h1.932v-2.333h-1.932v2.333" class="cls-24" transform="translate(-628.111 336.022)"/></g><g id="g522" transform="translate(43.905 100.55)"><path id="path524" d="M628.987-340.9a.61.61 0 0 1-.411-.06 1.825 1.825 0 0 0-2.1 0 .435.435 0 0 1 .352.443 2.279 2.279 0 0 0 1.025 3.309.714.714 0 0 0 .693 0 2.431 2.431 0 0 0 1.209-1.431c.316-1.114.177-2.429-.77-2.253" class="cls-20" transform="translate(-626.477 341.292)"/></g><g id="g526" transform="translate(42.541 104.918)"><path id="path528" d="M629.066-331.407l-1.3-.464h-2.313l-1.277.464a1.062 1.062 0 0 0-.638.972v7.683c0 1.058 6.17 1.058 6.17 0v-7.683a1.059 1.059 0 0 0-.638-.972" class="cls-19" transform="translate(-623.534 331.872)"/></g><g id="g530" transform="translate(44.327 104.657)"><path id="path532" d="M629.88-332.124a2.079 2.079 0 0 1-2.495 0 3.109 3.109 0 0 0 .29-.312 1.8 1.8 0 0 0 1.913 0 3.6 3.6 0 0 0 .292.312" class="cls-7" transform="translate(-627.385 332.436)"/></g><g id="g534" transform="translate(46.855 125.777)"><path id="path536" d="M634.534-286.394a.746.746 0 0 0-.8-.494.748.748 0 0 0-.806.494.129.129 0 0 0-.085.131c0 .075.047.137.1.137h1.574c.058 0 .1-.062.1-.137a.126.126 0 0 0-.085-.131" class="cls-20" transform="translate(-632.838 286.887)"/></g><g id="g538" transform="translate(42.623 125.78)"><path id="path540" d="M625.406-286.387a.746.746 0 0 0-.805-.494.748.748 0 0 0-.805.494.126.126 0 0 0-.084.131c0 .075.046.137.1.137h1.575c.057 0 .1-.062.1-.137a.128.128 0 0 0-.086-.131" class="cls-20" transform="translate(-623.712 286.881)"/></g><g id="g542" transform="translate(55.268 104.629)"><path id="path544" d="M651.581-332.431c-.11-.039-.6 1.073-.6 1.073l.361.393a2.544 2.544 0 0 0 1.371-.919.165.165 0 0 0 .009-.133.7.7 0 0 0-.522-.473.179.179 0 0 0-.156.034 2.979 2.979 0 0 0-.447.468c.009-.029.108-.432-.019-.443" class="cls-24" transform="translate(-650.983 332.495)"/></g><g id="g546" transform="translate(46.926 105.69)"><path id="path548-2" d="M641.271-330.207c-.855.669-3.023 1.48-3.73 1.927 0 0-2.7-.947-3.012-1.534l-1.538 1.3s3.185 1.819 4.077 1.762c1.25-.087 4.737-2.917 4.737-2.917-.063-.335-.534-.537-.534-.537" class="cls-19" data-name="path548" transform="translate(-632.992 330.207)"/></g><g id="g550" transform="translate(40.601 97.515)"><path id="path552-2" d="M620.659-346.926c.074.089-.777.952-.777.952l-.5-.191a2.551 2.551 0 0 1 .349-1.615.163.163 0 0 1 .12-.057.709.709 0 0 1 .632.311.183.183 0 0 1 .025.16 3.042 3.042 0 0 1-.269.586c.023-.02.359-.258.42-.146" class="cls-24" data-name="path552" transform="translate(-619.35 347.837)"/></g><g id="g554" transform="translate(39.497 99.093)"><path id="path556-2" d="M618.7-344.128c-.308 1.04-.265 3.357-.42 4.178 0 0 1.875 2.159 2.536 2.235l-.64 1.909s-2.865-2.292-3.139-3.142c-.381-1.193.968-5.479.968-5.479.334-.064.7.3.7.3" class="cls-19" data-name="path556" transform="translate(-616.97 344.435)"/></g><g id="g558" transform="translate(86.458 119.35)"><path id="path560-2" d="M718.249-293.541h7.827v-7.207h-7.827v7.207" class="cls-35" data-name="path560" transform="translate(-718.249 300.748)"/></g><g id="g562" transform="translate(85.44 119.359)"><path id="path564-2" d="M716.053-298.073h7.769l1.077-2.655h-7.769l-1.077 2.655" class="cls-24" data-name="path564" transform="translate(-716.053 300.728)"/></g><g id="g566" transform="translate(94.274 119.351)"><path id="path568-2" d="M739.726-293.538H735.1v-7.207h4.623v7.207" class="cls-34" data-name="path568" transform="translate(-735.104 300.745)"/></g><g id="g570" transform="translate(94.314 119.368)"><path id="path572-2" d="M740.831-298.054h-4.565l-1.076-2.655h4.565l1.076 2.655" class="cls-24" data-name="path572" transform="translate(-735.191 300.709)"/></g><g id="g578" transform="translate(18.655 123.494)"><path id="path580-2" d="M572.08-290.375l2.486-1.436v3.073l-2.486-1.436a.115.115 0 0 1 0-.2" class="cls-24" data-name="path580" transform="translate(-572.021 291.811)"/></g><path id="path582-2" d="M28.489 192.745l-.707-.409a.115.115 0 0 1 0-.2l.707-.409c.348 0 .348 1.019 0 1.019" class="cls-29" data-name="path582" transform="translate(-9.037 -67.222)"/><g id="g584" transform="translate(20.442 123.492)"><path id="path586-2" d="M576.47-289.674l-.539-.481a.165.165 0 0 1 0-.247l.539-.481-.539-.486-.021-.026.728-.42h19.906a.5.5 0 0 1 .5.5v2.079a.5.5 0 0 1-.5.5h-19.906l-.728-.422.021-.028.539-.481" class="cls-23" data-name="path586" transform="translate(-575.875 291.815)"/></g><g id="g588" transform="translate(38.422 123.492)"><path id="path590-2" d="M614.652-291.815h2.689a.5.5 0 0 1 .5.5v2.079a.5.5 0 0 1-.5.5h-2.689v-3.072" class="cls-28" data-name="path590" transform="translate(-614.652 291.815)"/></g><g id="g592" transform="translate(38.068 123.493)"><path id="path594-2" d="M614.705-291.813v3.072h-.818v-3.072h.818" class="cls-7" data-name="path594" transform="translate(-613.887 291.813)"/></g></g></g></g></svg>