<svg xmlns="http://www.w3.org/2000/svg" id="artboard-svg" width="50" height="50" viewBox="0 0 18 18"><defs><style>.cls-1 { clip-path: url(#clip-Mobile_Page_-_3); } .cls-2 { fill: #cfe6f4; } .cls-3 { fill: #3a65b9; } .cls-4 { fill: #3751ab; } .cls-5 { fill: #3f77c4; } .cls-6 { fill: #f7941d; } .cls-7 { fill: #f36d21; } .cls-8 { fill: #f0b93a; } .cls-9 { fill: #f49477; } .cls-10, .cls-19 { fill: #fff; } .cls-11 { fill: #343054; } .cls-12 { fill: #1e1d33; } .cls-13 { fill: #4c4685; } .cls-14 { fill: #252334; } .cls-15 { fill: #4e4e8a; } .cls-16 { fill: #f36156; } .cls-17 { fill: #f04147; } .cls-18 { fill: #1c1a2c; } .cls-19 { font-size: 30px; font-family: Montserrat-Bold, Montserrat; font-weight: 700; } .cls-20, .cls-21 { fill: #eee; } .cls-21 { font-size: 10px; } .cls-21, .cls-23, .cls-26 { font-family: Montserrat-Regular, Montserrat; } .cls-22 { fill: #566cff; } .cls-23, .cls-25, .cls-26 { fill: #9e9e9e; } .cls-23 { font-size: 12px; } .cls-24 { fill: none; stroke: #bdbdbd; } .cls-26 { font-size: 9px; } .cls-27 { filter: url(#Ellipse_1); } .cls-28 { filter: url(#Rectangle_10); }</style><filter id="Rectangle_10" width="318" height="370" x="29" y="400" filterUnits="userSpaceOnUse"><feOffset dy="3"/><feGaussianBlur result="blur" stdDeviation="3"/><feFlood flood-opacity=".161"/><feComposite in2="blur" operator="in"/><feComposite in="SourceGraphic"/></filter><filter id="Ellipse_1" width="63" height="63" x="156" y="694" filterUnits="userSpaceOnUse"><feOffset dy="3"/><feGaussianBlur result="blur-2" stdDeviation="3"/><feFlood flood-opacity=".161"/><feComposite in2="blur-2" operator="in"/><feComposite in="SourceGraphic"/></filter><clipPath id="clip-Mobile_Page_-_3"><path d="M0 0h375v812H0z"/></clipPath></defs><g transform="translate(-208 -777)"><g id="Mobile_Page_-_3" class="cls-1" data-name="Mobile Page - 3"><g id="Group_11" data-name="Group 11" transform="translate(19)"><path id="iconmonstr-youtube-10" d="M9.5 4.156c-1.172-.08-3.782-.079-4.951 0-1.267.087-1.416.852-1.426 2.866.01 2.011.158 2.78 1.426 2.866 1.17.079 3.78.08 4.951 0 1.267-.087 1.416-.853 1.426-2.866-.011-2.011-.159-2.78-1.427-2.866zM5.852 8.323v-2.6l2.8 1.3zm1.17-7.153A5.852 5.852 0 1 1 1.17 7.022 5.859 5.859 0 0 1 7.022 1.17zm0-1.17a7.022 7.022 0 1 0 7.022 7.022A7.023 7.023 0 0 0 7.022 0z" class="cls-25" transform="translate(189.008 777)"/></g></g></g></svg>